<?xml version="1.0" encoding="UTF-8"?>
<svg xmlns="http://www.w3.org/2000/svg" xmlns:xlink="http://www.w3.org/1999/xlink" viewBox="0 0 558.48 570.38">
  <defs>
    <style>
      .cls-1 {
        fill: url(#_Безымянный_градиент_107);
      }

      .cls-2 {
        fill: #b1c4d6;
      }

      .cls-3 {
        fill: #202c39;
      }

      .cls-4 {
        fill: url(#_Безымянный_градиент_15);
      }

      .cls-5 {
        fill: #263441;
      }

      .cls-6 {
        fill: #545a5f;
      }

      .cls-7 {
        fill: url(#_Безымянный_градиент_93);
      }

      .cls-8 {
        fill: #534037;
      }

      .cls-9 {
        fill: url(#_Безымянный_градиент_109);
      }

      .cls-10 {
        fill: url(#_Безымянный_градиент_97);
      }

      .cls-11 {
        stroke: #376ea1;
      }

      .cls-11, .cls-12, .cls-13 {
        fill: none;
        stroke-miterlimit: 10;
      }

      .cls-11, .cls-13 {
        stroke-width: 5px;
      }

      .cls-14 {
        fill: #213954;
      }

      .cls-15 {
        fill: url(#_Безымянный_градиент_102);
      }

      .cls-16 {
        fill: #c3d4e7;
      }

      .cls-17 {
        fill: #fff;
      }

      .cls-18 {
        fill: #8dc3dd;
      }

      .cls-19 {
        fill: #dabea3;
      }

      .cls-20 {
        fill: #d3afaf;
      }

      .cls-12 {
        stroke-width: 4px;
      }

      .cls-12, .cls-13 {
        stroke: #101e32;
      }

      .cls-21 {
        fill: url(#_Безымянный_градиент_14);
      }

      .cls-22 {
        fill: url(#_Безымянный_градиент_95);
      }

      .cls-23 {
        fill: #9e9898;
      }

      .cls-24 {
        fill: url(#_Безымянный_градиент_106);
      }

      .cls-25 {
        fill: #e1e1e1;
      }

      .cls-26 {
        fill: #3776aa;
      }

      .cls-27 {
        fill: #96b4d3;
      }

      .cls-28 {
        fill: #c1c4c6;
      }

      .cls-29 {
        fill: url(#_Безымянный_градиент_101);
      }

      .cls-30 {
        fill: #6c7885;
      }

      .cls-31 {
        fill: url(#_Безымянный_градиент_110);
      }

      .cls-32 {
        fill: #808891;
      }

      .cls-33 {
        fill: url(#_Безымянный_градиент_96);
      }

      .cls-34 {
        fill: #9da3a4;
      }

      .cls-35 {
        fill: #11202f;
      }

      .cls-36 {
        fill: url(#_Безымянный_градиент_104);
      }

      .cls-37 {
        fill: #58626d;
      }

      .cls-38 {
        fill: url(#_Безымянный_градиент_89);
      }

      .cls-39 {
        fill: #b4b4b5;
      }

      .cls-40 {
        fill: #306b9a;
      }

      .cls-41 {
        fill: #6da4cb;
      }

      .cls-42 {
        fill: url(#_Безымянный_градиент_103);
      }

      .cls-43 {
        fill: #685e61;
      }

      .cls-44 {
        fill: #72767c;
      }

      .cls-45 {
        fill: #b1b7bd;
      }

      .cls-46 {
        fill: #191019;
      }

      .cls-47 {
        fill: #5181b1;
      }

      .cls-48 {
        fill: url(#_Безымянный_градиент_11);
      }

      .cls-49 {
        fill: url(#_Безымянный_градиент_98);
      }

      .cls-50 {
        fill: url(#_Безымянный_градиент_88);
      }

      .cls-51 {
        fill: #536474;
      }

      .cls-52 {
        fill: url(#_Безымянный_градиент_108);
      }

      .cls-53 {
        fill: url(#_Безымянный_градиент_105);
      }

      .cls-54 {
        fill: #d1a27a;
      }

      .cls-55 {
        fill: #10497f;
      }

      .cls-56 {
        fill: #438596;
      }

      .cls-57 {
        fill: #979c9f;
      }

      .cls-58 {
        fill: #31475b;
      }

      .cls-59 {
        fill: url(#_Безымянный_градиент_111);
      }

      .cls-60 {
        fill: #8b8e93;
      }

      .cls-61 {
        fill: url(#_Безымянный_градиент_100);
      }

      .cls-62 {
        fill: #ebebeb;
      }

      .cls-63 {
        fill: #80a3c6;
      }

      .cls-64 {
        fill: #1c588f;
      }

      .cls-65 {
        fill: #2e537f;
      }

      .cls-66 {
        fill: #7096bd;
      }

      .cls-67 {
        fill: url(#_Безымянный_градиент_36);
      }

      .cls-68 {
        fill: url(#_Безымянный_градиент_92);
      }

      .cls-69 {
        fill: #ced5d9;
      }

      .cls-70 {
        fill: #fefefe;
      }

      .cls-71 {
        fill: url(#_Безымянный_градиент_94);
      }

      .cls-72 {
        fill: url(#_Безымянный_градиент_13);
      }

      .cls-73 {
        fill: url(#_Безымянный_градиент_8);
      }

      .cls-74 {
        fill: #465261;
      }

      .cls-75 {
        fill: #debd9e;
      }

      .cls-76 {
        fill: url(#_Безымянный_градиент_91);
      }

      .cls-77 {
        fill: url(#_Безымянный_градиент_90);
      }

      .cls-78 {
        fill: #438ab9;
      }

      .cls-79 {
        fill: #376ea1;
      }

      .cls-80 {
        fill: #101e32;
      }
    </style>
    <linearGradient id="_Безымянный_градиент_11" data-name="Безымянный градиент 11" x1="270.48" y1="578.59" x2="279.96" y2="354.91" gradientTransform="translate(0 0)" gradientUnits="userSpaceOnUse">
      <stop offset="0" stop-color="#083b77"/>
      <stop offset="1" stop-color="#2f6a9f"/>
    </linearGradient>
    <linearGradient id="_Безымянный_градиент_8" data-name="Безымянный градиент 8" x1="275.45" y1="342.65" x2="280.02" y2="234.84" gradientUnits="userSpaceOnUse">
      <stop offset="0" stop-color="#618db9"/>
      <stop offset=".17" stop-color="#5081af"/>
      <stop offset=".47" stop-color="#3970a2"/>
      <stop offset=".75" stop-color="#2b669a"/>
      <stop offset="1" stop-color="#276398"/>
    </linearGradient>
    <linearGradient id="_Безымянный_градиент_13" data-name="Безымянный градиент 13" x1="765.66" y1="-110.44" x2="626.47" y2="62.73" gradientTransform="translate(9.29 324.01) scale(.62 -.62)" gradientUnits="userSpaceOnUse">
      <stop offset="0" stop-color="#6b94bb"/>
      <stop offset="1" stop-color="#9eb4cf"/>
    </linearGradient>
    <linearGradient id="_Безымянный_градиент_15" data-name="Безымянный градиент 15" x1="436.86" y1="-56.58" x2="439.73" y2=".69" gradientTransform="translate(9.29 324.01) scale(.62 -.62)" gradientUnits="userSpaceOnUse">
      <stop offset="0" stop-color="#84a6cb"/>
      <stop offset="1" stop-color="#acc2dc"/>
    </linearGradient>
    <linearGradient id="_Безымянный_градиент_88" data-name="Безымянный градиент 88" x1="814.48" y1="-28.45" x2="777.06" y2="59.07" gradientTransform="translate(12.14 257.06) scale(.5 -.5)" gradientUnits="userSpaceOnUse">
      <stop offset="0" stop-color="#2b394b"/>
      <stop offset="1" stop-color="#43505b"/>
    </linearGradient>
    <linearGradient id="_Безымянный_градиент_89" data-name="Безымянный градиент 89" x1="590.2" y1="4.08" x2="583.73" y2="-3.7" gradientTransform="translate(12.14 257.06) scale(.5 -.5)" gradientUnits="userSpaceOnUse">
      <stop offset="0" stop-color="#65add8"/>
      <stop offset="1" stop-color="#86cbf2"/>
    </linearGradient>
    <linearGradient id="_Безымянный_градиент_90" data-name="Безымянный градиент 90" x1="604.77" y1="167.79" x2="653.35" y2="112.02" gradientTransform="translate(12.14 257.06) scale(.5 -.5)" gradientUnits="userSpaceOnUse">
      <stop offset="0" stop-color="#d8d8dc"/>
      <stop offset="1" stop-color="#fff"/>
    </linearGradient>
    <linearGradient id="_Безымянный_градиент_91" data-name="Безымянный градиент 91" x1="469.15" y1="139.39" x2="470.39" y2="119.2" gradientTransform="translate(12.14 257.06) scale(.5 -.5)" gradientUnits="userSpaceOnUse">
      <stop offset="0" stop-color="#90bae4"/>
      <stop offset="1" stop-color="#a3daf7"/>
    </linearGradient>
    <linearGradient id="_Безымянный_градиент_92" data-name="Безымянный градиент 92" x1="453.86" y1="163.3" x2="459.71" y2="178.31" gradientTransform="translate(12.14 257.06) scale(.5 -.5)" gradientUnits="userSpaceOnUse">
      <stop offset="0" stop-color="#85919a"/>
      <stop offset="1" stop-color="#afb8be"/>
    </linearGradient>
    <linearGradient id="_Безымянный_градиент_93" data-name="Безымянный градиент 93" x1="721.44" y1="267.96" x2="716.85" y2="281.6" gradientTransform="translate(12.14 257.06) scale(.5 -.5)" gradientUnits="userSpaceOnUse">
      <stop offset="0" stop-color="#5b6a7a"/>
      <stop offset="1" stop-color="#77838d"/>
    </linearGradient>
    <linearGradient id="_Безымянный_градиент_94" data-name="Безымянный градиент 94" x1="733.62" y1="286.89" x2="695.46" y2="278.34" gradientTransform="translate(12.14 257.06) scale(.5 -.5)" gradientUnits="userSpaceOnUse">
      <stop offset="0" stop-color="#88919e"/>
      <stop offset="1" stop-color="#a4adad"/>
    </linearGradient>
    <linearGradient id="_Безымянный_градиент_95" data-name="Безымянный градиент 95" x1="638.48" y1="216.05" x2="642.41" y2="197.69" gradientTransform="translate(12.14 257.06) scale(.5 -.5)" gradientUnits="userSpaceOnUse">
      <stop offset="0" stop-color="#8d8d94"/>
      <stop offset="1" stop-color="#ccd2d4"/>
    </linearGradient>
    <linearGradient id="_Безымянный_градиент_96" data-name="Безымянный градиент 96" x1="635.73" y1="388.85" x2="633.93" y2="372.53" gradientTransform="translate(12.14 257.06) scale(.5 -.5)" gradientUnits="userSpaceOnUse">
      <stop offset="0" stop-color="#6c7681"/>
      <stop offset="1" stop-color="#8c8a8b"/>
    </linearGradient>
    <linearGradient id="_Безымянный_градиент_97" data-name="Безымянный градиент 97" x1="748.21" y1="314.38" x2="700.86" y2="315.32" gradientTransform="translate(12.14 257.06) scale(.5 -.5)" gradientUnits="userSpaceOnUse">
      <stop offset="0" stop-color="#64707e"/>
      <stop offset="1" stop-color="#888f97"/>
    </linearGradient>
    <linearGradient id="_Безымянный_градиент_98" data-name="Безымянный градиент 98" x1="715.95" y1="359.22" x2="686.64" y2="327.63" gradientTransform="translate(12.14 257.06) scale(.5 -.5)" gradientUnits="userSpaceOnUse">
      <stop offset="0" stop-color="#75848e"/>
      <stop offset="1" stop-color="#9e999d"/>
    </linearGradient>
    <linearGradient id="_Безымянный_градиент_36" data-name="Безымянный градиент 36" x1="257.11" y1="132.3" x2="218.8" y2="294.05" gradientTransform="translate(12.14 257.06) scale(.5 -.5)" gradientUnits="userSpaceOnUse">
      <stop offset="0" stop-color="#af3c3c"/>
      <stop offset=".21" stop-color="#ab3b3b"/>
      <stop offset=".42" stop-color="#9f3939"/>
      <stop offset=".61" stop-color="#8c3636"/>
      <stop offset=".81" stop-color="#723131"/>
      <stop offset="1" stop-color="#4f2c2c"/>
      <stop offset="1" stop-color="#4f2c2c"/>
    </linearGradient>
    <linearGradient id="_Безымянный_градиент_100" data-name="Безымянный градиент 100" x1="647.09" y1="479.35" x2="546.82" y2="354.77" gradientTransform="translate(12.14 257.06) scale(.5 -.5)" gradientUnits="userSpaceOnUse">
      <stop offset="0" stop-color="#233c61"/>
      <stop offset="1" stop-color="#426490"/>
    </linearGradient>
    <linearGradient id="_Безымянный_градиент_101" data-name="Безымянный градиент 101" x1="452.99" y1="389.36" x2="445.03" y2="402.91" gradientTransform="translate(12.14 257.06) scale(.5 -.5)" gradientUnits="userSpaceOnUse">
      <stop offset="0" stop-color="#4a6186"/>
      <stop offset="1" stop-color="#677da3"/>
    </linearGradient>
    <linearGradient id="_Безымянный_градиент_102" data-name="Безымянный градиент 102" x1="405.83" y1="37.73" x2="412.18" y2="90.68" gradientTransform="translate(12.14 257.06) scale(.5 -.5)" gradientUnits="userSpaceOnUse">
      <stop offset="0" stop-color="#5c6776"/>
      <stop offset="1" stop-color="#9a9899"/>
    </linearGradient>
    <linearGradient id="_Безымянный_градиент_103" data-name="Безымянный градиент 103" x1="644.14" y1="400.14" x2="622.4" y2="487.51" gradientTransform="translate(12.14 257.06) scale(.5 -.5)" gradientUnits="userSpaceOnUse">
      <stop offset="0" stop-color="#c7cacc"/>
      <stop offset="1" stop-color="#f4f3f2"/>
    </linearGradient>
    <linearGradient id="_Безымянный_градиент_104" data-name="Безымянный градиент 104" x1="583.85" y1="421.69" x2="604.6" y2="442.24" gradientTransform="translate(12.14 257.06) scale(.5 -.5)" gradientUnits="userSpaceOnUse">
      <stop offset="0" stop-color="#a1abb4"/>
      <stop offset="1" stop-color="#cbcdcb"/>
    </linearGradient>
    <linearGradient id="_Безымянный_градиент_105" data-name="Безымянный градиент 105" x1="298.4" y1="124.43" x2="376.44" y2="109.73" gradientTransform="translate(12.14 257.06) scale(.5 -.5)" gradientUnits="userSpaceOnUse">
      <stop offset="0" stop-color="#091527"/>
      <stop offset="1" stop-color="#2d3d4d"/>
    </linearGradient>
    <linearGradient id="_Безымянный_градиент_106" data-name="Безымянный градиент 106" x1="610.76" y1="136.51" x2="620.57" y2="116.2" gradientTransform="translate(12.14 257.06) scale(.5 -.5)" gradientUnits="userSpaceOnUse">
      <stop offset="0" stop-color="#777d84"/>
      <stop offset="1" stop-color="#979ba2"/>
    </linearGradient>
    <linearGradient id="_Безымянный_градиент_107" data-name="Безымянный градиент 107" x1="564.22" y1="134.25" x2="581.76" y2="146.18" gradientTransform="translate(12.14 257.06) scale(.5 -.5)" gradientUnits="userSpaceOnUse">
      <stop offset="0" stop-color="#253348"/>
      <stop offset="1" stop-color="#3d4b5a"/>
    </linearGradient>
    <linearGradient id="_Безымянный_градиент_108" data-name="Безымянный градиент 108" x1="378.31" y1="336.27" x2="354.15" y2="390.47" gradientTransform="translate(12.14 257.06) scale(.5 -.5)" gradientUnits="userSpaceOnUse">
      <stop offset="0" stop-color="#95a0ab"/>
      <stop offset="1" stop-color="#dadbde"/>
    </linearGradient>
    <linearGradient id="_Безымянный_градиент_109" data-name="Безымянный градиент 109" x1="704.04" y1="371.48" x2="692.12" y2="354.54" gradientTransform="translate(12.14 257.06) scale(.5 -.5)" gradientUnits="userSpaceOnUse">
      <stop offset="0" stop-color="#506172"/>
      <stop offset="1" stop-color="#73777f"/>
    </linearGradient>
    <linearGradient id="_Безымянный_градиент_110" data-name="Безымянный градиент 110" x1="681.85" y1="211.04" x2="669.27" y2="219.76" gradientTransform="translate(12.14 257.06) scale(.5 -.5)" gradientUnits="userSpaceOnUse">
      <stop offset="0" stop-color="#6d7a8e"/>
      <stop offset="1" stop-color="#9098a7"/>
    </linearGradient>
    <linearGradient id="_Безымянный_градиент_111" data-name="Безымянный градиент 111" x1="695.92" y1="357.15" x2="651.8" y2="354.27" gradientTransform="translate(12.14 257.06) scale(.5 -.5)" gradientUnits="userSpaceOnUse">
      <stop offset="0" stop-color="#80858e"/>
      <stop offset="1" stop-color="#b0b0b2"/>
    </linearGradient>
    <linearGradient id="_Безымянный_градиент_14" data-name="Безымянный градиент 14" x1="430.25" y1="-138.08" x2="440.18" y2="-35.95" gradientTransform="translate(9.29 324.01) scale(.62 -.62)" gradientUnits="userSpaceOnUse">
      <stop offset="0" stop-color="#afc6dd"/>
      <stop offset="1" stop-color="#dde8f6"/>
    </linearGradient>
  </defs>
  <g id="_Слой_1" data-name="Слой 1">
    <path class="cls-48" d="M485.17,131.89H72.3c-24.11,0-44.23,16.99-49.02,39.62v398.87h512V181.89c0-27.61-22.43-50-50.11-50Z"/>
    <path class="cls-73" d="M485.17,131.89H72.3c-24.11,0-44.23,16.99-49.02,39.62v161.51h512v-151.14c0-27.61-22.43-50-50.11-50Z"/>
    <path class="cls-66" d="M500,229.97c4.52,9.32,6.24,10.7,18.3,13.01-7.18,2.28-18.05,4.51-15.46,12.42,3.83.72,8.39,1.27,13.53,1.33,7.53.08,13.96-.94,18.91-2.12,0,9.7,0,19.41,0,29.11,0,11.48,0,22.95,0,34.43-.65.47-1.74,1.24-3.18,2.06-14.16,8.05-32.17,2.01-40.43,2.62-2.26.17-4.68-1.47-6.97-1.28-6.12.5-12.25,2.38-18.38,2.77-39.34,2.47-78.77,2.59-118.11,5.23-7.84.53-16.49-.51-24.25-1.09-2.47-.19-5.04,1.31-7.82,2.15-9.95,2.99-12.26,4.69-18.33,6.06-5.89,1.34-10.6,1.31-13.02,1.28-4.87-.06-12.74-.78-21.96-4.6-35.11-8.64-78.11-15.25-127.09-14.33-15.28.29-29.79,1.28-43.45,2.77-1.02.3-1.9.76-2.6.57-10.49,1.71-21.51,3.26-33.02,4.56-11.58,1.31-22.73,2.26-33.4,2.93,0-4.59,0-9.18.01-13.76,0-5.03,0-10.06-.01-15.09,26.67-4.17,45.78-7.18,51.61-7.68,2.34-.2,6.31-.58,9.28-3.29,3.16-2.89,1.24-5.46,10.31,1.62,1.12.88,8.14.43,10.69.45.19,1.49.26,1.64.85,3.08l2.32.06c1.37-1.19,2.4-2.17,3.66-3.44,6.92-1.78.74.06,5.3,1.2l-.12-1.25c9.07-6.81,290.44-26.63,322.44-28.96l5.84-.35c10.27-.89,20.8-2.11,31.07-3.2,5.46-.58,17.91-1.13,22.57-2.12,1.44-3.67-1.22-6.97-3.29-10.45l-13.17-3.44c12.12-2.84,13.68-3.01,17.35-13.22Z"/>
    <path class="cls-27" d="M94.9,322.34c-1.5-2.89-3.07-2.01-4.08-4.68,2.82-2.83,3.34-3.69,5.34-6.9,1.81,1.93,4.46,4.25,6.44,6.19-.28,2.41-2.1,2.74-5.14,4.82-1.01.3-1.87.76-2.57.57Z"/>
    <path class="cls-27" d="M440.75,262.75l5.78-.35c-.93,3.89-.7,6.45-5.2,8.31l-1.41-1.06c-.88-2.76-.08-4.12.84-6.9Z"/>
    <path class="cls-27" d="M392.99,299.5c2.95.49,2.18.01,4.09,1.55.25,7.81,3.84,2.74,7.16,6-6.64,2.24-6.05.94-8.66,5.02.71,1.13.59.7.55,1.94-3.21-2.54-5.19-4.27-8.08-7.06,4.69-3.32,3.75-2.58,4.94-7.45Z"/>
    <path class="cls-16" d="M363.98,307.47c1.65,2.69,3.27,3.9,5.73,6.05.25,2.49-2.86,4.49-5.42,7.37l-.59-.06c-1.96-3.02-4.31-3.98-4.7-6.96,3.02-2.43,3.53-3.11,4.97-6.4Z"/>
    <path class="cls-63" d="M446.39,295.22c-1.51-1.28-6.42-3.87-8.47-5.02l.04-.92c3.96-1.6,13.32-2.02,17.14-.19-2.97,1.11-2.2.14-4.88,1.83-1.04,1.49-2.13,3.5-3.82,4.3Z"/>
    <path class="cls-63" d="M450.21,290.92c7.91,0,14.37-.71,22.88-.59l.43.43c-3.31.18-16.23.52-18.16,1.67l.68,1.21c1.67.34,1.77.57,3.22.26l-2.58,2.26c-3.67-1.55-4.61,1.16-10.3-.93,1.69-.81,2.78-2.81,3.82-4.3Z"/>
    <path class="cls-16" d="M335.17,298.66c1.75,1.48,3.78,3.04,5.6,4.49-2.01,1.45-4.28,3.37-6.23,4.94-2.13-3.35-3.23-2.52-4.62-5.05,2.03-1.51,3.41-2.71,5.25-4.38Z"/>
    <path class="cls-27" d="M488.21,300.42c1.4-.66,3.12-.62,4.46.1,1.34.72,2.09,2,1.94,3.32-.16,1.32-1.19,2.46-2.69,2.95-2.09.69-4.47-.08-5.44-1.76-.97-1.68-.22-3.7,1.73-4.62Z"/>
    <path class="cls-27" d="M404.94,315.51c1.51.9,2.61,2,3.88,3.13-.31,2.48-.95,2.19-3.77,4.23-2.57-.89-4.66-1.1-5.57-2.76,2.45-1.73,3.36-2.56,5.45-4.6Z"/>
    <path class="cls-16" d="M437.59,300.88c2.79,1.11,3.21,1.26,4.83,3.42.36,3.1.55,1.84-1.47,5.01-2.76-1.29-3.28-1.5-5.37-3.45-.28-2.93-.25-1.95,2.01-4.98Z"/>
    <path class="cls-27" d="M394.31,280.14c2.69.68,2.71.99,3.59,3-.51,2.72-.93,3.03-3.13,5.14-2.76-.87-1.69-.13-3.13-2.45.1-2.89.62-3.3,2.67-5.69Z"/>
    <path class="cls-16" d="M63.66,302.33c2.61,3.03,4.74,1.79,6.08,3.9l-3.3,2.75-.38.18-.14-.63c-3.2-.67-3.24-.89-4.34-3.22l2.07-2.98Z"/>
    <path class="cls-27" d="M459.26,293.89c3.57,1.64,3.55.97,4.69,3.65l-1.14,1.23c-3.17.14-4.24-.23-6.12-2.61l2.58-2.26Z"/>
    <path class="cls-16" d="M419.49,271.21c.97-.34,2.1-.22,2.95.31.84.54,1.26,1.41,1.1,2.28-.16.87-.87,1.6-1.87,1.91-1.49.46-3.15-.15-3.74-1.37-.59-1.22.1-2.62,1.57-3.13Z"/>
    <path class="cls-16" d="M202.66,310.18c1.15-.77,2.83-.68,3.86.21,1.03.89,1.05,2.29.05,3.2-.72.66-1.82.93-2.86.7-1.04-.23-1.83-.92-2.05-1.79-.23-.87.16-1.77,1-2.33Z"/>
    <path class="cls-27" d="M410.53,281.13c1.5-.23,2.93.57,3.25,1.8s-.59,2.45-2.05,2.76c-1,.21-2.05-.05-2.76-.67-.7-.62-.94-1.51-.61-2.32.32-.81,1.15-1.41,2.17-1.56Z"/>
    <path class="cls-63" d="M444.22,314.45l3.72.45.87,1-.7,3.12c-3.31-.85-3.55-.37-4.92-2.2l1.03-2.37Z"/>
    <path class="cls-27" d="M494.79,310.49c2.68.3,3.43.26,5.79,1.25l-.24,1.67-.53.11c-2.87-.86-3.14-1.04-5.02-3.03Z"/>
    <path class="cls-66" d="M27.93,275.32c3.76-.82,8.42-2.31,11.59.18-1.68,3.44-7.06,2.42-11.1,2.51l-.49-2.69Z"/>
    <path class="cls-66" d="M477.18,166.9c4.1,10.73,6.66,13.13,20.33,14.98-14.7,4.22-15.05,5.13-19.24,17.19-1.5-1.2-3.54-8.13-5.01-10.06-2.6-3.41-10.91-4.94-15.56-6.11,14.63-2.67,15.3-4.37,19.48-16Z"/>
    <path class="cls-63" d="M128.92,172.99c1.26,1.68,2.29,5.51,4.29,8.22,4.07,5.54,9.53,5.81,16.76,7.24-14.76,3.04-16.66,2.97-20.35,15.96-1.88-1.46-3.55-8.13-5.27-10.24-2.71-3.33-10.66-4.77-15.27-5.89,14.66-2.62,15.48-3.41,19.84-15.29Z"/>
    <path class="cls-63" d="M306.69,153.65c-1.05-.97,8.84,10.28,7.83,8.59l-.95.62c-4.13,2.72-3.97,1.79-6.25,6.02l-.45.83-1.23-.61c-2.7-7.54-3.21-3.66-7.87-6.61,5.6-2.76,6.18-2.94,8.52-7.98l.4-.87Z"/>
    <path class="cls-66" d="M106.44,144.05c1.32,3.77,1.87,3.2,4.4,6.29-2.51,2.56-2.92,3.08-3.6,6.32l-.15.75c-2.33-3.65-5.3-4.93-5.89-7.63,2.2-2.02,3.42-3.52,5.25-5.72Z"/>
    <path class="cls-66" d="M381.92,154.98c1.39,2.39,1.84,2.72,4.17,4.59l.62.49.03,1.57c-2.39,2.16-3.13,3.69-5.14,5.91-3.6-7.19-1.82-2.23-6.36-6.67,5.89-2.51,4.62-1.34,6.69-5.89Z"/>
    <path class="cls-66" d="M217.99,262.32c2.03.02,2.47.12,4.41.43,1.63,1.8,1.88,6.74,2.71,9.92-7.42-.08-9.94-5.31-7.12-10.36Z"/>
    <path class="cls-27" d="M375.77,249.7c4.14.67,6.47.57,9.13,2.84.44,2.44-.59,3.54-1.93,5.8-6.33-2.96-8.71-3.31-7.2-8.64Z"/>
    <path class="cls-62" d="M233.33,233.34c1.94-1.24,4.72-.94,6.22.67,1.5,1.6,1.14,3.91-.8,5.15-1.94,1.24-4.72.94-6.22-.66-1.5-1.61-1.14-3.91.8-5.15Z"/>
    <path class="cls-79" d="M50.86,210.72c3.85.36,7.74.05,9.14,3.34l-1.14,1.66c-4.22,1.16-3.03,1.34-6.58.7-1.84-2.03-1.48-3.06-1.42-5.7Z"/>
    <path class="cls-63" d="M114.02,255.85c1.81,1.11,2.28,1.75,3.62,3.19-.34,2.46-1.59,2.99-3.74,5.17-.67.03-1.52-.61-2.31-1.02-2.46-4.03-.78-4.7,2.42-7.34Z"/>
    <path class="cls-63" d="M74.66,252.14c.11-.01,2.61-.23,4.09,1.79,1.02,1.4,1.13,3.31.26,4.85-.47-.09-1.08-.12-1.75.06-2.32.61-3.16,3.22-3.24,3.48-.67.03-1.52-.61-2.31-1.02-.38-.55-1.19-1.88-1.12-3.64.1-2.32,1.69-4.44,4.07-5.51Z"/>
    <path class="cls-16" d="M204.49,271.08c1.82-.59,3.88.04,4.81,1.47s.41,3.2-1.18,4.13c-1.23.71-2.83.77-4.13.17-1.3-.61-2.05-1.78-1.95-3.01.1-1.23,1.05-2.3,2.44-2.75Z"/>
    <path class="cls-27" d="M181.12,256.12c2.25.82,2.78,1.21,4.78,2.45.12,2.47-1.02,2.76-3.28,5.13-.81.37-.65.17-1.96,0-2.8-3.52-1.91-4.49.47-7.58Z"/>
    <path class="cls-66" d="M438.89,253.49c2.15,2.12,3.29,3.15,2.05,5.76l-2.78.51c-1.98-.15-1.91-.05-3.51-.98.5-2.5,1.92-3.08,4.24-5.28Z"/>
    <path class="cls-27" d="M322.27,192.2c1.66-.43,3.43.31,4,1.67.58,1.36-.27,2.85-1.9,3.36-1.09.34-2.32.17-3.22-.46-.9-.63-1.31-1.61-1.07-2.56.23-.95,1.07-1.72,2.19-2.01Z"/>
    <path class="cls-66" d="M400.24,242.12c1.88.27,3.8.64,5.68.97,1.47,1.77,1,1.2.47,4.05-2.43.14-2.34.09-4.71-.54-1.87-2.12-1.29-1.4-1.43-4.48Z"/>
    <path class="cls-66" d="M433.57,172.73c1.32-.81,3.17-.58,4.14.51.97,1.09.68,2.63-.64,3.42-1.32.79-3.14.55-4.11-.53-.96-1.08-.69-2.6.61-3.41Z"/>
    <path class="cls-27" d="M375.17,209.85c3.23-.06,4.17-.2,7.15.76l.72,1.45c-2.96.59-4.05,1.23-6.69.58l-1.18-2.79Z"/>
    <path class="cls-79" d="M128.75,146.06l1.87,1.08c.41,2.29-.39,2.35-2.28,4.74h-1.27c-.51-2.29.55-3.35,1.68-5.82Z"/>
    <path class="cls-27" d="M333.73,213.79c.68-.41,1.57-.48,2.32-.18.76.3,1.26.91,1.32,1.6.05.69-.35,1.35-1.05,1.73-1.05.55-2.44.32-3.14-.54-.69-.85-.45-2.01.56-2.61Z"/>
    <path class="cls-63" d="M161.51,207.21c.62,1.68.4,2.61.27,4.35l-1.2.82-.59-.19-.51-1.02,2.03-3.96Z"/>
    <path class="cls-79" d="M268.19,333.84c8.78,2.76,15.76,2.86,20.55,2.43,1.88-.17.53-.16,12.25-2.23,8.75-1.54,12.18-2.02,17.96-3.45,4.68-1.16,5.27-2.34,7.74-2.15,7.67.58,16.23,1.62,23.99,1.09,38.91-2.64,77.92-2.76,116.83-5.23,6.06-.38,12.13-2.26,18.18-2.77,2.26-.19,4.65,1.45,6.89,1.28,13.12-1.54,26.86-1.4,40-2.62,1.55-.14,2.01-1.44,2.71-2.5l-.19,25.34c.18,7.59.2,15.18.05,22.77l.04,12.53v4.58c-25.12-1.94-53.36-7.52-78-9.28-5.05-1.22-18.23-2.62-24.02-3.31l-45.11-5.3-55.66-6.88c-7.1-.87-27.56-3.69-33.92-3.29-15.28.95-35.59,5.18-50.89,7.66l-106.88,17.8c-14.1,2.36-37.25,6.82-50.75,8.41-6.63-1.33-12.19,1.26-14.71.96l-.19-1.88c2.9-2.04,9.09-1.88,13.24-4.44-19.88,2.77-40.14,6.79-60.2,9.75-1.25-14.8-.5-30.41.28-45.23l-.17-4.41.33-8.95-.49-4.01,2.38-.87c6.96.49,56.53-5.42,64.53-7.32.27-.02.68-.06,1.17-.1,0,0,22.32-1.85,43.01-1.42,17.55.36,31.07,2.4,40.34,3.7,19.48,2.74,48.38,6.24,88.72,9.32Z"/>
    <path class="cls-79" d="M138.13,335.22c-9.32-.7-32.48,2.82-42.48,4-24.03,2.87-48.07,5.74-72.1,8.61v45.25c20.3-2.95,40.81-6.94,60.93-9.69,2.16-.81,26.33-4.41,30.06-5.05,37.15-6.24,74.36-12.25,111.61-18.03,9.93-1.59,43.11-6.6,50.08-8.89-45.34-4.05-92.49-12.74-138.1-16.19Z"/>
    <path class="cls-66" d="M68.86,358.84c.56.57,4.44,6,5.13,6.93,2.43.91,5.4,1.82,7.92,2.66-.59.2-1.19.41-1.78.62-7.39,2.67-8.03,3.97-10.81,9.91l-.68.17c-2.87-9.38-6.12-5.59-9.47-10.35,7.09-3.71,6.62-3.24,9.7-9.95Z"/>
    <path class="cls-72" d="M318.7,330.59c.12-1.15,4.36-2.4,7.73-2.15,13.1,1,23.35.94,23.97,1.09,19.93,5.07,68.12,1.18,95.76-5.64,0,0,25.57-6.31,39.82-3.33.61.13,3.22.72,6.81.94,3.95.24,6.69-.11,10.3-.51,1.49-.16,9.3-1.02,14.47-1.28,3.35-.17,8.35-.22,14.58.48,1.05-1.07,2.09-2.14,3.14-3.21,0,8.63,0,17.25,0,25.87,0,2.35,0,7.01-.01,9.36-6.86.69-16.68,1.59-28.54,2.35-12.3.79-19.31,1.36-27.59,1.02-8.35-.34-22.9-2.76-31.82-3.76-24.51-2.55-48.99-5.25-73.44-8.1-45.02-7.7-55.37-11.3-55.18-13.14Z"/>
    <path class="cls-27" d="M446.39,342.97c3.23.57,2.28.04,4.46,1.79-.73,2.45-1.85,2.76-4.19,4.76-2.67-.94-3.91-1.07-5.26-3.02,1.24-2.15,2.23-2.12,4.99-3.53Z"/>
    <path class="cls-16" d="M469.48,330.14c1.91-.3,3.81.59,4.47,2.11.67,1.52-.11,3.21-1.81,3.99-1.38.63-3.06.52-4.32-.26-1.24-.78-1.82-2.1-1.46-3.36.35-1.26,1.58-2.23,3.12-2.48Z"/>
    <path class="cls-27" d="M328.97,329.96c2.53.16,2.96.09,5.23.95l-.63,1.77-.68.34c-2.46-.58-1.98-.85-3.91-3.06Z"/>
    <path class="cls-27" d="M23.28,392.97v6.88c11.01-1.97,22.07-3.92,33.19-5.85,16.47-2.85,32.85-5.62,49.13-8.31l-12.62-4.08c-12.13,2.27-24.54,4.44-37.24,6.48-11,1.77-21.82,3.4-32.47,4.88Z"/>
    <path class="cls-79" d="M85.2,398.6c3.86,6.9,3.56,6.85,12.52,8.93,15.72-.01,36.09,5.04,51.85,7.19,18.4,2.51,35.05,4.86,53.23,8.05,14.61,2.56,28.69,1.83,44.56,6.66l.29.36-40.41-5.05c-5.44-.68-12.62-1.61-17.98-2.1-3.47-.32-6.22,2.75-12.15,2.21-22.48-2.05-72.63-8.07-92.78-5.88l-.46-1.22c-2.25-7.28-4.13-7.11-12.52-9.14l9.28-2.89,4.57-7.12Z"/>
    <path class="cls-47" d="M85.2,398.6c3.86,6.9,3.56,6.85,12.52,8.93-3.71,4.92-8.11-.67-11.47,10.44-1.78.15-1.09.38-2.37-.22-2.25-7.28-4.13-7.11-12.52-9.14l9.28-2.89,4.57-7.12Z"/>
    <path class="cls-79" d="M149.49,405.14c-4.35.31-8.7.57-13.06.78,2.59-.73,3.33-1.09,5.69-2.25,3.09-11.14,25.77-11.56,36.85-11.98l-.45.13c13.79.16,35.19-2.95,45.44,2.12l-.4,1.08c-14.26,4.97-33.84,3.39-49.47,8l-.56.17c-1.4-.8-3.73-.71-5.55-.82-1.69,1.18-3.39,2.34-5.1,3.5-2.4-.51-3.41-1.32-5.48-2.52-2.68.72-5.6,1.15-7.92,1.79Z"/>
    <path class="cls-27" d="M162.34,396.37c2.18,1.83,4.99,3.66,5.65,6.01-1.69,1.18-3.39,2.34-5.1,3.5-2.4-.51-3.41-1.32-5.48-2.52l-.88-.63c.49-2.27,3.59-4.33,5.81-6.35Z"/>
    <path class="cls-79" d="M167.99,402.38c1.82.11,4.15.02,5.55.82l.75,1.62c10.73,3.85,27.63,4.77,39.26,4.09-3.16-.65-12.4-1.23-17.47-2.08,8.78-.86,17.23.15,25.93.74,7.88.53,8.31-.79,15.32,3.15l-.86.84c-3.74-1.12-4.75-2.8-8.63-2.28l-2.02.96c-2.1-.51-4.22-.99-6.33-1.44l-.69.64c-.86.8-1.85,1.85-3.01,1.91-15.51.75-27.81-1.74-42.46-5.15-.58,1.03-.42.45.11,1.86-6.89-.1-17.5-1.06-23.93-2.93,2.32-.64,5.24-1.07,7.92-1.79,2.06,1.2,3.08,2.01,5.48,2.52,1.71-1.16,3.41-2.32,5.1-3.5Z"/>
    <path class="cls-79" d="M496.5,486.24c2.23,1.81,2.34,4.93,5.51,6.7,1.47.82,3.76,2.66,5.2,3.68l-1.02.14,1.34.05-2.31.22c-4.33,2.54-5.6,5.07-7.15,9.09l-.32.86c-1.47-2.97-3.59-5.84-5.51-8.63-2.33-.53-4.23-.77-6.12-1.99,6.7-3.56,7.7-3.29,10.01-9.17l.37-.95Z"/>
    <path class="cls-79" d="M352.47,550.19c5.44-.14,9.94-.45,10.32,5.02-1.17,2.72-2.53,3.39-5.12,5.34-3.53.1-4.92.05-8-1.26-3.66-4-1.52-6.2,2.8-9.1Z"/>
    <path class="cls-79" d="M286.67,536.09c3.89,1.18,6.13,3.63,9.01,6.16l-7.23,6.72-1.41,1.01c-5.85-7.09-6.91-6.96-.37-13.89Z"/>
    <path class="cls-55" d="M148.56,554.28l-4.34.32c-2.7-1.47-2.99-1.52-4.65-3.73-.21-2.93-.5-1.76,1.18-4.41,2.38-1.19,2.24-1.13,5.04-1.05l2.8,3.26c3.31-.32,4.23-.84,7.02.14-.86,2.9-2.48,3.51-5.25,5.96-1.07-.17-1.22-.03-1.79-.49Z"/>
    <path class="cls-55" d="M148.59,548.67c3.31-.32,4.23-.84,7.02.14-.86,2.9-2.48,3.51-5.25,5.96-1.07-.17-1.22-.03-1.79-.49l.96-.21c.59-1.57.68-2.93.93-4.57l-1.87-.83Z"/>
    <path class="cls-64" d="M376.54,531.43c2.91,0,4.05.03,6.91.45l1.97,3.2c2.97-.15,1.71-2.76,6.49-3.72,3.08,1.25,3.42,2.46,5.04,5.03-4.54,4.29-18.25,1.36-21.44-2.82l1.03-2.15Z"/>
    <path class="cls-64" d="M445.3,498.89c3.12,2.59,5.78,3.73,5.93,6.67-2.52,2.84-3.09,3.5-4.4,6.88l-.3.76c-2.16-2.37-7.33-6.89-7.15-8.98,2.88-2.1,3.61-2.88,5.91-5.33Z"/>
    <path class="cls-79" d="M468.39,415.48c1.78,3.28,2.62,3.79,6.04,6.08l.96.64c-3.6,2.57-4.62,2.52-7.05,6.18l-.43.67c-2.73-7.55-5.74-4.08-7.17-6.83,4.6-2.57,5.54-2.3,7.65-6.73Z"/>
    <path class="cls-55" d="M101.28,535.15c5.93-.44,14.45.53,19.39,2.99l-.31.89c-7.47-1.09-7.11.39-14.28.78-3.27-1.32-2.78-1.72-4.8-4.67Z"/>
    <path class="cls-64" d="M411.62,501.75c2.8.28,4.67,1.31,5.78,3.36-1.03,2.93-1.12,2.3-4.32,4.61-2.74-.3-3.67-.71-4.96-2.59.32-2.8,1.17-3.22,3.51-5.38Z"/>
    <path class="cls-64" d="M190.19,521.36l1.36.29c2.81,2.45,2.12,3.4.39,5.94-3.38,1.58-1.87,1.25-5.78,1.25l-.62-.49,1.53.14c-.82-1.05-1.01-1.98-1.4-3.19.96-2.86.62-1.99,4.51-3.94Z"/>
    <path class="cls-55" d="M43.28,501.13l.4-.08c2.42.77,1.43.14,2.88,2.13l-.79,1.96c-2.5,1.71-1.52,1.51-4.39,1.89-2.14-1.15-3.41-1.93-5.38-3.27l.16-.71c3.03-.44,3.65-.59,6.46-1.66l.66-.26Z"/>
    <path class="cls-55" d="M53.23,482.57c2.08-.13,3.91,1.12,4.15,2.84.25,1.72-1.18,3.29-3.24,3.56-1.41.19-2.84-.28-3.71-1.22-.87-.94-1.05-2.2-.47-3.28.59-1.08,1.84-1.81,3.27-1.9Z"/>
    <path class="cls-55" d="M72,548.54c3.51,1.58,3.12,4.45,3.86,7.61l-.92.21c-2.64-1.27-4.57-1.92-6.28-3.98.42-2.52.23-1.69,3.34-3.83Z"/>
    <path class="cls-55" d="M143.81,518.97c2.96-.09,3.35-.18,6.13.5,1.92,1.44,1.87,1.67,2.65,3.8-1.98.37-3.23.54-5.24.75-2.5-1.44-2.29-2.37-3.53-5.05Z"/>
    <path class="cls-79" d="M388.04,552.39c1.16-.22,2.38.11,3.17.85.79.74,1.04,1.78.63,2.71-.41.93-1.4,1.61-2.58,1.76-1.74.23-3.39-.73-3.72-2.17-.33-1.44.77-2.83,2.5-3.15Z"/>
    <path class="cls-55" d="M462.26,500.18c1.06-.44,2.33-.36,3.31.21s1.48,1.54,1.32,2.52c-.15.98-.95,1.8-2.06,2.15-1.6.49-3.39-.13-4.07-1.43s-.03-2.81,1.5-3.44Z"/>
    <path class="cls-64" d="M435.86,524.33c.84-.68,2.07-.91,3.18-.59,1.12.32,1.91,1.13,2.06,2.09.15.96-.37,1.92-1.34,2.46-1.32.74-3.13.52-4.14-.51-1.01-1.03-.91-2.53.24-3.46Z"/>
    <path class="cls-64" d="M395.03,487.58c4.47,1.85,6.78,2,5.92,6.39l-2.57.25c-2.55-2.08-2.3-3.41-3.35-6.64Z"/>
    <path class="cls-79" d="M313.56,462.91c2.45.39,5.48.88,6.83,2.58l-1.74.95c-3.16.08-4.5.2-7.61-.47l-.09-1.1,2.61-1.96Z"/>
    <path class="cls-64" d="M385.16,511.78c2.67-.22,2.9-.2,5.56.19,2.17,1.9,1.49,1.31,1.99,4.46-3.82-.27-5.49-2.27-7.55-4.65Z"/>
    <path class="cls-64" d="M246.7,518.47c1.24.15,3.46.65,4.77.91,2.47,1.88,1.77.89,2.43,3.88-4.42-.61-6.09-1.12-7.2-4.79Z"/>
    <path class="cls-66" d="M376.49,417.01c1.66-.14,2.8.11,4.43.34,2.63,1.81,1.95.86,2.67,3.53-1.69-.06-2.89-.27-4.55-.5-2.49-1.8-1.91-.88-2.55-3.37Z"/>
    <path class="cls-55" d="M125.38,547.83c2.81,1.64,2.47.92,3.46,3.16l-1.85,2.89c-1.68-.04-.84.09-2.47-1.03-.59-2.21-.08-2.78.86-5.03Z"/>
    <path class="cls-55" d="M85.41,543.39l.6-1.42,1.68,1.4,3.24-.14,1.62,1.47-.17,1.35c-3.54.09-4.69-.13-6.98-2.66Z"/>
    <path class="cls-55" d="M176.89,559.32l.96,1.01c-.96,2.12-3.49,3.07-5.92,4.4l-.86-.84c.85-2.12,3.46-3.2,5.83-4.57Z"/>
    <path class="cls-55" d="M67.26,532.34l1.88.62c1.85,2.27,1.24,2.69,1.3,5.76-4.77-1.9-3.75-2.53-3.18-6.38Z"/>
    <path class="cls-64" d="M240.88,552.34l1.06-.41c2.37.9,3.31,2.94,4.7,4.93-3.45-.99-5.61-1.36-5.77-4.53Z"/>
    <path class="cls-55" d="M136.14,524.97c2.11,1.24,2,1.23,3.43,3.05l-.47,1.59-1.72.23c-1.57-1.77-1.09-2.38-1.24-4.87Z"/>
    <path class="cls-64" d="M138.78,503.3c3.13,1.47,3.55,3.3,4.16,6.06-1.65-.39-1.98-.66-3.41-1.41-1.41-2.53-1.03-1.61-.76-4.65Z"/>
    <path class="cls-55" d="M161.36,490.19c1.1-.05,2.06.58,2.27,1.47s-.41,1.77-1.45,2.06c-.81.22-1.7.04-2.29-.47s-.76-1.26-.44-1.91c.32-.66,1.06-1.1,1.91-1.14Z"/>
    <path class="cls-4" d="M535.13,342.42c-24.17,11.71-43.16,13.45-56.21,12.8-5.18-.26-3.99-.88-32.21-3.83-24.81-2.6-49.6-5.35-74.36-8.26l-73.27-7.99c-7.07-.8-25.04-2.35-30.79-4.1-36.88-8.43-81.62-14.59-132.33-13.12-16.2.47-31.58,1.68-46.08,3.4-9.85,1.98-20.91,3.66-33.04,4.64-10.08.82-19.49,1.03-28.1.87-1.82.79-3.65,1.58-5.47,2.37v14.52c24.98-5.49,52.41-10.05,82.06-12.84,10.82-1.02,21.36-1.75,31.6-2.23,17.43,1.98,34.85,3.96,52.28,5.94,48.63,5.52,84.48,10.2,93.21,11.3,35.71,4.49,104.94,12.6,252.85,28.51.05-6.7.06-13.48,0-20.35-.03-3.89-.08-7.76-.15-11.6Z"/>
  </g>
  <g id="_Слой_8" data-name="Слой 8">
    <path class="cls-17" d="M471.64,199.65c-9.64-20.18-22.65-31.57-36.76-43.92,0,0-16.09-14.08-31.52-18.03-.41-.11-.83-.21-.83-.21-11.04-2.67-19.02-2.21-24.02-1.4,1.04-1.4,2.08-2.81,3.12-4.21h-190.7c-1.58,1.95-3.54,4.02-5.99,5.99-1.91,1.54-3.78,2.75-5.48,3.7,3.1,2.34,6.21,4.68,9.31,7.01-1.7.51-3.4,1.02-5.1,1.53,3.23,2.3,8.05,5.74,13.9,9.95,12.11,8.71,14.06,10.25,16.83,12.11,6.31,4.25,15.93,9.59,29.84,13.6-3.52,2.73-6.64,4.33-8.8,5.27-3.77,1.65-5.96,1.91-10.75,3.91-3.08,1.29-5.48,2.56-6.97,3.4-3.4-1.64-6.8-3.29-10.2-4.93-.68-3.42-2.92-12.2-10.71-19.6-5.27-5-10.85-7.26-14.11-8.29-.27-4.32-1.11-10.34-3.61-17.09-2.78-7.49-6.53-13.01-9.39-16.58h-85.02c-1.75,4.54-4.06,12.19-3.78,21.68.63,21.44,14.29,44.56,36.6,52.79,4.67,1.73,14.92,4.71,28.95,2.04,1.91,10.48,8.5,18.88,17.34,21.55,5.25,1.59,9.98.76,12.75,0,5.02,7.57,16.68,22.67,37.11,30.48,6.52,2.49,12.63,3.74,17.85,4.34,4.02-1.33,8.05-2.66,12.07-4,1.46.2,3.6.4,6.16.3,5.85-.23,9.98-1.88,13.52-3.19,4.2-1.55,10.22-3.6,18.11-5.74,4.75,6.21,10.57,15.09,15.3,26.65,4.71,11.5,6.8,21.85,7.78,29.58-.75,1.9-1.7,5.01-1.66,8.93.03,2.92.6,5.33,1.15,7.01-4.64,7.09-9.29,14.18-13.93,21.27,56.6,6.75,113.19,13.5,169.79,20.26-2.71-7.26-5.4-14.64-8.06-22.15-2.28-6.43-4.49-12.81-6.63-19.13.98-.54,2.44-1.52,3.57-3.19,2.06-3.07,1.73-6.59,1.53-8.42-.64-5.91-5.04-21.42-12.37-41.7,5.64-1.96,11.89-4.49,18.49-7.78,8.3-4.14,15.35-8.59,21.17-12.75,1.11-3.45,2.39-8.44,2.81-14.54,1.08-15.84-4.46-27.81-8.64-36.55Z"/>
  </g>
  <g id="_Слой_3" data-name="Слой 3">
    <g>
      <path class="cls-80" d="M205.49,54.26c1.28-9.23,4.91-17.99,10.52-25.43,6.49-8.59,13.69-14.49,23.09-19.61,27.9-15.22,49.96-11.03,74.82,8.32,11.4-7.58,23.03-15.57,37.49-15.36,5.5.08,7.18,6.56,8.43,10.81,4.28,14.57,5.52,29.4,3.13,44.43,8.26,1.32,30.35,2.91,36.92,6.76,11,6.45-5.14,16.72-8.9,21.82,4.43,1.06,10.57,1.26,14.09,2.38,2.73,4.53-13.45,17.61-17.09,20.07l1.57.19c.67.08,4.26.32,3.75,1.53-3.98,9.5-12.94,20.04-19.8,27.65l5.34-.04c10.7-.05,27.64-.41,36.9,7.46.88.75.53,3.54.46,4.92l.03,3.38-.04,53.55v13.56c-.01,2.39.08,6.33-.12,8.58l.14,6.62c-.11,6.2-.12,12.4-.02,18.61v4.94s.02,11.03.02,11.03v4.54s0,52.33,0,52.33v5.41s0,42.92,0,42.92c-5.25.02-31.05.38-34.38-.29-1.7-.25-4.32-3.24-5.69-4.57l-3.04,4.55c-3.36.61-10.44.38-14.15.37l-24-.04c-18.37.73-38.19-.65-56.26.09l-5.48-.27c9.84-16.37,25.33-34.6,33.23-51.23-2.8-7.83-1.12-6.02.69-13.96,1.03-4.52-1.06-7.46-2.33-11.91-1.53-4.67-1.84-11.48-3.65-15.92-4.49-11.02-12.35-23.67-18.85-33.55-9.86,3.46-20.05,7.19-30.21,9.73-2.97.74-4.92.86-7.83-.25-3.02.96-11.58,4.15-14.28,3.94-16.58-1.3-33.41-11.88-44-24.42-2.84-3.36-6.05-6.63-9.26-9.66-12.3,2.28-18.34-1.14-23.92-11.65-2.02-3.82-4.07-5.96-5.63-10.43-17.58,4.32-32.17-.06-45.22-13.11-17.66-17.67-27.56-46.25-11.81-68.48,31.47-44.42,91.03-.86,90.29,43.18,17.35,3.59,19.86,11.66,24.99,27,3.21,2.24,9.7,5.19,13.42,7.02,2.05-2.34,4.1-4.15,7.05-5.24,8.9-3.3,16.75-6.31,24.65-11.77-1.86-.32-3.72-.71-5.55-1.17-17.73-4.6-31.04-13.53-45.08-24.66-3.47-2.75-8.75-5.25-10.97-9.02.88-1.36,1.78.2,3.26-1.03-2.24-2.6-6.15-3.63-9.99-7.43,1.62-1.55,5.49-4.04,7.72-5.81,7.66-6.1,8.83-16.6,10.75-25.99-14.28-9.07-28.24-28.04-28.23-45.38,0-11.36,25.36-11.18,33.02-9.98Z"/>
      <path class="cls-78" d="M392.98,143.35c2.03-.18,1.07-.38,2.93.81,7.08.73,13.96,2.76,20.3,6l.03,3.38-.04,53.55v13.56c-.01,2.39.08,6.33-.12,8.58l.14,6.62c-.11,6.2-.12,12.4-.02,18.61v4.94s.02,11.03.02,11.03v4.54c-2.8,1.23-10.97,3.02-11.98,3.69-2.73,1.81-17.76,7.87-19.2,9.18-7.91,7.19-9.64,11.12-22.07,7.68-4.54-1.39-8.35-7.89-12.48-10.15-7.16,1.72-22.33-8.28-28.25-12.03-3.57-2.27-7.77-4-11.22-6.44-3.52-1.54-4.03-1.57-6.63-4.63-2.3-2.71-5.08-4.8-6.87-7.97-1.75-1.78-2.94-2.95-4.45-4.98-1.58-1.88-2.6-3.15-4.02-5.19l.61-1.09c-3.18-4.95-6.7-13.29-10.31-17.41l-.79.08c-2.46-4.88-6.23-20.28-7.54-25.69,3.45.72,11.56,12.17,21.08,8,8.31,6.61,20.13,11.14,30.62,7.27,14.09-5.19,23.86-19.33,30.43-32.14,2.22-4.34,3.88-9.06,6.01-13.49,4.74-2.29,17.26-16.23,21.55-20.53,3.63-3.6,4.42-4.18,9.11-6.01l3.16.24Z"/>
      <path class="cls-80" d="M395.91,144.16c7.08.73,13.96,2.76,20.3,6l.03,3.38-.04,53.55v13.56c-.01,2.39.08,6.33-.12,8.58l.14,6.62c-.11,6.2-.12,12.4-.02,18.61v4.94s.02,11.03.02,11.03v4.54c-2.8,1.23-10.97,3.02-11.98,3.69-2.73,1.81-17.76,7.87-19.2,9.18-7.91,7.19-9.64,11.12-22.07,7.68-4.54-1.39-8.35-7.89-12.48-10.15-2.64-2.44-3.34-3.7-4.92-6.95-11.3-5.47-11.46-14.02-5.55-23.84-.06-3.45-.27-7.44,1.46-10.5,2.93-5.16,18.09-11.71,23.57-10.33,5.47,1.38,16.93,6.52,21.98,9.55,4.69.66,23.35-13.88,26.56-17.86-3.19-3-9.16-6.07-13.04-8.49-4.41-2.74-7.34-4.85-11.42-7.98l1.93-.63c.64.27.3.22,1.01.15l-1.7-1.96c.02-1.28-8.24-19.09-9.42-24.16-1.38-5.31-1.23-9.32-1.16-14.78l.88-.28.6-2.01c.23-4.69,2.62-11.9,5.67-15.5,2.48-3.11,5.3-4.5,8.99-5.62Z"/>
      <path class="cls-50" d="M406.44,241.23l.14-.39c1.54-.93,3.1-1.85,4.67-2.76,19.69-11.4,39.55-19.85,58.96-26.06,2.41,5.18,5.47,13.67,5.38,24.34-.04,4.37-.59,8.23-1.31,11.48-13.47,5.93-26.94,11.86-40.41,17.79-14.04,3.72-17.67,4.74-17.65,4.8,0,0,.08-.01.09,0,.06.21-16.44,5.29-15.07,4.51-9.77,5.55-13.25,8.39-24.96,8.88-2.43,1.94-3.84,3.04-6.89,4.07l-.8,1.68.32.8c3.13.21,6.9-4.35,10.19-3.28l.1.85c-4.4,5.35-13.91,6.65-18.46,1.06-.71-6.13,4.01-10.32,3.41-13.31.99-1.41,1.79-2.16,1.71-3.84l-.67-.37c-5.04,3.21-8.21,11.42-10.66,12.08-2.01-.67-4.06-3.12-4.46-5.16.26-.58.49-.91.41-1.44-.79-5.07,5.93-10.83,6.3-14.23.91-1.58,1.25-1.79,2.58-2.97-1.08-1.91-1.61-3.32-3.42-4.49.25,2.24,1.7,2.66-.63,5.15-2.74,2.93-7.61,10.05-10.79,11.65l-.4-.08c-8.23-9.37,5.83-19.41,13.03-24.19,2.04-1.35,7.3-2.94,8.37-4.47,1.1-1.07,1.24-1.27.9-2.56-1.56-.87-2.81-.7-4.62-.74,1.88-.36,5.19-.49,7.23-.61,4.72,1.69,15.59,7.23,21.26,9.61,2-1.3,2.68-1.5,4.01-3.43,3.27-.03,9.35-2.63,12.15-4.37Z"/>
      <path class="cls-78" d="M395.91,144.16c7.08.73,13.96,2.76,20.3,6l.03,3.38-.04,53.55c-4.59-3.82-13.68-8.12-18.75-11.83-.53-.39-2.8-4.32-3.87-5.59l-.63.1c-.1,1.42.12,1.99-.58,2.97-3.24-2.48-8.09-13.09-8.73-17.35-.47-3.14-.92-7.35-2.39-10.11.23-4.69,2.62-11.9,5.67-15.5,2.48-3.11,5.3-4.5,8.99-5.62Z"/>
      <path class="cls-18" d="M395.91,144.16c7.08.73,13.96,2.76,20.3,6l.03,3.38c-6.19-1.9-13.03-5.73-20.37-5.98-3.32-.12-6.41,2.83-8.94,2.22,2.48-3.11,5.3-4.5,8.99-5.62Z"/>
      <path class="cls-40" d="M381.25,165.28c1.47,2.75,1.91,6.96,2.39,10.11.64,4.25,5.49,14.87,8.73,17.35.69-.98.48-1.55.58-2.97l.63-.1c1.07,1.27,3.34,5.21,3.87,5.59,5.07,3.71,14.16,8.01,18.75,11.83v13.56c-13.29-8.21-24.12-11.28-30.15-26.74-3.95-10.14-5.75-15.62-5.39-26.62l.6-2.01Z"/>
      <path class="cls-45" d="M365.51,243.33c-1.08,1.53-6.34,3.12-8.37,4.47-7.2,4.78-21.26,14.82-13.03,24.19-6.04-2.54-4.52-9.63-1.23-13.82,6.06-7.72,12.82-13.14,22.63-14.84Z"/>
      <path class="cls-2" d="M361.79,240.03c-4.87,1.21-10.68,2.36-14.38,6-1.57,1.55-1.82,3.02-3.69,4.45l-.35-.45c1.96-6.12,9.65-9.98,15.59-11.29,4.2-.92,6.14-.53,10.06.67-2.04.13-5.34.25-7.23.61Z"/>
      <path class="cls-32" d="M356.77,262.74c-.37,3.4-7.09,9.17-6.3,14.23.08.52-.16.86-.41,1.44-2.1-6.11,2.84-11.48,6.71-15.67Z"/>
      <path class="cls-37" d="M364.15,275.69c.6,2.99-4.11,7.19-3.41,13.31-2.45-4.54.96-9.44,3.41-13.31Z"/>
      <path class="cls-40" d="M365.59,189.85c1.68.99,15.41,11.1,16.23,12.09.12,1.3-.04,2.25,1.28,3.12,1.9,1.25,4.06,2.79,6,3.9,4.09,3.13,7.01,5.24,11.42,7.98,3.88,2.42,9.85,5.49,13.04,8.49-3.2,3.99-21.87,18.53-26.56,17.86,3.35-7.82,3.44-16.18.78-24.22-3.07-2.22-13.39-7.65-17.1-9.72,6.37,1.4,10.88,3.05,17.96,4.27-4.74-4.7-9.98-9.04-14.63-13.71-2.53-2.54-6.1-7.17-8.42-10.06Z"/>
      <path class="cls-38" d="M289.65,243.04c9.04,11.85,21.75,17.74,34.56,24.72-5.49.18-6.48.46-11.35-2.09l-2.09-1.07c-5.12-3.3-8.6-6.34-13.26-10.29-1.75-1.78-2.94-2.95-4.45-4.98-1.58-1.88-2.6-3.15-4.02-5.19l.61-1.09Z"/>
      <path class="cls-40" d="M380.93,182.36c1.18,5.07,9.44,22.88,9.42,24.16-6.4-4.93-12.03-16.11-9.42-24.16Z"/>
      <path class="cls-41" d="M389.82,143.11l3.16.24c-3.53,2.37-5.19,3.92-7.91,7.29-2.13-1.28-1.93-1.32-4.36-1.52,3.63-3.6,4.42-4.18,9.11-6.01Z"/>
      <path class="cls-14" d="M392.98,143.35c2.03-.18,1.07-.38,2.93.81-3.69,1.12-6.51,2.5-8.99,5.62-3.05,3.6-5.44,10.81-5.67,15.5l-.6,2.01-.88.28c.44-6.1,2.08-11.71,5.29-16.93,2.73-3.37,4.39-4.92,7.91-7.29Z"/>
      <path class="cls-14" d="M381.82,201.94c2.44,1.81,7.45,4.94,9.21,6.39l-1.93.63c-1.94-1.11-4.11-2.65-6-3.9-1.32-.87-1.16-1.82-1.28-3.12Z"/>
      <path class="cls-40" d="M289.77,250.5l1.5-1.54,1.79.36c1.51,2.03,2.7,3.2,4.45,4.98,1.79,3.17,4.57,5.26,6.87,7.97,2.6,3.06,3.1,3.09,6.63,4.63,3.45,2.43,7.65,4.17,11.22,6.44,5.92,3.76,21.09,13.75,28.25,12.03,4.13,2.26,7.94,8.76,12.48,10.15,12.43,3.44,14.16-.5,22.07-7.68,3.73-3.38,8.89-5.31,19.2-9.18,7.04-2.64,16.62-5.79,28.41-8.43,4.39,14.75,8.78,29.51,13.16,44.26-.49.62-1.3,1.51-2.51,2.28-1.34.85-2.61,1.21-3.42,1.38-9.4,4.32-17.54,7.36-23.67,9.45-25.73,8.75-40.72,9.07-45.78,9.05-1.24,0-2.28-.03-2.78-.05-5.49-.16-16.87-.94-30.38-5.08-7.52-2.3-15.73-6.11-23.02-9.14.72-2.09,1.16-4.8,1.6-7v-1.4c2.99-6.18-2.21-20.14-4.16-26.45,1.35.53,2.02,1.11,3.08.76-8.6-12.47-13.84-17.96-21.64-32.1-1.11-1.18-2.64-4.17-3.35-5.67Z"/>
      <path class="cls-41" d="M293.12,256.18c2.69,1.27,18.66,26.9,22.5,30.46.46.42.53.74.84,1.43l-.07-.42-.15.61-.55-.02c-.68-.02-.41-.05-.92.05-8.6-12.47-13.84-17.96-21.64-32.1Z"/>
      <path class="cls-78" d="M315.83,313.96c2.71.34,8.23,4.44,10.69,6.11-3.85-1.27-7.17-2.08-10.16-4.89l-.52.17v-1.4Z"/>
      <path class="cls-41" d="M319.46,291.67c4.02,1.64,7.92,4.15,11.74,6.26,7.66,4.22,15.49,8.53,23.57,11.9,3.62,1.51,18.1,4.96,19.88,6.3-9.24.68-17.46,1-26.46-1.74-13.85-4.22-22.01-9.95-28.73-22.71Z"/>
      <path class="cls-14" d="M429.63,310.59l-1.02.81c-8.4,4.63-19.74,9.66-33.73,12.76-28.61,6.34-52.66,1.13-65.39-2.68l-.31-.2c3.12.25,6.4,1.68,9.42,2.55,4.65,1.34,9.33,2.51,14.12,3.23,17.4,2.63,44.85-5.09,48.42-6.21,7.37-2.31,17.23-5.96,28.36-11.81.05.52.09,1.04.14,1.57Z"/>
      <path class="cls-58" d="M315.03,327.48c7.5,2,15.1,6.42,22.93,8.66,7.54,2.15,27.37,6.65,52.11,3.07,11.78-1.7,20.8-4.7,26.13-6.5,9.33-3.14,17.01-6.66,22.83-9.66,3.37,7.98,6.7,16.54,9.88,25.66,3.15,9.01,5.84,17.67,8.16,25.92-25.08-.1-50.17-.2-75.25-.29-1.9-1.52-3.8-3.05-5.69-4.57l-3.04,4.55c-3.36.61-10.44.38-14.15.37l-24-.04c-18.37.73-38.19-.65-56.26.09,1.12-.5,24.65-36.79,28.12-41.27l.15.77,3.35-1.09c.69-.65,1.42-1.4,2.15-2.24,1.04-1.19,1.88-2.36,2.57-3.42Z"/>
      <path class="cls-41" d="M306.8,334.47l.15.77c.4,1.55,1.66,1.82,3.14,2.46-9,12.02-16.93,25.87-25.74,37.62l31.66.04c5.3,0,13.87-.22,18.94.28-18.37.73-38.19-.65-56.26.09,1.12-.5,24.65-36.79,28.11-41.27Z"/>
      <path class="cls-80" d="M338.26,351.17c1.37-.56,1.12-.34,2.82-.12,3.26,2.75,29.69,11.59,35.77,14.98,4.97,2.77,7.83,5.44,12.21,9-2.14.07-5.17.07-7.23.3-1.7-.25-4.32-3.24-5.69-4.57l-3.04,4.55c-.49-.02-.98-.05-1.48-.08-2.08-.13-1.79.07-2.72-1,.05-1.69,2.27-4.21,3.39-5.73-11.63-5.77-22.61-11.05-34.03-17.34Z"/>
      <path class="cls-40" d="M310.3,334.15c1.44-1.31,2.9-3.13,4.19-4.63.15.5.33,1.11.55,1.84,2.55,2.28,6.91,4.37,9.78,6.29-1.6-.34-5.6-1.71-6.72-.35-2.14-.69-5.63-2.25-7.8-3.15Z"/>
      <path class="cls-14" d="M306.95,335.24l3.35-1.09c2.16.9,5.66,2.46,7.8,3.15-.16,1.37.16.85-.76,1.72-2.5.32-4.67-1.05-7.25-1.32-1.48-.65-2.74-.91-3.14-2.46Z"/>
      <path class="cls-14" d="M335.73,347.61c1.48.89,4.2,2.36,5.35,3.45-1.7-.23-1.45-.45-2.82.12-.87-.25-3.11-1.72-4.02-2.28l1.49-1.29Z"/>
      <path class="cls-14" d="M329.47,345.34l6.32,1.77-.51.24.45.25-1.49,1.29-4.77-3.56Z"/>
      <path class="cls-14" d="M333.27,360.45c6.6,1.81,14.15,1.56,20.46,4.16,1.89.79,2.69,2.02,3.43,3.86-1.26.01-2.56.05-3.82-.08-4.64-.48-17.11-4.52-20.07-7.94Z"/>
      <path class="cls-78" d="M235.84,197.7c3.34,2.84,8.65-.57,11.97-2.22.58.25,2.44.99,2.84,1.29,2.38,1.79,8.18,3.98,11.06,5.86.77-.1,1.42-.18,1.97-.25,1.43,4.47,4.69,11.61,5.61,15.63l3.09,2.42c2.2,8.5,6.11,16.71,8.21,24.64-8.03,2.76-14.66,4.93-22.95,6.75-.02-2.8-.06-9.17-.86-11.81-.22,1.49-.27,2.54-.94,3.9-.52-4.43-.99-7.45-1.93-11.8-2.64-10.87-7.16-19.35-13.76-28.24-.69-.46-4.33-5.01-5.1-5.95l.78-.23Z"/>
      <path class="cls-40" d="M248.35,202.22c3.06,2.68,17.79,13.95,20.94,15.79l3.09,2.42c2.2,8.5,6.11,16.71,8.21,24.64-8.03,2.76-14.66,4.93-22.95,6.75-.02-2.8-.06-9.17-.86-11.81-.05-1.32-.66-4.62-.89-6.07,2.14.06,12.61.58,13.87,0l.98.43c2.89-2.03-.62-15.69-6.87-16.93-6.48-5.37-11.04-8.34-16.8-14.87l1.28-.34Z"/>
      <path class="cls-65" d="M263.87,217.43c6.25,1.23,9.76,14.9,6.87,16.93l-.98-.43c-4.28-4.28-8.12-9.79-11.77-14.68l9.27,6.87,2.17-2.38c-1.72-2.67-3.33-4.11-5.57-6.31Z"/>
      <path class="cls-26" d="M269.44,223.74c.53,1.42,1.05,2.26.67,3.7l-.84.14-2.01-1.46,2.17-2.38Z"/>
      <path class="cls-46" d="M240.15,203.87c6.79,2.33,14.34,23.64,15.73,30.07.23,1.45.84,4.76.89,6.07-.22,1.49-.27,2.54-.94,3.9-.52-4.43-.99-7.45-1.93-11.8-2.64-10.87-7.16-19.35-13.76-28.24Z"/>
      <path class="cls-26" d="M247.07,202.56c-.55-.32-1.17-.83-1.69-1.22l-.04-.63c1.69.12,1.38.29,3.01,1.51l-1.28.34Z"/>
      <path class="cls-77" d="M359.4,163.81c.46,1.73-.01,3.3-.34,5.08l.1.77c-2.12,4.42-3.78,9.15-6.01,13.49-6.57,12.81-16.34,26.95-30.43,32.14-10.49,3.86-22.31-.66-30.62-7.27-6.47-6.56-10.27-12.04-13.95-20.43h.68c5.31.14,6.44,2.8,9.45,6.72,27.01,27.72,44.56,6.23,58.82-19.25,3.63-.45,5.54-2.03,9.14-2.8,1.03-2.3,2.26-6,3.16-8.46Z"/>
      <path class="cls-46" d="M359.8,162.32c.14.81.25,1.95.1,3.29-.15,1.38-.52,2.49-.84,3.27l.1.77c-2.12,4.42-3.78,9.15-6.01,13.49-6.57,12.81-16.34,26.95-30.43,32.14-10.49,3.86-22.31-.66-30.62-7.27-2.58-2.58-5.47-5.87-8.29-9.92-2.69-3.86-4.7-7.53-6.2-10.71.53.02,1.05.05,1.58.07,1,.1,2.39.37,3.87,1.12,3.35,1.71,4.78,4.7,5.22,5.74-1.41,1.86-1.18,4.19-1.2,6.56,8.78,10.86,23.24,18.2,37.03,12.19,16.4-7.15,26.35-26.79,32.13-40.8,1.68-4.07,2.83-7.54,3.56-9.94Z"/>
      <path class="cls-45" d="M278.83,187.6c2.06-.03,3.47.57,4.23.97,1.46.78,2.34,1.84,3.63,3.38.91,1.09,1.57,2.08,2.02,2.8-.38.64-.88,1.66-1.13,3.01-.31,1.71-.05,3.12.16,3.91-2.38-3.03-4.78-6.52-7.03-10.52-.67-1.2-1.3-2.38-1.88-3.55Z"/>
      <path class="cls-40" d="M258.13,185.82c3.16.17,17.97.66,20.02,1.77,3.68,8.39,7.47,13.87,13.95,20.43-9.52,4.17-17.63-7.28-21.08-8-.59-1.32-1.08-3.16-1.51-4.57-.54,1.69.93,11.71.85,15.05l2.03,9.94-3.09-2.42c-.92-4.02-4.18-11.15-5.61-15.63-.55.07-1.2.15-1.97.25-2.88-1.88-8.68-4.08-11.06-5.86-.41-.3-2.27-1.04-2.84-1.29,2.67-1.89,9.59-6.52,10.32-9.66Z"/>
      <path class="cls-26" d="M250.66,196.77c4,1.45,7.09,1.96,11.19,2.81.83.17,1.57,2.12,1.84,2.8-.55.07-1.2.15-1.97.25-2.88-1.88-8.68-4.08-11.06-5.86Z"/>
      <path class="cls-14" d="M270.35,210.49c-1.7-5.7-2.29-16.23-1.52-22.28.35,2.52.73,4.66.67,7.23-.54,1.69.93,11.71.85,15.05Z"/>
      <path class="cls-70" d="M225.55,201.15c2.42-1.12,6.91-3.38,9.51-3.22.77.94,4.41,5.49,5.1,5.95,6.6,8.89,11.12,17.37,13.76,28.24-2.55.5-4.96.71-7.07,2.15-3.34-13.83-9.32-25.17-21.3-33.12Z"/>
      <path class="cls-40" d="M365.89,145.79c5.68-2.6,17.91-3.78,23.93-2.67-4.69,1.84-5.48,2.41-9.11,6.01-4.29,4.3-16.81,18.24-21.55,20.53l-.1-.77c2.34-4.42,5.4-17.48,6.83-23.1Z"/>
      <path class="cls-45" d="M354.36,155.63c2.49-2.32,6.29-5.26,8.99-7.49-.89,4.65-2.7,10.95-3.95,15.66-.9,2.46-2.13,6.16-3.16,8.46-3.6.76-5.51,2.35-9.14,2.8,4-7.46,4.94-11.17,7.27-19.43Z"/>
      <path class="cls-41" d="M305.39,279.18c1.73,2.67,4.28,5.76,6.29,8.33,1.95,6.31,7.14,20.27,4.15,26.45v1.4c-.43,2.2-.87,4.92-1.59,7-1.39-.81-2.68-1.99-3.92-3.04.87-3.92,2.25-8.44,3.34-12.35-3.42-10.19-5.53-17.47-8.27-27.79Z"/>
      <path class="cls-2" d="M253.91,232.12c.94,4.35,1.41,7.37,1.93,11.8-.7,7.9,2.12,8.57-7.07,10.52.1-8.2-.05-12.23-1.93-20.16,2.11-1.44,4.52-1.65,7.07-2.15Z"/>
      <path class="cls-76" d="M235.84,197.7c5.62-2.41,10.24-4.71,15.2-8.27,2.27-1.62,4.3-3.28,7.09-3.62-.72,3.14-7.65,7.77-10.32,9.66-3.32,1.65-8.63,5.06-11.97,2.22Z"/>
      <path class="cls-41" d="M278.56,225.71l.79-.08c3.61,4.12,7.13,12.46,10.31,17.41l-.61,1.09c-1.36-.51-1.63-.36-3.07-.24-3.31-6.36-5.43-11.34-7.41-18.18Z"/>
      <path class="cls-41" d="M311.13,326.49c1.69,1.11,2,1.25,3.9,1.99l-.54,1.03c-1.29,1.5-2.75,3.33-4.19,4.63l-3.35,1.09-.15-.77c1.35-2.66,2.88-5.35,4.32-7.98Z"/>
      <path class="cls-41" d="M285.96,243.89c1.44-.12,1.71-.26,3.07.24,1.42,2.04,2.44,3.31,4.02,5.19l-1.79-.36-1.5,1.54-3.8-6.62Z"/>
      <path class="cls-3" d="M208.84,94.21c1.72-11.09,13.54-19.51,22.68-24.19,19.93-10.21,42.62-14.3,64.88-12.32,3.02.27,7.95.58,10.72,1.45,6.74.41,22.79,4.88,29.65,7.15-1.72,2.78-1.9.8-1.86,2.43,3.99,3.57,13.67,3.6,17.38,8.42-2.07-.53-4.12-1.11-6.16-1.75-2.09.52-2.62.42-4.72-.06l-1.2.67.59.68-.27-.67.71.32-.62.45c4.13,1.65,8.41,2.85,12.67,4.13,1.36.3,6.53,1.66,7.72,2.23l2.32-.16c3.31,1.25,8.58,3.04,11.58,4.55.67.17,1.94.54,2.56.63,2.84.63,5.31,1.15,8.18,1.62,4.05.51,9.65,1.04,13.54,1.81-5.39,8.07-10.83,11.59-19.97,14.99-2.31.86-5.62,1.72-7.52,2.96,3.32,1.44,5.42,1.87,8.97,2.72l5.5.28c-2.58,3.53-8.96,9.82-12.98,11.03-1.64,1.11-3.09,2.12-5,2.74,1.98.54,8.63-2.8,11.18-3.87-6.69,9.29-9.53,13.37-19.71,18.93-1.59.88-5.54,3.2-7.02,3.84l-.27-1.54-1.42-.87c-.36.79-.67,1.52-1.12,2.26l-1.35-.02c-1.5,1.41-1.79,1.62-3.56,2.7l1.36.05c-.04,2.55-7.25,5.45-9.28,7.35.17-.03.35-.06.52-.09,5.11.66,8.67-4.39,13.27-3.4-9.9,7.21-21.36,13.27-29.86,20.88-3.41.52-3.27,1.19-7.1.83l-.64.56c-.93.82-1.32,1.32-2.1,2.27l-.84-.23c1.29-1.54,2.63-2.79,2.82-4.66l-.74.59-2.5,2.26c-12.06,9.18-21.09,9.52-35.99,8.04-26.37-2.05-44.61-5.92-65.63-23.48l-.59-.47.6-.56-.11-.62-2.35-.89-.44-.26-.16-2.83,2.61-.77.08-.24c-2.06-1.21-6.61-.3-9.37-1.68l.4-.56c1.41-.33,1.88-.45,3.18-1.19l-.39-.28-.65-.46c-4.51-3.2-7.08-4.16-12.34-6.02,14.13-9.2,13.97-21.41,17.73-37.32.75-3.69,1.44-6.73,2.44-10.36Z"/>
      <path class="cls-70" d="M234.66,91.56c-.53-1.4-1.08-1.99-.69-3.05,2.25.97,7.16,6.46,8.98,8.49,1.66,3.35,4.34,10.02,3.42,13.67-4.44,4.76-22.26-11.85-30.46-6.66.66,1.1.58.81,1.76,1.63-.73,1.66-6.61,4.16-6.82,8.64-.5,10.73-.42,18.24-10.9,24.3,2.87,1.3,7.13,3.39,9.99,4.43l-.84,1.28c-1.63.44-1.17-.02-1.98,1.01.65,1.09,12.85,7.55,15.09,8.21,3.59,1.06,6.92,2.15,10.5.48-2.56-1.32-5.32-1.97-6.18-4.83,1.39-4,11.4-6,15.8-10.54,4.61-4.76,4.78-10.44,8.7-13.91,11.47-10.23,25.22-1.41,37.8,1.15,16.88,3.43,30.17-10.16,46.38-9.55-2.91,5.27-4.49,5.97-9.31,9.49,14.33-4.47,16.26-6.55,27.94-16.14,1.72.35,4.04.95,5.74.88l-.19-.56c1.65-1.31,3.52-.21,5.9-1.55,1.87.42,3.81.97,5.71,1l.69.13c3.32,1.44,5.42,1.87,8.97,2.72l5.5.28c-2.58,3.53-8.96,9.82-12.98,11.03-1.64,1.11-3.09,2.12-5,2.74,1.98.54,8.63-2.8,11.18-3.87-6.69,9.29-9.53,13.37-19.71,18.93-1.59.88-5.54,3.2-7.02,3.84l-.27-1.54-1.42-.87c-.36.79-.67,1.52-1.12,2.26l-1.35-.02c-1.5,1.41-1.79,1.62-3.56,2.7l1.36.05c-.04,2.55-7.25,5.45-9.28,7.35.17-.03.35-.06.52-.09,5.11.66,8.67-4.39,13.27-3.4-9.9,7.21-21.36,13.27-29.86,20.88-3.41.52-3.27,1.19-7.1.83l-.64.56c-.93.82-1.32,1.32-2.1,2.27l-.84-.23c1.29-1.54,2.63-2.79,2.82-4.66l-.74.59-2.5,2.26c-12.06,9.18-21.09,9.52-35.99,8.04-26.37-2.05-44.61-5.92-65.63-23.48l-.59-.47.6-.56-.11-.62-2.35-.89-.44-.26-.16-2.83,2.61-.77.08-.24c-2.06-1.21-6.61-.3-9.37-1.68l.4-.56c1.41-.33,1.88-.45,3.18-1.19l-.39-.28-.65-.46c-4.51-3.2-7.08-4.16-12.34-6.02,14.13-9.2,13.97-21.41,17.73-37.32,1.97-1.06,2.62-2.19,3.59-4.07,5.46-10.01,11.49-11.44,21.6-6.83.88-1.2,1.72-1.45,3.06-2.1Z"/>
      <path class="cls-68" d="M208.19,158.72c2.52.57,4.36,1.07,6.97,1.19,3.04,1.48,8.88,2.61,12.35,3.23l5.14.67-3.92,1.34c3.93,2.46,12,4.32,14.87,8.25,3.82,1.25,5.8,1.85,9.65,2.66,4.16.87,12.32,1.79,15.96,3.42,1.93,1,3.3,1.21,4.62,2.71-26.37-2.05-44.61-5.92-65.63-23.48Z"/>
      <path class="cls-69" d="M225.18,166.13l3.53-.98c3.93,2.46,12,4.32,14.87,8.25-7.56-2.04-11.46-3.91-18.4-7.27Z"/>
      <path class="cls-51" d="M368.18,126.3c2.09-.67,4.23-1.39,6.41-2.16,1.81-.64,3.57-1.3,5.28-1.96-2.86,5.09-6.02,8.64-8.34,10.89-3.47,3.37-6.66,5.42-9.11,6.98-3.78,2.4-7.2,4.05-9.8,5.15-.24-.47-.48-.94-.71-1.4-.34-.13-.68-.26-1.02-.38-.15.14-.32.31-.49.52-.32.41-.49.82-.59,1.12l-1.35-.02-.83-.92c.08-1.2.51-1.09.46-2.72l-1.19-.25c2.15-1.81,2.85-3.65,5.03-5.54,1.45-1.48,3.16-1.93,4.14-3.44-.72-.35-1.44-.7-2.16-1.04,2.76-1.78,3.91-3.17,7.1-4.59l-1.16,2.8c2.09-.57,5.73-2.61,8.32-3.05Z"/>
      <path class="cls-32" d="M353.93,131.13c2.76-1.78,3.91-3.17,7.1-4.59l-1.16,2.8-1.59,1.64c.14,3.35-.98,4.21-3.68,6.12-2.08-.58-1.85-.14-2.64-1.5,1.45-1.48,3.16-1.93,4.14-3.44-.72-.35-1.44-.7-2.16-1.04Z"/>
      <path class="cls-60" d="M346.92,141.15c2.15-1.81,2.85-3.65,5.03-5.54.79,1.36.56.93,2.64,1.5l-4.61,4.94.95.74c-.36.79-.67,1.52-1.12,2.26l-1.35-.02-.83-.92c.08-1.2.51-1.09.46-2.72l-1.19-.25Z"/>
      <path class="cls-30" d="M347.65,144.12l2.34-2.07.95.74c-.36.79-.67,1.52-1.12,2.26l-1.35-.02-.83-.92Z"/>
      <path class="cls-45" d="M311.42,166.09c1.16.04,2.11.01,3.25.23-.7,2.67-2.13,1.63-2.36,5.58l-2.5,2.26c-12.06,9.18-21.09,9.52-35.99,8.04-1.32-1.51-2.69-1.71-4.62-2.71,1.93-.94,4.23,2.1,6.44-.34-2.36-1.02-4.09-.86-6.05-1.88-.37.09,9.94,1.6,11.52,1.66,14.28.59,20.47-3.51,30.31-12.83Z"/>
      <path class="cls-34" d="M314.68,166.32c-.7,2.67-2.13,1.63-2.36,5.58l-2.5,2.26c-.38-3.95,2.16-5.36,4.86-7.84Z"/>
      <path class="cls-30" d="M336.99,155.14c.17-.03.35-.06.52-.09,5.11.66,8.67-4.39,13.27-3.4-9.9,7.21-21.36,13.27-29.86,20.88-3.41.52-3.27,1.19-7.1.83l-.64.56c-.93.82-1.32,1.32-2.1,2.27l-.84-.23c1.29-1.54,2.63-2.79,2.82-4.66.78-1.29,1.38-1.66,2.51-2.69,1.61-3.01,8.56-3.81,13.09-7.83,2.55-1.9,5.56-3.54,8.34-5.64Z"/>
      <path class="cls-37" d="M315.56,168.61c.02,2.73-1.58,2.11-1.74,4.75l-.64.56c-.93.82-1.32,1.32-2.1,2.27l-.84-.23c1.29-1.54,2.63-2.79,2.82-4.66.78-1.29,1.38-1.66,2.51-2.69Z"/>
      <path class="cls-7" d="M380.67,112.26l5.5.28c-1.02,1.85-2.76,4.49-5.61,7-2.34,2.07-4.65,3.37-6.38,4.17-1.1.44-2.23.9-3.39,1.41-.89.39-1.76.79-2.6,1.18-1.3.33-2.77.8-4.35,1.47-2.13.91-3.89,1.95-5.27,2.91.3-1.12.59-2.24.89-3.36.86-.4,1.78-.89,2.73-1.49.42-.27.83-.53,1.2-.8l.31.06c2.78-2.18,15.08-10.83,16.96-12.83Z"/>
      <path class="cls-37" d="M363.7,125.09c1.45-.39,3.07-.75,4.84-1.02,1.66-.26,3.22-.42,4.64-.5-.26.24-.56.49-.9.75-.36.27-.54.4-1.16.77-1.1.65-2.97,2.64-2.97,2.64-.92.98-3.31,2.21-9.89,3.26.92-1.48,1.84-2.96,2.75-4.44.35-.24.74-.47,1.16-.71.53-.29,1.04-.54,1.51-.75Z"/>
      <path class="cls-71" d="M365.3,108.41c1.87.42,3.81.97,5.71,1l.69.13c3.32,1.44,5.42,1.87,8.97,2.72-1.4,1.98-3.34,4.3-5.96,6.56-4.74,4.1-9.58,6.15-12.81,7.21.1-.17.31-.6.26-1.16-.09-.88-.76-1.37-.86-1.44.94-.83,2.12-1.74,3.54-2.6.91-.55,1.78-.99,2.58-1.35.71-1.06,1.43-2.19,2.14-3.38.45-.75.87-1.49,1.28-2.21l-.42-.54c-1.21-.67-2.79-1.39-4.72-1.94-2.4-.69-4.52-.87-6.11-.88-.12-.3-.24-.59-.37-.89.83-.3,1.82-.6,2.94-.83,1.17-.24,2.23-.35,3.14-.39Z"/>
      <path class="cls-22" d="M338.25,149.19c2.37-.19,3.66-.99,4.42-1.73.75-.73,1.29-1.72,1.61-1.6.26.1.21.88.13,1.53-.22.28-.44.56-.66.83l1.17-.49,1.36.05c-.04,2.55-7.25,5.45-9.28,7.35-2.77,2.1-5.78,3.73-8.34,5.64-3.47.19-5.88,1.38-9.55,1.31l-.19-.45c.35-.41,1.27-1.56,1.78-1.72,6.22-1.91,11.62-5.07,16.98-8.87.5-.25.6-.46,1.02-.89l-.45-.98Z"/>
      <path class="cls-39" d="M337.68,151.06c-5.36,3.8-10.76,6.96-16.98,8.87-.51.16-1.42,1.31-1.78,1.72l.19.45c3.68.07,6.09-1.13,9.55-1.31-4.53,4.02-11.48,4.83-13.09,7.83-1.12,1.04-1.73,1.41-2.51,2.69l-.74.59c.24-3.95,1.66-2.9,2.36-5.58-1.14-.22-2.09-.19-3.25-.23,1.95-1.47,4.99-6.56,8.09-9.45-.21,1.3-.38.76.23,1.73,3.01.32,13.57-5.74,17.95-7.31Z"/>
      <path class="cls-44" d="M205.15,153.07l2.61-.77.86.88-.47.24c2.16.95,5.97,2.01,8.33,2.74,4.15.56,6.81,1.06,11.01,1-4.49,1.4-7.74,1.93-12.34,2.75-.84.13-1.94.2-3.22.06-1.74-.19-3.11-.72-4.02-1.15-.27-.15-.53-.3-.8-.45l.48-.67c-.06-.22-.13-.45-.19-.67-.56-.29-1.11-.58-1.67-.87-.59-.27-1.19-.55-1.78-.82.4-.76.8-1.51,1.19-2.27Z"/>
      <path class="cls-28" d="M205.15,153.07l2.61-.77.86.88-.47.24c2.16.95,5.97,2.01,8.33,2.74-3.34,1.05-7.22.24-10.74,0l-.44-.26-.16-2.83Z"/>
      <path class="cls-39" d="M351.52,132.24c.29-.07,1.76-.86,2.41-1.11.72.34,1.44.68,2.16,1.04-.97,1.51-2.69,1.96-4.14,3.44-2.18,1.89-2.88,3.73-5.03,5.54l-4.05,2.4c-1.46-2.51.52-1.51,1.64-4.23-1.39-.63-4.25-.36-5.91-.32,5.61-1.86,7.89-3.48,12.92-6.75Z"/>
      <path class="cls-32" d="M348.32,139.8c.21.43.43.85.64,1.28.03.34-.03.6-.09.77-.12.35-.29.5-.3.81,0,.22.07.4.14.52.31.63.62,1.25.93,1.88-.66.66-1.44,1.35-2.34,2.02-.35.26-.69.5-1.03.72-1.1.38-2.21.77-3.31,1.15.33-.43.67-.86,1-1.29.01-.02.18-.32.02-.63-.13-.25-.37-.32-.41-.33-.34.67-.91,1.53-1.88,2.06-1.22.67-2.43.48-3.45.42-1.46-.08-3.53.04-6.15.99l-1.8-.9c5.58-1.75,7.56-2.67,12.57-5.73,1.82-1.25,3.64-2.5,5.45-3.75Z"/>
      <path class="cls-34" d="M366.67,120.02c-1.63-.05-3.39-.03-5.26.08-2.62.15-5,.47-7.13.85,2.59-1.16,5.21-2.36,7.86-3.61,3.06-1.44,6.05-2.89,8.96-4.35.19.18.44.48.6.89.49,1.33-.46,2.73-.89,3.36-1.28,1.87-3.27,2.54-4.13,2.77Z"/>
      <path class="cls-34" d="M362.37,122.79c.7,1.01.91,1.07,1.03,2.25-.47.31-1.95,1.32-2.37,1.51-3.2,1.42-4.34,2.81-7.1,4.59-.64.25-2.12,1.04-2.41,1.11-1.29-.47-2.12-.31-3.55-.31,4.17-2.24,9.52-6.35,14.4-9.15Z"/>
      <path class="cls-45" d="M202.05,148.64c2.51-.31,5.5,1.89,7.64,3.42-.52.87-.17.49-1.07,1.12l-.86-.88.08-.24c-2.06-1.21-6.61-.3-9.37-1.68l.4-.56c1.41-.33,1.88-.45,3.18-1.19Z"/>
      <path class="cls-39" d="M234.66,91.56c.47,1.75.68,2.54.91,4.32l-3.97-2.22c.88-1.2,1.72-1.45,3.06-2.1Z"/>
      <path class="cls-69" d="M227.51,163.14c2.12-.09,4.41-.33,6.46.1-.34.16-.99.51-1.32.58l-5.14-.67Z"/>
      <path class="cls-34" d="M332.31,148.63s-.25.32-.19.67c.07.36.41.66.85.69-.65.23-1.74.53-3.09.43-.82-.06-1.51-.25-2.01-.44,1.48-.45,2.97-.9,4.45-1.35Z"/>
      <path class="cls-35" d="M245.22,147.08c-3.82-7.06,1.1-11.15,7.09-14.42,4.26-2.32,12.54-5.04,17.1-3.33,12.51,4.72,2.66,18.5-1.71,24.51l2.37,4.2-1.61.12-.48.62c-.76-.79-2.23-2.87-2.95-3.82-6.15,1.23-9.27.21-14.63-2.43-2.54-2.1-3.14-2.9-5.18-5.45Z"/>
      <path class="cls-3" d="M245.22,147.08c3.23-.54,5.15.58,6.47,3.7-.49,1.08-.43.83-1.29,1.75-2.54-2.1-3.14-2.9-5.18-5.45Z"/>
      <path class="cls-5" d="M250.58,136.39c2.72-4.2,17.25-8.78,21.44-3.63.23,1.67.33.87-.42,2.46l-.86.26c-2.59-.74-2.82-1.33-5.09-2.67l-.48.48c-3.09,1.95-13.6,5.98-17.12,5.2l-.06-.32c.77-1.11,1.36-1.23,2.6-1.78Z"/>
      <path class="cls-70" d="M250.58,136.39c4.12-.96,8.17-3.41,12.38-4.05,1.32-.2,1.3.14,2.2.95-3.09,1.95-13.6,5.98-17.12,5.2l-.06-.32c.77-1.11,1.36-1.23,2.6-1.78Z"/>
      <path class="cls-46" d="M270.07,158.04c7.26,1.65,15.92-.34,22.15-4.47,4.02-2.67,13.84-13.7,11.88-18.47l-1.5-.97c1.1-3.22,8.23-4.04,11.06-2.17-1.36,1.42-3.57.86-4.1,1.92-3.48,6.98-4.01,12.4-9.82,18.23-7.61,7.64-14.61,10.07-25.4,10.22-3.61.1-9.82,4.69-14.76,4.39-7.08-.43-11.19-2.32-15.75-7.73l.79-.64c4.44,3.79,8.83,6.02,14.83,5.77,3.29-.14,7.43-2.06,8.54-5.34l.48-.62,1.61-.12Z"/>
      <path class="cls-25" d="M289.44,167.38c1-.18,1.19-.22,2.19.13-.21.52-.41.82-.87,1.15-4.05,2.93-9.54,3.08-14.25,2.29-.89-.09-1.67-.24-2.54-.5l.21-.41c4.59-1.76,10.35-2.02,15.25-2.66Z"/>
      <path class="cls-43" d="M243.82,158.99c-.45-.79-.65-1.38-1.01-2.23l.38-.21,1.42,1.81-.79.64Z"/>
      <path class="cls-70" d="M208.84,94.21c1.72-11.09,13.54-19.51,22.68-24.19,19.93-10.21,42.62-14.3,64.88-12.32,3.02.27,7.95.58,10.72,1.45,6.74.41,22.79,4.88,29.65,7.15-1.72,2.78-1.9.8-1.86,2.43,3.99,3.57,13.67,3.6,17.38,8.42-2.07-.53-4.12-1.11-6.16-1.75-2.09.52-2.62.42-4.72-.06l-1.2.67.59.68-.27-.67.71.32-.62.45c4.13,1.65,8.41,2.85,12.67,4.13,1.36.3,6.53,1.66,7.72,2.23l2.32-.16c3.31,1.25,8.58,3.04,11.58,4.55.67.17,1.94.54,2.56.63,2.84.63,5.31,1.15,8.18,1.62,4.05.51,9.65,1.04,13.54,1.81-5.39,8.07-10.83,11.59-19.97,14.99-2.31.86-5.62,1.72-7.52,2.96l-.69-.13c-1.9-.03-3.84-.58-5.71-1-2.38,1.34-4.25.24-5.9,1.55l.19.56c-1.69.08-4.02-.52-5.74-.88,1.67-1.56,4.65-3.69,4.51-6-4.42.9-10.11.08-14.52-.57,5.32-3.76,11.05-7.84,15.88-12.18-19.17.43-26.91-.97-44.92-8.47-2.16-.9-6.04-1.33-8.74-2.4l.2-.62,2.47-1.3c-10.81.59-25.95,7.46-33.42,15.43-3.45,3.68-5.35,8.77-7.09,13.41-4.79-3.15-6.67-4.23-8.61-9.78l-1.35-2.83c-1.8,3.36.19,5.8-.89,9.05-1.03-.84-.78-.62-1.6-1.67l-.45.33c-.18,2.43.62,7.41-.42,8.42-2.79-3.82-8.39-11.8-11.42-14.98l-.54,1.51c-1.82-2.02-6.73-7.52-8.98-8.49-.39,1.06.16,1.65.69,3.05-1.34.66-2.18.9-3.06,2.1-10.11-4.61-16.14-3.18-21.6,6.83-.96,1.88-1.62,3.01-3.59,4.07.75-3.69,1.44-6.73,2.44-10.36Z"/>
      <path class="cls-57" d="M208.84,94.21c1.72-11.09,13.54-19.51,22.68-24.19,19.93-10.21,42.62-14.3,64.88-12.32,3.02.27,7.95.58,10.72,1.45,2.42,2.05,5.59.82,7.69,2.52l-.5.48c-2.47-.09-5.55-1.51-6.53-.91-5.07.15-12.09-1.33-17.37-1.68-5.02-.34-7.92.01-12.88.7-.25,4.9-1.29,10.08-1.47,14.1-2.67,2.11-3.23,2.67-5.39,5.26l-.4-.81c.9-1.59,1.1-1.38,1.11-2.95-.75-.24-.83-.19-1.42-.73.49-1.09.9-1.93,1.44-2.98l-.31-.45c-6.88,5.59-10.53,16.21-11.42,24.84l-.06.65-1.35-2.83c-1.8,3.36.19,5.8-.89,9.05-1.03-.84-.78-.62-1.6-1.67l-.45.33c-.18,2.43.62,7.41-.42,8.42-2.79-3.82-8.39-11.8-11.42-14.98l-.54,1.51c-1.82-2.02-6.73-7.52-8.98-8.49-.39,1.06.16,1.65.69,3.05-1.34.66-2.18.9-3.06,2.1-10.11-4.61-16.14-3.18-21.6,6.83-.96,1.88-1.62,3.01-3.59,4.07.75-3.69,1.44-6.73,2.44-10.36Z"/>
      <path class="cls-6" d="M254.92,110.47c-.01-3.82.11-7.91.41-12.24.3-4.32.76-8.38,1.3-12.16.21.36,1.35,7,1.64,8.27-.59,2.51-.55,4.15-.39,5.2.06.4.27,1.59.04,3.13-.07.48-.17.88-.24,1.14-.22-.05-.67-.18-1.1-.57-.33-.3-.5-.62-.59-.82-.11.1-.23.2-.34.29.18,1.95.33,3.43.49,4.71.09.77.22,1.8-.41,2.52-.26.3-.58.45-.8.54Z"/>
      <path class="cls-25" d="M208.84,94.21c.72,2.81-.1,3.28,1.15,6.29-.96,1.88-1.62,3.01-3.59,4.07.75-3.69,1.44-6.73,2.44-10.36Z"/>
      <path class="cls-34" d="M307.13,59.14c6.74.41,22.79,4.88,29.65,7.15-1.72,2.78-1.9.8-1.86,2.43,3.99,3.57,13.67,3.6,17.38,8.42-2.07-.53-4.12-1.11-6.16-1.75-2.09.52-2.62.42-4.72-.06l-1.2.67.59.68-.27-.67.71.32-.62.45c-3.69-2.78-19.32-13.91-40.53-11.34-12.34,1.5-21.18,6.98-25.62,10.22-.2-1.87-.28-4.5.28-7.55.63-3.42,1.83-6.08,2.78-7.84,1.76-.64,4.42-1.41,7.72-1.58,2.5-.13,4.38.14,5.39.29,4.49.64,10.15,1.37,17.14,2.27.84.17,1.69.34,2.55.54,1.52.34,2.99.7,4.4,1.09.24-.4.49-.81.73-1.21-1.18-.53-2.56-1.07-4.12-1.53-1.54-.46-2.96-.77-4.23-.97Z"/>
      <path class="cls-33" d="M306.53,58.97c4.63.52,9.85,1.37,15.49,2.74,5.53,1.34,10.47,2.95,14.76,4.58-1.72,2.78-1.9.8-1.86,2.43,3.99,3.57,13.67,3.6,17.38,8.42-2.07-.53-4.12-1.11-6.16-1.75-4.2-1.26-11.59-2.21-15.02-3.77-9.34-4.25-13.22-7.36-23.32-10.38.98-.6,4.07.82,6.53.91l.5-.48c-.97-.58-1.83-.84-2.51-.97-1.56-.3-2.36.08-3.66-.35-.94-.31-1.63-.87-2.12-1.37Z"/>
      <path class="cls-10" d="M385.65,89.77c4.05.51,9.65,1.04,13.54,1.81-2.5,3.95-5.23,6.56-7.16,8.15-.57.47-2.79,2.27-6.07,4.02-.99.53-2.08,1.05-6.85,2.94-1.87.74-4.39,1.72-7.41,2.85l-.69-.13c-.6.15-1.72.35-3.07.09-1.24-.24-2.14-.75-2.64-1.1-1.41-.6-2.81-.91-4.29-1.3l-.13-.64c1.67-1.85,1.65-3.14,3.65-4.32,2.45-.68,3.07-.98,5.33-2.16.73-1.24,1.02-1.34,2.06-2.34l-.57-.92c1.59-1.25,1.52-1.17,2.4-2.99l.3.07c1.6-.48,2.07-.48,3.13-1.78,1.61-.01,2.45.34,3.97.79l.54-.72c1.38-1.34,1.61-1.67,3.54-1.69l.42-.63Z"/>
      <path class="cls-37" d="M385.65,89.77c2.16.09,4.47.26,6.9.54,2.58.3,4.99.68,7.23,1.11-2.6,4.49-5.5,7.15-7.49,8.68-2.9,2.22-6.33,3.67-13.08,6.48-3.16,1.31-5.78,2.32-7.52,2.96l-.69-.13c-1.05-1.47-1.23-1.24-1.33-2.76,2.97-2.27,16.17-2.98,18.07-9.04,1.14-3.65-3.31-5.16-6.05-5.52,1.38-1.34,1.61-1.67,3.54-1.69l.42-.63Z"/>
      <path class="cls-60" d="M373.75,93.73l.3.07c.95-.23,2.31-.43,3.94-.29,1.1.1,2.03.33,2.75.57-1.3,1.09-2.9,2.26-4.8,3.38-2.61,1.54-5.07,2.54-7.1,3.21.27-.53.76-1.3,1.61-1.98.35-.28.7-.49,1.01-.64-.23-.37-.46-.74-.68-1.11.47-.58.98-1.17,1.55-1.77.48-.52.95-1,1.42-1.44Z"/>
      <path class="cls-34" d="M377.18,92.02c1.61-.01,2.45.34,3.97.79,1.66.39,2.4.21,3.17,1.25-1.23.73-2.29.52-3.57.03-1.68-.21-4.87-.22-6.7-.29,1.6-.48,2.07-.48,3.13-1.78Z"/>
      <path class="cls-49" d="M339.7,79.65c3.24.39,7.62,1.74,11.79,2.3l1.79-1.05c1.36.3,6.53,1.66,7.72,2.23l2.32-.16c1.9.74,3.87,1.46,5.91,2.17,1.99.69,3.93,1.34,5.83,1.93,1.56.26,3.18.57,4.85.94,2.52.55,4.88,1.17,7.09,1.82-.59.19-1.18.38-1.77.57-.37.14-.84.36-1.34.72-.55.4-.94.82-1.2,1.15l-.72.71c-.18-.03-.47-.08-.83-.17-1.3-.3-1.76-.57-2.72-.72-.28-.04-.71-.09-1.25-.08-4.13-.96-8.77-3.87-12.58-4.7-9.33-2.04-16.1-3.61-24.9-7.67Z"/>
      <path class="cls-45" d="M353.29,80.89c1.36.3,6.53,1.66,7.72,2.23l-.15.45c-2.89-.27-6.45-1.06-9.36-1.62l1.79-1.05Z"/>
      <path class="cls-45" d="M358.36,103.64c.48-.81.29-.63.97-1.26l.29.44c2.28-.69,2.75-2.13,2.43-4.38-1.33-.39-1.59.04-3.22.61,1.13-1.63,5.05-4.19,6.91-3.76.51,1.64.68,1.3,2.47,2.56.55-.07,2.51-.89,3.15-1.13l.57.92c-1.05,1-1.33,1.1-2.06,2.34-2.26,1.18-2.89,1.47-5.33,2.16-.49.77-1.05,1.57-1.67,2.4-.46.61-.92,1.19-1.37,1.72.03.19.06.38.1.57.64.08,1.12.25,1.44.38.54.23.79.44,1.54.86.53.3.96.51,1.24.64-1.1.34-2.3.66-3.6.93-.87.18-1.71.33-2.51.45l-.1.42c-1.69.08-4.02-.52-5.74-.88,1.67-1.56,4.65-3.69,4.51-6Z"/>
      <path class="cls-34" d="M368.2,97.85c.55-.07,2.51-.89,3.15-1.13l.57.92c-1.05,1-1.33,1.1-2.06,2.34-.64.51-1.62,1.15-2.93,1.61-.92.33-1.75.47-2.41.54.48-3.25.87-2.91,3.68-4.29Z"/>
      <path class="cls-34" d="M365.74,95.3c2.64-.92,5.22-1.51,8.01-1.57-.24.52-.55,1.11-.94,1.72-.41.65-.83,1.2-1.22,1.66-.37.31-.84.65-1.43.96-1.13.59-2.18.78-2.89.85-.3-.22-1.13-.9-1.45-2.09-.17-.63-.14-1.18-.09-1.54Z"/>
      <path class="cls-39" d="M308.73,78.11c1.57.22,1.03-.13,2.1.69-1.9.65-2.51.56-4.57.61l2.47-1.3Z"/>
      <path class="cls-39" d="M270.28,78.79l.4.81c-1.09,1.97-2.51,3.91-3.8,5.77,1.06-2.38,2.15-4.32,3.4-6.58Z"/>
      <path class="cls-70" d="M209.95,143c1.25.52,1.92.51,2.4,1.43-1.65.17-1.6.16-3.24-.15l.84-1.28Z"/>
      <path class="cls-70" d="M290.72,96.34c5.62-.62,8.06,1.37,10.43,6.38,1.04,6-.84,12.41-7.1,14.53l-.4-.18c.14-1.78.69-5.43.1-6.82l-.33,1.04c-.94-1.78-.46-1.49-1.96-2.25-.59-.72-.86-2.66-1.1-3.72-2.06-2.25-2.52-2.65-4.95-4.39,2.03-2.1,2.78-2.99,5.31-4.59Z"/>
      <path class="cls-69" d="M301.15,102.72c1.04,6-.84,12.41-7.1,14.53l-.4-.18c.14-1.78.69-5.43.1-6.82.05-2.24,0-2.35,1.01-4.29l-.17-.86c1.79-1.11,1.69-1.04,3.81-1.23,2.24-.24,1.41.25,2.76-1.15Z"/>
      <path class="cls-40" d="M294.75,105.96c2.82,4.69,2.21,6.75-.71,11.29-.01,0-.11.07-.22.03-.09-.03-.16-.11-.18-.21.18-1.01.24-2.21.32-3.56.08-1.31.07-2.57-.22-3.26.05-2.24,0-2.35,1.01-4.29Z"/>
      <path class="cls-25" d="M290.72,96.34c5.62-.62,8.06,1.37,10.43,6.38-1.35,1.4-.52.91-2.76,1.15.07-.15.13-.87.16-1.07-3.49-5.7-5.22-3.22-7.83-6.45Z"/>
      <path class="cls-58" d="M290.35,105.32c1.16-1.59.81-1.7,2.25-1.97.92.71,1.2.9,1.98,1.75l.17.86c-1,1.94-.96,2.05-1.01,4.29l-.33,1.04c-.94-1.78-.46-1.49-1.96-2.25-.25-.24-.78-.8-1.04-1.71-.27-.91-.13-1.68-.05-2.02Z"/>
      <path class="cls-25" d="M235.32,133.74c-6.62-2.32-9.69-15.48-5.28-18.25,1.43.04.83-.24,1.89.64l-.23,1.29c1.78,1.42-.09-.53,2.21.06,1.2,1.96,2.15,3.12,1.37,5.37-2.87,2.74-.13,5.44,2.12,7.41,4.56-.38,4.49-1.62,8.17-3.42-1.33,1.54-2.85,3.54-4.52,4.59-1.49,1.05-2.88,2.27-4.63,2.6l-1.11-.29Z"/>
      <path class="cls-56" d="M235.25,133.72c.09-.21.18-.41.28-.62-1.98-2.15-5.92-7.61-4.07-10.46,2.02-.62,1.46-.4,3.83.22-.92.97-1.07,1.82-1.09,2.23-.1,1.6,1.19,3.01,2.47,4.41.3.33.56.59.75.76.97-.08,2.23-.19,3.56-.75,1.45-.61,2.28-1.53,4.61-2.67-.75,1.21-1.9,2.71-3.62,4.02-.48.37-.96.68-1.42.95-.55.53-1.36,1.19-2.46,1.73-.61.3-1.19.5-1.69.64-.38-.16-.76-.31-1.14-.47Z"/>
      <path class="cls-51" d="M237.34,130.28c1.09-.44,2.19-.88,3.3-1.34,1.68-.69,3.33-1.39,4.95-2.09-.46.75-1.1,1.66-2,2.59-1.09,1.12-2.18,1.87-3.04,2.37-.32-.75-.77-1.05-.98-1.16-.48-.26-1.07-.3-1.88-.35-.15,0-.27-.01-.34-.02Z"/>
      <path class="cls-51" d="M291.45,109.04c1.51.76,1.02.48,1.96,2.25l.33-1.04c.26.7.57,1.75.6,3.07.04,1.68-.39,2.99-.7,3.75-3.9,1.01-10.82.11-11.55-4.59,2.24,1.2,3.49,2,5.96,2.7,3.14-.68,3.17-2.7,3.37-5.58l.03-.56Z"/>
      <path class="cls-67" d="M94.02,120.6c17.16-18.96,42.81-14.74,60.93.53,5.04,4.25,10.81,9.83,14.2,15.4,2.16,2.69,8.27,13.2,6.98,16.52-3.58,2.06-19.84,11.68-22.15,14.14l-3.94,2.85c-9.04,6.8-17.91,16.79-24,26.04-21.79-6.66-36.02-25.62-40.1-46.41-1.67-8.52-.44-18.32,5.28-25.32.88-1.27,1.85-2.5,2.79-3.74Z"/>
      <path class="cls-20" d="M96.57,122.42c4.63-5.41,9.92-8.93,15.51-10.82,19.36-6.56,37.72,8.17,41.69,11.34,12.42,9.95,17.4,22.7,19.38,29.12-.54.38-1.09.76-1.63,1.14-2.1-6.41-8.45-22.68-24.9-33-4.82-3.02-13.29-8.34-25.24-7.87-12.98.52-21.86,7.54-24.81,10.09Z"/>
      <path class="cls-61" d="M253.94,7.64c8.85-4.37,24.79-2.55,33.91.52,6.77,2.28,16.3,8.74,21.08,13.86-5.22,6.13-11.82,12.45-14.35,19.97l-2.31,1.13c11.3,3.05,23.18,6.17,34.27,9.46,17.1,5.06,32.46,9.41,50.39,10.75,7.88.59,16.69,1.44,23.86,5.01-3.49.32-7.88.58-11.29-.23-7.57-.05-23.01-.95-30.02-2.37-14.88-2.84-30.2-7.73-45.03-10.38-15.15-2.71-38.04-3.73-52.92-.14l-2.98.3c-1.19.16-2.39.3-3.58.42-2.03.5-4.51,1.19-6.53,1.57-4.31,1.35-20,7.87-22.68,10.73-.83,1.68-4.52,3.76-6.37,5.02l-.05-.47c-4.34,2.52-6.67,5.87-10.11,9.25l-.29.23c-.86-1.99-.62-5.38-.65-7.49-.26-20.9,2.72-40.52,20.4-53.95,3.4-2.58,3.87-5.07,8.79-7.14.3.21.86.57,1.06.82,4.74-3.1,10.03-5.15,15.4-6.85Z"/>
      <path class="cls-80" d="M237.48,13.67c-1.85,2.4-3.51,3.34-5.12,5.33-2.66,10.43-2.77,7.68-3.48,19.16l1.68-.77c10.34-5.26,21.51-7.95,28,4.49,1.59,2.8,1.94,6.04,2.37,9.21.17,1.39.3,2.75.61,4.12l-2.98.3c-1.19.16-2.39.3-3.58.42-2.03.5-4.51,1.19-6.53,1.57-4.31,1.35-20,7.87-22.68,10.73-.16.57-.78,2.48-2.72,3.82-1.5,1.03-3.01,1.18-3.65,1.2l-.05-.47c-4.34,2.52-6.67,5.87-10.11,9.25l-.29.23c-.86-1.99-.62-5.38-.65-7.49-.26-20.9,2.72-40.52,20.4-53.95,3.4-2.58,3.87-5.07,8.79-7.14Z"/>
      <path class="cls-65" d="M237.48,13.67c-1.85,2.4-3.51,3.34-5.12,5.33-2.66,10.43-2.77,7.68-3.48,19.16-5.41,3.99-9.07,9.09-10.07,15.96-.82,5.63.86,11.54,1.35,17.19-.27.49-.55.98-.82,1.47-4.34,2.52-6.67,5.87-10.11,9.25l-.29.23c-.86-1.99-.62-5.38-.65-7.49-.26-20.9,2.72-40.52,20.4-53.95,3.4-2.58,3.87-5.07,8.79-7.14Z"/>
      <path class="cls-2" d="M237.48,13.67c-1.85,2.4-3.51,3.34-5.12,5.33-3.66,3.28-7.51,6.5-10.78,10.16-10.03,11.23-11.29,27.96-12.06,42.36-.17,3.5-.26,7.01-.28,10.51l-.29.23c-.86-1.99-.62-5.38-.65-7.49-.26-20.9,2.72-40.52,20.4-53.95,3.4-2.58,3.87-5.07,8.79-7.14Z"/>
      <path class="cls-29" d="M248.53,48.85l1.28,1.92c.49-.2.99-.39,1.48-.59.2.4.41.89.57,1.47.2.68.28,1.29.32,1.79-.08.46-.27,1.19-.8,1.91-1.08,1.49-2.74,1.81-3.14,1.87l.2.28c-4.31,1.35-20,7.87-22.68,10.73-.97.49-1.33.62-2.34,1l-.91-.55c-1-1.9-1.1-6.16-1.64-8.88,2.01-.42,2.29-.62,4.11.08,5.24-3.86,10.85-6.06,16.84-8.37.52-.55,2.02-1.24,2.78-1.64.61.07,2.45-.28,3.16-.39l.77-.63Z"/>
      <path class="cls-80" d="M244.6,49.87c.83,2.09.85,2.56,1.06,4.82-1.29,1-1.26.95-2.81,1.51-3.8,1.55-15.65,8.32-17.84,7.85-.86-1.38-.67-2.65-.03-4.17,5.24-3.86,10.85-6.06,16.84-8.37.52-.55,2.02-1.24,2.78-1.64Z"/>
      <path class="cls-30" d="M236.12,55.49l.27.97c-1.26,2.76-6.06,4.23-8.68,5.44l-.28-.33.17-1.09c2.19-2.59,5.46-3.75,8.52-4.99Z"/>
      <path class="cls-30" d="M242.62,55.32c-2.38.56-2.5,1.1-4.24.31l-.08-.85c1.2-1.62,1.74-1.68,3.67-2.54.45,1.19.84,1.83.64,3.08Z"/>
      <path class="cls-30" d="M248.53,48.85l1.28,1.92.17,2.31c-.83.91-.32.64-1.44,1.01-1.29.37-1.57.46-2.88.6-.21-2.26-.23-2.73-1.06-4.82.61.07,2.45-.28,3.16-.39l.77-.63Z"/>
      <path class="cls-80" d="M248.53,48.85l1.28,1.92.17,2.31c-.83.91-.32.64-1.44,1.01-.17-1.55-.49-3.08-.78-4.61l.77-.63Z"/>
      <path class="cls-80" d="M258.56,41.88c.62,1.07,1.28,2.46,1.7,4.15.39,1.57.37,2.53.66,5.06.14,1.21.35,2.76.68,4.54l-3,.35c-.57.05-1.2.08-1.88.06-.63-.01-1.21-.06-1.74-.12-2.03.5-4.51,1.19-6.53,1.57l-.2-.28c1.83-1.25,2.86-1.83,3.57-4-.16-1.55-.05-1.58-.84-2.89l-.31-3.09,3.65-1.55-1.38-2.07,2.02.17,1.83-.78,1.77-1.14Z"/>
      <path class="cls-40" d="M254.39,45.11c.1.36.19.72.29,1.09.1,3.25.2,6.49.3,9.74-2.03.5-4.51,1.19-6.53,1.57l-.2-.28c.78-.66,1.6-1.48,2.37-2.51.19-.26.38-.51.54-.77.1-.55.18-1.28.1-2.14-.05-.57-.16-1.07-.28-1.47-.09-1.13-.17-2.25-.26-3.38,1.22-.62,2.45-1.23,3.67-1.85Z"/>
      <path class="cls-80" d="M255.75,45.7l.99,1.78c.45,1.93,1.29,5.97,1.87,7.69l-.06.34c-1.19.16-2.39.3-3.58.42l-.58-9.36,1.35-.87Z"/>
      <path class="cls-2" d="M254.96,43.8l1.83-.78c.3,1.31.65,3.16,1.1,4.36l-1.15.1-.99-1.78-1.35.87-.08-.88-1.38-2.07,2.02.17Z"/>
      <path class="cls-14" d="M252.94,43.63c.3-.35.76-.52,1.19-.43.53.11.79.54.83.61.26.63.53,1.27.79,1.9-.03.09-.18.52-.63.75-.31.16-.6.14-.72.13-.01-.13-.02-.26-.04-.39l-1.42-2.56Z"/>
      <path class="cls-40" d="M257.89,47.38c.61,2.46,1.3,4.63,1.3,7.16l-.58.62c-.58-1.72-1.42-5.76-1.87-7.69l1.15-.1Z"/>
      <path class="cls-2" d="M252.94,43.63c.42.75.84,1.51,1.26,2.26-1.18.45-2.36.9-3.53,1.35l.31,3.09-1.17.44-1.28-1.92-.77.63c-.71.11-2.55.46-3.16.39-.75.4-2.26,1.09-2.78,1.64-5.99,2.32-11.6,4.51-16.84,8.37-1.82-.7-2.1-.5-4.11-.08,1.12-3.47,27.21-14.73,32.06-16.17Z"/>
      <path class="cls-30" d="M248.53,48.85c.07-.06.96-.75,1.03-.8.12-.09,1.2-.93,1.31-1.02.14,1.14.28,2.28.41,3.41-.49.11-.99.22-1.48.33l-1.28-1.92Z"/>
      <path class="cls-5" d="M240.9,35.93c1.79-.21,3.88-.29,5.67-.03,2.01.28,4.19,1,5.42,2.64l-.24,1.17c-3.79,4.74-15.76,8.94-21.44,11.45-2.74,1.29-5.51,2.51-8.27,3.75.93-3.55,2.16-7.29,4.16-10.39,3.44-5.31,8.78-7.44,14.71-8.59Z"/>
      <path class="cls-14" d="M260.92,51.1h.53c11.56.14,24.22-2.55,36.02-1.4,11.96,1.16,21.34,3.95,32.75,7.15,9.06,2.54,19.96,4.54,29.42,6.63,9.39,2.07,25.14.53,34.2,4.18.79.32.43.31,1.46.36-1.54-.32-4.23-.09-5.8.1-7.57-.05-23.01-.95-30.02-2.37-14.88-2.84-30.2-7.73-45.03-10.38-15.15-2.71-38.04-3.73-52.92-.14-.31-1.37-.44-2.73-.61-4.12Z"/>
      <path class="cls-14" d="M237.48,13.67c.3.21.86.57,1.06.82-4.27,4.31-6.84,8.7-7.58,14.9-.71,1.61-.45,6.03-.41,8l-1.68.77c.71-11.48.82-8.74,3.48-19.16,1.6-1.99,3.26-2.92,5.12-5.33Z"/>
      <path class="cls-41" d="M253.94,7.64c-1.02,2.22-10.85,4.75-14.43,7.46-5.84,4.43-5.92,11.08-8.55,14.29.74-6.2,3.3-10.59,7.58-14.9,4.74-3.1,10.03-5.15,15.4-6.85Z"/>
      <path class="cls-14" d="M292.27,43.12c-1.13-.18-1.12-.16-2.15-.65l.47-.5c2.02-.33,1.95-.31,3.99.03l-2.31,1.13Z"/>
      <path class="cls-74" d="M205.33,207.78c.41-1.48.55-5.2.64-6.91l.42-.19c8.19,3.43,10.83,5.68,19.74,5.1,2.16,1.69,2.7,2.1,4.4,4.23,7.66,7.35,13.87,26.86,14.11,37.47.03,1.29.04,2.58.03,3.87-3.17,2.07-10.02,5.92-13.65,6.74-12.85.77-28.63-9.1-37.19-18.14-1.29-1.36-9.57-9.81-9.57-11.34,5.12-.59,6.51-1.49,10.86-4.01l3.38-2.92,2.48-2.95c1.52-2.68,2.24-4.43,3.42-7.26l.92-3.67Z"/>
      <path class="cls-15" d="M205.33,207.78c.41-1.48.55-5.2.64-6.91l.42-.19c8.19,3.43,10.83,5.68,19.74,5.1,2.16,1.69,2.7,2.1,4.4,4.23l-.42.16c-.53.2-.92.32-1.46.48.04,1.39.29,1.42,1.08,2.73,1.49,2.28,2.79,5.33,3.83,7.88,1.73,2.93,2.98,7.56,3.43,10.93,1.76,13.44-19.19,1.96-22.73,2.37.58,2.23,3.38,4.37,5.16,5.86-6.65-2.88-12.25-5.34-16.78-11.37-.5,1.27-.07.87-1.06,1.49-1.83-.5-3.28-2.28-4.69-3.67-.73-.8-1.13-1.4-1.76-2.27l3.38-2.92,2.48-2.95c1.52-2.68,2.24-4.43,3.42-7.26l.92-3.67Z"/>
      <path class="cls-39" d="M205.33,207.78c.41-1.48.55-5.2.64-6.91l.42-.19c8.19,3.43,10.83,5.68,19.74,5.1,2.16,1.69,2.7,2.1,4.4,4.23l-.42.16c-.53.2-.92.32-1.46.48.04,1.39.29,1.42,1.08,2.73l-1.53.58c-.49-.57-1.42-1.13-2.06-1.59-3.09.18-16.19,1-18.33.19-.81-2.07-1.31-2.84-2.47-4.77Z"/>
      <path class="cls-25" d="M206.39,200.68c8.19,3.43,10.83,5.68,19.74,5.1,2.16,1.69,2.7,2.1,4.4,4.23l-.42.16c-.53.2-.92.32-1.46.48.04,1.39.29,1.42,1.08,2.73l-1.53.58c-.49-.57-1.42-1.13-2.06-1.59-5.57-1.87-14.14-5.96-19.08-9.39-.95-.66-.66-1.09-.67-2.3Z"/>
      <path class="cls-30" d="M200.99,218.72c-.18,2.35-.3,3.26-.86,5.55l2.51,4.78c-.5,1.27-.07.87-1.06,1.49-1.83-.5-3.28-2.28-4.69-3.67-.73-.8-1.13-1.4-1.76-2.27l3.38-2.92,2.48-2.95Z"/>
      <path class="cls-37" d="M198.51,221.67l.98,1.71c-.73,2.04-1.32.91-2.6,3.48-.73-.8-1.13-1.4-1.76-2.27l3.38-2.92Z"/>
      <path class="cls-34" d="M205.33,207.78c1.16,1.93,1.66,2.7,2.47,4.77-.65,1.46-.15,1.03-1.26,1.81-.76-1.15-1.29-1.84-2.14-2.91l.92-3.67Z"/>
      <path class="cls-39" d="M228.2,213.95l1.53-.58c1.49,2.28,2.79,5.33,3.83,7.88-2.26-1.31-3.83-4.99-5.36-7.3Z"/>
      <path class="cls-45" d="M231.03,258.09c-12.85.77-28.63-9.1-37.19-18.14-1.29-1.36-9.57-9.81-9.57-11.34,2.16,1.33,5.7,5.44,7.41,7.35,8.05,8.97,16.57,15.64,28.28,19.07,1.48.43,10.61,2.74,11.07,3.06Z"/>
      <path class="cls-42" d="M307.49,30.2c4.89-7.51,34.34-27.49,43.79-22.9,7.34,3.57,8.02,34.19,7.15,43.01-.29,2.22-.53,4.4-.97,6.59-2.2-.36-6.81-.73-8.07-2.35-1.82-.46-4.03.34-5.99-.17-4.95-1.21-9.73-3.38-14.66-4.63-4.64-1.18-7.87-1.3-12.31-3.17-2.03.25-15.11-3.3-17.91-4.02,2.28-4.11,5.72-9,8.96-12.37Z"/>
      <path class="cls-35" d="M324.46,32.12c10.33-8.88,8.67-9.7,22.65-15.37,3.95,10.87,4.13,20,3.56,31.51-.33,1.84-.71,4.6-1.29,6.29-1.42.27-3.51.56-6.03.52-3.46-.05-6.76-.69-15.36-3.87-3.1-1.15-7.04-2.67-11.56-4.62.47-3.88,5.83-11.24,8.02-14.46Z"/>
      <path class="cls-36" d="M298.53,42.57c2.28-4.11,5.72-9,8.96-12.37-.16.88-.3,1.63-.49,2.52,1.03,2.35,2.21,3.67,4.05,5.49,3.2-.45,4.04-.64,7.1-1.67l.53.42c-1.51.83-1.78.94-3.41,1.5,1.15.11,1.79.35,2.86.76,2.33-1.13,1.9-5.09,6.34-7.11-2.19,3.22-7.55,10.58-8.02,14.46-2.03.25-15.11-3.3-17.91-4.02Z"/>
      <path class="cls-69" d="M349.39,54.56c.57-1.69.96-4.45,1.29-6.29.41,5.63,3.12,2.4,6.97,3.04l.78-1c-.29,2.22-.53,4.4-.97,6.59-2.2-.36-6.81-.73-8.07-2.35Z"/>
      <path class="cls-53" d="M168.64,174.41c.05-1.33-.09-1.47.58-2.58,1.42-.87,3.54-.35,5.31-.16,16.05,1.37,22.52,2.64,26.36,20.17.26,2.59.35,3.67.19,6.25l.06,2.92c-.77,8.08-2.71,15.14-9.36,20.6-1.93,1.59-7.66,4.58-10.08,3.32.55-3.1,2.92-6.9,2.67-8.87l.17-2.05c-.6-1.09-.59-1.16-.92-2.38-.62-4.45-.98-7.22-2.9-11.31l-.38-.48c-2.42-2.93-3.99-3.44-7.48-4.63-2.12-5.77-2.79-6.29-7.51-10.17-.93-2.74-1.52-4.4-1.15-7.25.51,1.36,1.06,2.73,1.51,4.11.29-2.78-.62-6.35.23-7.98.83.33,1.59,5.02,2.84,6.54.44-1.16-.02-4.55-.13-6.04Z"/>
      <path class="cls-74" d="M168.64,174.41c.05-1.33-.09-1.47.58-2.58,1.42-.87,3.54-.35,5.31-.16,16.05,1.37,22.52,2.64,26.36,20.17.26,2.59.35,3.67.19,6.25l.06,2.92-1.13-.1c-5.17-4.33-9.04-7.69-12.65-13.44,1.73-2.99,2.36-3.92,3.37-7.25-1.45-1.36-1.31-1.75-3.31-3.22l-.51-1.86.56-.78c-.9-.07-2.5.43-3.64.5-4.57.29-10.89,1.03-15.2-.46Z"/>
      <path class="cls-34" d="M168.64,174.41c.05-1.33-.09-1.47.58-2.58,1.42-.87,3.54-.35,5.31-.16,16.05,1.37,22.52,2.64,26.36,20.17l-.65,3.04c-1.3-7.23-2.67-12.7-8.22-18-1.35,1.65-.94,1.01-1.29,3.35-1.45-1.36-1.31-1.75-3.31-3.22l-.51-1.86.56-.78c-.9-.07-2.5.43-3.64.5-4.57.29-10.89,1.03-15.2-.46Z"/>
      <path class="cls-5" d="M187.47,174.37c2.16.7,2.81.98,4.54,2.51-.05.41-.14.9-.32,1.44-.28.83-.65,1.47-.97,1.91-.3-.02-1.28-.11-2.14-.88-1.02-.9-1.15-2.08-1.17-2.34l-.51-1.86.56-.78Z"/>
      <path class="cls-32" d="M200.88,191.84c.26,2.59.35,3.67.19,6.25-.87-1.37-.75-1.61-.84-3.22l.65-3.04Z"/>
      <path class="cls-25" d="M180.33,199.84c1.3-2.89,2.3-5.38,4.08-8.02l.94.63c3.77,3.42,7.47,6.49,10.6,10.5l-1.31.1c-5.31,2.03-7.7,4.24-11.03,8.57-.62-4.45-.98-7.22-2.9-11.31l-.38-.48Z"/>
      <path class="cls-8" d="M180.33,199.84c1.3-2.89,2.3-5.38,4.08-8.02l.94.63c-1.66,3.19-2.58,4.95-4.64,7.87l-.38-.48Z"/>
      <path class="cls-74" d="M168.64,174.41c4.31,1.49,10.63.75,15.2.46,1.13-.07,2.74-.57,3.64-.5l-.56.78.51,1.86c-.89,2.59-1.52,4.51-4.16,5.69-4.59,2.05-11.08,1.72-14.48-2.25.44-1.16-.02-4.55-.13-6.04Z"/>
      <path class="cls-19" d="M164.18,177.78c.51,1.36,1.06,2.73,1.51,4.11,2.74,8.38,14.15,5.28,18.72,9.94-1.78,2.64-2.78,5.12-4.08,8.02-2.42-2.93-3.99-3.44-7.48-4.63-2.12-5.77-2.79-6.29-7.51-10.17-.93-2.74-1.52-4.4-1.15-7.25Z"/>
      <path class="cls-46" d="M194.65,203.06c-2.41,4.74-6.87,5.34-10.11,10.95-.6-1.09-.59-1.16-.92-2.38,3.34-4.33,5.72-6.54,11.03-8.57Z"/>
      <path class="cls-39" d="M194.65,203.06l1.31-.1c-.11.57-.24,1.26-.39,2.08-4.39,4.72-7.44,5.34-11.2,11.03l.17-2.05c3.25-5.61,7.71-6.21,10.11-10.95Z"/>
      <path class="cls-74" d="M337.56,166.17l1.43-1.15,1.45.32.2-.78c.14,1.47-2.86,5.87-3.78,7.37,5.68,1.01,8.11-7.34,11.46-9.37-.21,1.79-10.62,19.95-12.14,22.17-8.5,13.19-18.16,23.6-34.61,14.99-2.6-1.32-4.02-2.5-6.3-4.25-1.53-1.18-5.5-5.11-6.13-6.9l1.6-.24c6.83-3.12,8.71-2.12,15.12-7.41.4-.79,3.57-4.11,4.39-4.96l.84.23c.79-.95,1.17-1.45,2.1-2.27l.64-.56c3.83.36,3.69-.31,7.1-.83l2.42.36c.94-.94,12.15-5.77,14.22-6.72Z"/>
      <path class="cls-24" d="M324.59,185.36l.83-.46.73.25.81-.79.55.35-.46.9c3.46-.61,4.73-4.93,8.1-3.74,1.01,1.32.97,1.21,1.03,2.87-8.5,13.19-18.16,23.6-34.61,14.99,4.22-.78,10.73-5.16,13.76-8.23,2.36-1.97,6.35-3.82,9.27-6.12Z"/>
      <path class="cls-3" d="M336.87,166.48c.72-.59,1.44-1.17,2.16-1.76l1.18.16c.33-.29.66-.57.99-.86-.2,1.1-.61,2.65-1.5,4.34-.86,1.63-1.86,2.82-2.63,3.61,1.83-.92,3.67-1.83,5.5-2.75.81-1.68,2.15-3.84,4.37-5.76.56-.48,1.12-.9,1.67-1.26-.18.65-.49,1.68-.99,2.9-1.41,3.47-2.67,4.49-4.87,8.38-1.55,2.74-1.22,2.76-2.82,5.57-1.44,2.52-2.82,4.45-3.74,5.68.04-.29.09-.88-.16-1.56-.12-.34-.37-.65-.87-1.3-3.37-1.18-4.64,3.13-8.1,3.74l.46-.9-.55-.35-.81.79-.73-.25-.83.46-.92-.13c.14-.84.07-.54.28-1.3l.14-.51-.94-.77c.98-.69,1.79-1.22,2.8-1.85.89.62.52.49,1.61.57,3.33-3.11,8.01-9.39,9.56-13.55l-.21-.26-.06-1.09Z"/>
      <path class="cls-1" d="M305.85,180.92c-3.83,7.1.21,8.73-11.75,7.87l-3.37-.46c6.83-3.12,8.71-2.12,15.12-7.41Z"/>
      <path class="cls-3" d="M291.38,188.04l2.72.75.49,1.31,7.06,1.87.22.78c-3.21,2.25-5.64-1.73-6.61,2.71-1.07-.62-2.44-1.55-3.83-2.91-1.39-1.37-2.34-2.73-2.97-3.8.25-.2.73-.51,1.4-.67.65-.15,1.19-.1,1.5-.04Z"/>
      <path class="cls-14" d="M301.65,191.98c-1.91,1.26-9.09.75-9.83-2.06,1.24-.49,1.18-.21,2.77.19l7.06,1.87Z"/>
      <path class="cls-37" d="M323.16,182.65l.94.77-.14.51c-.2.76-.13.47-.28,1.3l.92.13c-2.92,2.31-6.91,4.16-9.27,6.12,1.6-4.06,4.43-6.38,7.83-8.83Z"/>
      <path class="cls-3" d="M322.47,171.19c.79.27,1.58.54,2.36.81-.69.74-1.78,1.71-3.36,2.32-1.07.42-1.09.34-2.08.56-3.17.69-2.92,4.01-6.89,3.4,2.25-.22,3.23-.36,4.3-2.73-.71-1.14-1.69-1.44-2.97-2.19,1.19-.17,2.17-.31,2.83-.4.84-.12,1.68-.27,2.52-.38,1.11-.15,1.67-.19,2.33-.57.46-.27.78-.59.97-.82Z"/>
      <path class="cls-5" d="M176.62,66.43c-.22-1.51-.33-1.69-.07-3.22,3.75-5.54,22.12-5.75,28.17-3.77l-.3,6.35.18,1.6c-.13,2.03.25,2.45-.84,3.47l-1.19-.02-.51.48c.79.39,1.64.57,1.7,1.22.53,5.58.61,21.15-1.27,25.92l-1.12,5.96c-3.27-2.17-6.9-4.34-9.23-7.51-7.37-6.64-14.08-20.32-15.52-30.47Z"/>
      <path class="cls-52" d="M176.62,66.43c-.22-1.51-.33-1.69-.07-3.22,3.75-5.54,22.12-5.75,28.17-3.77l-.3,6.35.18,1.6c-.13,2.03.25,2.45-.84,3.47l-1.19-.02c-5.09-1.97-14.65-2.57-20.12-1.99,2.35,7.91,4.98,14.21,10.25,20.74-.76,1.88-1.98,4.12-.9,5.99.42.73.31.48.34,1.33-7.37-6.64-14.08-20.32-15.52-30.47Z"/>
      <path class="cls-70" d="M176.62,66.43c-.22-1.51-.33-1.69-.07-3.22,3.75-5.54,22.12-5.75,28.17-3.77l-.3,6.35-9.99-.12c-4.3-.54-12.83,1.17-17.81.77Z"/>
      <path class="cls-34" d="M194.43,65.66l9.99.12.18,1.6c-2.47.08-8.34-.2-10.52-1.36l.35-.36Z"/>
      <path class="cls-34" d="M192.7,89.58c3.46,3.98,5.66,5.64,9.8,8.88l-1.12,5.96c-3.27-2.17-6.9-4.34-9.23-7.51-.03-.85.08-.6-.34-1.33-1.08-1.87.14-4.11.9-5.99Z"/>
      <path class="cls-75" d="M154.95,171.19c2.64-1.97,5.33-3.89,8.07-5.74-.29,4.1-3.23,4.74-4.82,9.36,3.12-1.26,3.3-4.77,9.21-6.06-3.04,2.95-3.86,3.74-5.17,7.94.1,2.28.14,5.24.41,7.45-5.33.24-11.43.53-15.85,3.89l-1.44,1.62c-4.26,12.19-1.49,9.63-15.57,9.5,2.41-4.92,11.83-16.2,16.31-19.96,1.17-1.45,3.61-3.51,5.08-4.82,1.26-1.06,2.52-2.12,3.78-3.18Z"/>
      <path class="cls-54" d="M158.19,174.82c3.12-1.26,3.3-4.77,9.21-6.06-3.04,2.95-3.86,3.74-5.17,7.94.1,2.28.14,5.24.41,7.45-5.33.24-11.43.53-15.85,3.89l-1.44,1.62c.78-4.38.98-5.14,3.59-8.7,2.27-1.13,4.62-4.08,8.61-5.9l.64-.23Z"/>
      <path class="cls-8" d="M157.55,175.05c-1.74,1.07-4.24,2.9-6.59,5.77-2.21,2.71-3.46,5.35-4.17,7.21-.15.31-.32.64-.53.98-.41.65-.84,1.18-1.24,1.59.12-1.41.47-3.48,1.49-5.75.76-1.68,1.66-2.97,2.42-3.9,2.27-1.13,4.62-4.08,8.61-5.9Z"/>
      <path class="cls-19" d="M154.95,171.19c2.64-1.97,5.33-3.89,8.07-5.74-.29,4.1-3.23,4.74-4.82,9.36l-.64.23c-3.99,1.82-6.34,4.77-8.61,5.9l-.05-.52c3.7-4.39,6.8-4.43,10.46-9.94l-.2-.52-.83-.17c-2.5,1.4-8.83,7.4-11.35,9.65l-.89-.26c1.17-1.45,3.61-3.51,5.08-4.82,1.26-1.06,2.52-2.12,3.78-3.18Z"/>
      <path class="cls-9" d="M336.77,66.28c17.08,4.79,32.14,13.17,49.02,19.11-1.67.44-3.37.87-5.02,1.38-1.02.39-2.41.83-3.3,1.38-.63-.09-1.89-.46-2.56-.63-1.88-.68-3.8-1.4-5.75-2.16-2-.79-3.95-1.58-5.84-2.38-1.24-1.09-2.94-2.39-5.14-3.55-2.23-1.18-4.29-1.87-5.9-2.29-3.71-4.82-13.39-4.85-17.38-8.42-.03-1.63.14.35,1.86-2.43Z"/>
      <path class="cls-5" d="M374.92,87.52c1.93-1.06,3.64-.78,5.86-.75-1.02.39-2.41.83-3.3,1.38-.63-.09-1.89-.46-2.56-.63Z"/>
      <path class="cls-58" d="M170.18,198.92c2.38-1.46,4.96.3,6.93,1.88,1.08.83,1.18,1.41,1.7,2.68.03,8.45-30.2,13.93-24.84,2.16.05-.1,13.85-5.43,16.21-6.72Z"/>
      <path class="cls-30" d="M170.18,198.92c2.38-1.46,4.96.3,6.93,1.88-1.04.37-5.45-1.39-6.93-1.88Z"/>
      <path class="cls-58" d="M150.78,191.1c-4.33,4.05-2.85,8.25-.15,12.44l-.36-.02c-10.68-10.96,5.92-19.11,15.97-14.05,1.36,1.08,2.48,1.68,3.03,3.29-.12,1.46-1.06,2.71-2.2,3.55-8.18,6-13.2,2.93-16.29-5.2Z"/>
      <path class="cls-32" d="M150.78,191.1c-4.33,4.05-2.85,8.25-.15,12.44l-.36-.02c-10.68-10.96,5.92-19.11,15.97-14.05-6.61.98-8.24-1.03-15.46,1.63Z"/>
      <path class="cls-75" d="M175.96,157.28c.28,3.94.37,6.97.34,10.92-3.39-.51-5.59-.41-8.9.56-5.91,1.29-6.09,4.79-9.21,6.06,1.59-4.62,4.53-5.26,4.82-9.36,3.55-3.04,8.85-5.94,12.95-8.18Z"/>
      <path class="cls-23" d="M84.81,145.93c.22,1.6.6,4.05,1.28,6.98,1.29,5.62,6.26,27.21,24.59,40.67,3.05,2.24,7.64,5.58,14.65,7.37,5.64,1.44,11.55,1.39,18.71.27l.66.8c-5.51,2.37-13.09,1.94-18.78.41-6.58-1.77-22.84-9.79-33-27.97-5.94-10.63-7.7-21.04-8.1-28.53Z"/>
      <path class="cls-31" d="M359.66,141.37l1.11,1.2c-.45,1.54-.45,1.14-1.97,2.38-1.96,1.61-6.39,5.06-8.01,6.7-4.6-.99-8.15,4.06-13.27,3.4-.17.03-.35.06-.52.09,2.04-1.89,9.25-4.8,9.28-7.35l-1.36-.05c1.77-1.08,2.06-1.29,3.56-2.7l1.35.02c.44-.74.75-1.48,1.12-2.26l1.42.87.27,1.54c1.48-.63,5.43-2.95,7.02-3.84Z"/>
      <path class="cls-3" d="M363.15,139.59c-.64.98-1.28,1.95-1.92,2.93-.11.43-.33,1.02-.77,1.62-1.03,1.4-2.53,1.79-3.01,1.89-.18-.24-.8-1.02-1.87-1.23-1.22-.23-2.53.37-3.31,1.54l-.15-.46.51-.69c1.2-.77,2.49-1.55,3.85-2.31,2.33-1.3,4.57-2.39,6.67-3.3Z"/>
      <path class="cls-37" d="M351.07,142.1c.62.5,1.25.99,1.87,1.49-.1.54-.2,1.08-.31,1.62l-.51.69.15.46c-1.52.54-.83.61-2.15.2l-.31-1.5c.2-.33.4-.7.59-1.12.31-.67.51-1.3.66-1.84Z"/>
      <path class="cls-59" d="M346.13,75.38c2.04.64,4.09,1.22,6.16,1.75,3.72,1.07,8.6,2.8,11.04,5.84-.14.12-.46.37-.94.45-.71.12-1.25-.21-1.38-.3-3.2-1.13-5.86-1.82-7.72-2.23-2.97-.66-4.52-.79-7.35-1.6-2.51-.72-4.49-1.55-5.78-2.14-.75-.77-1.5-1.54-2.25-2.3,1.17.16,2.33.31,3.5.47,2.1.48,2.63.58,4.72.06Z"/>
      <path class="cls-35" d="M167.4,168.76c3.32-.97,5.51-1.07,8.9-.56l.1.39c-3.14.17-6.86-.03-9.37,1.9l-.32.97.31.36c3.31-1.83,4.95-1.43,9.02-.66-.68.27-.81.35-1.52.51-1.77-.19-3.89-.71-5.31.16-.66,1.11-.53,1.25-.58,2.58.11,1.48.57,4.87.13,6.04-1.25-1.52-2.01-6.21-2.84-6.54-.85,1.64.06,5.21-.23,7.98-.45-1.38-.99-2.75-1.51-4.11l-1.95-1.08c1.31-4.2,2.12-4.99,5.17-7.94Z"/>
      <path class="cls-58" d="M178.65,209.71c.5.46.81,1.24.93,1.91.13.77-.04,1.14-.56,1.66-3.39,3.43-10.85,4.16-15.38,4.08l-.68-.27.07-.52c5.58-1.56,10.69-3.8,15.62-6.86Z"/>
      <path class="cls-45" d="M205.31,155.9c-1.63-.72-3.06-1.07-3.92-2.53l.57-.58c1.55-.04,1.63-.09,3.2.28l.16,2.83Z"/>
      <path class="cls-30" d="M157.95,217.07c1.55.71,2.94,3.51,3.95,4.91-.33-.13-.66-.29-.98-.45-1.96-.98-2.37-2.5-2.98-4.46Z"/>
      <path class="cls-78" d="M414.58,153.7c0-.27,0-.92.11-1.79.19-1.51.59-2.71.9-3.48,11.05,6.16,19.47,12.64,25.43,17.83,10.57,9.2,8.59,10.13,18.42,19.63,1.8,1.73,5.84,5.55,7.19,11.6.26,1.18.36,2.18.41,2.84-1.49,1.95-4.95,5.91-10.85,8.43-6.36,2.72-12.04,2.25-14.47,1.91-3.47,1.08-7.32,2.51-11.41,4.42-5.63,2.64-10.33,5.55-14.11,8.26-.82-5.08-3.86-24.79-3.53-40.94.11-5.39.75-17.46,1.23-21.53.19-1.56.66-4.54.67-7.18Z"/>
      <path class="cls-40" d="M404.93,203.6c1.17-1.75,8.11.03,13.01,3.7,4.03,3.02,5.91,6.85,6.73,8.86-2.77,2.13-5.53,4.26-8.3,6.39-.58-.96-1.47-2.4-2.58-4.15-7.02-11.07-9.72-13.52-8.86-14.8Z"/>
      <path class="cls-80" d="M411.3,218.43c2.14,1.05,5.15,2.14,8.82,2.27.81.03,1.58,0,2.31-.05-2.08,1.2-4.15,2.4-6.23,3.6-1.63-1.94-3.27-3.88-4.9-5.82Z"/>
      <path class="cls-18" d="M414.24,153.03c6.53,4.43,11.6,8.58,15.14,11.66,8.61,7.51,15.7,13.82,20.97,24.11,2.5,4.89,3.85,9.24,4.6,12.11,2.1-1.12,4.58-2.25,7.42-3.2,1.4-.47,2.74-.86,4.01-1.17-4.29-7.85-8.57-13.78-11.66-17.72,0,0-17.4-22.18-37.57-28.93-1.46-.49-5.87-1.97-6.39-1.01-.41.75,1.76,2.73,3.48,4.15Z"/>
      <path class="cls-70" d="M417.9,222.48c-.57-.58-1.14-1.15-1.72-1.73,4.48-5.45,8.91-8.47,12.08-10.21,4.55-2.5,5.02-1.54,18.46-6.71,3.7-1.42,7.61-2.36,11.14-4.16,3.37-1.73,6.1-3.61,7.81-2.54,1.04.64,1.29,2.11,1.36,3.19-.85,1.6-2.32,3.83-4.8,5.63-3.57,2.59-6.93,2.59-13.91,3.74-2.91.48-7.07,1.26-12.11,2.54-6.11,3.41-12.21,6.83-18.32,10.24Z"/>
      <path class="cls-2" d="M416.19,220.75c1.57-2.03,3.03-3.56,4.11-4.62,2.52-2.48,3.25-2.61,3.74-2.47,1.3.38,1.6,2.87,1.64,3.29-.47.39-1.3,1.08-2.32,1.94-3.71,3.15-4.75,4.2-5.76,3.89-.38-.12-.98-.5-1.42-2.03Z"/>
      <path class="cls-60" d="M466.41,203.87c2.29,7.08,4.62,11.71,6.38,14.68.61,1.04,1.91,3.13,2.73,6.22.82,3.07.82,5.77.69,7.57.2,1.84.35,5.53-1.53,9.38-2.27,4.66-7.23,8.99-9.89,7.88-2.25-.94-.99-5.31-3.24-6.31-2.36-1.05-5.24,3.05-11.33,6.5-3.35,1.9-6.03,2.6-11.1,4.04-7.77,2.2-8.36,1.13-14.92,3.25-4.62,1.49-8.75,3.45-9.2,2.69-.41-.71,2.72-2.84,2.13-4.04-.36-.74-1.8-.43-4.93-1.08-1.18-.25-2.14-.54-2.81-.76,4.93-.7,6.76-2.44,7.52-3.88,1.63-3.05-.78-6.01-1.64-14.89-.33-3.35-.46-5.03-.14-6.65,1.58-7.87,10.53-12.09,14.45-13.67,5.14-1.77,9.45-2.77,12.45-3.36,6.35-1.25,9.2-1.12,14.13-2.69,4.55-1.45,8.01-3.44,10.22-4.89Z"/>
      <path class="cls-60" d="M408.81,239.9l.14-.39c3-2.19,6.24-3.51,9.64-4.99-.11,6.2-.12,12.4-.02,18.61-2.98.19-6.17.53-9.16.79,1.92-1.28,5.89-3.52,6.45-5.62-1.79-1.19-8.58.53-11.07,1.01.36-.45.71-.91,1.04-1.39,1.22-1.71,4.34-5.72,4.01-7.72l-1.02-.3Z"/>
      <path class="cls-28" d="M419.77,224.73c1.54-1.41,4.69-3.91,9.42-5.27,4.72-1.36,8.71-.93,10.77-.56-7.31,2.62-11.88,6.12-14.76,8.96-3.08,3.04-4.34,5.43-8.57,7.97-2.27,1.37-2.14,1.1-7.93,4.3-6.01,3.32-7.03,4.27-10.71,5.97-3.25,1.51-6.01,2.41-7.71,2.92,2.92-2.49,5.44-4.24,7.23-5.4,1.79-1.16,3.47-2.11,6.11-4.01.8-.58,2.15-1.59,3.53-2.68,3.21-2.55,7.67-6.47,12.62-12.21Z"/>
      <path class="cls-5" d="M368.77,288.53c8.72-8.66,17.04-13.27,22.86-15.84,5.34-2.36,10.91-3.81,22.05-6.73,11.67-3.05,13.33-2.99,21.31-5.05,21.36-5.5,36.21-12.01,35.18-11.27-3.24,2.29-6.48,4.58-9.72,6.86-13.46,6.21-24.77,10.02-32.74,12.37-12.8,3.78-27.15,6.81-27.16,6.77,0-.02.08-.07.08-.07-9.77,5.55-13.25,8.39-24.96,8.88-2.43,1.94-3.84,3.04-6.89,4.07Z"/>
      <path class="cls-80" d="M412.07,231.06c.64-2.8,2.41-5.12,4.83-6.52,1.25-.62,2.71-.85,3.89-1.44,2.44-1.12,4.17-3.6,6.65-4.67,3.65-2.03,7.9-2.59,12-1.24,0,0,.05.4.05.4-3.87,2.59-8.08,3.85-12.54,4.82-1.88.33-3.97.55-5.49,1.79-1.03.78-1.71,2.04-2.54,2.99-1.88,1.9-3.96,3.15-6.56,4.13,0,0-.3-.26-.3-.26h0Z"/>
      <path class="cls-12" d="M466.05,203.16c3.1,6.23,6.62,14.41,8.97,23.44,1.09,4.19,1.77,7.97,1.34,12.56-.35,3.72-1.31,6.7-2.09,8.67-5.83,4.08-12.7,8.32-20.64,12.26-14.28,7.1-27.58,11.05-38.32,13.34"/>
      <path class="cls-12" d="M410.43,144.5c10.26,5.92,18.27,11.79,24,16.37,7.98,6.39,15.73,12.68,23.48,22.95,4.18,5.55,7.24,10.75,9.41,14.97.32.61-.45,2.16-1.91,4.07-5.25,6.88-15.6,7.12-22.01,8.14-7.27,1.15-17.14,4.5-28.37,14.24"/>
      <path class="cls-80" d="M414.56,222.7c2.36-3.68,5.31-7.05,8.66-9.92,4.7-3.75,10.58-5.63,16.02-7.75,5.09-1.96,11.32-4.26,16.48-5.88.82-.26,2.5-.83,3.31-1.13,2.2-.77,4.43-1.5,6.74-2.1l.13.27c-5.87,3.99-12.32,7.17-19.11,9.22-7.54,2.38-16.13,4.08-22.73,8.45-3.46,2.51-6.62,5.64-9.25,9,0,0-.25-.17-.25-.17h0Z"/>
      <path class="cls-80" d="M407.66,274.26c2.47-.85,4.93-1.69,7.4-2.54,4.21-.43,5.34-.13,5.46.3.24.88-3.56,3.31-7.66,3.4-2.24.05-4.05-.62-5.2-1.16Z"/>
      <path class="cls-13" d="M416.73,330.04c2.25-.81,4.53-1.64,6.81-2.51,7.31-2.77,14.3-5.66,20.97-8.64.45-.72,1.14-2.03,1.35-3.81,0,0,.18-1.5-.16-3.09-.57-2.67-5.91-19.77-13.48-43.12"/>
      <path class="cls-13" d="M438.4,321.56c3.38,7.94,6.73,16.44,9.93,25.49,3.4,9.6,6.29,18.83,8.75,27.59"/>
    </g>
    <path class="cls-80" d="M417.34,327.42c.49.13.58,1.77.26,4.89-1.28.39-2.56.78-3.83,1.18,1.79-4.21,2.98-6.23,3.58-6.07Z"/>
  </g>
  <g id="_Слой_5" data-name="Слой 5">
    <path class="cls-11" d="M535,377.09c-133.31-15.82-266.62-31.64-399.93-47.46-66.68,5.08-92.3,7.82-96.63,9.25-.55.18-4.45,1.56-9.91,2.28-2.14.28-3.95.39-5.26.43"/>
    <path class="cls-79" d="M534.9,383.5c-81.67-10.7-163.35-21.4-245.02-32.1-35.9,7.53-71.81,15.06-107.71,22.59,5.95,3.15,11.89,6.3,17.84,9.45,34.72,5.93,69.45,11.87,104.17,17.8,15.46-4.2,31.81-8,49.02-11.19,68.63-12.73,130.66-12.08,181.71-6.56Z"/>
  </g>
  <g id="_Слой_4" data-name="Слой 4">
    <path class="cls-21" d="M137.41,331.28l266.83,31.17,88.57,10.59c13.33,1.62,29.58,3.21,42.46,5.21v4.58c-25.35-1.94-53.86-7.52-78.73-9.28-5.1-1.22-18.41-2.62-24.25-3.31l-45.53-5.3-56.18-6.88c-7.16-.87-27.82-3.69-34.23-3.29-15.42.95-35.93,5.18-51.37,7.66l-107.88,17.8c-14.23,2.36-37.6,6.82-51.23,8.41-6.69-1.33-12.31,1.26-14.85.96l-.19-1.88c2.93-2.04,9.18-1.88,13.36-4.44,2.14-.81,26.08-4.41,29.77-5.05,36.79-6.24,73.65-12.25,110.55-18.03,9.84-1.59,42.7-6.6,49.6-8.89-44.91-4.05-91.61-12.74-136.78-16.19-9.23-.7-32.17,2.82-42.08,4-23.99,3.43-47.98,6.86-71.98,10.29v-5.11c18.28-2.89,37.35-5.52,57.18-7.78,19.64-2.24,38.65-3.96,56.96-5.25Z"/>
  </g>
</svg>