<?xml version="1.0" encoding="UTF-8"?>
<svg xmlns="http://www.w3.org/2000/svg" xmlns:xlink="http://www.w3.org/1999/xlink" viewBox="0 0 558.48 602.82">
  <defs>
    <style>
      .cls-1 {
        fill: #eddca6;
      }

      .cls-2 {
        fill: #e26e76;
      }

      .cls-3 {
        fill: url(#_Безымянный_градиент_15);
      }

      .cls-4 {
        fill: #a37f36;
      }

      .cls-5 {
        fill: url(#_Безымянный_градиент_4);
      }

      .cls-6 {
        fill: url(#_Безымянный_градиент_12);
      }

      .cls-7 {
        fill: #908f8f;
      }

      .cls-8 {
        fill: #a84856;
      }

      .cls-9 {
        fill: #ccafa2;
      }

      .cls-10 {
        fill: none;
        stroke: #376ea1;
        stroke-miterlimit: 10;
        stroke-width: 5px;
      }

      .cls-11 {
        fill: #63400b;
      }

      .cls-12 {
        fill: url(#_Безымянный_градиент_5);
      }

      .cls-13 {
        fill: #4f535c;
      }

      .cls-14 {
        fill: #5d7f90;
      }

      .cls-15 {
        fill: #7f7f80;
      }

      .cls-16 {
        fill: #c3d4e7;
      }

      .cls-17 {
        fill: #fff;
      }

      .cls-18 {
        fill: #d3afaf;
      }

      .cls-19 {
        fill: url(#_Безымянный_градиент_23-2);
      }

      .cls-20 {
        fill: url(#_Безымянный_градиент_14);
      }

      .cls-21 {
        fill: url(#_Безымянный_градиент_7);
      }

      .cls-22 {
        fill: #262c38;
      }

      .cls-23 {
        fill: url(#_Безымянный_градиент_17);
      }

      .cls-24 {
        fill: #39414f;
      }

      .cls-25 {
        fill: url(#_Безымянный_градиент_20);
      }

      .cls-26 {
        fill: #c08f3c;
      }

      .cls-27 {
        fill: #472f0b;
      }

      .cls-28 {
        fill: #f3c442;
      }

      .cls-29 {
        fill: url(#_Безымянный_градиент_23);
      }

      .cls-30 {
        fill: url(#_Безымянный_градиент_16);
      }

      .cls-31 {
        fill: #96b4d3;
      }

      .cls-32 {
        fill: #b75462;
      }

      .cls-33 {
        fill: url(#_Безымянный_градиент_18);
      }

      .cls-34 {
        fill: #23242a;
      }

      .cls-35 {
        fill: #5c6067;
      }

      .cls-36 {
        fill: #f5dc81;
      }

      .cls-37 {
        fill: #c2c0c0;
      }

      .cls-38 {
        fill: url(#_Безымянный_градиент_9);
      }

      .cls-39 {
        fill: #5181b1;
      }

      .cls-40 {
        fill: url(#_Безымянный_градиент_11);
      }

      .cls-41 {
        fill: #dbb764;
      }

      .cls-42 {
        fill: #a9a8ac;
      }

      .cls-43 {
        fill: url(#_Безымянный_градиент_19);
      }

      .cls-44 {
        fill: #10497f;
      }

      .cls-45 {
        fill: #b38f80;
      }

      .cls-46 {
        fill: #aa9363;
      }

      .cls-47 {
        fill: #ebebeb;
      }

      .cls-48 {
        fill: #80a3c6;
      }

      .cls-49 {
        fill: #1c588f;
      }

      .cls-50 {
        fill: #dcdbdc;
      }

      .cls-51 {
        fill: #7096bd;
      }

      .cls-52 {
        fill: #712026;
      }

      .cls-53 {
        fill: #998074;
      }

      .cls-54 {
        fill: url(#_Безымянный_градиент_13);
      }

      .cls-55 {
        fill: url(#_Безымянный_градиент_8);
      }

      .cls-56 {
        fill: url(#_Безымянный_градиент_3);
      }

      .cls-57 {
        fill: #2e2716;
      }

      .cls-58 {
        fill: #6d717c;
      }

      .cls-59 {
        fill: #735348;
      }

      .cls-60 {
        fill: #376ea1;
      }

      .cls-61 {
        fill: url(#_Безымянный_градиент_6);
      }
    </style>
    <linearGradient id="_Безымянный_градиент_11" data-name="Безымянный градиент 11" x1="279.12" y1="591.35" x2="288.6" y2="367.67" gradientTransform="translate(575.88 0) rotate(-180) scale(1 -1)" gradientUnits="userSpaceOnUse">
      <stop offset="0" stop-color="#083b77"/>
      <stop offset="1" stop-color="#2f6a9f"/>
    </linearGradient>
    <linearGradient id="_Безымянный_градиент_8" data-name="Безымянный градиент 8" x1="284.09" y1="355.41" x2="288.66" y2="247.61" gradientTransform="translate(575.88) rotate(-180) scale(1 -1)" gradientUnits="userSpaceOnUse">
      <stop offset="0" stop-color="#618db9"/>
      <stop offset=".17" stop-color="#5081af"/>
      <stop offset=".47" stop-color="#3970a2"/>
      <stop offset=".75" stop-color="#2b669a"/>
      <stop offset="1" stop-color="#276398"/>
    </linearGradient>
    <linearGradient id="_Безымянный_градиент_13" data-name="Безымянный градиент 13" x1="774.3" y1="-97.68" x2="635.11" y2="75.49" gradientTransform="translate(563.28 344.65) rotate(-180) scale(.62)" gradientUnits="userSpaceOnUse">
      <stop offset="0" stop-color="#6b94bb"/>
      <stop offset="1" stop-color="#9eb4cf"/>
    </linearGradient>
    <linearGradient id="_Безымянный_градиент_15" data-name="Безымянный градиент 15" x1="445.5" y1="-43.82" x2="448.37" y2="13.45" gradientTransform="translate(563.28 344.65) rotate(-180) scale(.62)" gradientUnits="userSpaceOnUse">
      <stop offset="0" stop-color="#84a6cb"/>
      <stop offset="1" stop-color="#acc2dc"/>
    </linearGradient>
    <linearGradient id="_Безымянный_градиент_23" data-name="Безымянный градиент 23" x1="314.38" y1="534.14" x2="356.96" y2="99.78" gradientTransform="translate(567.65 422.24) rotate(-180) scale(.75)" gradientUnits="userSpaceOnUse">
      <stop offset="0" stop-color="#20232f"/>
      <stop offset="1" stop-color="#353737"/>
    </linearGradient>
    <linearGradient id="_Безымянный_градиент_23-2" data-name="Безымянный градиент 23" x1="348.14" y1="537.44" x2="390.71" y2="103.09" xlink:href="#_Безымянный_градиент_23"/>
    <linearGradient id="_Безымянный_градиент_20" data-name="Безымянный градиент 20" x1="444.51" y1="525.39" x2="462.22" y2="529.11" gradientTransform="translate(567.65 422.24) rotate(-180) scale(.75)" gradientUnits="userSpaceOnUse">
      <stop offset="0" stop-color="#929093"/>
      <stop offset="1" stop-color="#d1d0d5"/>
    </linearGradient>
    <linearGradient id="_Безымянный_градиент_19" data-name="Безымянный градиент 19" x1="452.83" y1="251.86" x2="455" y2="253.63" gradientTransform="translate(567.65 422.24) rotate(-180) scale(.75)" gradientUnits="userSpaceOnUse">
      <stop offset="0" stop-color="#8b6724"/>
      <stop offset="1" stop-color="#9e7f44"/>
    </linearGradient>
    <linearGradient id="_Безымянный_градиент_18" data-name="Безымянный градиент 18" x1="369.19" y1="421.48" x2="388.66" y2="360.5" gradientTransform="translate(567.65 422.24) rotate(-180) scale(.75)" gradientUnits="userSpaceOnUse">
      <stop offset="0" stop-color="#060e13"/>
      <stop offset="1" stop-color="#340c1c"/>
    </linearGradient>
    <linearGradient id="_Безымянный_градиент_17" data-name="Безымянный градиент 17" x1="274.28" y1="389.4" x2="269.97" y2="413.31" gradientTransform="translate(567.65 422.24) rotate(-180) scale(.75)" gradientUnits="userSpaceOnUse">
      <stop offset="0" stop-color="#abaaaa"/>
      <stop offset="1" stop-color="#cecece"/>
    </linearGradient>
    <linearGradient id="_Безымянный_градиент_7" data-name="Безымянный градиент 7" x1="530.76" y1="265.58" x2="528.37" y2="259.3" gradientTransform="translate(567.65 422.24) rotate(-180) scale(.75)" gradientUnits="userSpaceOnUse">
      <stop offset="0" stop-color="#2e2201"/>
      <stop offset="1" stop-color="#524c20"/>
    </linearGradient>
    <linearGradient id="_Безымянный_градиент_9" data-name="Безымянный градиент 9" x1="404.81" y1="346.75" x2="408.93" y2="353.79" gradientTransform="translate(567.65 422.24) rotate(-180) scale(.75)" gradientUnits="userSpaceOnUse">
      <stop offset="0" stop-color="#65636a"/>
      <stop offset="1" stop-color="#7b7a7e"/>
    </linearGradient>
    <linearGradient id="_Безымянный_градиент_16" data-name="Безымянный градиент 16" x1="236.12" y1="346.31" x2="136.05" y2="392.91" gradientTransform="translate(567.65 422.24) rotate(-180) scale(.75)" gradientUnits="userSpaceOnUse">
      <stop offset="0" stop-color="#af3c3c"/>
      <stop offset=".21" stop-color="#ab3b3b"/>
      <stop offset=".42" stop-color="#9f3939"/>
      <stop offset=".61" stop-color="#8c3636"/>
      <stop offset=".81" stop-color="#723131"/>
      <stop offset="1" stop-color="#4f2c2c"/>
      <stop offset="1" stop-color="#4f2c2c"/>
    </linearGradient>
    <linearGradient id="_Безымянный_градиент_6" data-name="Безымянный градиент 6" x1="275.23" y1="483.98" x2="255.33" y2="510.89" gradientTransform="translate(567.65 422.24) rotate(-180) scale(.75)" gradientUnits="userSpaceOnUse">
      <stop offset="0" stop-color="#afaeae"/>
      <stop offset="1" stop-color="#d9d6dc"/>
    </linearGradient>
    <linearGradient id="_Безымянный_градиент_12" data-name="Безымянный градиент 12" x1="278.83" y1="469.37" x2="263.17" y2="469.67" gradientTransform="translate(567.65 422.24) rotate(-180) scale(.75)" gradientUnits="userSpaceOnUse">
      <stop offset="0" stop-color="#787882"/>
      <stop offset="1" stop-color="#bbb7b9"/>
    </linearGradient>
    <linearGradient id="_Безымянный_градиент_5" data-name="Безымянный градиент 5" x1="204.39" y1="296.27" x2="201.57" y2="303.18" gradientTransform="translate(567.65 422.24) rotate(-180) scale(.75)" gradientUnits="userSpaceOnUse">
      <stop offset="0" stop-color="#6f7986"/>
      <stop offset="1" stop-color="#868f9c"/>
    </linearGradient>
    <linearGradient id="_Безымянный_градиент_4" data-name="Безымянный градиент 4" x1="233.51" y1="265.49" x2="229.38" y2="248.72" gradientTransform="translate(567.65 422.24) rotate(-180) scale(.75)" gradientUnits="userSpaceOnUse">
      <stop offset="0" stop-color="#6e635f"/>
      <stop offset="1" stop-color="#8b716d"/>
    </linearGradient>
    <linearGradient id="_Безымянный_градиент_3" data-name="Безымянный градиент 3" x1="301.47" y1="497.49" x2="294.8" y2="507.02" gradientTransform="translate(567.65 422.24) rotate(-180) scale(.75)" gradientUnits="userSpaceOnUse">
      <stop offset="0" stop-color="#88868d"/>
      <stop offset="1" stop-color="#a4a2a5"/>
    </linearGradient>
    <linearGradient id="_Безымянный_градиент_14" data-name="Безымянный градиент 14" x1="438.89" y1="-125.32" x2="448.82" y2="-23.18" gradientTransform="translate(563.28 344.65) rotate(-180) scale(.62)" gradientUnits="userSpaceOnUse">
      <stop offset="0" stop-color="#afc6dd"/>
      <stop offset="1" stop-color="#dde8f6"/>
    </linearGradient>
  </defs>
  <g id="_Слой_1" data-name="Слой 1">
    <path class="cls-40" d="M82.07,144.65h412.88c24.11,0,44.23,16.99,49.02,39.62v398.87H31.96V194.65c0-27.61,22.43-50,50.11-50Z"/>
    <path class="cls-55" d="M82.07,144.65h412.88c24.11,0,44.23,16.99,49.02,39.62v161.51H31.96v-151.14c0-27.61,22.43-50,50.11-50Z"/>
    <path class="cls-51" d="M67.24,242.73c-4.52,9.32-6.24,10.7-18.3,13.01,7.18,2.28,18.05,4.51,15.46,12.42-3.83.72-8.39,1.27-13.53,1.33-7.53.08-13.96-.94-18.91-2.12,0,9.7,0,19.41,0,29.11,0,11.48,0,22.95,0,34.43.65.47,1.74,1.24,3.18,2.06,14.16,8.05,32.17,2.01,40.43,2.62,2.26.17,4.68-1.47,6.97-1.28,6.12.5,12.25,2.38,18.38,2.77,39.34,2.47,78.77,2.59,118.11,5.23,7.84.53,16.49-.51,24.25-1.09,1.15-.11,6.12,2.07,7.82,2.15,6.36.3,12.33-.01,18.76.42,3.22.22,9.09,1.71,11.27,1.72,7.01.03,10.8-1.25,18.13-.84,43.25-2.49,88.62-11.25,132.24-12.87,12.51-.47,30.53,1.8,43.45,2.77,1.02.3,1.9.76,2.6.57,10.49,1.71,21.51,3.26,33.02,4.56,11.58,1.31,22.73,2.26,33.4,2.93,0-4.59,0-9.18-.01-13.76,0-5.03,0-10.06.01-15.09-26.67-4.17-45.78-7.18-51.61-7.68-2.34-.2-6.31-.58-9.28-3.29-3.16-2.89-1.24-5.46-10.31,1.62-1.12.88-8.14.43-10.69.45-.19,1.49-.26,1.64-.85,3.08l-2.32.06c-1.37-1.19-2.4-2.17-3.66-3.44-6.92-1.78-.74.06-5.3,1.2l.12-1.25c-9.07-6.81-290.44-26.63-322.44-28.96l-5.84-.35c-10.27-.89-20.8-2.11-31.07-3.2-5.46-.58-17.91-1.13-22.57-2.12-1.44-3.67,1.22-6.97,3.29-10.45l13.17-3.44c-12.12-2.84-13.68-3.01-17.35-13.22Z"/>
    <path class="cls-31" d="M472.35,335.1c1.5-2.89,3.07-2.01,4.08-4.68-2.82-2.83-3.34-3.69-5.34-6.9-1.81,1.93-4.46,4.25-6.44,6.19.28,2.41,2.1,2.74,5.14,4.82,1.01.3,1.87.76,2.57.57Z"/>
    <path class="cls-31" d="M126.49,275.51l-5.78-.35c.93,3.89.7,6.45,5.2,8.31l1.41-1.06c.88-2.76.08-4.12-.84-6.9Z"/>
    <path class="cls-31" d="M174.25,312.26c-2.95.49-2.18.01-4.09,1.55-.25,7.81-3.84,2.74-7.16,6,6.64,2.24,6.05.94,8.66,5.02-.71,1.13-.59.7-.55,1.94,3.21-2.54,5.19-4.27,8.08-7.06-4.69-3.32-3.75-2.58-4.94-7.45Z"/>
    <path class="cls-16" d="M203.26,320.23c-1.65,2.69-3.27,3.9-5.73,6.05-.25,2.49,2.86,4.49,5.42,7.37l.59-.06c1.96-3.02,4.31-3.98,4.7-6.96-3.02-2.43-3.53-3.11-4.97-6.4Z"/>
    <path class="cls-48" d="M120.85,307.98c1.51-1.28,6.42-3.87,8.47-5.02l-.04-.92c-3.96-1.6-13.32-2.02-17.14-.19,2.97,1.11,2.2.14,4.88,1.83,1.04,1.49,2.13,3.5,3.82,4.3Z"/>
    <path class="cls-48" d="M117.03,303.68c-7.91,0-14.37-.71-22.88-.59l-.43.43c3.31.18,16.23.52,18.16,1.67l-.68,1.21c-1.67.34-1.77.57-3.22.26l2.58,2.26c3.67-1.55,4.61,1.16,10.3-.93-1.69-.81-2.78-2.81-3.82-4.3Z"/>
    <path class="cls-16" d="M232.07,311.42c-1.75,1.48-3.78,3.04-5.6,4.49,2.01,1.45,4.28,3.37,6.23,4.94,2.13-3.35,3.23-2.52,4.62-5.05-2.03-1.51-3.41-2.71-5.25-4.38Z"/>
    <path class="cls-31" d="M79.03,313.18c-1.4-.66-3.12-.62-4.46.1-1.34.72-2.09,2-1.94,3.32.16,1.32,1.19,2.46,2.69,2.95,2.09.69,4.47-.08,5.44-1.76.97-1.68.22-3.7-1.73-4.62Z"/>
    <path class="cls-31" d="M162.3,328.27c-1.51.9-2.61,2-3.88,3.13.31,2.48.95,2.19,3.77,4.23,2.57-.89,4.66-1.1,5.57-2.76-2.45-1.73-3.36-2.56-5.45-4.6Z"/>
    <path class="cls-16" d="M129.66,313.64c-2.79,1.11-3.21,1.26-4.83,3.42-.36,3.1-.55,1.84,1.47,5.01,2.76-1.29,3.28-1.5,5.37-3.45.28-2.93.25-1.95-2.01-4.98Z"/>
    <path class="cls-31" d="M172.93,292.9c-2.69.68-2.71.99-3.59,3,.51,2.72.93,3.03,3.13,5.14,2.76-.87,1.69-.13,3.13-2.45-.1-2.89-.62-3.3-2.67-5.69Z"/>
    <path class="cls-16" d="M503.58,315.09c-2.61,3.03-4.74,1.79-6.08,3.9l3.3,2.75.38.18.14-.63c3.2-.67,3.24-.89,4.34-3.22l-2.07-2.98Z"/>
    <path class="cls-31" d="M107.98,306.65c-3.57,1.64-3.55.97-4.69,3.65l1.14,1.23c3.17.14,4.24-.23,6.12-2.61l-2.58-2.26Z"/>
    <path class="cls-16" d="M147.75,283.97c-.97-.34-2.1-.22-2.95.31-.84.54-1.26,1.41-1.1,2.28.16.87.87,1.6,1.87,1.91,1.49.46,3.15-.15,3.74-1.37.59-1.22-.1-2.62-1.57-3.13Z"/>
    <path class="cls-16" d="M364.58,322.94c-1.15-.77-2.83-.68-3.86.21-1.03.89-1.05,2.29-.05,3.2.72.66,1.82.93,2.86.7,1.04-.23,1.83-.92,2.05-1.79.23-.87-.16-1.77-1-2.33Z"/>
    <path class="cls-31" d="M156.71,293.89c-1.5-.23-2.93.57-3.25,1.8s.59,2.45,2.05,2.76c1,.21,2.05-.05,2.76-.67.7-.62.94-1.51.61-2.32-.32-.81-1.15-1.41-2.17-1.56Z"/>
    <path class="cls-48" d="M123.02,327.21l-3.72.45-.87,1,.7,3.12c3.31-.85,3.55-.37,4.92-2.2l-1.03-2.37Z"/>
    <path class="cls-31" d="M72.45,323.25c-2.68.3-3.43.26-5.79,1.25l.24,1.67.53.11c2.87-.86,3.14-1.04,5.02-3.03Z"/>
    <path class="cls-51" d="M539.31,288.08c-3.76-.82-8.42-2.31-11.59.18,1.68,3.44,7.06,2.42,11.1,2.51l.49-2.69Z"/>
    <path class="cls-51" d="M90.06,179.66c-4.1,10.73-6.66,13.13-20.33,14.98,14.7,4.22,15.05,5.13,19.24,17.19,1.5-1.2,3.54-8.13,5.01-10.06,2.6-3.41,10.91-4.94,15.56-6.11-14.63-2.67-15.3-4.37-19.48-16Z"/>
    <path class="cls-48" d="M438.32,185.75c-1.26,1.68-2.29,5.51-4.29,8.22-4.07,5.54-9.53,5.81-16.76,7.24,14.76,3.04,16.66,2.97,20.35,15.96,1.88-1.46,3.55-8.13,5.27-10.24,2.71-3.33,10.66-4.77,15.27-5.89-14.66-2.62-15.48-3.41-19.84-15.29Z"/>
    <path class="cls-48" d="M260.55,166.41c1.05-.97-8.84,10.28-7.83,8.59l.95.62c4.13,2.72,3.97,1.79,6.25,6.02l.45.83,1.23-.61c2.7-7.54,3.21-3.66,7.87-6.61-5.6-2.76-6.18-2.94-8.52-7.98l-.4-.87Z"/>
    <path class="cls-51" d="M460.8,156.81c-1.32,3.77-1.87,3.2-4.4,6.29,2.51,2.56,2.92,3.08,3.6,6.32l.15.75c2.33-3.65,5.3-4.93,5.89-7.63-2.2-2.02-3.42-3.52-5.25-5.72Z"/>
    <path class="cls-51" d="M185.32,167.74c-1.39,2.39-1.84,2.72-4.17,4.59l-.62.49-.03,1.57c2.39,2.16,3.13,3.69,5.14,5.91,3.6-7.19,1.82-2.23,6.36-6.67-5.89-2.51-4.62-1.34-6.69-5.89Z"/>
    <path class="cls-51" d="M349.26,275.08c-2.03.02-2.47.12-4.41.43-1.63,1.8-1.88,6.74-2.71,9.92,7.42-.08,9.94-5.31,7.12-10.36Z"/>
    <path class="cls-31" d="M191.47,262.47c-4.14.67-6.47.57-9.13,2.84-.44,2.44.59,3.54,1.93,5.8,6.33-2.96,8.71-3.31,7.2-8.64Z"/>
    <path class="cls-47" d="M333.91,246.1c-1.94-1.24-4.72-.94-6.22.67-1.5,1.6-1.14,3.91.8,5.15,1.94,1.24,4.72.94,6.22-.66,1.5-1.61,1.14-3.91-.8-5.15Z"/>
    <path class="cls-60" d="M516.38,223.49c-3.85.36-7.74.05-9.14,3.34l1.14,1.66c4.22,1.16,3.03,1.34,6.58.7,1.84-2.03,1.48-3.06,1.42-5.7Z"/>
    <path class="cls-48" d="M453.22,268.61c-1.81,1.11-2.28,1.75-3.62,3.19.34,2.46,1.59,2.99,3.74,5.17.67.03,1.52-.61,2.31-1.02,2.46-4.03.78-4.7-2.42-7.34Z"/>
    <path class="cls-48" d="M492.58,264.9c-.11-.01-2.61-.23-4.09,1.79-1.02,1.4-1.13,3.31-.26,4.85.47-.09,1.08-.12,1.75.06,2.32.61,3.16,3.22,3.24,3.48.67.03,1.52-.61,2.31-1.02.38-.55,1.19-1.88,1.12-3.64-.1-2.32-1.69-4.44-4.07-5.51Z"/>
    <path class="cls-16" d="M362.75,283.84c-1.82-.59-3.88.04-4.81,1.47s-.41,3.2,1.18,4.13c1.23.71,2.83.77,4.13.17,1.3-.61,2.05-1.78,1.95-3.01-.1-1.23-1.05-2.3-2.44-2.75Z"/>
    <path class="cls-31" d="M386.13,268.88c-2.25.82-2.78,1.21-4.78,2.45-.12,2.47,1.02,2.76,3.28,5.13.81.37.65.17,1.96,0,2.8-3.52,1.91-4.49-.47-7.58Z"/>
    <path class="cls-51" d="M128.35,266.26c-2.15,2.12-3.29,3.15-2.05,5.76l2.78.51c1.98-.15,1.91-.05,3.51-.98-.5-2.5-1.92-3.08-4.24-5.28Z"/>
    <path class="cls-31" d="M244.97,204.96c-1.66-.43-3.43.31-4,1.67-.58,1.36.27,2.85,1.9,3.36,1.09.34,2.32.17,3.22-.46.9-.63,1.31-1.61,1.07-2.56-.23-.95-1.07-1.72-2.19-2.01Z"/>
    <path class="cls-51" d="M167,254.88c-1.88.27-3.8.64-5.68.97-1.47,1.77-1,1.2-.47,4.05,2.43.14,2.34.09,4.71-.54,1.87-2.12,1.29-1.4,1.43-4.48Z"/>
    <path class="cls-51" d="M133.67,185.49c-1.32-.81-3.17-.58-4.14.51-.97,1.09-.68,2.63.64,3.42,1.32.79,3.14.55,4.11-.53.96-1.08.69-2.6-.61-3.41Z"/>
    <path class="cls-31" d="M192.07,222.61c-3.23-.06-4.17-.2-7.15.76l-.72,1.45c2.96.59,4.05,1.23,6.69.58l1.18-2.79Z"/>
    <path class="cls-60" d="M438.49,158.83l-1.87,1.08c-.41,2.29.39,2.35,2.28,4.74h1.27c.51-2.29-.55-3.35-1.68-5.82Z"/>
    <path class="cls-31" d="M233.51,226.55c-.68-.41-1.57-.48-2.32-.18-.76.3-1.26.91-1.32,1.6-.05.69.35,1.35,1.05,1.73,1.05.55,2.44.32,3.14-.54.69-.85.45-2.01-.56-2.61Z"/>
    <path class="cls-48" d="M405.73,219.97c-.62,1.68-.4,2.61-.27,4.35l1.2.82.59-.19.51-1.02-2.03-3.96Z"/>
    <path class="cls-60" d="M299.05,346.61c-8.78,2.76-15.76,2.86-20.55,2.43-1.88-.17-.53-.16-12.25-2.23-8.75-1.54-12.18-2.02-17.96-3.45-4.68-1.16-5.27-2.34-7.74-2.15-7.67.58-16.23,1.62-23.99,1.09-38.91-2.64-77.92-2.76-116.83-5.23-6.06-.38-12.13-2.26-18.18-2.77-2.26-.19-4.65,1.45-6.89,1.28-13.12-1.54-26.86-1.4-40-2.62-1.55-.14-2.01-1.44-2.71-2.5.43,12.07.6,24.49.47,37.23-.04,3.69-.1,7.35-.19,10.98-.09,3.57-.17,7.13-.26,10.7l.08,6.31c13.06-1.59,26.12-3.15,39.19-4.71,12.94-1.54,25.88-3.06,38.82-4.57,5.05-1.22,18.23-2.62,24.02-3.31l45.11-5.3,55.66-6.88c7.1-.87,27.56-3.69,33.92-3.29,15.28.95,35.59,5.18,50.89,7.66l106.88,17.8c14.1,2.36,37.25,6.82,50.75,8.41,6.63-1.33,12.19,1.26,14.71.96l.19-1.88c-2.9-2.04-9.09-1.88-13.24-4.44,19.88,2.77,40.14,6.79,60.2,9.75,1.25-14.8.5-30.41-.28-45.23l.17-4.41-.33-8.95.49-4.01-2.38-.87c-6.96.49-56.53-5.42-64.53-7.32-.27-.02-.68-.06-1.17-.1,0,0-22.32-1.85-43.01-1.42-17.55.36-31.07,2.4-40.34,3.7-19.48,2.74-48.38,6.24-88.72,9.32Z"/>
    <path class="cls-60" d="M429.11,347.98c9.32-.7,32.48,2.82,42.48,4,24.03,2.87,48.07,5.74,72.1,8.61v45.25c-20.3-2.95-40.81-6.94-60.93-9.69-2.16-.81-26.33-4.41-30.06-5.05-37.15-6.24-74.36-12.25-111.61-18.03-9.93-1.59-43.11-6.6-50.08-8.89,45.34-4.05,92.49-12.74,138.1-16.19Z"/>
    <path class="cls-51" d="M498.39,371.6c-.56.57-4.44,6-5.13,6.93-2.43.91-5.4,1.82-7.92,2.66.59.2,1.19.41,1.78.62,7.39,2.67,8.03,3.97,10.81,9.91l.68.17c2.87-9.38,6.12-5.59,9.47-10.35-7.09-3.71-6.62-3.24-9.7-9.95Z"/>
    <path class="cls-54" d="M248.54,343.35c-.12-1.15-4.36-2.4-7.73-2.15-7.67.58-16.22,1.62-23.97,1.09-26.56-1.81-98.05,2.81-116.73-5.23-2.72-1.17-10.67-5.17-18.85-3.74-1.24.22-3.46.73-6.81.94-3.95.24-6.69-.11-10.3-.51-1.49-.16-9.3-1.02-14.47-1.28-3.35-.17-8.35-.22-14.58.48-1.05-1.07-2.09-2.14-3.14-3.21,0,8.63,0,17.25,0,25.87,0,2.35,0,7.01.01,9.36,6.86.69,16.68,1.59,28.54,2.35,12.3.79,19.31,1.36,27.59,1.02,8.35-.34,22.9-2.76,31.82-3.76,24.51-2.55,48.99-5.25,73.44-8.1,45.02-7.7,55.37-11.3,55.18-13.14Z"/>
    <path class="cls-31" d="M120.85,355.73c-3.23.57-2.28.04-4.46,1.79.73,2.45,1.85,2.76,4.19,4.76,2.67-.94,3.91-1.07,5.26-3.02-1.24-2.15-2.23-2.12-4.99-3.53Z"/>
    <path class="cls-16" d="M97.76,342.9c-1.91-.3-3.81.59-4.47,2.11-.67,1.52.11,3.21,1.81,3.99,1.38.63,3.06.52,4.32-.26,1.24-.78,1.82-2.1,1.46-3.36-.35-1.26-1.58-2.23-3.12-2.48Z"/>
    <path class="cls-31" d="M238.27,342.72c-2.53.16-2.96.09-5.23.95l.63,1.77.68.34c2.46-.58,1.98-.85,3.91-3.06Z"/>
    <path class="cls-31" d="M543.96,405.73v6.88c-11.01-1.97-22.07-3.92-33.19-5.85-16.47-2.85-32.85-5.62-49.13-8.31l12.62-4.08c12.13,2.27,24.54,4.44,37.24,6.48,11,1.77,21.82,3.4,32.47,4.88Z"/>
    <path class="cls-60" d="M482.04,411.36c-3.86,6.9-3.56,6.85-12.52,8.93-15.72-.01-36.09,5.04-51.85,7.19-18.4,2.51-35.05,4.86-53.23,8.05-14.61,2.56-28.69,1.83-44.56,6.66l-.29.36,40.41-5.05c5.44-.68,12.62-1.61,17.98-2.1,3.47-.32,6.22,2.75,12.15,2.21,22.48-2.05,72.63-8.07,92.78-5.88l.46-1.22c2.25-7.28,4.13-7.11,12.52-9.14l-9.28-2.89-4.57-7.12Z"/>
    <path class="cls-39" d="M482.04,411.36c-3.86,6.9-3.56,6.85-12.52,8.93,3.71,4.92,8.11-.67,11.47,10.44,1.78.15,1.09.38,2.37-.22,2.25-7.28,4.13-7.11,12.52-9.14l-9.28-2.89-4.57-7.12Z"/>
    <path class="cls-60" d="M417.75,417.9c4.35.31,8.7.57,13.06.78-2.59-.73-3.33-1.09-5.69-2.25-3.09-11.14-25.77-11.56-36.85-11.98l.45.13c-13.79.16-35.19-2.95-45.44,2.12l.4,1.08c14.26,4.97,33.84,3.39,49.47,8l.56.17c1.4-.8,3.73-.71,5.55-.82,1.69,1.18,3.39,2.34,5.1,3.5,2.4-.51,3.41-1.32,5.48-2.52,2.68.72,5.6,1.15,7.92,1.79Z"/>
    <path class="cls-31" d="M404.9,409.13c-2.18,1.83-4.99,3.66-5.65,6.01,1.69,1.18,3.39,2.34,5.1,3.5,2.4-.51,3.41-1.32,5.48-2.52l.88-.63c-.49-2.27-3.59-4.33-5.81-6.35Z"/>
    <path class="cls-60" d="M399.25,415.14c-1.82.11-4.15.02-5.55.82l-.75,1.62c-10.73,3.85-27.63,4.77-39.26,4.09,3.16-.65,12.4-1.23,17.47-2.08-8.78-.86-17.23.15-25.93.74-7.88.53-8.31-.79-15.32,3.15l.86.84c3.74-1.12,4.75-2.8,8.63-2.28l2.02.96c2.1-.51,4.22-.99,6.33-1.44l.69.64c.86.8,1.85,1.85,3.01,1.91,15.51.75,27.81-1.74,42.46-5.15.58,1.03.42.45-.11,1.86,6.89-.1,17.5-1.06,23.93-2.93-2.32-.64-5.24-1.07-7.92-1.79-2.06,1.2-3.08,2.01-5.48,2.52-1.71-1.16-3.41-2.32-5.1-3.5Z"/>
    <path class="cls-60" d="M70.74,499c-2.23,1.81-2.34,4.93-5.51,6.7-1.47.82-3.76,2.66-5.2,3.68l1.02.14-1.34.05,2.31.22c4.33,2.54,5.6,5.07,7.15,9.09l.32.86c1.47-2.97,3.59-5.84,5.51-8.63,2.33-.53,4.23-.77,6.12-1.99-6.7-3.56-7.7-3.29-10.01-9.17l-.37-.95Z"/>
    <path class="cls-60" d="M214.77,562.95c-5.44-.14-9.94-.45-10.32,5.02,1.17,2.72,2.53,3.39,5.12,5.34,3.53.1,4.92.05,8-1.26,3.66-4,1.52-6.2-2.8-9.1Z"/>
    <path class="cls-60" d="M280.57,548.85c-3.89,1.18-6.13,3.63-9.01,6.16l7.23,6.72,1.41,1.01c5.85-7.09,6.91-6.96.37-13.89Z"/>
    <path class="cls-44" d="M418.68,567.04l4.34.32c2.7-1.47,2.99-1.52,4.65-3.73.21-2.93.5-1.76-1.18-4.41-2.38-1.19-2.24-1.13-5.04-1.05l-2.8,3.26c-3.31-.32-4.23-.84-7.02.14.86,2.9,2.48,3.51,5.25,5.96,1.07-.17,1.22-.03,1.79-.49Z"/>
    <path class="cls-44" d="M418.65,561.44c-3.31-.32-4.23-.84-7.02.14.86,2.9,2.48,3.51,5.25,5.96,1.07-.17,1.22-.03,1.79-.49l-.96-.21c-.59-1.57-.68-2.93-.93-4.57l1.87-.83Z"/>
    <path class="cls-49" d="M190.7,544.19c-2.91,0-4.05.03-6.91.45l-1.97,3.2c-2.97-.15-1.71-2.76-6.49-3.72-3.08,1.25-3.42,2.46-5.04,5.03,4.54,4.29,18.25,1.36,21.44-2.82l-1.03-2.15Z"/>
    <path class="cls-49" d="M121.94,511.65c-3.12,2.59-5.78,3.73-5.93,6.67,2.52,2.84,3.09,3.5,4.4,6.88l.3.76c2.16-2.37,7.33-6.89,7.15-8.98-2.88-2.1-3.61-2.88-5.91-5.33Z"/>
    <path class="cls-60" d="M98.85,428.24c-1.78,3.28-2.62,3.79-6.04,6.08l-.96.64c3.6,2.57,4.62,2.52,7.05,6.18l.43.67c2.73-7.55,5.74-4.08,7.17-6.83-4.6-2.57-5.54-2.3-7.65-6.73Z"/>
    <path class="cls-44" d="M465.96,547.91c-5.93-.44-14.45.53-19.39,2.99l.31.89c7.47-1.09,7.11.39,14.28.78,3.27-1.32,2.78-1.72,4.8-4.67Z"/>
    <path class="cls-49" d="M155.62,514.51c-2.8.28-4.67,1.31-5.78,3.36,1.03,2.93,1.12,2.3,4.32,4.61,2.74-.3,3.67-.71,4.96-2.59-.32-2.8-1.17-3.22-3.51-5.38Z"/>
    <path class="cls-49" d="M377.05,534.12l-1.36.29c-2.81,2.45-2.12,3.4-.39,5.94,3.38,1.58,1.87,1.25,5.78,1.25l.62-.49-1.53.14c.82-1.05,1.01-1.98,1.4-3.19-.96-2.86-.62-1.99-4.51-3.94Z"/>
    <path class="cls-44" d="M523.97,513.89l-.4-.08c-2.42.77-1.43.14-2.88,2.13l.79,1.96c2.5,1.71,1.52,1.51,4.39,1.89,2.14-1.15,3.41-1.93,5.38-3.27l-.16-.71c-3.03-.44-3.65-.59-6.46-1.66l-.66-.26Z"/>
    <path class="cls-44" d="M514.01,495.33c-2.08-.13-3.91,1.12-4.15,2.84-.25,1.72,1.18,3.29,3.24,3.56,1.41.19,2.84-.28,3.71-1.22.87-.94,1.05-2.2.47-3.28-.59-1.08-1.84-1.81-3.27-1.9Z"/>
    <path class="cls-44" d="M495.24,561.3c-3.51,1.58-3.12,4.45-3.86,7.61l.92.21c2.64-1.27,4.57-1.92,6.28-3.98-.42-2.52-.23-1.69-3.34-3.83Z"/>
    <path class="cls-44" d="M423.43,531.73c-2.96-.09-3.35-.18-6.13.5-1.92,1.44-1.87,1.67-2.65,3.8,1.98.37,3.23.54,5.24.75,2.5-1.44,2.29-2.37,3.53-5.05Z"/>
    <path class="cls-60" d="M179.2,565.16c-1.16-.22-2.38.11-3.17.85-.79.74-1.04,1.78-.63,2.71.41.93,1.4,1.61,2.58,1.76,1.74.23,3.39-.73,3.72-2.17.33-1.44-.77-2.83-2.5-3.15Z"/>
    <path class="cls-44" d="M104.99,512.94c-1.06-.44-2.33-.36-3.31.21s-1.48,1.54-1.32,2.52c.15.98.95,1.8,2.06,2.15,1.6.49,3.39-.13,4.07-1.43s.03-2.81-1.5-3.44Z"/>
    <path class="cls-49" d="M131.38,537.09c-.84-.68-2.07-.91-3.18-.59-1.12.32-1.91,1.13-2.06,2.09-.15.96.37,1.92,1.34,2.46,1.32.74,3.13.52,4.14-.51,1.01-1.03.91-2.53-.24-3.46Z"/>
    <path class="cls-49" d="M172.21,500.35c-4.47,1.85-6.78,2-5.92,6.39l2.57.25c2.55-2.08,2.3-3.41,3.35-6.64Z"/>
    <path class="cls-60" d="M253.68,475.68c-2.45.39-5.48.88-6.83,2.58l1.74.95c3.16.08,4.5.2,7.61-.47l.09-1.1-2.61-1.96Z"/>
    <path class="cls-49" d="M182.08,524.55c-2.67-.22-2.9-.2-5.56.19-2.17,1.9-1.49,1.31-1.99,4.46,3.82-.27,5.49-2.27,7.55-4.65Z"/>
    <path class="cls-49" d="M320.54,531.23c-1.24.15-3.46.65-4.77.91-2.47,1.88-1.77.89-2.43,3.88,4.42-.61,6.09-1.12,7.2-4.79Z"/>
    <path class="cls-51" d="M190.75,429.77c-1.66-.14-2.8.11-4.43.34-2.63,1.81-1.95.86-2.67,3.53,1.69-.06,2.89-.27,4.55-.5,2.49-1.8,1.91-.88,2.55-3.37Z"/>
    <path class="cls-44" d="M441.86,560.59c-2.81,1.64-2.47.92-3.46,3.16l1.85,2.89c1.68-.04.84.09,2.47-1.03.59-2.21.08-2.78-.86-5.03Z"/>
    <path class="cls-44" d="M481.83,556.15l-.6-1.42-1.68,1.4-3.24-.14-1.62,1.47.17,1.35c3.54.09,4.69-.13,6.98-2.66Z"/>
    <path class="cls-44" d="M390.35,572.08l-.96,1.01c.96,2.12,3.49,3.07,5.92,4.4l.86-.84c-.85-2.12-3.46-3.2-5.83-4.57Z"/>
    <path class="cls-44" d="M499.98,545.1l-1.88.62c-1.85,2.27-1.24,2.69-1.3,5.76,4.77-1.9,3.75-2.53,3.18-6.38Z"/>
    <path class="cls-49" d="M326.36,565.1l-1.06-.41c-2.37.9-3.31,2.94-4.7,4.93,3.45-.99,5.61-1.36,5.77-4.53Z"/>
    <path class="cls-44" d="M431.11,537.73c-2.11,1.24-2,1.23-3.43,3.05l.47,1.59,1.72.23c1.57-1.77,1.09-2.38,1.24-4.87Z"/>
    <path class="cls-49" d="M428.46,516.06c-3.13,1.47-3.55,3.3-4.16,6.06,1.65-.39,1.98-.66,3.41-1.41,1.41-2.53,1.03-1.61.76-4.65Z"/>
    <path class="cls-44" d="M405.89,502.96c-1.1-.05-2.06.58-2.27,1.47s.41,1.77,1.45,2.06c.81.22,1.7.04,2.29-.47s.76-1.26.44-1.91c-.32-.66-1.06-1.1-1.91-1.14Z"/>
    <path class="cls-3" d="M32.11,355.19c24.17,11.71,43.16,13.45,56.21,12.8,5.18-.26,3.99-.88,32.21-3.83,24.81-2.6,49.6-5.35,74.36-8.26l73.27-7.99c7.07-.8,25.04-2.35,30.79-4.1,36.88-8.43,81.62-14.59,132.33-13.12,16.2.47,31.58,1.68,46.08,3.4,9.85,1.98,20.91,3.66,33.04,4.64,10.08.82,19.49,1.03,28.1.87,1.82.79,3.65,1.58,5.47,2.37v13.64c-27.35-3.99-54.7-7.98-82.06-11.97-10.53-.74-21.07-1.49-31.6-2.23-17.43,1.98-34.85,3.96-52.28,5.94-48.63,5.52-84.48,10.2-93.21,11.3-35.71,4.49-104.94,12.6-252.85,28.51-.05-6.7-.06-13.48,0-20.35.03-3.89.08-7.76.15-11.6Z"/>
  </g>
  <g id="_Слой_10" data-name="Слой 10">
    <path class="cls-17" d="M366.79,144.65c-3.93,2.7-8.19,5.45-12.77,8.17-5.37,3.19-10.56,5.98-15.49,8.43,1.71,3.01,4.38,7.68,7.74,13.36,6.95,11.74,9.61,15.6,13.19,21.87,3.16,5.54,7.53,13.83,11.91,24.68,3.52-1.99,7.04-3.97,10.55-5.96-1.4-4.34-1.48-7.95-1.36-10.21.14-2.58.71-12.98,8.26-17.45,2.61-1.54,5.21-1.88,6.72-1.96-3.12-3.1-9.73-10.51-12.43-22.13-1.86-7.99-1.11-14.77-.34-18.81,30.87,0,61.73,0,92.6,0,.08,4.16-.28,10.87-3.06,18.47-1.53,4.17-6.75,16.67-20.26,25.19-8.87,5.59-17.5,7.06-22.47,7.49.57,1.92,1.32,5.01,1.53,8.85.15,2.64.69,17.46-10.04,28.6-1.61,1.67-4.09,3.9-7.66,5.96-.89,3.91-2.44,9.04-5.28,14.64-3.37,6.65-7.15,11.18-9.02,13.28-6.4,7.18-12.84,10.98-16.51,13.11-6.19,3.59-9.47,5.49-14.13,6.13-10.46,1.44-19.27-4.68-22.98-7.66,1.59,5.65,2.59,10.44,3.23,13.96,1.57,8.61,2.33,13.02,1.19,18.38-1.01,4.74-3.06,8.32-4.6,10.55.55,2.39,1.04,5.32,1.19,8.68.16,3.51-.09,6.58-.46,9.07,1.8,3.39,3.6,6.77,5.4,10.16-62.64,7.72-125.28,15.43-187.91,23.15,2.65-4.62,6.85-10.79,13.28-16.85,7.41-6.99,14.86-11.09,20.09-13.45,2.04-4.26,4.09-8.51,6.13-12.77.51-5.22,1.02-10.44,1.53-15.66-2.42-4.61-3.08-8.47-3.25-11.06-.6-9.11,4.06-13.79,6.15-25.71.9-5.11.94-9.38.85-12.09-2.16,2.6-6.23,6.82-12.6,9.87-2.68,1.28-7.97,3.82-14.64,3.57-10.59-.4-20.21-7.68-24.68-16.51-4.34-8.57-2.96-16.88-1.7-23.83,2.62-14.52,9.13-23.82,20.45-39.59,10.73-14.96,19.39-26.81,35.2-37.7,7.52-5.19,14.38-8.58,19.25-10.71.85-1.84,1.7-3.69,2.55-5.53,44.88,0,89.76,0,134.64,0Z"/>
  </g>
  <g id="_Слой_8" data-name="Слой 8">
    <g>
      <path class="cls-29" d="M341.19,270.48c.39,5.72,1.01,10.83,2,16.58,1.31,7.57,4.45,15.99,3.79,23.66-.29,3.39-2.86,7.77-4.86,10.56,1.56,6.76,2.86,10.97.58,17.8,1.51,3.57,3.26,7.12,5.07,10.63-1.14.12-2.26.27-3.36.49-4.3-1.06-7.58.24-10.87,1.82-2.14.45-4.27,1.01-6.4,1.91-1.06.45-2.11.93-3.15,1.41-3.46.16-7.11-1.12-10.61-.74-2.8.31-5.53.98-8.25,1.7h-6.59s0,1.62,0,1.62c-3.78.69-7.64.81-11.43,1.54-4.45.86-8.65,2.43-13.17,3.03-8.8,1.17-17.81.42-26.57,1.88-4.16.69-8.02,2.32-12.04,3.53-4.19,1.26-7.99,1.27-12.35,1.18-9.12-.19-17.48,1.13-26.48,2.36-7.16.97-14.15-.94-21.34-.27-1.78.17-3.57.4-5.34.7h-2.1c2.66-3.84,5.25-7.37,9-11.28,3.28-3.39,6.85-6.5,10.66-9.28,2.42-1.74,11.14-6.92,12.07-8.52,1.82-3.12,3.88-8.52,6.09-12.37-.43-5.72.95-11.72,1.87-17.46-6.49-14.91,1.27-21.79,3.38-36.91.92-6.6.82-13.02.9-19.7-1.2.38-5.28,6.77-7.03,8.67-1.53,1.64-3.25,3.1-5.13,4.33-3.22,2.14-6.98,3.82-10.72,4.57-30.16,6.03-39.29-26.67-26.63-48.69,10.23-17.77,22.16-32.97,34.93-48.89,4.4-5.48,9.6-9.87,15.46-13.58,6.52-4.42,14.85-6.99,21.1-11.25.29-2.86.59-5.09,1.08-7.92-14.07-7.86-34.59-32.4-41.61-47.05,1.89.29,3.6.66,5.5.5-4.18-6.03-7.94-11.45-10.67-18.33,4.38-.2,7.94-1.02,12.25-1.46-2.6-1.9-4.11-2.96-6.36-5.21,10.53-1.61,18.97-7.13,26.86-13.85-6.55-16.21-7.64-40.58,2.89-55.94,1.05-1.53,4.19-2.44,6.01-2.25,15.65,1.68,27.24,13.41,37.4,24.3,6.92-.32,13.84-.69,20.75-1.12,8.85-1.24,13.27-4.41,21.76-4.38-1.45,1.75-2.87,3.54-4.24,5.35,8.4-.35,14.21,1.11,21.28,5.52l-4.46,2.06c3.45,1.72,6.48,3.44,9.52,5.86,11.33-5.27,21.85-11.48,34.83-11.45,3.86.01,10.61.13,12.16,4.64,3.62,10.53.68,23.9-2.84,34.12-2.75,7.27-8.31,14.6-13.07,20.28,6.32,13.86,9.37,19.89,22.62,27.6-3.03.81-6.59,1.87-9.63,2.43,3.59,2.32,7.68,4.58,10.84,7.3-4.71,3.54-9.63,6.78-14.75,9.69l5.09,1.9c-10.86,9.11-30.75,20.68-44.14,25.38,2.36,2.53,3.92,4.27,5.82,7.09,1.83,2.72,3.36,7.3,5.14,9.57,9.98,12.74,16.29,26.6,23.21,41.09,1.04,2.18,2.25,4.33,3.25,6.59,6.79-1.77,8.66-3.31,13.7-8.29-3.14-10.37,1.86-34.57,16.71-25.43-2.79-9.83-5.98-11.47-10.97-19.85-9.16-15.35-4.47-35.43,3.53-50.18,12.09-22.27,36.97-31.67,59.78-18.6,9.39,5.5,16.23,14.48,19.03,24.98,6.21,23.71-6.76,58.54-32.46,64.24-5.18,1.15-9.86,1.83-14.93,3.63,3.25,4.18,5.19,7.04,4.4,12.64-1.72,12.2-2.64,19.47-12.78,27.23-1.5,1.13-3.01,2.24-4.54,3.33-2.11,10.04-3.34,8.99-7.35,17.32-2.39,7.99-8.24,11.21-14.12,16.21-17.55,14.89-32.63,17.69-48.96-.6Z"/>
      <path class="cls-19" d="M248.39,374.32c8.3-1.67,17.14-.83,25.55-1.82,4.21-.5,8.23-1.41,12.31-2.52,4.06-1.11,8.15-1.34,12.29-1.94v7.16h-53.77c1.19-.33,2.39-.63,3.62-.88Z"/>
      <path class="cls-22" d="M248.39,374.32c8.3-1.67,17.14-.83,25.55-1.82,4.21-.5,8.23-1.41,12.31-2.52,4.06-1.11,8.15-1.34,12.29-1.94v7.16h-53.77c1.19-.33,2.39-.63,3.62-.88Z"/>
      <path class="cls-22" d="M339.11,350.04c-1.97.35-3.77,1.12-5.57,1.98-2.14.45-4.27,1.01-6.4,1.91-1.06.45-2.11.93-3.15,1.41-3.46.16-7.11-1.12-10.61-.74-2.8.31-5.53.98-8.25,1.7h-6.59s0,1.62,0,1.62c-3.78.69-7.64.81-11.43,1.54-4.45.86-8.65,2.43-13.17,3.03-8.8,1.17-17.81.42-26.57,1.88-4.16.69-8.02,2.32-12.04,3.53-4.19,1.26-7.99,1.27-12.35,1.18-9.12-.19-17.48,1.13-26.48,2.36-7.16.97-14.15-.94-21.34-.27-1.78.17-3.57.4-5.34.7h-2.1c2.66-3.84,5.25-7.37,9-11.28,3.28-3.39,6.85-6.5,10.66-9.28,2.42-1.74,11.14-6.92,12.07-8.52,1.82-3.12,3.88-8.52,6.09-12.37-.43-5.72.95-11.72,1.87-17.46-6.49-14.91,1.27-21.79,3.38-36.91.92-6.6.82-13.02.9-19.7-.09-.15-.19-.29-.25-.45-.77-2.12,5.47-14.01,6.86-16.19,2.06-3.16,5.22-6.6,6.23-10.2.38.3.77.6,1.15.91.35-.78.22-.38.12-1.36.54-.67,1.49-2.13,2.01-2.89,1.3-.54,1.54-.92,2.63-.66-.27,1.38-2.3,3.07-3.27,4.65-1.23,1.67-2.39,4.21-3.35,6.1-2.17,3.77-4.45,8.13-6.7,11.77-2.99,4.16-.39,17.36-1.2,23.3-1.26,9.24-3.58,17.61-5.75,26.66-.98,4.71-.76,9.08,1.26,13.53.17,1.16.47,2.65.34,3.77l2.06,1.64c-.19,1.93-1.79,10.55-2.52,12.05,10.23,4.94,15.74,7.6,26.64,11.29l.06.34c1.36,1.36,3.5.68,4.54,1.52,3.7,2.98,9.17,4.63,14.26,4.45l.28-.38c-1.84-.59-10.47-1.76-10.99-2.9-.28-.15,8.39,1.89,8.82,1.96,9.91,1.86,19.99,2.67,30.08,2.43,2.79-1.64-1.22-14.98,2.77-15.64l.02.69c-.61.38-.79.49-1.34.96,1.65,3.66-.45,9.26.41,13.53,3.86,2.35,44.92-4.96,46.5-8.45l1.38-.61,2.76-1.27.52,3.55c1.28,1.51,1.53,1.82,2.37,3.6l.35.8c-1.33.85-1.95,1.28-3.38,1.9.59.98,1.19,2.08,1.77,3.24Z"/>
      <path class="cls-15" d="M339.11,350.04c-1.97.35-3.77,1.12-5.57,1.98-2.14.45-4.27,1.01-6.4,1.91-1.06.45-2.11.93-3.15,1.41-3.46.16-7.11-1.12-10.61-.74-2.8.31-5.53.98-8.25,1.7h-6.59s0,1.62,0,1.62c-3.78.69-7.64.81-11.43,1.54-4.45.86-8.65,2.43-13.17,3.03-8.8,1.17-17.81.42-26.57,1.88-4.16.69-8.02,2.32-12.04,3.53-4.19,1.26-7.99,1.27-12.35,1.18-5.91-.13-11.49.39-17.14,1.1,2.72-5.55,5.83-10.52,9.23-14.4l-5.78,2.37c4.24-5.84,7.03-8.52,12.1-13.68,5.5,1.15,18.12,6.32,22.54,6.22l.41-.75c.12.6.21,1.03.36,1.64,1.83-.69,13.11,2.28,16.15,2.69,5.6.7,11.22,1.15,16.86,1.35,15.32.41,28.33-1.58,43.02-5.28l.76.47.18-.21c.06-1.51.26-2.98-.27-4.36,3.59-.2,9.75-2.75,13.02-4.21l3.56-1.52c1.28,1.51,1.53,1.82,2.37,3.6l.35.8c-1.33.85-1.95,1.28-3.38,1.9.59.98,1.19,2.08,1.77,3.24Z"/>
      <path class="cls-15" d="M248.39,374.32c8.3-1.67,17.14-.83,25.55-1.82,4.21-.5,8.23-1.41,12.31-2.52,4.06-1.11,8.15-1.34,12.29-1.94v7.16h-53.77c1.19-.33,2.39-.63,3.62-.88Z"/>
      <path class="cls-50" d="M313.37,354.61c-2.8.31-5.53.98-8.25,1.7h-6.59s0,1.62,0,1.62c-3.78.69-7.64.81-11.43,1.54-4.45.86-8.65,2.43-13.17,3.03-7.32.97-14.79.63-22.13,1.33-.93-1.66-1.72-3.36-2.3-5.08l-.44-1.29c0,2.45.07,4.5.2,6.67-.35.05-.69.09-1.04.14-1.72-4.7-1.94-6.58-3.51-12.68,1.83-.69,13.11,2.28,16.15,2.69,5.6.7,11.22,1.15,16.86,1.35,15.32.41,28.33-1.58,43.02-5.28l.76.47c-.67,2.1-.97,3.19-1.5,4.28-2.21-.3-4.45-.71-6.63-.47Z"/>
      <path class="cls-50" d="M261.58,373.15c.32.78.62,1.44.92,2.05h-2c-.61-.64-1.21-1.29-1.81-1.96.96-.04,1.92-.07,2.88-.1Z"/>
      <path class="cls-50" d="M273.94,372.5c4.21-.5,8.23-1.41,12.31-2.52,4.06-1.11,8.15-1.34,12.29-1.94v6.61c-.26.18-.53.38-.79.56h-33.85c-.69-.64-1.38-1.33-2.08-2.06,4.07-.11,8.14-.17,12.12-.64Z"/>
      <path class="cls-35" d="M336.65,344.71c-3.82,1.76-10.88,4.81-14.96,5.88.06-1.51.26-2.98-.27-4.36,3.59-.2,9.75-2.75,13.02-4.21,1.3,1.13,1.35,1.21,2.21,2.69Z"/>
      <path class="cls-15" d="M340.37,344.1c-.79.03-3.08.26-3.72.61-.87-1.48-.91-1.56-2.21-2.69l3.56-1.52c1.28,1.51,1.53,1.82,2.37,3.6Z"/>
      <path class="cls-35" d="M244.35,349.95l-.41.75c-4.42.1-17.03-5.07-22.54-6.22-5.07,5.16-7.86,7.84-12.1,13.68l5.78-2.37c-3.4,3.88-6.51,8.86-9.23,14.4-2.81.35-5.63.75-8.51,1.14,1.41-3.84,2.36-6.71,2.13-7.36l-1.2.16-.26-.3c1.35-4.46,5.13-11.56,7.3-15.89-.42.07-1.07.12-1.51.16-1.08-.83-.78-.78-1.29-2.38.92-2.44,2.54-5.65,3.83-7.91.79-1.73,1.77-4.1,2.75-5.68,7.88,4.91,26.17,12.33,35.38,13.72-.53,1.35-.26,2.64-.13,4.1Z"/>
      <path class="cls-15" d="M205.31,347.94c-.42.07-1.07.12-1.51.16-1.08-.83-.78-.78-1.29-2.38.92-2.44,2.54-5.65,3.83-7.91,2.6,3.25,1.17,7.05-1.04,10.14Z"/>
      <path class="cls-42" d="M321.42,346.23c.53,1.38.33,2.86.27,4.36l-.18.21-.76-.47c-14.7,3.7-27.7,5.69-43.02,5.28-5.64-.19-11.27-.64-16.86-1.35-3.04-.41-14.32-3.38-16.15-2.69-.15-.6-.24-1.03-.36-1.64-.13-1.46-.4-2.75.13-4.1,23.6,6.38,53.27,7.01,76.94.38Z"/>
      <path class="cls-42" d="M198.26,364.13l1.2-.16c.23.65-.72,3.52-2.13,7.36-.28.04-.55.08-.83.11-1.9.26-3.79.31-5.67.27,3.33-8.28,8.15-18.81,11.68-25.99.5,1.6.2,1.55,1.29,2.38.44-.04,1.08-.08,1.51-.16-2.17,4.33-5.95,11.42-7.3,15.89l.26.3Z"/>
      <path class="cls-41" d="M213.82,316.95c-.19,1.93-1.79,10.55-2.52,12.05-.75-.58-.75-.63-1.32-1.39-.72-3.24.99-8.87,1.78-12.3l2.06,1.64Z"/>
      <path class="cls-7" d="M175.17,371.18c-.56.05-1.12.12-1.68.18,1.69-2.15,3.12-3.92,3.84-4.79-.13,1.75-.63,2.95-1.03,4.52-.38.02-.75.05-1.13.08Z"/>
      <path class="cls-37" d="M175.17,371.18c-.56.05-1.12.12-1.68.18,1.69-2.15,3.12-3.92,3.84-4.79-.13,1.75-.63,2.95-1.03,4.52-.38.02-.75.05-1.13.08Z"/>
      <path class="cls-13" d="M182.58,371.19c-2.09-.14-4.18-.21-6.29-.09.41-1.57.9-2.77,1.03-4.52,4.2-5.52,11.76-11.54,17.78-14.8-1.72,3.74-3.57,8.2-6.04,11.44-2.09,2.74-4.34,5.3-6.48,7.96Z"/>
      <path class="cls-7" d="M287.79,23.2c.02,1.61-.12,2.15-.43,3.76,4.83-.88,9.89-2.48,14.54-4.05-1.78,2.29-2.7,3.64-5.16,5.26h.31c4.99,0,15.6-2.18,19.12.93l-.13.56c-2.1,1.17-3.65,1.07-5.84,1.98l-.03.51.54.39c6.9,1.11,18.71,6.31,23.65,11.44,15.99,13.49,17.98,27.89,25.55,46.48-2.81,5.94,6,17.85,10.54,20.64-1.32.25-3.52.56-4.67,1.06-.37-.1-1.28-.61-1.67-.81-.76-1.12-.61-2.99-.83-4.45-.14,1.45-.09,4.62-.65,5.55-2.04,1.54-6.26.88-8.9.66,1.28,1.43,7.58,7.46,7.98,8.09-1.15.64-1.47.61-2.75.76-6.19,1.24-17.27.73-23.54.46-2.63-6.4-3.91-8.52-9.94-12.14l-.43-.25c.68-.32,1.18-.5,1.89-.75-1.53-.56-8.1-2.55-8.81-3.44l1.28-1.13c-4.42-.12-9.98-7.22-12.49-10.77l-.77-.68-2.51.19c-2.25.77-3.48,1.21-5.53,2.6-1.95-.14-4-.2-5.88-.66-.47-2.98-2.47-4.84-4.63-6.63l-1.89-.65c-5.59,1.65-10.42,4.4-15.98,5.87-.69.18-1.91-.46-2.52-.78-1.12.21-1.28.1-2.07.86-1.19.25-7.79-.6-9.68-.73l.51,1.04.27.24c-.4.74-3.88,1.58-5.01,2.07-3.74,1.62-7.33,3.51-11.14,4.95-10.42-2.72-13.05-4.66-22.25-9.16-1.45-.38-1.68-.39-2.92-1.18l-.12-.63c1.18-1.03,2.64-1.17,4.22-1.55-.32-2.06-.68-3.58-.42-5.65-.87-.66-.61-.24-1.02-1.16.8-.96,2.91-1.31,4.24-1.67l-1.44-3.62c-2.75,1.28-5.93,2.83-8.78,3.74-3.32,1.06-5.79,1.38-8.99,2.86-2.56-.04-5.1.4-7.66.69l.41.54c2.16,2.88,3.72,5.79,6.2,8.82,3.19,3.9,6.15,6.47,9.89,9.85-3.1-.19-6.35-.27-9.27-1.38-.9-.97-1.21-.76-2.27-1.81l.53-.58c-.95-1.13-1.01-1.73-1.76-2.66-4.18-6.03-7.94-11.45-10.67-18.33,4.38-.2,7.94-1.02,12.25-1.46-2.6-1.9-4.11-2.96-6.36-5.21,10.53-1.61,18.97-7.13,26.86-13.85-6.55-16.21-7.64-40.58,2.89-55.94,1.05-1.53,4.19-2.44,6.01-2.25,15.65,1.68,27.24,13.41,37.4,24.3,6.92-.32,13.84-.69,20.75-1.12Z"/>
      <path class="cls-34" d="M287.79,23.2c.02,1.61-.12,2.15-.43,3.76-6.4,1.28-10.91,1.29-17.4,1.31-1.49-.14-4.14-.03-5.72-.02-2.9-4.34-3.66-5.95-7.48-9.48-.82,1.88-1.27,2.69-2.36,4.44.99,1.67,1.43,2.65,2.2,4.41-4.49-3.52-5.56-1.93-10.17-4.25-1.54-.77-.93-.68-2.96-1.08,3.13,4.3,5.56,9.06,7.21,14.12-1.26.02-3.02-.13-3.99.5-1.34,2.85-2.04,4.47-4.48,6.46-7.27,5.94-13.56,12.81-20.14,19.51-7.59,5.97-10.3,7.85-19.31,10.63l-.02.48c.72.4,1.24.69,1.99,1.02,1.62.55,3.28,1.09,4.88,1.7-2.63,1.76-3.07,2-6.03,3.18-2.03.81-8.54,2.11-9.3,2.93.23.58.35.92.64,1.48l.41.54c2.16,2.88,3.72,5.79,6.2,8.82,3.19,3.9,6.15,6.47,9.89,9.85-3.1-.19-6.35-.27-9.27-1.38-.9-.97-1.21-.76-2.27-1.81l.53-.58c-.95-1.13-1.01-1.73-1.76-2.66-4.18-6.03-7.94-11.45-10.67-18.33,4.38-.2,7.94-1.02,12.25-1.46-2.6-1.9-4.11-2.96-6.36-5.21,10.53-1.61,18.97-7.13,26.86-13.85-6.55-16.21-7.64-40.58,2.89-55.94,1.05-1.53,4.19-2.44,6.01-2.25,15.65,1.68,27.24,13.41,37.4,24.3,6.92-.32,13.84-.69,20.75-1.12Z"/>
      <path class="cls-17" d="M256.75,18.77c-.82,1.88-1.27,2.69-2.36,4.44.99,1.67,1.43,2.65,2.2,4.41-4.49-3.52-5.56-1.93-10.17-4.25-1.54-.77-.93-.68-2.96-1.08-2.57-3.34-6.84-6.79-10.3-9.18l-1.38-1.48.03-.8c-1.85-.99-4.38-4.48-5.51-6.32,10.14-.77,18.45,4.18,26.04,10.68l.28.25c1.43,1.11,2.75,2.14,4.12,3.33Z"/>
      <path class="cls-50" d="M254.39,23.21c.99,1.67,1.43,2.65,2.2,4.41-4.49-3.52-5.56-1.93-10.17-4.25-1.54-.77-.93-.68-2.96-1.08-2.57-3.34-6.84-6.79-10.3-9.18l-1.38-1.48.03-.8c5.02,2.12,15.48,11.26,21.67,11.35l.91,1.02Z"/>
      <path class="cls-37" d="M256.75,18.77c-.82,1.88-1.27,2.69-2.36,4.44l-.91-1.02c-.76-.7-1.17-.93-1.54-1.88.31-1,.45-1.24.47-2.3-.62-1.02-1.01-1.13-2.06-1.7l-.36-.19.56-.43c.87.02,1.24,0,2.07-.25,1.43,1.11,2.75,2.14,4.12,3.33Z"/>
      <path class="cls-25" d="M231.82,10.84l-.03.8,1.38,1.48c-1.62.29-3.21.74-3.99,2.33-4.34,8.86-3.09,24.27,1.35,32.68-.83.97-.35.78-1.35,1.02-1.4-.97-2.26-3.19-3.18-4.73-.66.88-1.88,3.03-2.51,3.2-.58-1.39-.87-2.07-1.74-3.28-3.24-12.87-1.03-25.5,3.67-37.63l.89-2.19c1.13,1.84,3.66,5.33,5.51,6.32Z"/>
      <path class="cls-37" d="M231.82,10.84l-.03.8c-.48.79-.41.82-1.22,1.21-3.17-.08-4.58-3.44-5.14-6.14l.89-2.19c1.13,1.84,3.66,5.33,5.51,6.32Z"/>
      <path class="cls-7" d="M229.18,49.14c.99-.24.51-.05,1.35-1.02l.09.87c-.97,1.19-1.24,1.49-2.4,2.5-.85.94-1.86,2.35-2.98,2.59-.53-.64-.42-.37-.63-1.12-1.3-2.39-2.51-5.93-2.85-8.63.87,1.21,1.16,1.89,1.74,3.28.63-.17,1.85-2.32,2.51-3.2.92,1.54,1.78,3.76,3.18,4.73Z"/>
      <path class="cls-15" d="M225.22,54.07c-.53-.64-.42-.37-.63-1.12,1.29-2.65-.96-4.46,1.26-6.85.8,1.19.82,4.2.77,5.65v.38c.76-.53.63-.39,1.59-.66-.85.94-1.86,2.35-2.98,2.59Z"/>
      <path class="cls-22" d="M285.83,87.97l-.13.14c-5.59,1.65-10.42,4.4-15.98,5.87-.69.18-1.91-.46-2.52-.78-1.12.21-1.28.1-2.07.86-1.19.25-7.79-.6-9.68-.73l.51,1.04.27.24c-.4.74-3.88,1.58-5.01,2.07-3.74,1.62-7.33,3.51-11.14,4.95-10.42-2.72-13.05-4.66-22.25-9.16-1.45-.38-1.68-.39-2.92-1.18l-.12-.63c1.18-1.03,2.64-1.17,4.22-1.55-.32-2.06-.68-3.58-.42-5.65-.87-.66-.61-.24-1.02-1.16.8-.96,2.91-1.31,4.24-1.67,2.98-.81,10.65-2.69,12.95-4.14l-.27-1.52c.61-1.3,5.14-3.54,6.59-4.64,9-6.86,19.02-14.65,31.07-12.83,1.5.23,4.26,1.06,5.5,1.02l-.97-1.99.3-.4c1.53.29,3.25,2.14,4.42,3.22,4.51,4.14,5.24,9.61,5.28,15.5-1.57,3.63-1.43,9.28-.86,13.13Z"/>
      <path class="cls-50" d="M219,89.11c-.32-2.06-.68-3.58-.42-5.65,2.54,1.24,5.19,2.59,7.75,3.76-1.86.46-5.68,1.29-7.33,1.89Z"/>
      <path class="cls-42" d="M265.12,94.06c-1.15-4.28-14.99-6.65-18.97-9.43,4.27-.34,17.23,6.06,21.04,8.57-1.12.21-1.28.1-2.07.86Z"/>
      <path class="cls-42" d="M255.95,94.37c-1.87-.61-7.19-.49-8.08-1.36,3.12-.49,4.56-.23,7.57.33l.51,1.04Z"/>
      <path class="cls-14" d="M274.09,87.32c-4.9,2.64-10.27,2.43-12.83-3.17-1.11-2.38-1.18-5.12-.19-7.55,3.09-7.78,13.25-7.09,16.05.19-.33,4.06,1.64,8.62-3.03,10.52Z"/>
      <path class="cls-17" d="M274.13,79.4c-1.11-.68-2-1.09-2.19-2.4.99-.72,1.67-1.02,1.99-2.17l-.4-.69c-2.06-.86-3.99-1.02-6.13-.36-6.89,4.15-5.31,11.43,2.31,13.5,1.01.27,3.25.09,4.37.03-4.9,2.64-10.27,2.43-12.83-3.17-1.11-2.38-1.18-5.12-.19-7.55,3.09-7.78,13.25-7.09,16.05.19-1.17,1.5-1.31,1.81-2.99,2.61Z"/>
      <path class="cls-22" d="M268.43,83.5c-2.68-2.67-.29-6.82-1.02-9.72,2.13-.67,4.06-.51,6.13.36l.4.69c-.32,1.15-1.01,1.45-1.99,2.17.18,1.31,1.08,1.72,2.19,2.4.51,3.26-3.15,5.25-5.69,4.1Z"/>
      <path class="cls-22" d="M353.71,113.12c1.28,1.43,7.58,7.46,7.98,8.09-1.15.64-1.47.61-2.75.76-6.19,1.24-17.27.73-23.54.46-2.63-6.4-3.91-8.52-9.94-12.14l-.43-.25c.68-.32,1.18-.5,1.89-.75-1.53-.56-8.1-2.55-8.81-3.44l1.28-1.13c-4.42-.12-9.98-7.22-12.49-10.77-1.06-5.92-.31-9.51.63-15.32,1.87-5.6,7.49-14.33,14.18-13.35l.2.35-1.26,1.25c.46.59,4.64,1.71,5.85,2.34,18.04,9.47,19.43,30.61,36.12,43.25-2.04,1.54-6.26.88-8.9.66Z"/>
      <path class="cls-42" d="M333.63,105.47c-5.74-.23-9.81-.19-15.51.38l1.28-1.13c4.39-.76,10.03-.46,14.44.04l-.2.72Z"/>
      <path class="cls-42" d="M338.24,114.31c-3.24-1.06-10.09-4.11-12.78-4.02l-.43-.25c.68-.32,1.18-.5,1.89-.75,3.89,1.39,7.67,3.07,11.31,5.02Z"/>
      <path class="cls-58" d="M333.83,104.76c1.14.12,2.26.04,3.04.78-.9.42-2.33.28-3.24-.07l.2-.72Z"/>
      <path class="cls-17" d="M312.94,95.45c-1.45-1.75-1.75-5.38-.35-7.16,1.54,1.11,3.05,4.51,5.54,4.38,1.6-.09,3.83-2.52,3.41-4.18l-1.06-.48c-1.2-1.73-.61-1.82.67-3.53-.56-1.53-3.37-1.16-4.86-1.18l-.15-.49c5.85-6.83,19.83,5.94,6.84,15.39-4.05.5-7.25.86-10.05-2.75Z"/>
      <path class="cls-14" d="M313.34,95.21l-.4.24c-1.45-1.75-1.75-5.38-.35-7.16,1.54,1.11,3.05,4.51,5.54,4.38,1.6-.09,3.83-2.52,3.41-4.18l-1.06-.48c1.3-.21,2.66-.62,3.76-.04.56,1.03.14,2.69-.02,3.96-3.13,4.83-5.73,5.19-10.89,3.28Z"/>
      <path class="cls-17" d="M292.42,65.6c-1.48,3.89-2.52,6.32-5.74,9.25-.04-5.88-.78-11.36-5.28-15.5-1.18-1.08-2.89-2.93-4.42-3.22l-.3.4.97,1.99c-1.24.04-4-.8-5.5-1.02-12.06-1.82-22.08,5.97-31.07,12.83-1.45,1.11-5.98,3.34-6.59,4.64l.27,1.52c-2.3,1.45-9.97,3.33-12.95,4.14l-1.44-3.62c4.15-1.91,9.05-6.13,12.65-9.07-2.07.47-4.18.91-6.25,1.35,6.88-3.56,11.12-8,16.81-13.12,6.79-5.05,12.93-8.55,21.14-10.57,2.42-.59,6.95-1.31,8.72-2.69,6.53,1.68,7.59,2.5,12.74,6.89-.37-2.37-.93-5.42-1.13-7.74,5.46,8.44,10.66,12.48,7.38,23.53Z"/>
      <path class="cls-17" d="M313.46,56.92c6.11-1.9,10.47-2.84,16.48.45,13.83,7.58,17.13,23.46,23.55,36.48,1.94,3.94,6.69,9.95,9.77,13.06-.14,1.45-.09,4.62-.65,5.55-16.69-12.63-18.08-33.77-36.12-43.25-1.2-.63-5.38-1.75-5.85-2.34l1.26-1.25-.2-.35c-6.69-.99-12.31,7.75-14.18,13.35-1.98-3.63-2.18-6.49-2.2-10.47,2.9-11.67,4.18-14.25,16.04-17.84-2.74,2.51-5.01,4.33-7.92,6.61Z"/>
      <path class="cls-35" d="M307.53,78.62c-.94,5.81-1.69,9.41-.63,15.32l-.77-.68-2.51.19c-2.25.77-3.48,1.21-5.53,2.6-1.95-.14-4-.2-5.88-.66-.47-2.98-2.47-4.84-4.63-6.63l-1.89-.65.13-.14c-.58-3.85-.72-9.49.86-13.13,3.22-2.93,4.26-5.36,5.74-9.25.71.08,1.64.36,2.08,0,3.04-2.44,4.05-13.66,6.36-15.66,1.93,1.12,3.45,14.6,4.47,18.21.02,3.98.22,6.84,2.2,10.47Z"/>
      <path class="cls-42" d="M298.09,96.06c-1.95-.14-4-.2-5.88-.66-.47-2.98-2.47-4.84-4.63-6.63,4.97.06,11.87,1.94,16.03,4.7-2.25.77-3.48,1.21-5.53,2.6Z"/>
      <path class="cls-15" d="M303.62,93.46c-4.16-2.75-11.07-4.64-16.03-4.7l-1.89-.65.13-.14c5.3-1.16,10.48-1.53,15.39,1.43,1.03.62,4.32,2.87,4.91,3.87l-2.51.19Z"/>
      <path class="cls-37" d="M296.73,28.18l-.7.15c-1.33.29-5.21,1.65-6.05,1.73-3.83.38-16.49.28-19.75-1.06l-.27-.73c6.48-.01,11-.02,17.4-1.31,4.83-.88,9.89-2.48,14.54-4.05-1.78,2.29-2.7,3.64-5.16,5.26Z"/>
      <path class="cls-42" d="M331.41,43.74c-6.93-2.8-13.14-6.2-20.39-8.28-.59-.83-.33-1.63-.33-2.9,6.9,1.11,18.71,6.31,23.65,11.44-.8.06-2.21.03-2.93-.26Z"/>
      <path class="cls-42" d="M264.71,45.6c-8.21,2.02-14.36,5.51-21.14,10.57.65-3.74,3.16-5.18,6.5-6.68,7.1-3.19,15.39-8.5,23.37-6.58-1.77,1.38-6.3,2.09-8.72,2.69Z"/>
      <path class="cls-42" d="M202.74,73.99l.02-.48c9.02-2.78,11.73-4.66,19.31-10.63,1.19.42,1.8.48,2.49,1.52-.19,1.92-17.36,9.65-19.84,10.61-.75-.34-1.27-.63-1.99-1.02Z"/>
      <path class="cls-28" d="M235.99,225.89l.57.38c15.89,13.45,32.37,26.35,50.31,36.98,2.44,1.45,2.17,1.05,2.21,4.05-.25,2.14-.26,4.08-.29,6.22.03,4.69.37,13.66.03,18.01l-.12.94c3.1,5.52.77,24.94-.95,31.24l-.09.32c-.43,2.23-.95,5.74-2.02,7.66-.18,1.12-.23,1.07-.19,2.21-.07,1.46-.12,2.87-.27,4.33.04,2.11.07,4.05.02,6.16l-1.4.57-1.27.13c-5.4.57-22.09-.59-27.23-2.09l-.15,1.44c-6.16-1.22-11.18-2.51-17.21-4.17-10.9-3.69-16.41-6.35-26.64-11.29.73-1.5,2.34-10.12,2.52-12.05l-2.06-1.64c.13-1.11-.16-2.61-.34-3.77-2.02-4.45-2.24-8.82-1.26-13.53,2.16-9.06,4.49-17.42,5.75-26.66.8-5.94-1.8-19.15,1.2-23.3,2.25-3.64,4.54-8,6.7-11.77.96-1.9,2.13-4.44,3.35-6.1.98-1.59,3-3.27,3.27-4.65-1.1-.26-1.33.12-2.63.66,1.65-2.34,1.65-3.52,1.89-6.29.76,1.57,4.7,4.59,6.3,6Z"/>
      <path class="cls-26" d="M235.99,225.89l.57.38c-.72.57-1.69,1.18-1.66,2.16.29,9.49,5.87,20.16,10.61,28.09,1.87,3.14,4.03,5.67,5.6,8.38-1.57-1.57-3.27-3.3-5.02-4.67-5.91-4.65-10.21-10.22-14.63-16.26-2.3,12.37-1.76,24.09-.9,36.54.1,1.45.15,6.84.74,7.77-3.19,5.22-6.45,9.77-9.51,15.14,5.12,5.07,6.54,5.14,10.78-.92l.28-.41c7.02,15.19,39.58,21.21,54.82,21.93-.43,2.23-.95,5.74-2.02,7.66-.18,1.12-.23,1.07-.19,2.21-.07,1.46-.12,2.87-.27,4.33.04,2.11.07,4.05.02,6.16l-1.4.57-1.27.13c-5.4.57-22.09-.59-27.23-2.09l-.15,1.44c-6.16-1.22-11.18-2.51-17.21-4.17-10.9-3.69-16.41-6.35-26.64-11.29.73-1.5,2.34-10.12,2.52-12.05l-2.06-1.64c.13-1.11-.16-2.61-.34-3.77-2.02-4.45-2.24-8.82-1.26-13.53,2.16-9.06,4.49-17.42,5.75-26.66.8-5.94-1.8-19.15,1.2-23.3,2.25-3.64,4.54-8,6.7-11.77.96-1.9,2.13-4.44,3.35-6.1.98-1.59,3-3.27,3.27-4.65-1.1-.26-1.33.12-2.63.66,1.65-2.34,1.65-3.52,1.89-6.29.76,1.57,4.7,4.59,6.3,6Z"/>
      <path class="cls-26" d="M285.18,338.24c.04,2.11.07,4.05.02,6.16l-1.4.57-1.27.13c-5.4.57-22.09-.59-27.23-2.09l-.15,1.44c-6.16-1.22-11.18-2.51-17.21-4.17-10.9-3.69-16.41-6.35-26.64-11.29.73-1.5,2.34-10.12,2.52-12.05,21.97,10.46,47.49,15.14,71.63,16.95-.07,1.46-.12,2.87-.27,4.33Z"/>
      <path class="cls-28" d="M285.18,338.24c.04,2.11.07,4.05.02,6.16l-1.4.57-1.27.13c-5.4.57-22.09-.59-27.23-2.09-6.34-1.16-15.26-2.62-18.26-9.16l.2-.5c5.13-2.22,25.32,2.21,32.19,3.09,4.78.57,9.58.94,14.39,1.1l1.37.7Z"/>
      <path class="cls-26" d="M285.19,344.4l-1.4.57c-.17-2.35-.04-5.05.01-7.43l1.37.7c.04,2.11.07,4.05.02,6.16Z"/>
      <path class="cls-27" d="M214.39,313.17c2.04,3.51,26.73,10.75,32.25,12.35,13.19,3.82,25.79,4.21,38.99,6.18-.18,1.12-.23,1.07-.19,2.21-24.14-1.81-49.65-6.49-71.63-16.95l-2.06-1.64c.13-1.11-.16-2.61-.34-3.77,1.07.63,1.85,1.11,2.97,1.63Z"/>
      <path class="cls-41" d="M217.52,259.55c.38,5.4,1.01,11.13,1.23,16.5.05,1.28-1.86,6.13-2.38,7.61-3.81,10.65-6.27,17.79-1.8,28.67l-.18.85c-1.12-.52-1.9-.99-2.97-1.63-2.02-4.45-2.24-8.82-1.26-13.53,2.16-9.06,4.49-17.42,5.75-26.66.8-5.94-1.8-19.15,1.2-23.3.38,3.6.15,7.71.41,11.5Z"/>
      <path class="cls-4" d="M235.99,225.89c-1.88.99-1.46-.09-3.21.68-.92,1.07-1.26,2.48-1.71,3.84l-1.36-.04-.49-.67c.26-.58.37-.73.53-1.35l-1.05.57h.34s-.12.22-.12.22l-.5.06c-.36.35-.83.66-1.25.96.98-1.59,3-3.27,3.27-4.65-1.1-.26-1.33.12-2.63.66,1.65-2.34,1.65-3.52,1.89-6.29.76,1.57,4.7,4.59,6.3,6Z"/>
      <path class="cls-43" d="M223.81,236.28c.96-1.9,2.13-4.44,3.35-6.1.42-.31.89-.61,1.25-.96l.5-.06.12-.21h-.34s1.05-.58,1.05-.58c-.15.62-.26.76-.53,1.35l.49.67,1.36.04c-2,2.18-4.41,5.33-7.25,5.86Z"/>
      <path class="cls-11" d="M247.24,277.39c-1.38,6.29-11.38,19.62-14.4,24.72l-.28.41c-4.24,6.05-5.66,5.98-10.78.92,3.06-5.37,6.32-9.92,9.51-15.14,2.4-4.07,7.43-13.27,10.46-16.12,1.69.98,5.89,3.41,5.5,5.21Z"/>
      <path class="cls-28" d="M245.82,277.79c-5.53,7.91-9.75,17.04-15.99,24.76-.96,1.92-1.67,2.68-3.73,2.63-2.86-2.47,2.04-8.23,3.67-10.49,2.71-4.56,9.4-16.44,12.32-20.25,1.24,1.08,2.57,2.2,3.73,3.35Z"/>
      <path class="cls-41" d="M229.83,302.55c-.96,1.92-1.67,2.68-3.73,2.63-2.86-2.47,2.04-8.23,3.67-10.49-.08,1.76-.61,6.64.06,7.86Z"/>
      <path class="cls-26" d="M288.82,291.54c-4.01-1.92-9.01-5.49-11.84-8.92,4.25,1.76,8.53,3.13,11.44,6.75.01-2.35-.36-14.67.37-15.84.03,4.69.37,13.66.03,18.01Z"/>
      <path class="cls-11" d="M288.82,291.54l-.12.94c-3.12-1.62-15.43-10.23-16.9-12.96,2.15.28,3.77,1.53,5.18,3.09,2.83,3.44,7.83,7,11.84,8.92Z"/>
      <path class="cls-17" d="M221.8,80.63c-1.33.36-3.44.71-4.24,1.67.41.92.15.5,1.02,1.16-.26,2.07.1,3.59.42,5.65-1.58.38-3.03.52-4.22,1.55l.12.63c1.24.79,1.47.8,2.92,1.18,9.2,4.51,11.82,6.44,22.25,9.16,3.81-1.45,7.4-3.33,11.14-4.95,1.13-.49,4.62-1.33,5.01-2.07l-.27-.24-.51-1.04c1.89.13,8.5.98,9.68.73.79-.75.95-.65,2.07-.86.61.32,1.83.96,2.52.78,5.56-1.47,10.39-4.22,15.98-5.87l1.89.65c2.15,1.79,4.16,3.65,4.63,6.63,1.88.47,3.93.52,5.88.66,2.04-1.38,3.27-1.82,5.53-2.6l2.51-.19.77.68c2.52,3.55,8.08,10.65,12.49,10.77l-1.28,1.13c.71.89,7.27,2.89,8.81,3.44-.71.25-1.21.43-1.89.75l.43.25c6.03,3.63,7.31,5.75,9.94,12.14,6.27.27,17.35.77,23.54-.46l1.63.24.25.62c-2.19,2.45-10.29,5.24-13.59,5.99l-1.11.33-.05.36c2.13.95,3.57,1.07,5.48,1.84-7.14,3.98-10.13,4.42-18.19,5.99,5.7,1.23,9.36.78,14.94,1.24-7.61,2.4-17.09,5.51-24.81,6.82-1.36.25-3.54.56-4.74,1.09,1.55,2.11,4.83,2.4,7.43,2.67l-.52.14c-3.83,1.03-7.69,1.34-11.47,2.12-4.54.94-13.04,4.8-16.3,7.74l.51.61c-.61,1.97-3.24,3.85-5.04,4.75-9.83,4.9-19.66,2.53-27.9-3.77-2.46-2.62-2.54-3.14-3.23-6.59-.67,1.4-.64,1.97-.73,3.53l-.54.42c-.53-.28-.96-.49-1.46-.81-.24-1.41.04-.75-1.2-1.89-3.53-4.84-18.36-13.19-23.98-17.7-11.12-8.94-20.84-17.93-29.08-29.76-1.1-1.58-2.85-4.01-3.08-5.83,2.92,1.11,6.17,1.18,9.27,1.38-3.74-3.38-6.7-5.95-9.89-9.85-2.47-3.03-4.04-5.94-6.2-8.82l-.41-.54c2.56-.29,5.1-.73,7.66-.69,3.2-1.48,5.67-1.8,8.99-2.86,2.85-.91,6.03-2.46,8.78-3.74l1.44,3.62Z"/>
      <path class="cls-33" d="M277.61,115.24c3.32.38,5.73.02,9.16.7,1.85,2.33,2.04,3.18,4.93,3.57l.34.11c5.56-1.32,5.68,1.8,10.32,2.03,2.99.14,9.6-1.59,12.99-2.27,3.42-2.37.92-3.38,2.5-5.01,2.01.16,3.98,2.5,4.71,4.25-.77,1.02-2.62-.16-3.16.38-2.2,2.22-4.25,4.66-6.41,6.99-8.86,9.54-17.01,34.1-34.22,27.64-19.15-7.19-12.61-35.89-19.12-49.43-1.3-.41-2.65.04-4.13.28,2.23-1.62,6.45-5.39,9.25-2.94.67.59.49.23.58,1.14l-1.19,1.18c4.25,3.17,7.54,10.72,13.46,11.4Z"/>
      <path class="cls-37" d="M277.61,115.24c3.32.38,5.73.02,9.16.7,1.85,2.33,2.04,3.18,4.93,3.57-3.42,2.26-18.33-2.11-21.32-5.89-2.33-2.95-6.29-5.03-6.63-9.38l.4-.4c4.25,3.17,7.54,10.72,13.46,11.4Z"/>
      <path class="cls-42" d="M292.04,119.62c5.56-1.32,5.68,1.8,10.32,2.03,2.99.14,9.6-1.59,12.99-2.27-7.63,5.5-15.78,6.95-23.31.24Z"/>
      <path class="cls-2" d="M294.98,145.72c-4.27,5.06-9.69,6.71-15.98,3.9-5.88-2.62-8.7-8.64-10.79-14.38-1.54-9.36,10.21-4.05,14.32-1.8,5.96.97,16.22,4.15,12.44,12.27Z"/>
      <path class="cls-32" d="M286.29,137.46l-.56.58c.08,1.09.15,1.42-.03,2.51v-.07c-.73-.59-4.27-3.5-4.9-3.75-3.64-1.45-8.82-1.72-12.58-1.48-1.54-9.36,10.21-4.05,14.32-1.8.63,1.73,1.8,3.62,3.75,4.01Z"/>
      <path class="cls-8" d="M286.29,137.46c-1.95-.39-3.11-2.27-3.75-4.01,5.96.97,16.22,4.15,12.44,12.27-1.23-3.81-5.23-6.59-8.7-8.26Z"/>
      <path class="cls-15" d="M221.8,80.63c-1.33.36-3.44.71-4.24,1.67.41.92.15.5,1.02,1.16-.26,2.07.1,3.59.42,5.65-1.58.38-3.03.52-4.22,1.55l.12.63c1.24.79,1.47.8,2.92,1.18,1.39,3.48,3.22,5.46,6.74,6.95.87.37.74.17,1.38.85-1.47-.15-1.71-.42-2.88.07l7.67,3.16c-3.76-.07-7.55-.3-11.25-.36l-.84.17c-.32,2.45,5.77,6.64,7.51,8.41l-.53.55c-.86-.27-1.03-.3-1.81-.73l-.75.02-.25.29.45-.38-.51.51c.34,1.96,5.21,6.22,7.11,6.84,1.84,1.55,3.76,3.24,5.69,4.64l3.38,3.04c-1.25,1.39-2.6.51-4.31-.02,8.25,8.42,17.68,12.58,25.07,21.52.77.93,1.84,2.02,2.17,3.15.04,1.31.04,1.72.34,3.03-.67,1.4-.64,1.97-.73,3.53l-.54.42c-.53-.28-.96-.49-1.46-.81-.24-1.41.04-.75-1.2-1.89-3.53-4.84-18.36-13.19-23.98-17.7-11.12-8.94-20.84-17.93-29.08-29.76-1.1-1.58-2.85-4.01-3.08-5.83,2.92,1.11,6.17,1.18,9.27,1.38-3.74-3.38-6.7-5.95-9.89-9.85-2.47-3.03-4.04-5.94-6.2-8.82l-.41-.54c2.56-.29,5.1-.73,7.66-.69,3.2-1.48,5.67-1.8,8.99-2.86,2.85-.91,6.03-2.46,8.78-3.74l1.44,3.62Z"/>
      <path class="cls-37" d="M221.8,80.63c-1.33.36-3.44.71-4.24,1.67.41.92.15.5,1.02,1.16-.26,2.07.1,3.59.42,5.65-1.58.38-3.03.52-4.22,1.55l.12.63c1.24.79,1.47.8,2.92,1.18,1.39,3.48,3.22,5.46,6.74,6.95.87.37.74.17,1.38.85-1.47-.15-1.71-.42-2.88.07-3.68-.72-20.75-11.56-24.09-14.63l3.62-2.1c3.2-1.48,5.67-1.8,8.99-2.86,2.85-.91,6.03-2.46,8.78-3.74l1.44,3.62Z"/>
      <path class="cls-42" d="M253.87,136.18l-1.17-6.71c9.04,8.8,6.64,20.55,20.19,27.41,3.37,1.74,7.1,2.66,10.88,2.71,5.39.05,11.76-1.48,15.53-5.45,2.26-2.38,4.03-4.96,6.5-7.02,2.22-1.62,3.75-2.69,6.11-4.07-1.66,2.86-3.61,5.97-4.73,9.03,4.39-2.6,6.89-3.63,11.57-5.58,1.55,2.11,4.83,2.4,7.43,2.67l-.52.14c-3.83,1.03-7.69,1.34-11.47,2.12-4.54.94-13.04,4.8-16.3,7.74l.51.61c-.61,1.97-3.24,3.85-5.04,4.75-9.83,4.9-19.66,2.53-27.9-3.77-2.46-2.62-2.54-3.14-3.23-6.59-.3-1.32-.3-1.72-.34-3.03-.33-1.13-1.39-2.22-2.17-3.15-7.39-8.94-16.82-13.09-25.07-21.52,1.71.53,3.06,1.41,4.31.02,2.29,2.02,6.51,4.63,9.3,5.94l.43-.07c2.38,1.32,3.33,1.75,5.19,3.83Z"/>
      <path class="cls-22" d="M296.94,159.8c.32-.21.64-.42.96-.63l.51.61c-.61,1.97-3.24,3.85-5.04,4.75-9.83,4.9-19.66,2.53-27.9-3.77-2.46-2.62-2.54-3.14-3.23-6.59-.3-1.32-.3-1.72-.34-3.03,7.93,12.85,22.11,16.93,35.05,8.66Z"/>
      <path class="cls-34" d="M298.09,96.06c3.81,1.2,7.76,2.51,9.66,6.44.96,1.95,1.09,4.21.36,6.26-1.67,4.58-6.37,6.22-10.71,6.52-3.84.26-4.44.68-5.36,4.35l-.34-.11c.1-1.27.13-1.91.11-3.18-1.16-1.74-3.94-2.71-5.31-4.19-3.29-3.57-6.8-10.88-2.56-14.97,2.34-2.26,5.27-1.89,8.28-1.78,1.88.47,3.93.52,5.88.66Z"/>
      <path class="cls-50" d="M303.06,101.24c-.75,1.19-3.55.51-4.83.32-4.22-.88-6.21-1.54-10.04-3.49,2.19-.12,3.61-.21,5.83-.02,2.43.26,7.6,1.05,9.04,3.19Z"/>
      <path class="cls-7" d="M239.08,116.84c-6.89-1.02-7.51-2.1-13.67-4.43,1.52,2.35,2.79,4.16,4.47,6.39-1.9-.62-6.77-4.87-7.11-6.84l.51-.51-.45.38.25-.29.75-.02c.78.43.95.46,1.81.73l.53-.55c-1.74-1.76-7.83-5.96-7.51-8.41l.84-.17c6.67,5.01,11.53,10.64,19.6,13.7Z"/>
      <path class="cls-50" d="M248.25,132.42c-2.78-1.31-7.01-3.92-9.3-5.94l-3.38-3.04c4.78.6,7.6,3.52,11.03,6.61.73.66,1.74,1.4,2.08,2.3l-.43.07Z"/>
      <path class="cls-50" d="M305.81,147.11c.35-2.69,3.53-6.76,6.11-4.07-2.37,1.38-3.89,2.45-6.11,4.07Z"/>
      <path class="cls-34" d="M341.19,270.48c.39,5.72,1.01,10.83,2,16.58,1.31,7.57,4.45,15.99,3.79,23.66-.29,3.39-2.86,7.77-4.86,10.56,1.56,6.76,2.86,10.97.58,17.8,1.51,3.57,3.26,7.12,5.07,10.63-1.14.12-2.26.27-3.36.49-1.94-.48-3.67-.46-5.3-.17-.58-1.16-1.18-2.26-1.77-3.24,1.43-.62,2.05-1.04,3.38-1.9l-.35-.8c-.84-1.78-1.09-2.09-2.37-3.6l-.52-3.55-2.76,1.27c.87-5.43,2.08-4.03.82-11.63l.11-2.03c-6.05,2.3-13.29,4.6-19.64,5.68l-.22-.34c-5.09.17-16.02,3.8-21.58,2.69l.15-.5c1.8-.38,4.18-.34,6.07-.58,4.3-.53,10.2-1.21,14.19-2.57l.37-.53c6.56-2.12,13.9-3.26,19.91-6.98.4-2.19,2.39-6.75,3.46-8.81.87-.42.8-.45,1.35-1.28.13-1.44-.61-2.71-1.19-4.07l.4-.29c2.24-1.65,2.42-1.86,2.85-4.59l.66-.04c-2.14-7.07-3.96-13.25-4.42-20.72-1.87-14.1.32-36.4.38-51.02-.03-1.46.09-2.48-.57-3.77,2.3-6.65,2.8-14.99,2.52-21.99l.83-2.76c.54,3.71,1.06,6.97,1.22,10.74,1.07-2.96,2.18-5.93,3.06-8.95-.21,6.75-2.51,15.7-2.51,21.37.13,2.02.27,3.95.26,5.98.71,1.03,2.46,2.04,3.56,2.77.62-.54.42-.41.8-1.26l.38-.03c2.37,3.64-.1,6.25,3.04,7.24,1.22-.36,1.56-.51,2.73-1.04.99-.26,3.46-2.11,5.48-2.9.86-.8,1.28-1.24,2.06-2.12l-.3-.23-1.51.4c.25-.99.01-.56.91-1.19,6.18-.05,4.94-3.05,8.15-3.29,2.92-2.12,4.15-3,7.63-4.01l2.06.53c-2.47,6.83-1.19,11.38,1.55,17.88,3.34,7.47,12.27,9.87,19.65,7.44.85-.55,1.32-.95,2.1-1.58l1.75-1.62.73-.08c2.32-2.74,2.64-7.02,3.94-7.29.42,3.33,1.94,1.21.33,5.16-1.17,2.86-4.18,5.83-3.96,8.86-2.39,7.99-8.24,11.21-14.12,16.21-17.55,14.89-32.63,17.69-48.96-.6Z"/>
      <path class="cls-26" d="M379.74,243.98c3.34,7.47,12.27,9.87,19.65,7.44l.38,1.97c.71.94.53.4.44,1.69l-.47-.62c-1.37.47-4.15,3.3-5.47,4.32-9.8,7.53-20.58,19.52-34.25,16.58-1.86-.4-4.46-1.2-5.52.42-5.56-2.98-12.05-7.27-12.37-14.13-.43-9.41.56-18.76.38-28.2-.05-2.44-.02-5.83.43-8.21.13,2.02.27,3.95.26,5.98.71,1.03,2.46,2.04,3.56,2.77.62-.54.42-.41.8-1.26l.38-.03c2.37,3.64-.1,6.25,3.04,7.24,1.22-.36,1.56-.51,2.73-1.04.99-.26,3.46-2.11,5.48-2.9.86-.8,1.28-1.24,2.06-2.12l-.3-.23-1.51.4c.25-.99.01-.56.91-1.19,6.18-.05,4.94-3.05,8.15-3.29,2.92-2.12,4.15-3,7.63-4.01l2.06.53c-2.47,6.83-1.19,11.38,1.55,17.88Z"/>
      <path class="cls-28" d="M375.09,227.89c-1.47,5.27-1.02,8.99.51,14.19.23,3.75,4.75,10.98,2.27,13.26-3.71,3.41-7.72-.23-10.34-2.92.65,8.13-.23,12.07-9.32,10.48-2.34-7.36-2.47-8.77-.66-16.44-.78.55-1.06.78-1.92,1.19l-.5-.46c-.02-1.31.86-3.25,1.35-4.56.6-.68.47-.42.69-1.25-.62-.08-1.21-.22-1.81-.38,1.13-1.64,2.58-3.4,3.82-4.99.86-.8,1.28-1.24,2.06-2.12l-.3-.23-1.51.4c.25-.99.01-.56.91-1.19,6.18-.05,4.94-3.05,8.15-3.29,2.92-2.12,4.15-3,7.63-4.01l-1.04,2.32Z"/>
      <path class="cls-27" d="M363.05,235.33c-2.08,2.66-4.92,7.78-5.51,11.13-.78.55-1.06.78-1.92,1.19l-.5-.46c-.02-1.31.86-3.25,1.35-4.56.6-.68.47-.42.69-1.25-.62-.08-1.21-.22-1.81-.38,1.13-1.64,2.58-3.4,3.82-4.99.86-.8,1.28-1.24,2.06-2.12l-.3-.23-1.51.4c.25-.99.01-.56.91-1.19,6.18-.05,4.94-3.05,8.15-3.29-1.96,1.86-3.88,3.54-5.44,5.75Z"/>
      <path class="cls-36" d="M375.09,227.89l-.41.32c-2.47,2.01-8.56,8.95-11.63,7.11,1.56-2.21,3.48-3.89,5.44-5.75,2.92-2.12,4.15-3,7.63-4.01l-1.04,2.32Z"/>
      <path class="cls-27" d="M379.74,243.98c3.34,7.47,12.27,9.87,19.65,7.44l.38,1.97c-12.33,4.03-17.9-1.84-24.17-11.31-1.53-5.2-1.98-8.92-.51-14.19l1.04-2.32,2.06.53c-2.47,6.83-1.19,11.38,1.55,17.88Z"/>
      <path class="cls-11" d="M357.17,241.38c-.22.83-.09.57-.69,1.25-1.37.59-5.9,7.49-7.15,9.22,1.58-3.84,3.61-7.48,6.04-10.84.6.16,1.19.3,1.81.38Z"/>
      <path class="cls-37" d="M339.11,350.04c-.58-1.16-1.18-2.26-1.77-3.24,1.43-.62,2.05-1.04,3.38-1.9.4.67,1.48,2.74,2.64,5.11-1.53-.25-2.93-.21-4.25.03Z"/>
      <path class="cls-41" d="M382.08,272.13c-7.55,5.37-19.36,10.18-27.58,3.66,1.05-1.62,3.66-.82,5.52-.42,13.67,2.94,24.44-9.05,34.25-16.58,1.33-1.02,4.1-3.85,5.47-4.32l.47.62c-2.19,5.84-13.08,13.46-18.13,17.05Z"/>
      <path class="cls-36" d="M334.89,321.42c.4-2.19,2.39-6.75,3.46-8.81.87-.42.8-.45,1.35-1.28.13-1.44-.61-2.71-1.19-4.07l.4-.29c2.24-1.65,2.42-1.86,2.85-4.59l.66-.04c1.18,8.44.31,14.28-7.53,19.08Z"/>
      <path class="cls-36" d="M334.72,338.21c.87-5.43,2.08-4.03.82-11.63l.11-2.03,1.54-.82c2.79,1.35,3.21,8.59,2.09,11.21-.21.49-1.37,1.62-1.8,1.99l-2.76,1.27Z"/>
      <path class="cls-28" d="M286.39,211.82l.47.56c1.53,3.84,1.38,7.9,1.91,11.89,1.69,12.71.37,25.44.85,38.11l.77.66.1.21c-1.46,1.55-1.07,1.68-1.42,4.07-.05-3,.23-2.6-2.21-4.05-17.94-10.63-34.42-23.53-50.31-36.98l-.57-.38c-1.59-1.41-5.54-4.44-6.3-6l.02-1.5c-.7-.5-.55-.46-1.08-1.21l.3-3.6c.51-1.82.91-2.6,2.38-3.74l-.45-3.57c0-2.07-.33-4.35-.57-6.42-.25,1.11-.47,1.91-.51,3.07l-.69.1-.16-1.28-.63-.17c-.43-1.04-.69-2.17-.98-3.26.11-.38.04-.57.02-1l-.99-.86c-.38-4.87-.7-6.08-2.61-10.61l.41-.46c-2.52-6.34-3.51-8.68-7.95-13.7,2.01-4.13,4.42-3.68,8.54-7.28,3.02-1.69,4.64-2.33,6.6-5.23,1.84,4.56,5.77,20.47,6.38,25.53,20.22,1.52,35.85,12.24,48.65,27.13Z"/>
      <path class="cls-11" d="M250.28,235.95c4.73,3.81,35.26,26.18,38.89,26.63l.45-.21.77.66.1.21c-1.46,1.55-1.07,1.68-1.42,4.07-.05-3,.23-2.6-2.21-4.05-17.94-10.63-34.42-23.53-50.31-36.98l-.57-.38c-1.59-1.41-5.54-4.44-6.3-6l.02-1.5c1.22.4,3.83,3.08,5.02,4.11,3.29,2.88,12.7,11.15,15.55,13.44Z"/>
      <path class="cls-26" d="M229.71,218.39c-.7-.5-.55-.46-1.08-1.21l.3-3.6c.51-1.82.91-2.6,2.38-3.74,2.25-1.83,3.14-7.3,4.01-10.27,0,3.98,0,7.83-.13,11.81-.1,3.38-.61,7.87-.45,11.12-1.18-1.03-3.8-3.71-5.02-4.11Z"/>
      <path class="cls-26" d="M229.78,202.92l-.69.1-.16-1.28-.63-.17c-.43-1.04-.69-2.17-.98-3.26.11-.38.04-.57.02-1l-.99-.86c-.38-4.87-.7-6.08-2.61-10.61l.41-.46c3.09,6.76,4.98,5.96,6.13,14.48-.25,1.11-.47,1.91-.51,3.07Z"/>
      <path class="cls-36" d="M254.51,212.95c2.15,2.95,9.13,10.86,10.39,13.48l-.1.89-.42.32c-10.28-8.78-16.44-13.23-20.29-26.52l.27-.69.65-.2c2.92,3.2,6.84,9.08,9.5,12.72Z"/>
      <path class="cls-28" d="M338,281.63c.46,7.46,2.28,13.64,4.42,20.72l-.66.04c-.43,2.72-.61,2.94-2.85,4.59l-.4.29c.58,1.36,1.32,2.63,1.19,4.07-.54.83-.47.86-1.35,1.28-1.08,2.05-3.06,6.61-3.46,8.81-6.01,3.72-13.35,4.86-19.91,6.98-8.77,1.89-13.55,2.15-22.09,3.26l1.47-6.89c1.71-6.92,2.1-15.91,1.79-22.96-.14-2.3-.27-3.22-.7-5.45l.39-.91-.22-.58c-.2-5.94-1.76-26.17-.06-30.65,2.88-1.69,5.33-2.33,8.6-4.48,10.69-7.02,19.47-14.72,28.67-23.51l.6-.81c1.4-1.69,2.8-3.51,4.43-4.95l.52.15c-.06,14.62-2.25,36.91-.38,51.02Z"/>
      <path class="cls-26" d="M334.89,321.42c-6.01,3.72-13.35,4.86-19.91,6.98-8.77,1.89-13.55,2.15-22.09,3.26l1.47-6.89c2.3-.67,7.47-1.29,10.14-1.72,4.84-.75,9.62-1.84,14.3-3.25,5.72-1.7,15.57-6.93,19.55-7.18-1.08,2.05-3.06,6.61-3.46,8.81Z"/>
      <path class="cls-11" d="M338,281.63c.46,7.46,2.28,13.64,4.42,20.72l-.66.04c-.43,2.72-.61,2.94-2.85,4.59l-.4.29-1.64-.33c-2.67-2.3-10.79-24.41-12.46-29,5.43-5.95,7.08-3.93,9.36,2.31,2.05,1.08,2.01,1.11,4.24,1.39Z"/>
      <path class="cls-1" d="M338,281.63c.46,7.46,2.28,13.64,4.42,20.72l-.66.04c-1.89-3.83-6.08-17.12-8-22.14,2.05,1.08,2.01,1.11,4.24,1.39Z"/>
      <path class="cls-28" d="M339.25,304.48l-.47.58c-.61-.03-1.05.08-1.47-.6-3.1-4.99-4.91-12.27-7.21-17.54-1.45-3.15-3.99-7.01-2.33-10.49,2.69-.8,3.64,2.68,4.28,4.62,2.14,5.35,7.92,18.4,7.21,23.43Z"/>
      <path class="cls-36" d="M330.09,286.92c-1.45-3.15-3.99-7.01-2.33-10.49,2.69-.8,3.64,2.68,4.28,4.62-.26,2.09-.16,4.58-1.95,5.87Z"/>
      <path class="cls-36" d="M317.93,270.25c2.39-6.48,6.19-13.1,8.83-19.82.49-2.84,1.47-3.43,2.11-6.02-.36-.59-.62-1.08-.95-1.7l.29-.68c.8-.3,1.48-.57,2.27-.91.97-2.13,1.51-2.27,2.36-4.9l.6-.81.02,1.42c1.7-.42,2.06-1.59,3.54-1.69l.25.53c-.67.33-.98.48-1.47,1.04-.07,1.77,0,3.5-.96,5.04-1.29,11.97-10.88,19.1-16.87,28.5Z"/>
      <path class="cls-28" d="M332.12,242.69c-.93.31-.49.21-1.33.33-1.84,2.76-2.74,5.5-4.02,7.41.49-2.84,1.47-3.43,2.11-6.02-.36-.59-.62-1.08-.95-1.7l.29-.68c.8-.3,1.48-.57,2.27-.91.67.75.83,1,1.64,1.57Z"/>
      <path class="cls-36" d="M306.39,300.16l.86.47c-.28,1.02-.96,1.21-2.03,2.03-2.38-.25-6.83-.85-9.07-.85-.14-2.3-.27-3.22-.7-5.45l.39-.91c4.53,2.78,5.46,3.65,10.55,4.72Z"/>
      <path class="cls-26" d="M295.84,295.44l-.22-.58c2.39.34,10.46,2.89,11.92,4.53-.4.72-.13.39-1.15.77-5.09-1.07-6.02-1.94-10.55-4.72Z"/>
      <path class="cls-28" d="M345.98,187.42c-.37,5,5.64,13.61,8.27,18.43,2.3,4.22,7.54,20.09,10.02,22.77-3.2,2.71-6.7,4.1-9.26,6.24l.35.26c1.4,0,2.73-.6,4.07-1.07l1.51-.4.3.23c-.78.88-1.2,1.32-2.06,2.12-2.02.79-4.49,2.63-5.48,2.9-1.17.54-1.51.68-2.73,1.04-3.14-1-.67-3.61-3.04-7.24l-.38.03c-.37.85-.17.72-.8,1.26-1.1-.74-2.85-1.74-3.56-2.77,0-2.03-.13-3.95-.26-5.98,0-5.67,2.3-14.61,2.51-21.37-.88,3.02-2,5.99-3.06,8.95-.16-3.76-.68-7.03-1.22-10.74l-.83,2.76c.28,7-.22,15.34-2.52,21.99.66,1.29.53,2.31.57,3.77l-.52-.15c-1.63,1.44-3.03,3.26-4.43,4.95l-.6.81c-9.19,8.79-17.98,16.49-28.67,23.51-3.27,2.15-5.72,2.79-8.6,4.48l-.14-.43c-.57-1.53.21-31.35.78-32.93.54-.52,1.36-1.99,1.8-2.71-.75-5.58-2.62-8.41-1.3-14.04,2.3-.98,4.33-5.47,6.21-7.07,7.08-6.05,17.41-14.68,26.25-17.47,3.37-1.06,8.69-1.2,11.99-1.87l.3-.06c2.21.17,2.18,1.18,3.78.68l.23-1.5.51.61Z"/>
      <path class="cls-11" d="M338.39,230.61l-.52-.15c-1.63,1.44-3.03,3.26-4.43,4.95l-.6.81c-9.19,8.79-17.98,16.49-28.67,23.51-3.27,2.15-5.72,2.79-8.6,4.48l-.14-.43c13.99-8.39,33.35-23.15,42.4-36.94.66,1.29.53,2.31.57,3.77Z"/>
      <path class="cls-41" d="M353.7,238.91c.25-.42,2.43-2.41,2.93-2.89-2.35-.32-4.39.65-6.03-.63l-.1-.85c1.23,1.32,3.07,1.29,4.51.33l.35.26c1.4,0,2.73-.6,4.07-1.07l1.51-.4.3.23c-.78.88-1.2,1.32-2.06,2.12-2.02.79-4.49,2.63-5.48,2.9Z"/>
      <path class="cls-26" d="M340.33,204.85c-.08-1.9-.33-4.89.54-6.55.36,1.43.28,2.3.29,3.79l-.83,2.76Z"/>
      <path class="cls-28" d="M345.46,200.98c.02-1.56-.1-3.88.42-5.26l.3-.26c.1,1.77.47,4.14-.72,5.52Z"/>
      <path class="cls-15" d="M364.09,111.36c.39.2,1.3.72,1.67.81,3.34,2.56,9.66,7.28,12.62,9.81l.5.69c-2.17,3.99-15.88,7.81-20.04,9.66,3.32.73,6.28,1.65,9.52,2.43-6.81,6.96-29.2,17.65-38.91,20.76-4.12,1.32-17.75,3.99-20.27,6.19.45,1.42.49,1.46-.21,2.67-1.3,2.22-2.93,4.16-4.37,6.27,2.47-1.67,5.46-3.83,8.01-5.25-2.15,5.6-4.2,11.26-6.81,16.65-2.63,5.43-5.94,10.73-8.44,16.2.14-3.31,3.09-8.67,1.5-12.49-.42-1-1.42-.98-2.51-1.23l-.09,1.31c2.78,2.18,0,6.93-1.54,9.39-.32.05-1.24.49-1.74.66-1.5-.58-1.54-1.14-2.62-2.59-1.47-1.42-2.97-2.8-4.52-4.13-1.87-1.13-3.29-2.26-5.41-2.11-.38-.3-3.89-5.28-4.43-6.03-3.14-3.5-8.46-11.6-10.69-15.58-.93-2.3-.95-2.47.18-4.7,8.25,6.3,18.08,8.67,27.9,3.77,1.8-.9,4.43-2.78,5.04-4.75l-.51-.61c3.26-2.94,11.76-6.8,16.3-7.74,3.78-.78,7.64-1.1,11.47-2.12l.52-.14c-2.6-.27-5.88-.56-7.43-2.67,1.19-.53,3.38-.84,4.74-1.09,7.72-1.32,17.2-4.43,24.81-6.82-5.58-.46-9.24,0-14.94-1.24,8.06-1.57,11.06-2.01,18.19-5.99-1.9-.78-3.34-.89-5.48-1.84l.05-.36,1.11-.33c3.29-.75,11.4-3.54,13.59-5.99l-.25-.62-1.63-.24c1.28-.15,1.6-.12,2.75-.76-.41-.64-6.7-6.67-7.98-8.09,2.64.22,6.86.88,8.9-.66.56-.93.52-4.1.65-5.55.22,1.46.07,3.33.83,4.45Z"/>
      <path class="cls-23" d="M364.09,111.36c.39.2,1.3.72,1.67.81,3.34,2.56,9.66,7.28,12.62,9.81-1.73.04-4.01.06-5.63.45-6.56,1.56-15.82,9.02-22.5,6.84-1.19-.39-1.77-.38-3.02-.46,3.29-.75,11.4-3.54,13.59-5.99l-.25-.62-1.63-.24c1.28-.15,1.6-.12,2.75-.76-.41-.64-6.7-6.67-7.98-8.09,2.64.22,6.86.88,8.9-.66.56-.93.52-4.1.65-5.55.22,1.46.07,3.33.83,4.45Z"/>
      <path class="cls-37" d="M296.24,185.85c2.78,2.18,0,6.93-1.54,9.39-.32.05-1.24.49-1.74.66-1.5-.58-1.54-1.14-2.62-2.59-1.47-1.42-2.97-2.8-4.52-4.13l.31-.65c-.39-.78-.41-.74-.5-1.6l1.17-1.27c.21.01.82,0,.98.08.99-.93,2.96-2.69,3.99-3.44l-.13.18c.82-.42,3.06-2.27,4.4-3.1l1.11-.66c.21,1.49-1.23,2.86-1.35,5.47.17.13.33.32.54.35l-.09,1.31Z"/>
      <path class="cls-42" d="M295.8,179.77c-1.32,2.2-1.87,4.46-3.16,6.09-2.43.11-.91-1.2-2.72-.23-.4,1.25-.05,1-.82,1.49l-1.31-1.37c.99-.93,2.96-2.69,3.99-3.44l-.13.18c.82-.42,3.06-2.27,4.4-3.1l-.24.39Z"/>
      <path class="cls-37" d="M289.08,187.11l.09.68c.35,2.73-.38,2.62,1.16,5.52-1.47-1.42-2.97-2.8-4.52-4.13l.31-.65c-.39-.78-.41-.74-.5-1.6l1.17-1.27c.21.01.82,0,.98.08l1.31,1.37Z"/>
      <path class="cls-37" d="M285.62,186.92c.09.86.12.82.5,1.6l-.31.65c-1.87-1.13-3.29-2.26-5.41-2.11-.38-.3-3.89-5.28-4.43-6.03,4.37.03,7.56,3.83,10.81,4.62l-1.17,1.27Z"/>
      <path class="cls-50" d="M330.09,147.5c-1.3.57-2.6,1.13-3.91,1.67-2.6-.27-5.88-.56-7.43-2.67,1.19-.53,3.38-.84,4.74-1.09,1.94,1.06,4.42,1.54,6.6,2.09Z"/>
      <path class="cls-57" d="M293.03,279.77c-.03,4.11.54,10.04.2,13.88.52,5.19.76,9.44.63,14.65-.04,1.59-.46,7.29-.37,8.16.78,3.56-1.52,11.19-2.65,14.86.13-.42-2.11.8-2.08.78l.07.42c.53.14,1.05.28,1.58.4,1.93,2.96-1.78,9.44.37,13.75l.44-.02c.54-1.42.25-4.13.28-5.78.2-12.58,5.44-24.46,3.98-37.19-.18-1.56-.57-6.12-.03-7.34.43,2.24.57,3.15.7,5.45.31,7.05-.08,16.04-1.79,22.96l-1.47,6.89c8.54-1.1,13.32-1.37,22.09-3.26l-.37.53c-3.99,1.37-9.89,2.04-14.19,2.57-1.89.23-4.27.19-6.07.58l-.15.5c5.56,1.11,16.49-2.52,21.58-2.69l.22.34c6.35-1.08,13.59-3.38,19.64-5.68l-.11,2.03c1.27,7.59.05,6.2-.82,11.63l-1.38.61c-1.59,3.49-42.64,10.8-46.5,8.45-.85-4.27,1.25-9.88-.41-13.53.55-.47.73-.58,1.34-.96l-.02-.69c-3.98.67.03,14-2.77,15.64-10.08.24-20.16-.57-30.08-2.43-.43-.08-9.1-2.11-8.82-1.96.53,1.14,9.16,2.31,10.99,2.9l-.28.38c-5.09.18-10.56-1.47-14.26-4.45-1.05-.84-3.18-.16-4.54-1.52l-.06-.34c6.03,1.65,11.05,2.95,17.21,4.17l.15-1.44c5.15,1.49,21.83,2.66,27.23,2.09l1.27-.13,1.4-.57c.05-2.11.02-4.05-.02-6.16.15-1.46.2-2.87.27-4.33-.04-1.13.01-1.08.19-2.21,1.08-1.92,1.59-5.43,2.02-7.66l.09-.32c1.71-6.29,4.04-25.72.95-31.24l.12-.94c.34-4.35,0-13.32-.03-18.01.04-2.15.04-4.08.29-6.22.35-2.39-.04-2.51,1.42-4.07l.4.2c.69-3.66-.03-9.77.47-13.62.45-3.44-1.54-16.29,1.16-17.89l1.1.74c1.43,5.58.65,15.28.48,21.08-.06,2.22.56,4.24-.04,6.14-.17-.63-.29-5.26-.37-6.36-.82,8.06-.6,18.08-.68,26.24Z"/>
      <path class="cls-28" d="M335.54,326.58c1.27,7.59.05,6.2-.82,11.63l-1.38.61c-16.48,5.02-24.3,6.54-41.44,8.37-.04-3.08.21-6.21.41-9.29l.45-4.43c5.93-.04,17.58-1.57,23.26-3.24,6.35-1.08,13.59-3.38,19.64-5.68l-.11,2.03Z"/>
      <path class="cls-26" d="M335.54,326.58c-11.5,5.71-30.35,11.03-43.23,11.32l.45-4.43c5.93-.04,17.58-1.57,23.26-3.24,6.35-1.08,13.59-3.38,19.64-5.68l-.11,2.03Z"/>
      <path class="cls-37" d="M293.03,279.77c-.03,4.11.54,10.04.2,13.88l-1.48-.54c-.67-1.63-1-16.61-.86-18.76.78-12.53,1.27-24.94.99-37.51-.02-1.11.2-2.93.64-3.92,1.99,2.38,1.24,16.77,1.19,20.6-.82,8.06-.6,18.08-.68,26.24Z"/>
      <path class="cls-37" d="M293.86,308.3c-.04,1.59-.46,7.29-.37,8.16-.4,2.84-2.06,14.16-4.21,15.2-1.31-1.32.1-4.68.64-6.78,2.96-11.43,1.96-20.42,1.83-31.77l1.48.54c.52,5.19.76,9.44.63,14.65Z"/>
      <path class="cls-26" d="M285.19,344.4c-.06,1.35.17,1.73-.48,2.63-5.38.95-23.8-1.32-29.57-2.57l.15-1.44c5.15,1.49,21.83,2.66,27.23,2.09l1.27-.13,1.4-.57Z"/>
      <path class="cls-42" d="M289.22,347.01c-1.05.27-.99.27-2.07.16.13-3.26.01-11.05,1.26-13.49.96-.53.99-.45,2.12-.53-.19,1.89-.91,13.12-1.3,13.86Z"/>
      <path class="cls-26" d="M228.31,201.56l.63.17.16,1.28.69-.1c.04-1.15.26-1.95.51-3.07.23,2.08.57,4.35.57,6.42l.45,3.57c-1.47,1.14-1.87,1.92-2.38,3.74l-.3,3.6c.53.75.38.72,1.08,1.21l-.02,1.5c-.23,2.78-.23,3.95-1.89,6.29-.52.76-1.47,2.22-2.01,2.89.1.98.23.59-.12,1.36-.38-.31-.76-.61-1.15-.91-1.01,3.6-4.17,7.04-6.23,10.2l-.63-.07c-6.42,9.35-13.36,23-23.5,28.12-11.77,5.94-26.3,2.84-31.3-10.38.79-.68.37-.94,1.36-1.41,7.33,6.09,10.11,2.39,10.25-5.84,2.28,2.42,3.99,3.98,7.14,5.32,4.8,2.01,10.21,2,15.01-.03,4.19-1.79,6.21-4.47,7.76-8.6,1.09,2.97-1.27,9.26-2.2,12.48,5.12-7.59,5.62-11.3,4.64-20.24,7.92-2.86,14.13-6.83,11.02-16.31.99-1.48,2.84-3.82,2.9-5.45.3-.94.53-1.15,1.06-1.99,3.26-3.23,4.07-14.44,4.55-18.89l.99.86c.02.42.09.62-.02,1,.29,1.1.55,2.23.98,3.26Z"/>
      <path class="cls-27" d="M228.31,201.56l.63.17.16,1.28.69-.1c.04-1.15.26-1.95.51-3.07.23,2.08.57,4.35.57,6.42l.45,3.57c-1.47,1.14-1.87,1.92-2.38,3.74l-.3,3.6c.53.75.38.72,1.08,1.21l-.02,1.5c-.23,2.78-.23,3.95-1.89,6.29-.52.76-1.47,2.22-2.01,2.89.1.98.23.59-.12,1.36-.38-.31-.76-.61-1.15-.91-1.01,3.6-4.17,7.04-6.23,10.2l-.63-.07c1.27-2.4,4.65-6.55,5.49-8.44,3.95-8.88,4.47-23.25,4.17-32.92.29,1.1.55,2.23.98,3.26Z"/>
      <path class="cls-4" d="M230.86,206.28l.45,3.57c-1.47,1.14-1.87,1.92-2.38,3.74.04-2.85,0-5.79-.01-8.64-.46-1.56-.56-1.79-.6-3.38l.63.17.16,1.28.69-.1c.04-1.15.26-1.95.51-3.07.23,2.08.57,4.35.57,6.42Z"/>
      <path class="cls-46" d="M229.69,219.89c-.23,2.78-.23,3.95-1.89,6.29-.52.76-1.47,2.22-2.01,2.89.35-2.05,2.23-9.38,2.83-11.89.53.75.38.72,1.08,1.21l-.02,1.5Z"/>
      <path class="cls-28" d="M212.53,169.28c1.33.79,2.47,1.41,3.68,2.4,4.44,5.02,5.43,7.36,7.95,13.7l-.41.46c1.91,4.53,2.24,5.74,2.61,10.61-.48,4.44-1.29,15.66-4.55,18.89.15-4.9-.33-10.75-3.84-14.52-2.63-2.82-4.25-2.75-7.68-2.88-4.58-4.3-5.88-4.92-12.03-4.13-1.21-1.48-1.59-2.56-1.81-4.4,4.45-4.85,9.31-12.37,14.46-16.74.54-.46,2.33-.65,3.09-.74l-2.98-2.52.53-.36.98.24Z"/>
      <path class="cls-27" d="M212.53,169.28c1.33.79,2.47,1.41,3.68,2.4,4.44,5.02,5.43,7.36,7.95,13.7l-.41.46c-1.87-4.51-6.14-10.58-9.75-13.91l-2.98-2.52.53-.36.98.24Z"/>
      <path class="cls-27" d="M176.39,225.41l.07.32c1.06,5.59.13,8.78,2.96,14.3,6.62,9.25,13.3,9.45,23.04,5.64l.6-.29c.4.33.99.77,1.35,1.15.18-1.03.35-1.97.43-3.02l.04-.62c.19-2.36.44-2.52,1.96-3.83.97,8.94.48,12.65-4.64,20.24.92-3.21,3.29-9.51,2.2-12.48-1.55,4.13-3.57,6.8-7.76,8.6-4.8,2.02-10.21,2.03-15.01.03-3.15-1.34-4.86-2.89-7.14-5.32-3.36-5.93-4.35-11.85-3.31-18.53,1.48-3.78,1.97-5.28,4.74-8.32l.47,2.11Z"/>
      <path class="cls-26" d="M202.46,245.67c-4.57,10.79-20.06,12.03-25.9,2.71.25-.5,1.84-6.03,2.86-8.35,6.62,9.25,13.3,9.45,23.04,5.64Z"/>
      <path class="cls-36" d="M176.46,225.73c1.06,5.59.13,8.78,2.96,14.3-1.02,2.32-2.61,7.85-2.86,8.35-4.99-7.06-4.62-15.75-.17-22.97l.07.32Z"/>
      <path class="cls-26" d="M238.98,177.79c17.53,1.87,27.44,6.41,39.64,20.29,2.02,2.29,7.51,11.41,8.25,14.3l-.47-.56c-12.8-14.9-28.43-25.61-48.65-27.13-.61-5.05-4.54-20.96-6.38-25.53l-.6-.73c1.33-.98,2.74-1.99,4.04-2.99.15,3.82,1.39,19.82,4.18,22.35Z"/>
      <path class="cls-28" d="M177.21,221.48c-.52,1.14-.18.6-1.43,1.46l.15.35c-2.77,3.04-3.26,4.54-4.74,8.32-1.04,6.68-.05,12.61,3.31,18.53-.15,8.23-2.93,11.93-10.25,5.84-.99.47-.57.73-1.36,1.41-1.4-3.71-3.07-10.54-1.88-14.39.12-4.78,1.97-9.02,3.63-13.44l.31-.28c3.95-4.09,3.61-5.42,9.62-8.76,1.52.3,1.68.08,2.65.95Z"/>
      <path class="cls-36" d="M177.21,221.48c-.52,1.14-.18.6-1.43,1.46l.15.35c-2.77,3.04-3.26,4.54-4.74,8.32-6.43,2.91-8.71,8.6-9.01,15.52-.09,2.11.95,2.91.13,5.31-1.06-.82-1.07-7.64-1.31-9.44.12-4.78,1.97-9.02,3.63-13.44l.31-.28c3.95-4.09,3.61-5.42,9.62-8.76,1.52.3,1.68.08,2.65.95Z"/>
      <path class="cls-21" d="M177.21,221.48c-.52,1.14-.18.6-1.43,1.46-4.46,1.66-7.74,5.04-10.76,8.56h-.44s.05-1.94.05-1.94l.31-.28c3.95-4.09,3.61-5.42,9.62-8.76,1.52.3,1.68.08,2.65.95Z"/>
      <path class="cls-26" d="M334.24,180.89c.81.87,1.27,1.31,2.17,2.09,1.47,1.71,2.97,3.79,5.05,4.63l-.3.06c-3.3.67-8.62.81-11.99,1.87-8.84,2.79-19.18,11.42-26.25,17.47-1.87,1.6-3.9,6.09-6.21,7.07l.85-2.53c1.17-2.7,2.51-5.33,4.01-7.87,7.47-12.4,18.89-19.88,32.81-23.35l-.14.55Z"/>
      <path class="cls-26" d="M332.71,164.83c-.88.54-9.73,7.81-10.96,8.89-2.12,1.85-7.51,6.23-7.76,9.06-1.14,1.17-3.21,2.79-4.01,3.87l-.55.17c-.55-.84-1.14-1.63-1.72-2.44,2.13-4.24,8.96-18.52,11.58-21.3,3.28-1.21,4.87-1.64,8.31-2.38,2.28,1.35,3.32,2.3,5.12,4.13Z"/>
      <path class="cls-57" d="M288.93,211.78c-1.41,3.08-.13,6.68.15,10,.45,5.47,1.1,10.93,1.35,16.42.37,4.3-.9,22.19.06,24.51l-.09.33-.77-.66c-.49-12.67.84-25.4-.85-38.11-.53-3.99-.38-8.05-1.91-11.89-.74-2.89-6.23-12.01-8.25-14.3-12.2-13.88-22.11-18.41-39.64-20.29.79-2.88.46-2.44,3.29-2.68,11.51-.2,25.68,8.56,33.69,16.31,5.75,5.55,8.87,11.62,12.04,18.76.26.76.4.99.92,1.6Z"/>
      <path class="cls-26" d="M401.74,245.31c-.75,1.64-1.27,2.81-.24,4.53-.78.63-1.24,1.03-2.1,1.58-7.39,2.42-16.31.03-19.65-7.44,1.87-1.78.63-8.07,2.49-9.9l.44.81.68.18c.18,8.25,11.89,10.35,18.38,10.25Z"/>
      <path class="cls-36" d="M214,171.92c-.77.09-2.55.28-3.09.74-5.15,4.37-10.01,11.89-14.46,16.74.22,1.84.6,2.92,1.81,4.4l-5.39,1.69c-2.58.84-5.68,2.33-8.21,3.48,5.05-6.87,19.58-26.56,26.36-29.57l2.98,2.52Z"/>
      <path class="cls-36" d="M198.26,193.79l-5.39,1.69c.35-3.25,1.27-3.82,3.58-6.09.22,1.84.6,2.92,1.81,4.4Z"/>
      <path class="cls-36" d="M366.89,226.45l-2.62,2.18c-2.48-2.68-7.72-18.55-10.02-22.77-2.63-4.82-8.64-13.43-8.27-18.43,6.99,7.72,14.32,28.27,20.92,39.03Z"/>
      <path class="cls-36" d="M382.68,234.89l-.44-.81c-1.87,1.82-.63,8.11-2.49,9.9-2.74-6.5-4.02-11.05-1.55-17.88,1.81-2.01,3.2-2.92,5.38-4.52-.42,6.14,1.6,8.36-.21,13.48l-.68-.18Z"/>
      <path class="cls-37" d="M275.96,191.41c-8.02-7.75-22.18-16.51-33.69-16.31-1.35-.83-.91-.27-1.45-1.68l.44-.44c15.86,1.22,32.34,11.18,41.17,24.34,1.9,2.83,5.94,9.5,5.58,12.85-3.18-7.14-6.3-13.21-12.04-18.76Z"/>
      <path class="cls-42" d="M292.09,211.74c-.86-2.59-1.72-5.36-2.68-7.9,3.12-3.59,3.48-4.24,5.3-8.6,1.55-2.46,4.32-7.21,1.54-9.39l.09-1.31c1.09.25,2.09.23,2.51,1.23,1.59,3.82-1.35,9.18-1.5,12.49-1.7,5.06-2.89,8.67-5.26,13.48Z"/>
      <path class="cls-50" d="M290.33,193.31c1.08,1.45,1.12,2.01,2.62,2.59.5-.17,1.42-.62,1.74-.66-1.81,4.35-2.17,5.01-5.3,8.6-2.97-6.42-5.42-10.64-9-16.76,2.12-.15,3.54.97,5.41,2.11,1.54,1.34,3.05,2.72,4.52,4.13Z"/>
      <path class="cls-37" d="M295.81,210.92c-.18.46-.23.4-.67.78,1.07-6.23,3.89-10.16,7.42-15.19,2.1-3.07,4.85-5.79,7.47-8.42,5.43-4.37,21.08-15.05,28.32-12.44-.91.79-3.63,1.21-4.89,1.58-6.16,1.76-13.45,4.78-18.48,8.82-9.73,6.64-14.84,14.09-19.17,24.87Z"/>
      <path class="cls-28" d="M336.85,172.9c-5.3-.02-11.88,2.48-15.11.81,1.23-1.08,10.08-8.35,10.96-8.89,2.17,2.52,3.63,4.61,4.15,8.08Z"/>
      <path class="cls-36" d="M177.12,218.45c-.35,1.21-1.46,1.5-2.56,2.08-6.01,3.35-5.67,4.67-9.62,8.76,4.05-8.98,8.5-15.38,14.49-23.08-1,4.21-1.12,8.19-2.31,12.24Z"/>
      <path class="cls-36" d="M231.36,159.16c-1.96,2.9-3.58,3.54-6.6,5.23-4.13,3.6-6.53,3.15-8.54,7.28-1.21-.99-2.35-1.61-3.68-2.4l-.98-.24c4.36-4.37,13.55-8.14,19.21-10.6l.6.73Z"/>
      <path class="cls-17" d="M367.52,103.85c.86,1.04,6.23,6.42,6.36,6.96-1.43.23-2,.28-3.45.31-4.55-2.79-13.36-14.7-10.54-20.64,2.13,5.1,4.07,9.08,7.63,13.37Z"/>
      <path class="cls-57" d="M314.65,187.02c-3.65,2.9-7.32,6.11-10.31,9.71-3.4,4.1-5.48,9.07-7.76,13.82-.56,1.18-.66,2.92-1.1,4.33.41-1.01.89-2.45,1.55-3.27l.51-.04-.85,2.53c-1.32,5.64.55,8.47,1.3,14.04-.44.72-1.26,2.19-1.8,2.71l-.19-1.96c0-1.91-.95-8.26-1.91-9.88.23.08.5,0,.74-.02.92-1.93-1.17-3.92.29-7.3.43-.38.48-.32.67-.78,4.34-10.79,9.44-18.24,19.17-24.87-.11.32-.22.65-.33.97Z"/>
      <path class="cls-36" d="M327.71,175.92c-4.72,1.69-9.33,4.43-13.72,6.86.25-2.83,5.64-7.21,7.76-9.06,3.22,1.67,9.8-.83,15.11-.81-1.57,1.64-6.6,2.1-9.15,3.01Z"/>
      <path class="cls-37" d="M296.01,228.89c-7.98,1.7-6.9-6.64-1.91-9.88.96,1.61,1.92,7.96,1.91,9.88Z"/>
      <path class="cls-36" d="M345.47,186.81l-.23,1.5c-1.6.49-1.57-.51-3.78-.68-2.09-.84-3.58-2.91-5.05-4.63,1.78.15,4.72.69,6.09-.21,1.13,1.42,1.99,2.48,2.98,4.03Z"/>
      <path class="cls-38" d="M265.46,160.76c-1.13,2.23-1.11,2.39-.18,4.7-1.89-1.65-4.4-4.81-6.19-6.84l.4-1.31c.5.32.94.53,1.46.81l.54-.42c.09-1.56.07-2.13.73-3.53.69,3.45.78,3.97,3.23,6.59Z"/>
      <path class="cls-41" d="M401.49,249.84c-1.03-1.72-.51-2.89.24-4.53,1.14-1.54,2.6-4.56,4.59-4.83.31,1.93-2.03,6.18-3.08,7.74l-1.75,1.62Z"/>
      <path class="cls-1" d="M336.4,182.99c-.89-.79-1.35-1.23-2.17-2.09l.14-.55c3.53-.05,5.4-.09,8.12,2.43-1.37.9-4.31.36-6.09.21Z"/>
      <path class="cls-57" d="M310.04,188.08c-2.62,2.63-5.37,5.35-7.47,8.42-.34-.75-.31-.74-.52-1.54l.63-.57.24-.71c1.94-1.8,4.64-4.87,6.52-6.87l.55-.17.06,1.44Z"/>
      <path class="cls-46" d="M309.43,186.82c-1.87,2-4.58,5.08-6.52,6.87.24-.73,3.96-7.53,4.79-9.32.59.81,1.17,1.61,1.72,2.44Z"/>
      <path class="cls-41" d="M217.86,222.76c-.66-1.58-1.06-1.88-.23-3.41,1.17-.69,2.01-1.26,3.12-2.04-.06,1.63-1.9,3.97-2.9,5.45Z"/>
      <path class="cls-58" d="M259.49,157.31l-.4,1.31c-1.1-1.17-3-3.01-3.34-4.5,1.05.06,1.65.67,2.53,1.3,1.24,1.14.96.48,1.2,1.89Z"/>
      <path class="cls-30" d="M468.74,149.07c-.16.69-.77,2.9-.81,3.43.26,5.12-6.58,18.75-10.31,22.46-2.83,2.81-8.16,8.38-11.97,9.64-2.24,2.41-3.23,2.41-6.49,2.49-7.17,1.27-11.8,1.86-18.18,5.54-1.22-.71-2.24-1.1-3.55-1.59-1.04-.36-2.3-.72-3.36-1.04-1.64-.25-2.44-.31-4.1-.22-1.55.08-5.99,2.24-6.78,1.3l.25-.72c.09-1.36.15-1.35-.28-2.72-.57-2.28-1.44-4.44-2.25-6.65-2.18-3.67-4.35-6.52-6.88-9.94l-.63-.58.33-.38.61-1.23c-4.96-2.99-6.11-9.92-6.33-15.27-.69-15.56,4.87-30.74,15.45-42.18,6.42-6.83,15.11-12.05,24.67-12.34,28.49-.77,47.06,22.12,40.63,49.98Z"/>
      <path class="cls-52" d="M439.15,187.09c-7.17,1.27-11.8,1.86-18.18,5.54-1.22-.71-2.24-1.1-3.55-1.59-1.04-.36-2.3-.72-3.36-1.04-1.64-.25-2.44-.31-4.1-.22-1.55.08-5.99,2.24-6.78,1.3l.25-.72c.09-1.36.15-1.35-.28-2.72-.57-2.28-1.44-4.44-2.25-6.65-2.18-3.67-4.35-6.52-6.88-9.94l-.63-.58.33-.38.61-1.23c16.31,4.23,31.48,11.79,47.54,16.55.9.27,2.87-.46,3.78-.82-2.24,2.41-3.23,2.41-6.49,2.49Z"/>
      <path class="cls-45" d="M420.18,179.69l3.12,1.27c-1.39,4.46-2.52,6.95-2.32,11.68-1.22-.71-2.24-1.1-3.55-1.59-1.04-.36-2.3-.72-3.36-1.04-1.64-.25-2.44-.31-4.1-.22-1.55.08-5.99,2.24-6.78,1.3l.25-.72c.09-1.36.15-1.35-.28-2.72,1.25-3.57,4.06-8.63,5.86-12.12l.48.17c3.18,1.19,7.73,2.72,10.7,3.99Z"/>
      <path class="cls-53" d="M420.97,192.63c-1.22-.71-2.24-1.1-3.55-1.59.39-2.74,1.66-4.35,1.09-6.73l.08-.09.59-.1c1.23-1.34,1.89-1.75,2.05-3.45l-1.05-.99,3.12,1.27c-1.39,4.46-2.52,6.95-2.32,11.68Z"/>
      <path class="cls-59" d="M403.43,190.36c.09-1.36.15-1.35-.28-2.72,1.25-3.57,4.06-8.63,5.86-12.12l.48.17c-1.35,3.31-5.26,11.92-6.05,14.67Z"/>
      <path class="cls-9" d="M417.43,191.04c-1.04-.36-2.3-.72-3.36-1.04,1.66-2.05,2.4-3.78,4.46-5.69.56,2.38-.7,3.99-1.09,6.73Z"/>
      <path class="cls-45" d="M409.01,175.52c-1.8,3.49-4.61,8.55-5.86,12.12-.57-2.28-1.44-4.44-2.25-6.65-2.18-3.67-4.35-6.52-6.88-9.94l-.63-.58.33-.38c2.8.5,12.24,4.26,15.3,5.42Z"/>
      <path class="cls-9" d="M394.01,171.05c3.47.16,8.16,7.12,6.88,9.94-2.18-3.67-4.35-6.52-6.88-9.94Z"/>
      <path class="cls-9" d="M439.15,187.09c-7.17,1.27-11.8,1.86-18.18,5.54-.19-4.73.93-7.22,2.32-11.68,5.15,1.83,10.76,4.08,15.86,6.14Z"/>
      <path class="cls-18" d="M464.21,162.21c-1.18,2.51-4.11,6.58-5.05,8.8l-.58-.71c12.79-23.82,13.33-55.07-15.17-67.75-4.77-2.12-10.21-2.55-15.31-3.46,28.49-.77,47.06,22.12,40.63,49.98-.16.69-.77,2.9-.81,3.43-1.62,2.76-2.28,6.64-3.71,9.71Z"/>
      <path class="cls-2" d="M459.16,171c-2.92,4.22-5.87,7.2-10.06,10.17,3.5-4.13,6.04-5.96,9.48-10.88l.58.71Z"/>
      <path class="cls-24" d="M194.55,209.32c1.41-.17,3.35-.53,4.69-.26,5.32-.71,13.09-3.01,13.61,4.74.02.42.03.85.03,1.27-.41,1.21-.41,1.98-1.56,2.59-2.63,1.4-8.14,1.9-10.51,3.23l.22.43c1.78.52,2.17.43,4.07.4,3.14-.28,6-1.18,8.46.99l.22.27c.86,3.96-5.76,6.97-8.92,7.68-10.35,2.31-17.04-7.61-18.71-16.47-.29-1.54-.13-2.98-.41-4.52l-.69-.26c.89-2.62,1.19-3.47,1.55-6.19l-1.21-.57c3.41-2.23,10.34-4.52,14.48-5.07,4.43-.59,9.31,1.51,8.35,6.89-5.09,2.19-7.01,1.55-13.66,4.86Z"/>
      <path class="cls-15" d="M204.9,199.7c-3.67-.16-15.64,1.44-18.3,3.52l-1.21-.57c3.41-2.23,10.34-4.52,14.48-5.07,4.43-.59,9.31,1.51,8.35,6.89-1.46-2.09-1.14-2.47-3.31-4.77Z"/>
      <path class="cls-15" d="M208.88,210.21c-2.96-.33-6.43-.26-9.4-.67l-.25-.48c5.32-.71,13.09-3.01,13.61,4.74.02.42.03.85.03,1.27-.95-1.6-2.21-4.66-4-4.86Z"/>
      <path class="cls-13" d="M205.1,221.71c3.14-.28,6-1.18,8.46.99-2.28.18-6.37-.03-8.46-.99Z"/>
      <path class="cls-17" d="M368.82,67.77c-1.3,3.23-6.23,9.65-8.42,12.62-1.43-2.93-2.32-5.03-3.2-8.13,4.41-4.29,6.84-7.05,9.79-12.4,2.83-8.09,3.48-12.92,3.15-21.46-1.87.21-3.85.88-5.68,1.4-6.61,2.84-6.93,3.24-12.32,7.14-1.99.67-4.44,2.52-6.19,1.25-.47-1.2-.16-1.88.12-3.15-.89.26-.85.31-1.74.13l-.13-.73c.82-1.68,1.65-2.43,2.9-3.8-1.86-.54-5.28.93-8.21,1.16-.7.41-1.44.87-2.14,1.26-.55-.52-.94-.98-1.43-1.54,1.44-2.73,16.17-8.29,19.58-8.99,5.04-1.51,20.03-5.33,21.25,2.7,1.84,8.88-2.76,25.09-7.33,32.57Z"/>
      <path class="cls-61" d="M360.41,80.39c-1.43-2.93-2.32-5.03-3.2-8.13,4.41-4.29,6.84-7.05,9.79-12.4,2.83-8.09,3.48-12.92,3.15-21.46-1.87.21-3.85.88-5.68,1.4.05-1.53,4.22-1.06,5.99-2.74-2.21.49-6.5,1.32-8.63,1.38,1.89-.81,7.78-2.47,9.73-1.8-.16.51-.35.99-.58,1.48.57.29,1.64.88,2.26.83,3.25-.3,2.87-1.56,2.92-3.72,1.84,8.88-2.76,25.09-7.33,32.57-1.3,3.23-6.23,9.65-8.42,12.62Z"/>
      <path class="cls-6" d="M365.23,67.95l.33-.17.05-.43c.18-1.37.49-3.51,1.59-4.39l.33,1.54c.79.46,1.04.67,1.96,0-.03,1.22-.43,2.09-.67,3.26-1.3,3.23-6.23,9.65-8.42,12.62-1.43-2.93-2.32-5.03-3.2-8.13,4.41-4.29,6.84-7.05,9.79-12.4.13,3.12-2.22,5.28-1.77,8.1Z"/>
      <path class="cls-50" d="M354.41,35.85c-.35.2-1.08.66-1.42.74l-5.88,4.02c-1.86-.54-5.28.93-8.21,1.16-.7.41-1.44.87-2.14,1.26-.55-.52-.94-.98-1.43-1.54,1.44-2.73,16.17-8.29,19.58-8.99,0,1.28.17,2.31-.49,3.35Z"/>
      <path class="cls-42" d="M347.1,40.61c-1.86-.54-5.28.93-8.21,1.16,2.77-1.84,10.88-4.71,14.09-5.17l-5.88,4.02Z"/>
      <path class="cls-37" d="M352.15,46.93c-1.99.67-4.44,2.52-6.19,1.25-.47-1.2-.16-1.88.12-3.15,1.57-.89,14.29-6.28,15.75-6.6,2.13-.06,6.42-.89,8.63-1.38-1.77,1.69-5.94,1.21-5.99,2.74-6.61,2.84-6.93,3.24-12.32,7.14Z"/>
      <path class="cls-24" d="M422.32,219.34c-1.72,3.29-1.96,4.42-5.23,6.42-8.08.23-18.34.01-19.68-9.98,3.74-2.12,8.41.04,12.1,1.48.5-.03,2.94.17,3.8.17l.02-.36c-5.06-3.75-7.09-5.08-13.39-5.54l-.16-.25c3.74-3.64,2.79-6.33,4.46-7.95,1.22-.18,1.15-.16,2.37.13,3.71.65,7.82,1.38,10.79,3.89.57,0,.89-.03,1.46-.08-.86-1.9-2.62-3.45-4.11-4.99-4.42-1.37-6.69-1.45-11.22-1.08.06-1.46.24-2.95.39-4.41,4.65-6.47,18.94-2.18,21.21,5.75,1.15,3.06-1.16,13.64-2.8,16.81Z"/>
      <path class="cls-12" d="M424.68,202.7c-8.21-6.92-9.93-8.43-20.77-5.92,4.65-6.47,18.94-2.18,21.21,5.75l-.44.17Z"/>
      <path class="cls-58" d="M417.4,207.34c-.8.02-13.18-3.41-13.24-3.46l2.45-.42c3.71.65,7.82,1.38,10.79,3.89Z"/>
      <path class="cls-15" d="M409.47,217.57c-.57.1-10.41-1.59-12.07-1.79,3.74-2.12,8.41.04,12.1,1.48l-.03.31Z"/>
      <path class="cls-26" d="M267.74,178.92c-.76-.59-1.38-1.89-3.16-3.27-1.31.2-2.87.39-4.1.78-7.53-3.27-11.74-4.13-19.81-5.21-.74-2.68-1.45-9.16-1.89-12.25-.47-4.07-.53-8.92-.6-13.02,11.58,7.02,15.9,10.89,24.06,22.07,2.26,3.1,5.36,6.63,7.57,9.84-1.14.4-1.21.28-2.08,1.06Z"/>
      <path class="cls-28" d="M260.48,176.43c-7.53-3.27-11.74-4.13-19.81-5.21-.74-2.68-1.45-9.16-1.89-12.25,4.65-1.14,17.38,8.63,20.56,11.77,1.58,1.56,3.5,3.49,5.24,4.92-1.31.2-2.87.39-4.1.78Z"/>
      <path class="cls-53" d="M399.72,241.85c-3.23-.24-5.31-.96-8.24-2.16-2.15-1.04-3.29-1.87-4.97-3.52,1.14-2.56,4.61-12.98,6.53-13.74,1.24,5.77,8.05,5.41,10.4,7.69l-.23,1.15c-.86,2.86-2.21,8.22-3.49,10.59Z"/>
      <path class="cls-5" d="M400.46,231.33c-2.64-.27-4.36-1.97-6.37-3.63-.82,2.04-4.21,9.22-3.59,10.92l.99,1.08c-2.15-1.04-3.29-1.87-4.97-3.52,1.14-2.56,4.61-12.98,6.53-13.74,1.24,5.77,8.05,5.41,10.4,7.69l-.23,1.15-2.76.07Z"/>
      <path class="cls-9" d="M399.72,241.85c-1.41-.46-1.01-.05-1.77-.98.23-3.29,1.75-5.76,2.42-9.16l.07-.39,2.76-.07c-.86,2.86-2.21,8.22-3.49,10.59Z"/>
      <path class="cls-24" d="M399.56,203.03c-2.77,11.26-13.57-3.86-10.2-9.11.65-1.01,2.61-2.21,3.83-2.27,6.3.8,7.24,5.77,6.37,11.38Z"/>
      <path class="cls-15" d="M391.97,193.59l-1.04.2,2.26-2.14c6.3.8,7.24,5.77,6.37,11.38-.81-3.95-1.96-10.53-7.59-9.44Z"/>
      <path class="cls-56" d="M344.2,44.42l.13.73c.9.18.85.14,1.74-.13-.28,1.27-.59,1.96-.12,3.15,1.75,1.28,4.2-.57,6.19-1.25-2.5,2.46-3.94,4.17-6.03,6.97-3.22-5.1-4.9-6.72-9.37-10.87.7-.39,1.44-.85,2.14-1.26,2.92-.23,6.35-1.7,8.21-1.16-1.25,1.37-2.08,2.12-2.9,3.8Z"/>
      <path class="cls-58" d="M186.6,203.21c-.37,2.72-.66,3.57-1.55,6.19-1.22,3.41-3.23,11.98-3.96,15.81l-.29-.09c-.57-1.23-.37-3.3-.37-4.8.01-5.45,1.36-13.39,4.96-17.69l1.21.57Z"/>
      <path class="cls-58" d="M218.35,211.61l-.32.17-.12-.05c-1.63-2.56-4.65-8.28-6-10.07.32-.57.09-.4.63-.58,5.43,2.45,5.15,5.02,5.81,10.53Z"/>
      <path class="cls-46" d="M277.38,188.52c-1.07-.86-7.89-6.2-8.26-6.83l.2-.49c-.31-1.39-.37-1.07-1.58-2.27.87-.78.94-.66,2.08-1.06,2.65,3.46,5.18,7.02,7.57,10.66Z"/>
      <path class="cls-41" d="M267.74,178.92c1.22,1.2,1.27.88,1.58,2.27l-.2.49c-2.97-1.91-5.57-3.52-8.65-5.26,1.23-.39,2.79-.58,4.1-.78,1.78,1.38,2.4,2.68,3.16,3.27Z"/>
      <path class="cls-35" d="M180.79,225.12l.29.09c-.2,2.18-.6,4.14-.99,6.28-.06-3.12-.15-8.19.33-11.17,0,1.5-.2,3.57.37,4.8Z"/>
    </g>
  </g>
  <g id="_Слой_5" data-name="Слой 5">
    <path class="cls-10" d="M543.96,356.42c-1.1,0-2.82-.04-4.91-.17-7.18-.44-12.49-1.63-14.13-1.99-12.3-2.68-44.39-7.95-58.89-9.87-8.45-1.12-20.67-2.44-35.72-2.99-132.44,16.05-264.88,32.11-397.32,48.16"/>
    <path class="cls-60" d="M32.34,396.19c81.68-10.74,163.35-21.48,245.03-32.22,35.9,7.56,71.81,15.12,107.71,22.68-5.95,3.16-11.89,6.33-17.84,9.49-34.72,5.96-69.45,11.91-104.17,17.87-15.46-4.22-31.81-8.03-49.02-11.23-68.63-12.78-130.66-12.12-181.71-6.58Z"/>
  </g>
  <g id="_Слой_4" data-name="Слой 4">
    <path class="cls-20" d="M429.83,344.04l-266.83,31.17-88.57,10.59c-13.33,1.62-29.58,3.21-42.46,5.21v4.58c25.35-1.94,53.86-7.52,78.73-9.28,5.1-1.22,18.41-2.62,24.25-3.31l45.53-5.3,56.18-6.88c7.16-.87,27.82-3.69,34.23-3.29,15.42.95,35.93,5.18,51.37,7.66l107.88,17.8c14.23,2.36,37.6,6.82,51.23,8.41,6.69-1.33,12.31,1.26,14.85.96l.19-1.88c-2.93-2.04-9.18-1.88-13.36-4.44-2.14-.81-26.08-4.41-29.77-5.05-36.79-6.24-73.65-12.25-110.55-18.03-9.84-1.59-42.7-6.6-49.6-8.89,44.91-4.05,91.61-12.74,136.78-16.19,9.23-.7,32.17,2.82,42.08,4,23.99,3.43,47.98,6.86,71.98,10.29v-5.11c-18.28-2.89-37.35-5.52-57.18-7.78-19.64-2.24-38.65-3.96-56.96-5.25Z"/>
  </g>
</svg>