<?xml version="1.0" encoding="UTF-8"?>
<svg id="_Слой_1" data-name="Слой 1" xmlns="http://www.w3.org/2000/svg" xmlns:xlink="http://www.w3.org/1999/xlink" viewBox="0 0 452.54 374.72">
  <defs>
    <style>
      .cls-1 {
        fill: url(#_Безымянный_градиент_22);
      }

      .cls-2 {
        fill: #2d5591;
      }

      .cls-3 {
        fill: #1f3150;
      }

      .cls-4 {
        fill: url(#_Безымянный_градиент_15);
      }

      .cls-5 {
        fill: url(#_Безымянный_градиент_4);
      }

      .cls-6 {
        fill: #1f427a;
      }

      .cls-7 {
        fill: url(#_Безымянный_градиент_12);
      }

      .cls-8 {
        fill: url(#_Безымянный_градиент_21);
      }

      .cls-9 {
        fill: url(#_Безымянный_градиент_5);
      }

      .cls-10 {
        fill: #4b5871;
      }

      .cls-11 {
        fill: url(#_Безымянный_градиент_14);
      }

      .cls-12 {
        fill: url(#_Безымянный_градиент_7);
      }

      .cls-13 {
        fill: url(#_Безымянный_градиент_24);
      }

      .cls-14 {
        fill: url(#_Безымянный_градиент_17);
      }

      .cls-15 {
        fill: #142540;
      }

      .cls-16 {
        fill: url(#_Безымянный_градиент_20);
      }

      .cls-17 {
        fill: #4d74a6;
      }

      .cls-18 {
        fill: url(#_Безымянный_градиент_23);
      }

      .cls-19 {
        fill: url(#_Безымянный_градиент_16);
      }

      .cls-20 {
        fill: url(#_Безымянный_градиент_18);
      }

      .cls-21 {
        fill: #323f4f;
      }

      .cls-22 {
        fill: url(#_Безымянный_градиент_9);
      }

      .cls-23 {
        fill: url(#_Безымянный_градиент_11);
      }

      .cls-24 {
        fill: url(#_Безымянный_градиент_10);
      }

      .cls-25 {
        fill: #3a6ba8;
      }

      .cls-26 {
        fill: url(#_Безымянный_градиент_2);
      }

      .cls-27 {
        fill: #98b2cd;
      }

      .cls-28 {
        fill: url(#_Безымянный_градиент_19);
      }

      .cls-29 {
        fill: url(#_Безымянный_градиент_25);
      }

      .cls-30 {
        fill: #c4d8ea;
      }

      .cls-31 {
        fill: #d8e1e6;
      }

      .cls-32 {
        fill: #a3acbc;
      }

      .cls-33 {
        fill: #b1c9e2;
      }

      .cls-34 {
        fill: url(#_Безымянный_градиент_28);
      }

      .cls-35 {
        fill: url(#_Безымянный_градиент_13);
      }

      .cls-36 {
        fill: url(#_Безымянный_градиент_8);
      }

      .cls-37 {
        fill: #7a8498;
      }

      .cls-38 {
        fill: url(#_Безымянный_градиент_3);
      }

      .cls-39 {
        fill: url(#_Безымянный_градиент_27);
      }

      .cls-40 {
        fill: #56647b;
      }

      .cls-41 {
        fill: #fdfefe;
      }

      .cls-42 {
        fill: #7594b8;
      }

      .cls-43 {
        fill: #b4b8c1;
      }

      .cls-44 {
        fill: url(#_Безымянный_градиент_6);
      }

      .cls-45 {
        fill: url(#_Безымянный_градиент_26);
      }
    </style>
    <linearGradient id="_Безымянный_градиент_28" data-name="Безымянный градиент 28" x1="587.76" y1="-337.58" x2="552.77" y2="-264.66" gradientTransform="translate(-2.54 -13.22) scale(.56 -.56)" gradientUnits="userSpaceOnUse">
      <stop offset="0" stop-color="#303f63"/>
      <stop offset="1" stop-color="#627187"/>
    </linearGradient>
    <linearGradient id="_Безымянный_градиент_2" data-name="Безымянный градиент 2" x1="543.16" y1="-320.5" x2="540.7" y2="-264.78" gradientTransform="translate(-2.54 -13.22) scale(.56 -.56)" gradientUnits="userSpaceOnUse">
      <stop offset="0" stop-color="#4d5f7c"/>
      <stop offset="1" stop-color="#848a97"/>
    </linearGradient>
    <linearGradient id="_Безымянный_градиент_3" data-name="Безымянный градиент 3" x1="516.73" y1="-341.22" x2="643.96" y2="-317.05" gradientTransform="translate(-2.54 -13.22) scale(.56 -.56)" gradientUnits="userSpaceOnUse">
      <stop offset="0" stop-color="#b1bcd0"/>
      <stop offset="1" stop-color="#dae8ef"/>
    </linearGradient>
    <linearGradient id="_Безымянный_градиент_4" data-name="Безымянный градиент 4" x1="125.88" y1="-248.54" x2="331.09" y2="-70.82" gradientTransform="translate(-2.54 -13.22) scale(.56 -.56)" gradientUnits="userSpaceOnUse">
      <stop offset="0" stop-color="#73899c"/>
      <stop offset="1" stop-color="#a9afbd"/>
    </linearGradient>
    <linearGradient id="_Безымянный_градиент_5" data-name="Безымянный градиент 5" x1="281.82" y1="-81.95" x2="305.48" y2="-86.27" gradientTransform="translate(-2.54 -13.22) scale(.56 -.56)" gradientUnits="userSpaceOnUse">
      <stop offset="0" stop-color="#6d717d"/>
      <stop offset="1" stop-color="#8a8f9d"/>
    </linearGradient>
    <linearGradient id="_Безымянный_градиент_6" data-name="Безымянный градиент 6" x1="207.23" y1="-85.94" x2="214.91" y2="-97.31" gradientTransform="translate(-2.54 -13.22) scale(.56 -.56)" gradientUnits="userSpaceOnUse">
      <stop offset="0" stop-color="#213044"/>
      <stop offset="1" stop-color="#3b4b5c"/>
    </linearGradient>
    <linearGradient id="_Безымянный_градиент_7" data-name="Безымянный градиент 7" x1="180.56" y1="-381.25" x2="203.06" y2="-254.3" gradientTransform="translate(-2.54 -13.22) scale(.56 -.56)" gradientUnits="userSpaceOnUse">
      <stop offset="0" stop-color="#7a8bab"/>
      <stop offset="1" stop-color="#a8bdc9"/>
    </linearGradient>
    <linearGradient id="_Безымянный_градиент_8" data-name="Безымянный градиент 8" x1="278.92" y1="-286.42" x2="273.12" y2="-308.1" gradientTransform="translate(-2.54 -13.22) scale(.56 -.56)" gradientUnits="userSpaceOnUse">
      <stop offset="0" stop-color="#9d525c"/>
      <stop offset="1" stop-color="#c3677c"/>
    </linearGradient>
    <linearGradient id="_Безымянный_градиент_9" data-name="Безымянный градиент 9" x1="443.22" y1="-255.96" x2="265.65" y2="-350.44" gradientTransform="translate(-2.54 -13.22) scale(.56 -.56)" gradientUnits="userSpaceOnUse">
      <stop offset="0" stop-color="#a0afbd"/>
      <stop offset="1" stop-color="#d4dae2"/>
    </linearGradient>
    <linearGradient id="_Безымянный_градиент_10" data-name="Безымянный градиент 10" x1="241.98" y1="-510.01" x2="368.91" y2="-637.62" gradientTransform="translate(-2.54 -13.22) scale(.56 -.56)" gradientUnits="userSpaceOnUse">
      <stop offset="0" stop-color="#0d316f"/>
      <stop offset="1" stop-color="#3465a5"/>
    </linearGradient>
    <linearGradient id="_Безымянный_градиент_11" data-name="Безымянный градиент 11" x1="286.51" y1="-565.63" x2="394.71" y2="-543.83" gradientTransform="translate(-2.54 -13.22) scale(.56 -.56)" gradientUnits="userSpaceOnUse">
      <stop offset="0" stop-color="#32578a"/>
      <stop offset="1" stop-color="#5988c2"/>
    </linearGradient>
    <linearGradient id="_Безымянный_градиент_12" data-name="Безымянный градиент 12" x1="87.56" y1="-478.22" x2="100.6" y2="-450.17" gradientTransform="translate(-2.54 -13.22) scale(.56 -.56)" gradientUnits="userSpaceOnUse">
      <stop offset="0" stop-color="#3a629e"/>
      <stop offset="1" stop-color="#4c7db7"/>
    </linearGradient>
    <linearGradient id="_Безымянный_градиент_13" data-name="Безымянный градиент 13" x1="199.43" y1="-602.75" x2="220.29" y2="-514.87" gradientTransform="translate(-2.54 -13.22) scale(.56 -.56)" gradientUnits="userSpaceOnUse">
      <stop offset="0" stop-color="#263652"/>
      <stop offset="1" stop-color="#5d6c87"/>
    </linearGradient>
    <linearGradient id="_Безымянный_градиент_14" data-name="Безымянный градиент 14" x1="198.65" y1="-557.18" x2="252.71" y2="-502.44" gradientTransform="translate(-2.54 -13.22) scale(.56 -.56)" gradientUnits="userSpaceOnUse">
      <stop offset="0" stop-color="#51627f"/>
      <stop offset="1" stop-color="#788194"/>
    </linearGradient>
    <linearGradient id="_Безымянный_градиент_15" data-name="Безымянный градиент 15" x1="230.97" y1="-534.02" x2="216.01" y2="-526.32" gradientTransform="translate(-2.54 -13.22) scale(.56 -.56)" gradientUnits="userSpaceOnUse">
      <stop offset="0" stop-color="#6c82a0"/>
      <stop offset="1" stop-color="#b7c9df"/>
    </linearGradient>
    <linearGradient id="_Безымянный_градиент_16" data-name="Безымянный градиент 16" x1="50.13" y1="-564.81" x2="75.1" y2="-538.99" gradientTransform="translate(-2.54 -13.22) scale(.56 -.56)" gradientUnits="userSpaceOnUse">
      <stop offset="0" stop-color="#5c7191"/>
      <stop offset="1" stop-color="#778aa0"/>
    </linearGradient>
    <linearGradient id="_Безымянный_градиент_17" data-name="Безымянный градиент 17" x1="495.26" y1="-398.28" x2="459.05" y2="-362.79" gradientTransform="translate(-2.54 -13.22) scale(.56 -.56)" gradientUnits="userSpaceOnUse">
      <stop offset="0" stop-color="#5e7292"/>
      <stop offset="1" stop-color="#7489a8"/>
    </linearGradient>
    <linearGradient id="_Безымянный_градиент_18" data-name="Безымянный градиент 18" x1="349.88" y1="-129.18" x2="360.45" y2="-32.59" gradientTransform="translate(-2.54 -13.22) scale(.56 -.56)" gradientUnits="userSpaceOnUse">
      <stop offset="0" stop-color="#d7dfe5"/>
      <stop offset="1" stop-color="#fff"/>
    </linearGradient>
    <linearGradient id="_Безымянный_градиент_19" data-name="Безымянный градиент 19" x1="118.26" y1="-565.56" x2="136.16" y2="-523.98" gradientTransform="translate(-2.54 -13.22) scale(.56 -.56)" gradientUnits="userSpaceOnUse">
      <stop offset="0" stop-color="#384967"/>
      <stop offset="1" stop-color="#586272"/>
    </linearGradient>
    <linearGradient id="_Безымянный_градиент_20" data-name="Безымянный градиент 20" x1="261.99" y1="-506.85" x2="262.17" y2="-481.41" gradientTransform="translate(-2.54 -13.22) scale(.56 -.56)" gradientUnits="userSpaceOnUse">
      <stop offset="0" stop-color="#3f4d62"/>
      <stop offset="1" stop-color="#595f6a"/>
    </linearGradient>
    <linearGradient id="_Безымянный_градиент_21" data-name="Безымянный градиент 21" x1="247.68" y1="-493.01" x2="261.55" y2="-471.01" gradientTransform="translate(-2.54 -13.22) scale(.56 -.56)" gradientUnits="userSpaceOnUse">
      <stop offset="0" stop-color="#65727f"/>
      <stop offset="1" stop-color="#888c95"/>
    </linearGradient>
    <linearGradient id="_Безымянный_градиент_22" data-name="Безымянный градиент 22" x1="210.1" y1="-363.04" x2="221.26" y2="-375.51" gradientTransform="translate(-2.54 -13.22) scale(.56 -.56)" gradientUnits="userSpaceOnUse">
      <stop offset="0" stop-color="#202e46"/>
      <stop offset="1" stop-color="#404f73"/>
    </linearGradient>
    <linearGradient id="_Безымянный_градиент_23" data-name="Безымянный градиент 23" x1="680.57" y1="-177.76" x2="622.45" y2="-215.32" gradientTransform="translate(-2.54 -13.22) scale(.56 -.56)" gradientUnits="userSpaceOnUse">
      <stop offset="0" stop-color="#93b2cf"/>
      <stop offset="1" stop-color="#bbc3cf"/>
    </linearGradient>
    <linearGradient id="_Безымянный_градиент_24" data-name="Безымянный градиент 24" x1="655.97" y1="-203.8" x2="650.19" y2="-198.65" gradientTransform="translate(-2.54 -13.22) scale(.56 -.56)" gradientUnits="userSpaceOnUse">
      <stop offset="0" stop-color="#cddee8"/>
      <stop offset="1" stop-color="#fff"/>
    </linearGradient>
    <linearGradient id="_Безымянный_градиент_25" data-name="Безымянный градиент 25" x1="643.7" y1="-103.56" x2="657.6" y2="-31.29" gradientTransform="translate(-2.54 -13.22) scale(.56 -.56)" gradientUnits="userSpaceOnUse">
      <stop offset="0" stop-color="#0a2b61"/>
      <stop offset="1" stop-color="#486a90"/>
    </linearGradient>
    <linearGradient id="_Безымянный_градиент_26" data-name="Безымянный градиент 26" x1="513.47" y1="-387.3" x2="546.64" y2="-425.5" gradientTransform="translate(-2.54 -13.22) scale(.56 -.56)" gradientUnits="userSpaceOnUse">
      <stop offset="0" stop-color="#9cb1d0"/>
      <stop offset="1" stop-color="#dbe6ee"/>
    </linearGradient>
    <linearGradient id="_Безымянный_градиент_27" data-name="Безымянный градиент 27" x1="607.59" y1="-440.28" x2="625.64" y2="-297.56" gradientTransform="translate(-2.54 -13.22) scale(.56 -.56)" gradientUnits="userSpaceOnUse">
      <stop offset="0" stop-color="#5c83ad"/>
      <stop offset="1" stop-color="#9ba9c8"/>
    </linearGradient>
  </defs>
  <path class="cls-15" d="M159.66,21.54c2.09-1.24,5.46-3.78,7.73-5.35,5.85-4.05,11.93-7.6,18.64-10.27,9.25-3.58,23.64-8.19,33.29-4.66,8.38,3.07,11.2,19,12.64,26.71,2.76,14.74.96,26.46-5.12,40.02,3.63,5.07,13.81,14.98,19.07,18.58,8.2,5.62,13.28-.4,8.98,13.25,4.74,3.43.11,6.95-.23,11.36.58.38,1.34-.05,2.49-.1l.32.3c.07,2.32-2.32,3.83-2.97,5.95-7.25,23.7-26.1,40.78-46.64,53.38,6.38.28,10.32,2.19,16.37,3.11,2.98.45,8.4-1.06,11.58-1.22,2.25-.11,4.92.43,7.22.6,6.15.47,10.38-.86,16.07-2.67,2.13-.98,5.82-2.06,8.19-2.88,1.75-2.73,2.93-3.01,5.59-4.67,4.25-2.64,7.39-4.57,12.24-5.97,1.22-3.38,2.05-7.16,3.43-10.45.97-2.18,2-4,3.15-6.09,4.31-6.62,9.42-11.2,16.14-15.35,3.45-2.13,15.84-3.92,19.6-2.86.86.53,1.46.92,2.4,1.32.84.93,1.51,1.63,2.21,2.68.24.75.49,1.94,1.06,2.37l.53-.38c.51-.62,1.26-1.34,1.83-1.93,1.17-.2,1.56-.18,1.59-.08.03.1-.6.29-.58.44.02.13.54.22,1.97.19-.03-.11-.1-.4.05-.64.22-.33.82-.44,1.39-.1,1.07.24,2.14.49,3.2.76,3.82,1.51,5.09,2.8,6.76,6.65.14.33.28.67.41,1,.33-.4.26-.17.32-.63,2.56-.24,4.86,5.31,4.9,7.69.05,4.06-2.46,6.39-3.22,9.68,2.14,10.49-.31,21.74-6.09,30.69-4.34,6.72-10.4,11.98-16.49,17.02-1.64,1.36-5.33,5.4-7.33,6.08-2.65.44-8.36-.8-11.33-.45-5.22-.34-10.77-.78-15.98-.73-1.11.02-2.2-.22-3.29-.42-.99.69-1.51,1.18-2.4,1.99-7.34,6.14-15.23,11.58-23.58,16.27l-1.57.88c-3.12,1.89-5.94,2.99-9.25,4.48-.6.35-1.76,1.07-2.41,1.16-3.4,5.9-5.21,9.34-12.07,11.21-7.29,1.99-19.12,1.56-22.97,9.18-.93,4.52-.33,12.18-.32,16.65.09,27.14-3.23,54.36.79,81.33,1.37,9.18,4.08,13.58-3.69,20.25-.22.19-.45.38-.68.56.57,2.41,1.11,4.93,1.9,7.27H61.78c1.01-5.36,3.79-8.98,5.48-14.01.28-1.02.45-2.1.62-3.14,1.65-9.98,3.53-19.9,4.91-29.93-4.01-.11-8.61-1.27-12.52-2.15-11.37-2.68-24.1-6.16-33.76-13.22-10.66-7.79-23.78-19.7-26.02-33.38-1.89-11.56,1.95-21.33,8.29-30.66.1-2.17.45-4.47,1.1-6.55.76-2.46,2.11-4.7,3.93-6.52,3.92-3.95,9.05-5.31,13.31-10,3.81-4.18,8.68-7.94,12.58-12.35,6.93-7.5,13.63-15.67,22.02-21.63,7.15-5.08,14.78-10.12,22.77-13.79,2.33-1.07,4.59-2.2,6.87-3.37-3.04-1.32-6.28-2.18-9.38-3.24-20.43-6.99-39.73-18.97-53.73-35.55-1.85-2.19-3.11-3.92-4.38-6.51,2.39-.69,4.32-1.24,6.65-2.14-4.44-3.49-6.7-5.62-8.38-11.01,2.69-1.74,5.47-2.94,8.09-4.64,4.99-3.23,9.66-7.51,14.12-11.47-3.8-6.01-6.77-12.08-9.56-18.6-5.42-12.75-7.35-26.72-5.61-40.46,1.14-8.68,2.57-15.01,11.16-18.65,21.45-9.09,43.19-2.1,63.53,6.21,7.43-4.21,14.83-7.5,23.27-9.09,4.25-.8,7.85-1.02,12.04-1.61,2.28-.32,6.72-1.86,9.08-2.62,2.19,1.29,2.85,2.6,4.14,3.4,1.45.89,5.44,2.6,7.27,3.47Z"/>
  <path class="cls-34" d="M305.15,134.99c.53-.55,1.23-1.08,1.84-1.56l-.33.92c1.18.73,1.54,0,3.05.87l.16.28c.48,1.15,5.67,3.28,6.69,6.11,1.77-.41,2.95.54,3.98.5,1.69,1.05,1.74,1.2,1.6,3.17-.49.97-.62,1.66-.87,2.7.82,1.27,1.62,2.56,2.38,3.86,2.95-.77,5.84-1.74,8.65-2.91.22-.09.13-.07.34-.09,2.22.26,4.1-2.13,6.74-1.32-3.21,3.51-9,8.99-13.99,9.29,3.25.46,10.48-2.56,13.12-4.73.94-.77,3.27-2.61,4.16-3.11l.64-.27c.95.68,1.32,3.59,1.57,4.87.14.68.32,1.71.57,2.33.74.87.88,3.75.49,4.76-2,11.4-8.78,13.52-18.16,18.59-5.7,3.08-12.9,7.6-19.6,7.6-1.66-.02-1.59.09-1.56-1.29.13-5.26-1.11-9.9-3.61-14.55-1.16-2.16-2.13-3.13-3.45-5.03-3.29-2.78-6.21-5.2-9.36-8.16.26-1.35.56-3.26.99-4.51l.8-2.57.74.34c3.44-6.94,6.84-10.93,12.41-16.1Z"/>
  <path class="cls-26" d="M305.15,134.99c2.59.95,7.42,4.29,8.41,7,1.77,4.85.89,13.63-.93,18.31-1.65,4.25-3.86,6.61-8.32,7.37-1.34-.43-3.7-1.44-4.74-1.69-3.29-2.78-6.21-5.2-9.36-8.16.26-1.35.56-3.26.99-4.51l.8-2.57.74.34c3.44-6.94,6.84-10.93,12.41-16.1Z"/>
  <path class="cls-31" d="M291.21,153.32l.8-2.57.74.34c-.26.61-.74,1.93-1.2,2.3l-.34-.07Z"/>
  <path class="cls-6" d="M322.32,167c2.53.29,6.12-.45,8.72-.69,3.53-.32,6.97-2.02,10.01-3.74,1.22-.69,3.5-3.42,4.73-2.98l.18,1.08c-2,11.4-8.78,13.52-18.16,18.59-5.7,3.08-12.9,7.6-19.6,7.6.22-.8.45-1.6.71-2.4,1.88.71,6.63-1.71,8.17-3.05,3.13-2.73,2.82-7.73,3.02-11.55.46-.98-.14-1.42.26-2.36.83-.11.96-.14,1.76-.43l.19-.07Z"/>
  <path class="cls-10" d="M330.96,169.8c.88.03,1.87-.05,2.6.37.07.72-.12.65-.77,1.43-.58.65-.42.69-1.07.77-.57-.65-.61-1.67-.76-2.58Z"/>
  <path class="cls-10" d="M308.91,184.46c.55-7.22,1.15-10.5,6.92-15.17,1.1-.89,1.75-1.91,3.09-2.68l.38.13c.52.75.49,1.96.79,3.11-.2,3.81.1,8.82-3.02,11.55-1.54,1.35-6.29,3.77-8.17,3.05Z"/>
  <path class="cls-3" d="M316.56,141.6c1.77-.41,2.95.54,3.98.5,1.69,1.05,1.74,1.2,1.6,3.17-.49.97-.62,1.66-.87,2.7-.84,4.08-.68,8.69-1.97,12.46-1.47,4.3-5.94,8.35-10,10.27,8.72-9.62,7.7-17.35,7.27-29.11Z"/>
  <path class="cls-3" d="M345.46,155.91c.74.87.88,3.75.49,4.76l-.18-1.08c-1.23-.44-3.51,2.3-4.73,2.98-3.04,1.72-6.48,3.42-10.01,3.74-2.6.24-6.19.98-8.72.69-1.4-.58-2.02-1.16-3.11-2.13,2.35-.62,5.55-1.51,7.92-1.93,6.43-1.16,12.02-1.7,17.62-5.6.68-.47.57-.65.7-1.43Z"/>
  <path class="cls-17" d="M342.67,148.99l.64-.27c.95.68,1.32,3.59,1.57,4.87-.05.94.14,1.78-.91,1.92-.96-.78-2.41-3.28-2.46-4.5.53-.74.81-1.16,1.15-2.01Z"/>
  <path class="cls-38" d="M350.28,134.56c.33-.4.26-.17.32-.63,2.56-.24,4.86,5.31,4.9,7.69.05,4.06-2.46,6.39-3.22,9.68,2.14,10.49-.31,21.74-6.09,30.69-4.34,6.72-10.4,11.98-16.49,17.02-1.64,1.36-5.33,5.4-7.33,6.08-2.65.44-8.36-.8-11.33-.45-5.22-.34-10.77-.78-15.98-.73-1.11.02-2.2-.22-3.29-.42,5.05-3.35,11.2-6.61,14.16-11.9,3.94.27,6.42.19,10.21-1.03,7.85-3.15,12.02-6.61,19.25-10.37,4.87-2.88,7.33-4.98,10.74-9.41.84-1.57,1.52-3.22,2.03-4.93,1.81-5.92,2.29-13.4-.69-19.04,3.27-4.28,3.62-6.99,2.82-12.25Z"/>
  <path class="cls-42" d="M316.13,190.55c7.85-3.15,12.02-6.61,19.25-10.37,0,2.33.07,4.85.03,7.17.51-.55,1.01-1.25,1.65-1.49l.25.2c-4.55,4.14-10.43,5.83-16.54,5.6-1.38-.05-3.55-.25-4.64-1.11Z"/>
  <path class="cls-27" d="M335.38,180.18c4.87-2.88,7.33-4.98,10.74-9.41.13,4.67-5.25,12.55-8.81,15.29l-.25-.2c-.64.25-1.13.94-1.65,1.49.04-2.32-.02-4.84-.03-7.17Z"/>
  <path class="cls-17" d="M335.47,126.34c.21-.07.51-.13.86-.14.29,0,.54.02.73.06,1.15.12,1.76-.12,2.84-.12-.3.56-.61.99-.71,1.59.74.83,2.22.66,2.91,1.2,7.4,5.82,5.98,12.3-1.15,17.03-.38.31-.38.35-.84.51l-.74,1.06c-2.64-.82-4.52,1.58-6.74,1.32-.22.02-.12,0-.34.09-2.81,1.17-5.7,2.15-8.65,2.91-.76-1.31-1.55-2.59-2.38-3.86.26-1.04.38-1.73.87-2.7.15-.04.47-.22.62-.3.43-.63.58-.76.65-1.53-.17-1.89,1.18-2.95,1.91-4.69,2.84-2.13,9.36-7.93,11.34-10.7-.4-.58-.79-1.15-1.19-1.73Z"/>
  <path class="cls-43" d="M336.66,128.06c.65.22,1.38.38,1.86.85-.22,1.11-1.51,2.32-2.25,3.19-3.24,3.82-6.65,7.35-10.95,10.01-.54.34-1.46.92-1.92,1.34-.17-1.89,1.18-2.95,1.91-4.69,2.84-2.13,9.36-7.93,11.34-10.7Z"/>
  <path class="cls-6" d="M336.97,146.31c1.18.19,1.97.4,3.15.16l-.74,1.06c-2.64-.82-4.52,1.58-6.74,1.32,1.64-.75,2.83-1.57,4.33-2.54Z"/>
  <path class="cls-10" d="M336.97,146.31c.95-.84,1.94-1.57,3.22-1.43.36.4.48.63.77,1.08-.38.31-.38.35-.84.51-1.17.24-1.96.03-3.15-.16Z"/>
  <path class="cls-41" d="M292.01,150.75c2.52-7.39,4.68-12.23,10.63-17.61,6.22-6.11,12.4-8.09,21.04-7.09,3.32.38,5.1.84,4.79,4.77-.87,1.76-1.36,2.94-2.79,4.34-3.41.05-5.89,1.52-8.79,1.96-1.48-.2-5.19-1.25-7.01-1.63l-.16-.28c-1.51-.88-1.88-.14-3.05-.87l.33-.92c-.61.49-1.31,1.01-1.84,1.56-5.57,5.17-8.97,9.16-12.41,16.1l-.74-.34Z"/>
  <path class="cls-37" d="M306.99,133.43c2.96-3.96,17.29-3.96,21.46-2.61-.87,1.76-1.36,2.94-2.79,4.34-3.41.05-5.89,1.52-8.79,1.96-1.48-.2-5.19-1.25-7.01-1.63l-.16-.28c-1.51-.88-1.88-.14-3.05-.87l.33-.92Z"/>
  <path class="cls-37" d="M320.54,142.11c1.43-1.09,3.28-2.3,4.78-3.34-.72,1.73-2.08,2.8-1.91,4.69-.07.77-.22.9-.65,1.53-.15.08-.47.27-.62.3.14-1.97.09-2.12-1.6-3.17Z"/>
  <path class="cls-40" d="M316.88,137.12c2.9-.45,5.37-1.91,8.79-1.96-2.43,2.19-5.28,2.13-8.53,1.98h-.26Z"/>
  <path class="cls-41" d="M107.34,32.78c1.96-3.88,21.5-8.74,25.86-9.28,7.06-.88,19.96-3.61,26.05.66,1.01.8,1.3,1.25,1.72,2.48.12,1.17-.04,1.49-.42,2.58,14.92,2.38,27.38,7.44,39.17,16.96,1.41,1.14,6.12,4.59,7.02,6.04,4.01,3.31,9.95,10.22,13.07,14.51,3.46,4.76,6.07,9.57,10.63,13.61,6.36,6.64,11.46,11.38,20.26,14.58-1.71,8.42-6.06,7.26-7.08,10.56,1.76,1.34,4.65.38,6.6-.2-1.59,4.59-7.44,9.98-10.45,13.51,4.36-1.83,5.78-2.33,9.28-5.56-3.34,6.84-10.45,14.07-16.92,18.03v.33s.57.27.57.27c4.91-1.96,8.77-3.94,12.28-8.16-7.86,18.05-27.81,35.32-44.45,45.26-6.99,4.1-14.29,7.65-21.84,10.61-1.18.47-2.51.98-3.73,1.28-3.68,1.57-8.4,2.9-12.36,3.62-2.28.41-4.76.61-7.01,1.13,8.77,2.06,11.95.9,20.32-.55.8,8.09,1.62,21.96-2.84,28.84-1.04.32-1.85.6-2.95.73-1.75.14-2.31.23-4.04-.03-10.01.16-22.17-7.04-30.01-12.76-3.13-2.29-7.5-6.09-9.96-9.03-.3-.2-1.09-1.08-1.38-1.37-3.43-.54-12.07-11.12-14.52-14.03,3.03.69,6.82,1.34,9.66,2.25,8.38,2.56,11.32,2.86,20.07,3.9-7.56-3.67-17.41-6.3-25.54-8.69-2.57-.76-5.68-1.03-8.21-1.83-7.51-2.37-15.17-4.55-22.7-6.79-8.42-2.51-16.26-7.03-23.46-11.99,7.42,1.57,10.65.78,18.05.07-2.22-.72-8.51-.55-11.77-1.37-9.71-2.43-18.19-7.88-25.66-14.42-2.38-2.08-4.75-4.85-6.88-7.14,4.75-.86,11.29-3.34,15.8-5.24-3.44-.65-7.07-1.2-10.3-2.56-3.53-1.38-5.87-3.46-8.66-5.89l2.74-1.21c6.29-4.07,17.77-14.02,23.32-19.33,1.1-1.92,7-8,8.72-10.15,6.86-8.53,12.39-17.59,18.7-26.49.86-1.21,6.31-7.17,6.36-7.56l-.7-.58c1.54-1.24,2.63-2.69,4.67-4.24,3.81-2.58,6.91-5.61,11.29-7.48,1.11-.47,4.34-1.58,4.87-2.39l-.52-.35-.91-.39c1.73-.91,2.57-.04,3.78-2.26-1.93-.92-3.57-1.71-5.57-2.47Z"/>
  <path class="cls-15" d="M174.68,73.25l.31-.13.35.64c.21,2.18.99,5.27,1.47,7.48.28,2.67,1.13,7.65,3.22,9.52.24.21.61.46.94.4,3.97-.74,10.33-16.49,22.53-17.6,2.84-.26,5.41.22,7.91,1.62,5.64,3.14,8.58,8.74,13.15,13.03,5.02,4.71,10.63,9.06,16.05,13.29-2.25,2.55-4.03,5.52-6.08,8.25-2.03,2.71-3.98,4.63-6.44,6.9,2.1-.39,3.14-.81,5.11-1.55-5.08,5.57-11.52,6.92-18.79,6.53,3.8-2.1,4.87-3.67,7.99-5.98-5.66-1.39-15.34-2.08-21.31-2.29-.67-.25-.62-.28-1.31-.14.52,1.13,1.94,1.72,2.39,2.96l-.24.24c-1.76-.51-1.88-1.63-3.45-1.68l-1.95-1.28c-2.64-1.8-4.81-3.16-7.73-4.5-12.68-5.81-26.07-.34-37.18,6.27-3.86,2.3-8.5,5.56-12.82,6.47-3.57.75-8.67-.12-12.44-.5-10.71-1.08-17.23,1.74-26.89,5.39,5.66.38,8.71,1.74,13.89,2.39-.28.1-.57.2-.86.29-17.55,5.6-28.66-1.94-43.42-9.6,4.54.4,5.5.48,9.91-.57-3.15-1.81-7.85-5.51-10.49-6.67l-1.86-1.04c.96-.25,4.59-.16,5.73-.16l3.05.2,1.97-1.71c1.13-1.14,1.71-1.71,2.62-3l5.67-6.02c2.04-1.89,4.35-3.56,6.36-5.38,8.23-7.45,15.64-12.65,27.11-13.71-4.19-1.79-9.33-2.35-13.85-2.44,1.94-.78,3.74-1.63,5.61-2.41,9.77-3.84,20.24.07,28.68,5.23,3.42,2.09,17.81,13.42,20.53,12.18,1.25-2.18.56-8.49.11-10.96-.63-4.35-1.75-6.38-2.39-9.81,1.42,2.85,2.69,5.77,3.83,8.74,1.78,4.56,2.29,6.1,5.14,10.12.44.19.23.07.56.54l.16-.02c.4-1.13.72-1.39,1.66-2.13,2.81-3.54,4.77-12.77,5.46-17.38Z"/>
  <path class="cls-37" d="M166.83,92.26c.44.19.23.07.56.54l.16-.02c.4-1.13.72-1.39,1.66-2.13-.32,2.28-.44,4.4-.58,6.7-.51-1-1.88-4.06-1.8-5.07Z"/>
  <path class="cls-41" d="M122.16,92.18c5.27-.39,8.47.05,13.41,1.69-.96,1.14-1.12,1.36-1.77,2.72.8.42,1.12.39,1.41,1.37.67,2.26.91,3.93,1.9,6.1,1.48,3.23,5.18,4.15,6.49,6.4l3.65-1.76c-9.2,9.96-24.12,6.61-26.26-6.98-.66-2.64.24-6.99,1.17-9.54Z"/>
  <path class="cls-31" d="M122.16,92.18c5.27-.39,8.47.05,13.41,1.69-.96,1.14-1.12,1.36-1.77,2.72l-.16.22c-1.44-.27-3.18-.65-4.62-.81-3.07,1.4-5.61,2.76-7.7,5.5l.02-.36-.36.59c-.66-2.64.24-6.99,1.17-9.54Z"/>
  <path class="cls-21" d="M133.64,96.81c.14-.25.28-.51.42-.76.32.29.74.73,1.16,1.31.27.38.45.69.54.86.76,1.38,2.03,4.31,2.71,5.68,1.02,2.05,2.2,4.34,4.63,5.46.68.31,1.29.46,1.7.53-.61.35-1.5.78-2.63,1.04-1.36.32-2.52.28-3.29.19-2.21-1.09-3.99-2.9-5.05-5.13-1.49-3.09-1.29-6.03-.19-9.19Z"/>
  <path class="cls-41" d="M198.68,87.21c6.06-.49,8.42-.72,9.74,6.18.09.83.12,1.67.11,2.51-.1,7.4-4.2,14.13-12.5,11.07-2.38-.88-3.46-1.77-5.07-3.67.46.25.92.48,1.38.71,2.18,1.05,4.61,1.31,6.92.44,1.79-.66,3.24-2.02,4.01-3.77,1.38-3.09.47-6.17-.62-9.14-1.47-2.34-1.7-2.83-3.97-4.31Z"/>
  <path class="cls-31" d="M198.68,87.21c6.06-.49,8.42-.72,9.74,6.18-1.94-.32-3.72-1.92-5.45-2.2l-.32.33c-1.47-2.34-1.7-2.83-3.97-4.31Z"/>
  <path class="cls-41" d="M193.18,91.98c3.49.04,3.91,3.86.95,5.71-.16,0-.31,0-.47,0-3.69-.15-3.1-3.7-.48-5.7Z"/>
  <path class="cls-41" d="M139.26,97.84c1.09-.56,2.42-.14,3,.93.58,1.08.19,2.42-.88,3.01-.71.4-1.57.38-2.26-.04s-1.1-1.18-1.07-1.99c.03-.81.49-1.54,1.21-1.91Z"/>
  <path class="cls-5" d="M107.34,32.78c1.96-3.88,21.5-8.74,25.86-9.28,7.06-.88,19.96-3.61,26.05.66,1.01.8,1.3,1.25,1.72,2.48.12,1.17-.04,1.49-.42,2.58,14.92,2.38,27.38,7.44,39.17,16.96,1.41,1.14,6.12,4.59,7.02,6.04-.7-.03-.58-.12-1.26-.63.39,1.11,5.99,9,6.99,10.32-4.71-2.54-10.66-4.97-16-3.28-6.54,2.07-12.15,7.63-14.72,13.86,1.24-6.84,3.68-9.18,6.22-15.04-8.66,7.37-11.07,12.44-11.17,23.79-.48-2.21-1.26-5.3-1.47-7.48l-.35-.64-.31.13c-.68,4.61-2.65,13.85-5.46,17.38-.94.74-1.26,1.01-1.66,2.13l-.16.02c-.33-.47-.12-.35-.56-.54-2.85-4.02-3.36-5.56-5.14-10.12-1.14-2.97-2.41-5.89-3.83-8.74.64,3.43,1.75,5.47,2.39,9.81-5.99-10.65-15.51-19.86-27.86-23.67-14.71-4.54-32.13,9.01-43.57,17.1-2.98,2.11-6.57,7.74-9.36,10.33-6.34,6.91-13.21,13.34-21.5,17.84-.73.74-2.75,1.67-3.76,2.14l.06-.67c-.57-.74-1.38-.54-2.27-1.28-.88.79-1.09,1.12-2.28,1.08,1.29-1.43,6.95-7.23,6.96-8.94,1.1-1.92,7-8,8.72-10.15,6.86-8.53,12.39-17.59,18.7-26.49.86-1.21,6.31-7.17,6.36-7.56l-.7-.58c1.54-1.24,2.63-2.69,4.67-4.24,3.81-2.58,6.91-5.61,11.29-7.48,1.11-.47,4.34-1.58,4.87-2.39l-.52-.35-.91-.39c1.73-.91,2.57-.04,3.78-2.26-1.93-.92-3.57-1.71-5.57-2.47Z"/>
  <path class="cls-41" d="M107.34,32.78c1.96-3.88,21.5-8.74,25.86-9.28,7.06-.88,19.96-3.61,26.05.66,1.01.8,1.3,1.25,1.72,2.48.12,1.17-.04,1.49-.42,2.58-1-.04-1.1-.09-1.93.39l-.2.18c-1.21,1.27-1.81,1.59-3.5,2.07-1.26-.56-2.08-.74-2.79-1.89l.24.03.07-.37-.6-.49c-1.76-.2-2.99-.7-4.62-1.34l-.13-.27c.48-.35,1.03-.49,1.6-.68l.33-.16c-1.08-.82-1.4-1.12-2.68-1.61l-.24.08c-3.1-.63-26.22,4.97-30.57,6.28-1.33.39-2.47.68-3.83.99-1.05.12-3.38.42-4.37.35Z"/>
  <path class="cls-3" d="M149.02,26.69c1.13-.62,4.38-2.23,8.37-1.43,1.5.3,2.71.86,3.58,1.38.05.05.6.56.5,1.34-.1.85-.88,1.22-.92,1.24-1-.04-1.1-.09-1.93.39l-.2.18c-1.21,1.27-1.81,1.59-3.5,2.07-1.26-.56-2.08-.74-2.79-1.89l.24.03.07-.37-.6-.49c-1.76-.2-2.99-.7-4.62-1.34-.27-.14-.53-.27-.8-.41.09-.16.35-.58.88-.81.84-.36,1.62.06,1.71.11Z"/>
  <path class="cls-21" d="M151.84,29.14c2.03-.42,4.69-.1,6.58.65-1.21,1.27-1.81,1.59-3.5,2.07-1.26-.56-2.08-.74-2.79-1.89l.24.03.07-.37-.6-.49Z"/>
  <path class="cls-37" d="M159.25,24.16c1.01.8,1.3,1.25,1.72,2.48-.64.3-3.11-.17-3.99-.29-2.82-.37-5.25.2-7.97.34-1.08-.82-1.4-1.12-2.68-1.61,3.16-.64,5.99-.97,9.21-.96,1.05,0,2.83.33,3.7.04Z"/>
  <path class="cls-43" d="M147.22,27.8c1.63.64,2.86,1.15,4.62,1.34l.6.49-.07.37-.24-.03c.71,1.15,1.53,1.33,2.79,1.89,3.39,2.04,7.18,3.59,10.69,5.64l-.89.5c-1.63-.64-4.66-.65-6.04-1.28-5.67-2.59-9.97-4.69-16.2-6.02-.57-.15-1.1-.24-1.57-.58.49-.53,4.31-1.06,5.97-1.96l-.06-.08.41-.3Z"/>
  <path class="cls-9" d="M158.63,29.61c.1.08.2.16.31.24,4.33,2.63,8.65,4.64,11.2,9.34-.41-.15-4.44-1.68-4.52-1.7-3.51-2.04-7.3-3.6-10.69-5.64,1.69-.48,2.29-.8,3.5-2.07l.2-.18Z"/>
  <path class="cls-32" d="M142.47,30.7c6.23,1.33,10.53,3.43,16.2,6.02,1.38.63,4.41.64,6.04,1.28l-.21.19c-1.55.04-6.54.52-7.55.3-3.37-.72-12.05-5.74-14.49-7.79Z"/>
  <path class="cls-44" d="M112.92,35.26l10.9,4.69c-2.36-.33-12.42-2.19-13.77-2.04l-.91-.39c1.73-.91,2.57-.04,3.78-2.26Z"/>
  <path class="cls-32" d="M51.98,105c.63-1.17,3.56-3.7,4.99-3.54,1.17,1.3-.66,2.06-.15,3.45.46-.01.68-.04,1.13-.1-.73.74-2.75,1.67-3.76,2.14l.06-.67c-.57-.74-1.38-.54-2.27-1.28Z"/>
  <path class="cls-17" d="M115.53,31.43c1.17.12,4.5-.05,4.84.31-.98.91-4.5,1.73-5.78,1.78.54-.54,1.07-1.02,1.36-1.73-1.18.33-2.85.86-4.02.91l-.22-.28c1.36-.31,2.49-.6,3.83-.99Z"/>
  <path class="cls-37" d="M146.11,25.16l.24-.08c1.27.49,1.6.79,2.68,1.61l-.33.16c-1.58-.06-2.89-.07-4.28-.87l1.7-.82Z"/>
  <path class="cls-21" d="M144.41,25.98c1.39.8,2.7.81,4.28.87-.57.19-1.12.33-1.6.68-.8-.13-2.89-.69-3.49-1.21l.8-.34Z"/>
  <path class="cls-10" d="M174.68,73.25c.04-.86.09-1.71.16-2.57l.36-.27c.31.76.18,2.49.14,3.35l-.35-.64-.31.13Z"/>
  <path class="cls-12" d="M39.14,118.77c-.56-.89-1-1.54-1.62-2.4,3.54,1.18,7.13,2.19,10.77,3.05,5.36,1.25,10.24,2.06,15.44,4.02,5.64,2.13,8.25,5.79,14.01,7.49,7.81,2.32,15.7,1.98,23.4,3.23-5.5,2.12-16.26,3.37-22.03,5.14,2.01.77,5.16,1.99,7.21,2.32,5.95.94,13.21.62,19.16-.16-4.11,1.6-6.98,2.66-11.22,3.73-3.31.83-8.14,1.57-11.22,2.56,2.59.49,6.63,1.26,9.2,1.54,7.69.83,8.57,0,14.64,4.69-5.4-.59-10.01-1.4-15.43-.52,13.7,5.78,26.48,12.93,40.32,18.34,1.44.56,5.51,2.48,6.82,2.72,1.51,1.87,12.17,4.9,14.89,5.1,6.84.5,13.95-.19,20.72-1.06.3-.04,1.08.35,1.51.42l.43.8c-.51.87-.95.03-1.2,1.07-3.68,1.57-8.4,2.9-12.36,3.62-2.28.41-4.76.61-7.01,1.13,8.77,2.06,11.95.9,20.32-.55.8,8.09,1.62,21.96-2.84,28.84-1.04.32-1.85.6-2.95.73-1.75.14-2.31.23-4.04-.03-10.01.16-22.17-7.04-30.01-12.76-3.13-2.29-7.5-6.09-9.96-9.03-.3-.2-1.09-1.08-1.38-1.37-3.43-.54-12.07-11.12-14.52-14.03,3.03.69,6.82,1.34,9.66,2.25,8.38,2.56,11.32,2.86,20.07,3.9-7.56-3.67-17.41-6.3-25.54-8.69-2.57-.76-5.68-1.03-8.21-1.83-7.51-2.37-15.17-4.55-22.7-6.79-8.42-2.51-16.26-7.03-23.46-11.99,7.42,1.57,10.65.78,18.05.07-2.22-.72-8.51-.55-11.77-1.37-9.71-2.43-18.19-7.88-25.66-14.42-2.38-2.08-4.75-4.85-6.88-7.14,4.75-.86,11.29-3.34,15.8-5.24-3.44-.65-7.07-1.2-10.3-2.56l.17-.13c.42-.72.37-4.15-.29-4.68Z"/>
  <path class="cls-43" d="M122.03,188.63c5.39,1.93,10.99,5.86,16.46,8,.53.81,2.33,1.44,3.25.9l.03-.34c-.97-.9-1.86-1.7-2.74-2.69,7.72-.81,14.16.51,21.51,2.73,10.52,3.18,11.84,5.93,8.93,16.21.15.7.15.65.66,1.16-1.75.14-2.31.23-4.04-.03-10.01.16-22.17-7.04-30.01-12.76-3.13-2.29-7.5-6.09-9.96-9.03-.3-.2-1.09-1.08-1.38-1.37-.9-1.02-1.73-1.83-2.7-2.78Z"/>
  <path class="cls-42" d="M122.03,188.63c5.39,1.93,10.99,5.86,16.46,8,.53.81,2.33,1.44,3.25.9l.03-.34.37.32c-.31,2.29,6.37,7.63,8.13,9.19-4.38-1.76-8.82-3.55-13.06-5.62l-1.14.73c-3.13-2.29-7.5-6.09-9.96-9.03-.3-.2-1.09-1.08-1.38-1.37-.9-1.02-1.73-1.83-2.7-2.78Z"/>
  <path class="cls-32" d="M126.11,192.79l.36-.13c3.29,1.93,7.06,5.96,10.73,8.44l-1.14.73c-3.13-2.29-7.5-6.09-9.96-9.03Z"/>
  <path class="cls-42" d="M165.68,211.56c.49-.51,1.06-.96,1.6-1.42.85,1.6.97,1.96,2.18,3.3.15.7.15.65.66,1.16-1.75.14-2.31.23-4.04-.03.89,0,1.84.11,2.57-.32-.15-.56-2.27-2.09-2.97-2.7Z"/>
  <path class="cls-10" d="M110.21,177.39c3.03.69,6.82,1.34,9.66,2.25l-.3.33c1.28,1.63,4.56,4.06,6.2,5.52,2.55,2.28,5.04,4.63,7.65,6.83.83.7,4.72,3.72,5.06,4.31-5.47-2.14-11.07-6.07-16.46-8,.98.95,1.8,1.76,2.7,2.78-3.43-.54-12.07-11.12-14.52-14.03Z"/>
  <path class="cls-15" d="M184.09,137.74c-4.38-1.14-6.7-2.36-10.41-4.96-22.93-16.13,14.73-18.76,24.27-16.04.83.49,1.23.75,1.98,1.35,1.7-.03,1.93,1.36,3.78,1.89,1.05,1.04,1.41,1.7,2.14,2.99.91,3.02,1.34,5.11.33,8.16l1.4.12c-2.48,11.56-11.13,15.71-22.08,16.46-6.12,5.01-12.4,14.93-20.03,16.71-21.42,4.99-31.11-16.84-35.58-32.85-2.45.43-3.61.8-5.9,1.77,3.56-3.63,8.25-7.35,13.73-6.2l-.24.29c-2.03.14-2.49.64-3.99,2.04,3.67,4.35,6.74,7.9,11.84,10.83,8.86,5.11,19.63,7.08,29.62,4.48,4.56-1.19,6.86-3.06,9.13-7.03Z"/>
  <path class="cls-41" d="M199.94,118.08c1.7-.03,1.93,1.36,3.78,1.89,1.05,1.04,1.41,1.7,2.14,2.99.91,3.02,1.34,5.11.33,8.16-2.01,5.4-10.08,13.44-16.74,11.61-1.87-.52-3.31-3.64-4.15-5.33,1.28-.33,2.98-.75,4.15-1.35,5.46-2.77,13.76-11.34,10.49-17.96Z"/>
  <path class="cls-36" d="M140.23,145.35c8.77-.71,14.1,3.01,22,5.88,2.09.76,5.08.36,6.65,2.05.87,2.27-.99,6.29-3.06,7.54-9.77,4.04-19.94-1.72-25.48-9.91-.89-1.32-2.25-3.31-2.22-4.93.6-.53,1.21-.47,2.11-.63Z"/>
  <path class="cls-42" d="M186.27,118.84c2.68-.45,8.03-.85,10.5.31l.29.38c-.54,1.21-1.75,1.36-3.01,1.44-3.28.89-16,2.66-18.6,1.01l.03-.41c1.74-1.41,5.14-1.94,7.34-2.24,1.1-.19,2.33-.33,3.45-.49Z"/>
  <path class="cls-41" d="M186.27,118.84c2.68-.45,8.03-.85,10.5.31l.29.38c-.54,1.21-1.75,1.36-3.01,1.44-2.54-.71-4.29-1.25-6.96-1.22-.77-.41-.51-.11-.82-.91Z"/>
  <path class="cls-43" d="M182.83,119.33c1.1-.19,2.33-.33,3.45-.49.31.8.05.5.82.91-1.56.07-2.8.12-4.26-.42Z"/>
  <path class="cls-22" d="M232.69,131.87c4.91-1.96,8.77-3.94,12.28-8.16-7.86,18.05-27.81,35.32-44.45,45.26-6.99,4.1-14.29,7.65-21.84,10.61-1.18.47-2.51.98-3.73,1.28.25-1.04.7-.2,1.2-1.07l-.43-.8c-.43-.07-1.21-.46-1.51-.42-6.78.87-13.88,1.56-20.72,1.06-2.71-.2-13.38-3.23-14.89-5.1,4.22.88,7.76,2.11,12.19,2.77,17.78,2.62,34.55-5.41,48.46-15.77l-1.92,1.82c.87-.05,6.54-3.27,7.49-3.92,9.09-6.23,18.25-13.32,24.71-22.38.64-.9,2.12-2.71,2.31-3.64l-.35-.43c.39-.24.7-.41,1.1-.62l.11-.49Z"/>
  <path class="cls-31" d="M73.83,106.46c2.34-.22,7.26-5.38,11.87-5.78l-5.67,6.02c-.92,1.29-1.5,1.87-2.62,3-2.02-.2-2.46-.42-3.99-1.74l.09-1.26.33-.25Z"/>
  <path class="cls-37" d="M73.83,106.46c3.05.39,3.54,1.3,6.19.25-.92,1.29-1.5,1.87-2.62,3-2.02-.2-2.46-.42-3.99-1.74l.09-1.26.33-.25Z"/>
  <path class="cls-43" d="M30.6,117.69l2.74-1.21c.41.16,1,.3,1.42.22,1.96-.36,2.77,2.01,4.38,2.06.66.54.72,3.97.29,4.68l-.17.13c-3.53-1.38-5.87-3.46-8.66-5.89Z"/>
  <path class="cls-32" d="M64.47,110.27c3.05-1.05,6.05-2.32,9.02-3.57l-.09,1.26c1.53,1.32,1.96,1.53,3.99,1.74l-1.97,1.71-3.05-.2c-1.14,0-4.77-.09-5.73.16-.96-.04-1.38-.51-2.17-1.1Z"/>
  <path class="cls-31" d="M73.41,107.97c1.53,1.32,1.96,1.53,3.99,1.74l-1.97,1.71-3.05-.2c-.68-.08-1.31-.06-1.86-.43l.19-.55c1.07-.76,1.74-1.38,2.71-2.27Z"/>
  <path class="cls-10" d="M198.48,114.73c1.57.04,1.69,1.17,3.45,1.68l.24-.24c-.46-1.24-1.87-1.83-2.39-2.96.69-.14.64-.11,1.31.14l-.08.45c1.81,2.04,3.24,3.58,4.63,5.96.19,1.18.42,2.02.21,3.19-.72-1.28-1.09-1.95-2.14-2.99-1.84-.53-2.08-1.91-3.78-1.89-.75-.6-1.15-.86-1.98-1.35.24-.34.2-.33.34-.74-.63-1.23-1.57-.95-2.21-2.05l.44-.49,1.95,1.28Z"/>
  <path class="cls-31" d="M196.52,113.46l1.95,1.28c.87.67,1.83,1.48,2.81,2.46.97.97,1.77,1.91,2.43,2.78-.09-.01-.24-.04-.43-.1-1.03-.3-1.35-.97-2.32-1.45-.21-.11-.56-.25-1.03-.35-.24-.2-.51-.41-.81-.62-.5-.34-.97-.6-1.4-.8.07-.08.15-.19.23-.31.08-.13.14-.26.18-.36-.16-.3-.35-.5-.52-.65-.44-.37-.79-.35-1.15-.72-.21-.21-.32-.46-.38-.68l.44-.49Z"/>
  <path class="cls-43" d="M51.98,105c.89.74,1.7.54,2.27,1.28l-.06.67c-3.32,1.92-8.35,4.21-11.84,5.81,2.41-1.91,4.85-4.59,7.35-6.68,1.18.04,1.4-.29,2.28-1.08Z"/>
  <path class="cls-32" d="M205.43,119.41c.72,1.09,1.85,3.08,2.33,5.83.49,2.85.06,5.17-.28,6.45-.5-.03-.99-.05-1.49-.08.33-.83.68-2,.77-3.43.15-2.35-.48-4.21-.91-5.22-.06-.64-.13-1.28-.21-1.94-.07-.54-.14-1.08-.21-1.6Z"/>
  <path class="cls-43" d="M61.57,111.28c.95-.36,1.94-.68,2.91-1.01.79.59,1.2,1.05,2.17,1.1l1.86,1.04c-1.68.09-4.79-.87-6.93-1.14Z"/>
  <path class="cls-32" d="M231.48,132.98l.35.43c-2.51,1.57-3.65,2.17-6.48,2.99,2.02-1.17,4.07-2.31,6.13-3.42Z"/>
  <path class="cls-24" d="M200.88,197.85c1.39,2.28,3.69,5.15,2.89,7.7-.36,1.13.78,1.55.34,2.98.92,3.15,3.45,11.92,3.15,14.95l-.08-.1c.01,2.37.36,2.56.59,4.49,1.43,9.45,3.21,19.72,3.39,29.25.44,22.73-.61,45.46-.33,68.21.09,5.67.39,11.34.92,16.99,1.78,17.76,3.9,18.85-16.73,22.38-5.85,1-12.04.7-17.92,1.67-3.48.41-14.44,2.15-17.22,2.04-1.18.42-8.33.69-9.98.78-18.88,1.05-37.82-.15-56.41-3.57-3.1-.57-10.59-2.02-12.95-3.86-1.69-1.07-3.11-1.94-4.86-2.92,0-7.46,1.45-18.14,2.79-25.6-.19-.68.13-4.8.19-5.86,1.92-.1,6.14-.63,7.75-.48,3.05.28,5.22.95,8.51.96,5.56.03,9.9-.82,15.29-1.79,2.22-.4,5.61-.33,7.9-.79,3.58-.73,8.86-2.25,11.88-4.38,1.35-.95,3.59-3.07,4.99-3.6,4.39-1.67,6.76-1.27,10.47-4.64,3.87-3.5,4.18-5.82,6.79-9.94.85-1.35,2.81-2.8,4.13-3.85.09-.2.56-.8.72-1.04,3.39-5.31,5.2-9.33,4.03-15.54,3.53-9.27,2.57-12.14-1.29-20.79,1.49-1.35,4.3-3.18,6.01-4.54,3.5-2.79,6.69-5.61,9.83-8.81,2.89-2.95,5.12-6.98,7.62-10.04l.24-.29c5.71-9.99,9.49-21.95,9.01-33.54.48-1.4,5.58-4.78,7.03-5.21.92.17.54-.03,1.19.62l.14-1.83Z"/>
  <path class="cls-25" d="M200.88,197.85c1.39,2.28,3.69,5.15,2.89,7.7-.36,1.13.78,1.55.34,2.98.92,3.15,3.45,11.92,3.15,14.95l-.08-.1c.01,2.37.36,2.56.59,4.49l-.34-.02.02.39c.13,2.26,1.32,7.51,1.3,9.18-.07,5.71-1.06,8.03.18,13.6.56,2.49.53,14.43-.03,16.38l-.14-4.46c-4.73,20.69-16.95,37.05-32.35,51.17-4.59,4.21-9.23,8.39-14.51,11.76-2.04,1.3-4.28,2.38-6.39,3.58-.05.04-.1.09-.15.13-13.38,8.99-30.84,20.4-47.55,13.85-3.4-1.33-5.24-2.87-7.31-5.41,2.89.31,7.31.4,10.2-.13,18.21-3.33,37.12-10.02,50.36-23.48.9-.92,3.38-3.02,3.81-4.12-1.46.98-5.1,5.71-6.72,5.92-3.75-2.13-8.6,3.07-11.32-2.66-.74-1.56,2.42-4.02,3.13-5.47.84-1.74,1.55-3.71,2.63-5.32,1.18-1.59,2.84-1.81,3.75-3.88.09-.2.56-.8.72-1.04,3.39-5.31,5.2-9.33,4.03-15.54,3.53-9.27,2.57-12.14-1.29-20.79,1.49-1.35,4.3-3.18,6.01-4.54,3.5-2.79,6.69-5.61,9.83-8.81,2.89-2.95,5.12-6.98,7.62-10.04l.24-.29c5.71-9.99,9.49-21.95,9.01-33.54.48-1.4,5.58-4.78,7.03-5.21.92.17.54-.03,1.19.62l.14-1.83Z"/>
  <path class="cls-2" d="M192.86,204.09c1.48-1.12,5.27-4.24,6.92-4.62l.33.19c-.18,8.11-4.78,14.35-8.77,21.03-.69,1.15-.78,4-1.27,5.34-4.39,12.12-11.14,22.86-20.67,31.62-1.06.97-2.18,2.23-3.04,3.44,1.67,8.28,1.12,14.28.06,22.55-.41,3.24-.2,10.69,2.97,12.57.94-1.24,4.07-4.25,5.3-5.56,2.44-2.58,4-4.59,6.16-7.44.56-1.09,4.5-6.65,5.53-8.24.45-.71,3.02-5.24,3.31-5.5-.56,2.05-1.37,3.61-2.01,5.52-2.09,5.74-6.45,13.84-9.79,19.11.72.82-1.99,4.99-2.58,6.08-1.41,2.62-2.93,5.27-4.54,7.77-5.43,7.68-16.56,18.15-24.27,23.48,2.64-.45,6.89-2.12,9-2-.05.04-.1.09-.15.13-13.38,8.99-30.84,20.4-47.55,13.85-3.4-1.33-5.24-2.87-7.31-5.41,2.89.31,7.31.4,10.2-.13,18.21-3.33,37.12-10.02,50.36-23.48.9-.92,3.38-3.02,3.81-4.12-1.46.98-5.1,5.71-6.72,5.92-3.75-2.13-8.6,3.07-11.32-2.66-.74-1.56,2.42-4.02,3.13-5.47.84-1.74,1.55-3.71,2.63-5.32,1.18-1.59,2.84-1.81,3.75-3.88.09-.2.56-.8.72-1.04,3.39-5.31,5.2-9.33,4.03-15.54,3.53-9.27,2.57-12.14-1.29-20.79,1.49-1.35,4.3-3.18,6.01-4.54,3.5-2.79,6.69-5.61,9.83-8.81,2.89-2.95,5.12-6.98,7.62-10.04l.24-.29.38.08c.42-.57,1.31-2.27,1.7-2.99,5.24-9.58,7.29-20.02,7.26-30.81Z"/>
  <path class="cls-6" d="M180.86,283.21l.09.4c-2.1,3.14-4.12,5.31-6.63,8.07-.88.96-1.25,3.64-1.6,4.64-.7,1.98-5.67,5.95-7.41,7.21-.46.7-1.22,1.14-1.98,1.48-1.87.83-2.84,2.73-4.48,3.68.37-.91,3.46-3.55,4.26-4.56,1.45-1.83,5.29-6.05,6.29-7.93.94-1.24,4.07-4.25,5.3-5.56,2.44-2.58,4-4.59,6.16-7.44Z"/>
  <path class="cls-6" d="M186.39,274.97c.45-.71,3.02-5.24,3.31-5.5-.56,2.05-1.37,3.61-2.01,5.52-2.09,5.74-6.45,13.84-9.79,19.11-1.17,1.26-2.06,2.69-3.02,4.12-.23-.91,3.1-4.63,3.62-5.63.84-1.62-1.47-3.79,1.51-4.74.42.31.44.34.92.53.92-1.26.02-1.6,1.04-2.95,2.1-2.75,3.94-6.68,5.11-9.95l-.7-.53Z"/>
  <path class="cls-6" d="M165.31,303.54l1.23.1c.28.49.24.22.2.79l-.84.39c-.52-.32-.39-.46-.59-1.29Z"/>
  <path class="cls-42" d="M200.88,197.85c1.39,2.28,3.69,5.15,2.89,7.7-.36,1.13.78,1.55.34,2.98.92,3.15,3.45,11.92,3.15,14.95l-.08-.1c.01,2.37.36,2.56.59,4.49l-.34-.02c-.09-.2-.79-3.11-.95-3.65-1.76-5.82-2.79-11.63-3.87-17.6-.31-1.73-1.75-4.85-1.65-6.17l-.23-.73.14-1.83Z"/>
  <path class="cls-6" d="M200.88,197.85c1.6,1.8,2.48,3.52,2.98,4.68,1.15,2.7.9,4.1.81,4.51-.14.64-.37,1.14-.55,1.48-1.07-2.41-2.19-5.6-3.15-8.11l-.23-.73.14-1.83Z"/>
  <path class="cls-23" d="M207.44,227.84l.34.02c1.43,9.45,3.21,19.72,3.39,29.25.44,22.73-.61,45.46-.33,68.21.09,5.67.39,11.34.92,16.99,1.78,17.76,3.9,18.85-16.73,22.38-5.85,1-12.04.7-17.92,1.67-3.48.41-14.44,2.15-17.22,2.04,2.08-.88,12.8-2.01,15.48-2.23-1.76-.79-3.53-1.77-5.32-2.61,1.67-.88,7.62-1.05,9.65-1.67,2.43-.74,4.58-.84,6.99-1.12l.38-.05c1.84-.53,6.67-4.03,8.3-5.25,9.07-6.74,9.56-21.3,10.58-31.92.04,1.48.04,3.59.27,5l.14.1.19-1.11c-.23-4.28-.03-8.51.17-12.79.27-1.93.37-4.36.43-6.34.27-9.49.88-18.94,1.39-28.42.23-4.21-.03-8.42.37-12.62.56-1.95.59-13.9.03-16.38-1.25-5.56-.25-7.88-.18-13.6.02-1.67-1.17-6.92-1.3-9.18l-.02-.39Z"/>
  <path class="cls-2" d="M187.06,360.73c1.84-.53,6.67-4.03,8.3-5.25,9.07-6.74,9.56-21.3,10.58-31.92.04,1.48.04,3.59.27,5l.14.1.19-1.11c.26,4.22.51,7.13,1.19,11.28.51,3.12,1.64,8.58,1.67,11.63-2.18,2.45-7.95,6.07-11.17,7.17-2.82.96-12.5,6.47-14.48,6.14l-.15-.44c.73-1.18,2.25-1.95,3.45-2.59Z"/>
  <path class="cls-42" d="M78.47,333.24c.29,2.64.02,6.06.45,8.41,1.41,7.78,4.91,11.97,1.63,20.11-1.69-1.07-3.11-1.94-4.86-2.92,0-7.46,1.45-18.14,2.79-25.6Z"/>
  <path class="cls-6" d="M205.95,323.56c-.14-2.94.49-8.85.57-12.35.15,1.28.17,2.28.21,3.56-.2,4.28-.4,8.5-.17,12.79l-.19,1.11-.14-.1c-.24-1.4-.23-3.52-.27-5Z"/>
  <path class="cls-2" d="M191.53,337.43c.45.39.47.35.63.91-.42,1.2-1.14,1.8-2.13,2.6-.42-.05-.7,0-1.12.05l-.15-.18c1.35-1.03,1.6-1.98,2.77-3.37Z"/>
  <path class="cls-17" d="M83.59,185.34c3.74-.71,8.87,2.15,12,4.08,4.31,2.67,9.55,9.75,12.04,14.3,9.42,14.62,17.7,29.93,24.79,45.8.86,1.27,1.1,1.99,1.63,3.42-2.65,1.37-4.64,3.48-7.32,4.55-1.62.65-4.28,1.1-6.07,1.51-2.8.65-5.51,1.64-8.07,2.95-8.62,4.29-14.31,10.04-21.71,15.87-2.45-.82-5.13-1.77-7.59-2.48,9.52-14.57,14.65-27.63,14.25-45.22-1.31,2.84-1.91,8.34-3.01,10.44-3.09,5.85-8.68,16.71-13.14,21.56-.68.42-1.15.66-1.71,1.22-.95-1.22-1.45-2.72-2.92-4.48-2.17,3.38-3.51,3.56-7.09,5.2-9.75-9.55-18.92-17.18-32.45-20.8-7.82-2.09-13.93-3.79-21.91-.91l.17-.33c2.79-5.3,7.82-7.48,13.25-9.17.54-.66,1.23-1.29,1.84-1.9,7.09-5.71,12.76-12.3,18.76-19.11,6.2-7.7,10.89-11.63,18.65-17.28,1.94-4.9,10.96-8.14,15.62-9.24Z"/>
  <path class="cls-25" d="M83.59,185.34c3.74-.71,8.87,2.15,12,4.08,4.31,2.67,9.55,9.75,12.04,14.3,9.42,14.62,17.7,29.93,24.79,45.8.86,1.27,1.1,1.99,1.63,3.42-2.65,1.37-4.64,3.48-7.32,4.55-1.62.65-4.28,1.1-6.07,1.51-2.8.65-5.51,1.64-8.07,2.95-8.62,4.29-14.31,10.04-21.71,15.87-2.45-.82-5.13-1.77-7.59-2.48,9.52-14.57,14.65-27.63,14.25-45.22-1.31,2.84-1.91,8.34-3.01,10.44-3.09,5.85-8.68,16.71-13.14,21.56-1.17-2.22-2.66-4.9-3.64-7.15,6.31-7.95,7.49-28.06,7.47-37.86,3.94,5.55,6.32,16.78,6.67,23.64,2.31-9.85,2.71-19.16-.74-28.84-3.63-10.19-8.18-15.72-18.67-18.65-.15-.16-.06-.04-.1-.43.75-.43,1.45-.79,2.22-1.17l.28-.39c1.77-1.83,5.46-2.53,7.77-3.79,1.15-.63,2.09-1.28,3.19-1.89-.38-.32-1.61-.24-2.25-.26Z"/>
  <path class="cls-6" d="M74.6,191.67c6.22.02,10.32,4.02,14.14,8.51,1.17,1.37,2.07,3.82,3.47,4.89,2.51,7.79,4.81,11.45,5.78,20.37.61-2.88,1.24-5.8,1.48-8.74.51,4.3,2.14,8.33,2.8,12.67,1.32,8.66.79,17.46.26,26.17-.09,1.45-.85,8.25-1.31,9.31l.33.38-.44-.14c-.02-1.74.54-4.14.72-5.95.34-3.43.75-7.53.74-10.98-.64.49-1.01,2.32-2.06,3.05-.37.43-1.92,1.7-1.99,2.12-.62,3.47-.56,6.92-1.16,10.42-.35,2.06-3.4,9.07-2.87,10.4.53-.08,7.94-6.51,9.2-7.39,7.26-5.06,13.61-8.02,22.34-9.5,1.52-.26,5.78-3.67,7.39-4.68-.41-.89-.97-2.07-.98-3.05.86,1.27,1.1,1.99,1.63,3.42-2.65,1.37-4.64,3.48-7.32,4.55-1.62.65-4.28,1.1-6.07,1.51-2.8.65-5.51,1.64-8.07,2.95-8.62,4.29-14.31,10.04-21.71,15.87-2.45-.82-5.13-1.77-7.59-2.48,3.8-6.97,7.88-16.03,10.83-27.03,1.78-6.63,2.82-12.76,3.42-18.19-.91,4.31-2.48,9.74-5.29,15.64-3.44,7.22-7.55,12.64-10.86,16.37-1.17-2.22-2.66-4.9-3.64-7.15,6.31-7.95,7.49-28.06,7.47-37.86,3.94,5.55,6.32,16.78,6.67,23.64,2.31-9.85,2.71-19.16-.74-28.84-3.63-10.19-8.18-15.72-18.67-18.65-.15-.16-.06-.04-.1-.43.74-.39,1.48-.78,2.22-1.17Z"/>
  <path class="cls-2" d="M83.59,185.34c3.74-.71,8.87,2.15,12,4.08,4.31,2.67,9.55,9.75,12.04,14.3-.12.19-.06.07-.12.41l-.05.29c-.95-.51-1.94-.93-2.92-1.38-5.84-2.67-11.42-5.66-17.44-7.94-.23-.24-3.25-1.87-3.8-2.21-2.56-1.57-5.49-1.54-8.41-1.62,1.77-1.83,5.46-2.53,7.77-3.79,1.15-.63,2.09-1.28,3.19-1.89-.38-.32-1.61-.24-2.25-.26Z"/>
  <path class="cls-7" d="M28.72,232.87c.54-.66,1.23-1.29,1.84-1.9l.55.09c2.71-.03,5.65.7,8.29,1.29,10.72,2.4,20.82,6.95,29.6,13.58,2.95,2.23,6.86,5.89,8.73,9.05.98,2.26,2.47,4.93,3.64,7.15-.68.42-1.15.66-1.71,1.22-.95-1.22-1.45-2.72-2.92-4.48-2.17,3.38-3.51,3.56-7.09,5.2-9.75-9.55-18.92-17.18-32.45-20.8-7.82-2.09-13.93-3.79-21.91-.91l.17-.33c2.79-5.3,7.82-7.48,13.25-9.17Z"/>
  <path class="cls-6" d="M28.72,232.87c.54-.66,1.23-1.29,1.84-1.9l.55.09c2.71-.03,5.65.7,8.29,1.29,10.72,2.4,20.82,6.95,29.6,13.58,2.95,2.23,6.86,5.89,8.73,9.05.98,2.26,2.47,4.93,3.64,7.15-.68.42-1.15.66-1.71,1.22-.95-1.22-1.45-2.72-2.92-4.48-10.07-12.94-22.5-21.62-38.8-24.92-3.2-.65-5.91-1.37-9.24-1.09Z"/>
  <path class="cls-25" d="M67.97,194.58c1.94-4.9,10.96-8.14,15.62-9.24.64.02,1.87-.06,2.25.26-1.1.62-2.04,1.27-3.19,1.89-2.31,1.25-6,1.95-7.77,3.79l-.28.39c-.77.39-1.47.75-2.22,1.17.04.39-.05.27.1.43-3.96,1.81-9.24,7.92-12.48,11-1.15,1.09-2.45,1.98-3.73,2.89-.84.6-1.04,1.19-2.02.99-1.51,1.4-3.01,2.81-4.49,4.24l-.44-.54c6.2-7.7,10.89-11.63,18.65-17.28Z"/>
  <path class="cls-27" d="M67.97,194.58c1.5-.82,2.35-1.35,3.99-1.78-4.78,3.68-8.49,7.03-12.56,11.46-1.16,1.26-3.62,2.36-5.15,3.9-1.51,1.4-3.01,2.81-4.49,4.24l-.44-.54c6.2-7.7,10.89-11.63,18.65-17.28Z"/>
  <path class="cls-42" d="M49.32,211.86l.44.54c-2.77,2.94-15.5,18.17-18.64,18.66l-.55-.09c7.09-5.71,12.76-12.3,18.76-19.11Z"/>
  <path class="cls-35" d="M86.01,286.59c3.91-3.88,7.42-6.46,11.7-10.06,7.61-6.39,15.09-12.66,25.58-13.05,10.06-.37,37.14,12.68,32.54,25.03-1.28,2.15-2.28,3.52-3.93,5.43-.66.65-.28.48-1.09.65-1.75-.69-5.19-4.55-6.59-6.09-2.55-1.97-5.13-3.91-7.74-5.8-4.86-2.26-8.53-4.46-13.98-5.89,2.65,1.49,12.52,9.37,13.51,11.48l.17.35c2.58,1.91,7.86,7.18,9.42,9.98l.8,1.74c0,3.44-1.02,4.4-3.02,7.03-3.37,3.01-4.21,3.11-8.69,3.19-2.35-3.29-5.73-6.66-8.68-9.4-4.72-3.38-10.29-8.57-16.6-7.08l-.02.17c4.88,2.44,17.25,13.51,20.5,18.07-1.24,1.31-3.75,3.31-5.3,4.18-6.36,3.59-8.98,3.72-15.62,2.05-6.92,2.48-18.93,6.53-25.23-.24-4.47-4.81-5.07-14.32-4.68-20.72-.05-3.61,4.37-8.76,6.93-11.02Z"/>
  <path class="cls-11" d="M86.01,286.59c3.91-3.88,7.42-6.46,11.7-10.06,7.61-6.39,15.09-12.66,25.58-13.05,10.06-.37,37.14,12.68,32.54,25.03-1.28,2.15-2.28,3.52-3.93,5.43-.66.65-.28.48-1.09.65-1.75-.69-5.19-4.55-6.59-6.09-2.55-1.97-5.13-3.91-7.74-5.8l.03-.37c-3.61-2.87-11-4.94-15.41-6.49-1.14.77-2.12,2.05-3.43,2.46-7.58,2.4-14.23,6.77-21.98,8.36-2.73.56-3.12,7.61-4.22,9.86-.9-2.85,3.87-11.59,5.73-13.92,1.15-1.43,4.23-4.2,4.07-5.76-2.84,2.24-5.38,3.97-8.42,5.93-.91.58-4.88,3.14-5.49,3.8-.32.16-1.07.51-1.33.68l-.02-.67Z"/>
  <path class="cls-30" d="M86.01,286.59c3.91-3.88,7.42-6.46,11.7-10.06,7.61-6.39,15.09-12.66,25.58-13.05,10.06-.37,37.14,12.68,32.54,25.03-.23-2.29-.73-4-2.28-5.83-6.04-7.13-18.16-13.71-27.3-14.95-9.76-1.33-17.77,3.54-24.98,9.12-2.84,2.24-5.38,3.97-8.42,5.93-.91.58-4.88,3.14-5.49,3.8-.32.16-1.07.51-1.33.68l-.02-.67Z"/>
  <path class="cls-6" d="M144.23,288.5c1.74.56,6.39,4.09,7.68,5.44-.66.65-.28.48-1.09.65-1.75-.69-5.19-4.55-6.59-6.09Z"/>
  <path class="cls-17" d="M121.74,287.23c2.45.12,5.14.63,7.43.22,3.32,2.07,14.01,10.6,16.02,11.27l.42-.11.8,1.74-.23.53c-.28.21-.35.38-.7.31-8.55-1.81-17.89-8.07-23.74-13.96Z"/>
  <path class="cls-30" d="M122.77,281.74c4.72,1.2,9.38,4.17,13.42,6.91,2.58,1.91,7.86,7.18,9.42,9.98l-.42.11c-2.01-.67-12.71-9.2-16.02-11.27-1.25-.8-6.31-4.19-6.73-5.3l.34-.42Z"/>
  <path class="cls-6" d="M126.01,301.17c1.79.3,2.53.84,4.08,1.73,5.61,3.19,6.8,4.56,13.29,4.48-3.37,3.01-4.21,3.11-8.69,3.19-2.35-3.29-5.73-6.66-8.68-9.4Z"/>
  <path class="cls-4" d="M120.09,281.36c.99.06,1.75.04,2.69.38l-.34.42c.42,1.11,5.48,4.5,6.73,5.3-2.28.41-4.98-.11-7.43-.22-.97-.69-2.19-1.7-3.16-2.46.36-1.19.63-2.59,1.5-3.42Z"/>
  <path class="cls-37" d="M86.01,286.59l.02.67c-1.35,1.45-2.55,2.73-3.51,4.47-1.5,2.09-2.29,4.2-3.44,5.88-.05-3.61,4.37-8.76,6.93-11.02Z"/>
  <path class="cls-40" d="M86.03,287.26c.26-.17,1.01-.52,1.33-.68-.95,2.14-2.8,4.03-4.84,5.16.96-1.75,2.17-3.02,3.51-4.47Z"/>
  <path class="cls-43" d="M118.58,284.78c-.78-.92-1.4-1.3-.98-2.52.74-.66,1.49-.7,2.48-.9-.87.83-1.15,2.23-1.5,3.42Z"/>
  <path class="cls-43" d="M23.93,245.83c10.1-.33,22.21,4.37,29.35,11.43.53.52,1.18,1.13,1.74,1.62l-.54.25c-3.37-1.89-8.95-4.49-12.77-4.88l.05.21c4.46,2.2,12.51,5.07,15.16,9.47,2.49,1.97,10.67,9.22,12.51,11.66-.63.56-1.11.62-1.94.88-6.98,3.48-12.51,10.34-14.97,17.66-.79,2.37-1.27,4.83-1.42,7.32.12,5.73,1.11,11.01,3.41,16.28-17.93-4.87-38.87-15.57-45.52-34.18-1.42-3.94-.43-5.78-1.03-9.17-.72.84-1.32,1.9-1.9,2.85.19-5.82,1.9-11.89,4.2-17.2,1.31-3.53,3.75-8.22,6.18-11.04,2.4-2.78,4.09-2.95,7.49-3.18Z"/>
  <path class="cls-19" d="M9,283.55c1.2-.2,6.85-12.75,9.32-14.6l.67.34c-1.85,4.85-1.21,9.95.75,14.7.24-1.29.45-2.57.84-3.83,1.78,3.38.99,4.99,3.14,8.49.4-2.13.71-3.53,1.32-5.64,4.43,8.52,16.77,16.5,26.07,18.45.12,5.73,1.11,11.01,3.41,16.28-17.93-4.87-38.87-15.57-45.52-34.18Z"/>
  <path class="cls-31" d="M10.26,260.05c1.31-3.53,3.75-8.22,6.18-11.04,2.4-2.78,4.09-2.95,7.49-3.18-.96,1.23-1.87,2.28-2.52,3.7l.1.56c-.36,1.06-.45,1.23-1.59,1.56l.02.58c-2.01,3.53-4.59,7.99-6.2,11.65-2.55,4.07-3.73,6.23-5.78,10.51-.72.84-1.32,1.9-1.9,2.85.19-5.82,1.9-11.89,4.2-17.2Z"/>
  <path class="cls-32" d="M10.26,260.05c1.31-3.53,3.75-8.22,6.18-11.04,2.4-2.78,4.09-2.95,7.49-3.18-.96,1.23-1.87,2.28-2.52,3.7l.1.56c-.36,1.06-.45,1.23-1.59,1.56l.02.58-1.2-.18c-.93,1.18-4.11,3.2-5.36,4.77-.44.55-2.58,2.93-3.13,3.23Z"/>
  <path class="cls-43" d="M18.75,252.05l.12-.2c.45-.76.89-1.48,1.8-1.71.07.69-.2.76-.74,1.52l.02.58-1.2-.18Z"/>
  <path class="cls-17" d="M23.93,245.83c10.1-.33,22.21,4.37,29.35,11.43.53.52,1.18,1.13,1.74,1.62l-.54.25c-3.37-1.89-8.95-4.49-12.77-4.88l.05.21-.62.4c-5.5-2.65-13.54-5.39-19.63-4.77l-.1-.56c.65-1.42,1.56-2.47,2.52-3.7Z"/>
  <path class="cls-42" d="M19.44,259.5c-1.43,3.42-1.78,4.87-2.12,8.57,1.31-1.24,1.93-1.73,3.41-2.77l-1.74,3.99-.67-.34c-2.47,1.85-8.13,14.4-9.32,14.6-1.42-3.94-.43-5.78-1.03-9.17,2.05-4.28,3.23-6.44,5.78-10.51,1.72-.88,3.78-3.1,5.69-4.38Z"/>
  <path class="cls-31" d="M41.76,254.46c4.46,2.2,12.51,5.07,15.16,9.47,2.49,1.97,10.67,9.22,12.51,11.66-.63.56-1.11.62-1.94.88-5.89-4.98-11.49-10.12-17.74-14.71-.02-.01-.04-.02-.07-.04,1.87-.37,13.91,11.74,15.43,11.87.66-.54.49-.22.73-.9-4.31-4.62-8.31-8.04-13.75-11.28-1.53-.91-3.17-1.72-4.64-2.63l.06-.35c-.93-.86-4.92-2.66-6.38-3.6l.62-.4Z"/>
  <path class="cls-37" d="M41.76,254.46c4.46,2.2,12.51,5.07,15.16,9.47-1.31-.5-6.86-4.22-9.4-5.48-.93-.86-4.92-2.66-6.38-3.6l.62-.4Z"/>
  <path class="cls-2" d="M200.64,175.77c8.37-2.66,19.52-.17,26.76,4.54l1.14.98c2.18,2.02,2.72,3.1,4.14,5.69,1.81.14,2.62.8,2.88,2.68l-.23.34.12.17.13-.2-.13.21c-.16-.26-.71-1.23-.91-1.34.01.63,3.34,8.14,3.91,9.93,2.35,7.41,1.96,28.65-3.32,34.5-5.18,1.49-11.62,3.52-16.85,4.18-.37-1.28-1.17-3.73-1.18-4.96-.07-5.49,1.49-10.18,1.55-15.85-.63-5.06-1.8-10.22-3.95-14.86-.74,7.08-.53,15.71-1.55,22.48-2.4-7.25-4.49-12.81-7.34-19.89-2.19-4.68-3.64-9.08-7.26-12.72.8,1.87,1.61,4.25,2.32,6.2l-.14,1.83c-.64-.65-.27-.45-1.19-.62-1.45.42-6.55,3.8-7.03,5.21-.34-1.47-.3-6.36-.49-8.24-.48-4.8-.89-10.77-1.9-15.43,3.2-1.22,7.94-4.06,10.51-4.83Z"/>
  <path class="cls-6" d="M200.64,175.77c8.37-2.66,19.52-.17,26.76,4.54-.76.25-1.76.44-2.2,1.04l-.1.58-1.18.11-7.56-2.38c.99,2.12,6.36,7.03,7.98,9.24-3.47.22-9.72-.12-12.98-1.4-1.59,3.17-4.21,6.9-6.05,10.32-1.37,4.54.65,2.65.5,6.55-2.19-4.68-3.64-9.08-7.26-12.72.8,1.87,1.61,4.25,2.32,6.2l-.14,1.83c-.64-.65-.27-.45-1.19-.62-1.45.42-6.55,3.8-7.03,5.21-.34-1.47-.3-6.36-.49-8.24-.48-4.8-.89-10.77-1.9-15.43,3.2-1.22,7.94-4.06,10.51-4.83Z"/>
  <path class="cls-30" d="M200.64,175.77c8.37-2.66,19.52-.17,26.76,4.54-.76.25-1.76.44-2.2,1.04l-.1.58-1.18.11-7.56-2.38c-2.02-.43-5.34-1.76-7.84-2.27-1.31-.27-7.25-1.4-7.88-1.63Z"/>
  <path class="cls-17" d="M216.37,179.66l7.56,2.38,1.18-.11.1-.58c.44-.6,1.45-.79,2.2-1.04l1.14.98c2.18,2.02,2.72,3.1,4.14,5.69l.91,1.73c1.55,2.03,3.72,8.11,4.7,10.68-.33.9-.73,1.97-1.63,2.4-3.96.36-8.71-2.35-12.47-3.12-2.43-.5-6.07-.4-8.72-.64-2.17-2.48-2.98-4.72-4.66-6.78.42,5.73.95,11.32.67,17.07-.04.86-.18,2.07-.16,2.88-1.1-.92-4.97-12.22-6.02-13.36,1.84-3.43,4.45-7.16,6.05-10.32,3.27,1.28,9.52,1.63,12.98,1.4-1.61-2.21-6.98-7.12-7.98-9.24Z"/>
  <path class="cls-33" d="M227.41,180.3l1.14.98c2.18,2.02,2.72,3.1,4.14,5.69l.91,1.73c-.47.31-2.07-1.91-2.61-2.49-3.04-3.22-2.76-3.38-7.06-4.17l1.18-.11.1-.58c.44-.6,1.45-.79,2.2-1.04Z"/>
  <path class="cls-27" d="M227.41,180.3l1.14.98c-.79.12-2.83.34-3.44.64l.1-.58c.44-.6,1.45-.79,2.2-1.04Z"/>
  <path class="cls-6" d="M232.69,186.97c1.81.14,2.62.8,2.88,2.68l-.23.34.12.17.13-.2-.13.21c-.16-.26-.71-1.23-.91-1.34.01.63,3.34,8.14,3.91,9.93,2.35,7.41,1.96,28.65-3.32,34.5-5.18,1.49-11.62,3.52-16.85,4.18-.37-1.28-1.17-3.73-1.18-4.96-.07-5.49,1.49-10.18,1.55-15.85.85,2.89.28,5.69.98,8.37.08.3.29.25.66.33,1.93-.92,10.89-11.14,13.26-13.14l.26-.22c0,2.39-.1,5.01-.13,7.43.72-.78,1.13-1.29,1.73-2.11,5.35-7.36,4.28-9.84,2.89-17.92-.98-2.57-3.16-8.65-4.7-10.68l-.91-1.73Z"/>
  <path class="cls-6" d="M211.33,211.19c.84.73.62,4.38.42,5.52-1.5-1.86-.39-3.46-.42-5.52Z"/>
  <path class="cls-41" d="M37.27,61.03c-2.4-8.92-5.58-26.53,3.75-32.31,16.91-10.27,38.57-4.14,55.51,2.81,2.8,1.15,10.42,5.7,12.59,5.98l.91.39.52.35c-.53.8-3.76,1.92-4.87,2.39-4.38,1.87-7.48,4.9-11.29,7.48-2.03,1.56-3.12,3-4.67,4.24-2.2-2.13-4.13-3.89-6.57-5.74-1.26-.95-3.04-2.08-4.16-3.03-1.58-.87-5.58-3.23-7.34-3.84-7.18-2.52-17.83-5.61-25.39-4.21-.81.15-1.47.65-1.99,1.2v.25s.69.01.69.01c.23.67-.42,2.07-.49,2.92-1,11.38,3.76,23.22,10.56,32.18.56.74,1.86,2.07,2.19,2.67,1.32,1.07,2.16,1.85,3.37,3.05,2.24,1.73,4.3,3.3,6.29,5.33-4.24,4.7-5.68,5.55-10.41,9.47-8.79-7.38-16.09-20.68-19.22-31.59Z"/>
  <path class="cls-43" d="M37.27,61.03l.64-.18c1.03.98,2.85,4.36,3.79,5.81,2.53,3.92,7.95,9.99,11.79,12.59.82.84,2.21,1.96,3.2,2.6.93-.33.13-4.21,3.93-4.03,2.24,1.73,4.3,3.3,6.29,5.33-4.24,4.7-5.68,5.55-10.41,9.47-8.79-7.38-16.09-20.68-19.22-31.59Z"/>
  <path class="cls-31" d="M79.01,43.61c.66-3.87,10.3,2.16,12.04,3.02,1.06.53,2.35.97,3.35,1.5-2.03,1.56-3.12,3-4.67,4.24-2.2-2.13-4.13-3.89-6.57-5.74-1.26-.95-3.04-2.08-4.16-3.03Z"/>
  <path class="cls-31" d="M53.49,79.26c1.37.26,1.66,1.06,2.85,1.51-.03-.73-4.51-6.08-5.46-7.42,2.93,2.02,3.51,3.24,5.98,5.31l.36-.03c.63-.62,1.33-1.09,1.55-1.83-.82-.75-1.1-.99-1.53-2.02,1.32,1.07,2.16,1.85,3.37,3.05-3.8-.18-3,3.71-3.93,4.03-.98-.65-2.38-1.76-3.2-2.6Z"/>
  <path class="cls-43" d="M270.24,170.75c1.55.63,2.17.97,3.61,1.85,4.44,3.28,8.62,9.21,10.6,14.27,1.77,5.47,1.31,9.69,1,15.34-9.35,8-20.28,14.26-31.61,18.98,1.02-6.81,1.55-13.76.69-20.62-.39-3.13-1.44-6.99-1.76-9.91-.37-.74-1.02-2.5-1.35-3.34-.42-1.77-2.04-4.87-2.98-6.45l-2.5-2.91c5.23-1,10.43-1.73,15.37-3.72,2.96-1.19,5.95-2.32,8.92-3.49Z"/>
  <path class="cls-14" d="M284.46,186.86c1.77,5.47,1.31,9.69,1,15.34-9.35,8-20.28,14.26-31.61,18.98,1.02-6.81,1.55-13.76.69-20.62-.39-3.13-1.44-6.99-1.76-9.91,3.55,3.86,3.36,11.05,4.38,15.81l.09.39c6.98-4.67,10.11-7.01,15.78-13.31-.43,2.56-1.09,4.35-1.94,6.81,1.75-1.39,4.1-3.31,5.29-5.16,3.6-5.55,2.04-5.75,8.07-8.32Z"/>
  <path class="cls-41" d="M270.24,170.75c1.55.63,2.17.97,3.61,1.85-1.64.75-3.47,1.22-5.19,1.88-3.63,1.4-7.13,3.11-10.68,4.69-1.09.48-2.2,2.68-3.25,2.96-.44-.9-.7-1.84-1-2.8-1.79.41-3.53.96-5.28,1.53l-2.5-2.91c5.23-1,10.43-1.73,15.37-3.72,2.96-1.19,5.95-2.32,8.92-3.49Z"/>
  <path class="cls-20" d="M168.48,26.28c-.93-.18-1.19-.03-1.58-.59.49-.78,2.41-2.02,3.34-2.8,8.83-7.41,20.01-12.96,31.19-15.69,4.38-1.07,12.24-2.09,16.24.33,4.68,2.84,6.59,10.5,7.67,15.6,3.1,14.72,2.65,26.58-3.72,40.28-1.79-2.93-3.45-5.48-5.56-8.21,3.2-11.64,4.61-18.64,1.85-30.84-.61-2.68-1.34-5.87-2.71-8.27-.22-.38-.45-.75-.69-1.12-9.9,2.05-17.21,11.38-24,17.96-.29.49-.27.46-.72.8-.69-.14-1.87-.85-2.56-1.18-5.95-2.79-12.34-4.92-18.74-6.28Z"/>
  <path class="cls-43" d="M178.94,20c4.23,3.28,5.52,4.41,9.2,8.27l2.16-.76c-.95,1.28-.49,1.86-.3,3.33.07.49.31,1.67.51,2.1-.29.49-.27.46-.72.8-.69-.14-1.87-.85-2.56-1.18-5.95-2.79-12.34-4.92-18.74-6.28,3.45-1.99,7.07-4.62,10.45-6.28Z"/>
  <path class="cls-25" d="M123.35,198.59c-.62-.81-1.93-2.22-1.61-3.22,10.45,9.16,39.27,28.73,53.4,21.84-.5,1.66-1.49,5.15-2.24,6.6-.51,1.01-3.08,5.88-3.66,6.64-2.06,3.31-4.55,6.78-7.36,9.5-.63.61-2.72-2.01-4.55-2.23-2.62-.32-3.6.8-5.93.92-1.71.09-3.89-.64-5.76-.74h-.28c-1.16-1.99-2.6-5.25-3.7-7.4-1.7-3.26-3.49-6.48-5.37-9.64-1.53-1.69-4.25-6.64-5.86-8.63-.03-.26-.05-.52-.08-.77l1.37.47c-2.21-4.3-5.06-9.78-8.37-13.33Z"/>
  <path class="cls-25" d="M136.29,220.85c1.28.27,5.67,3.96,7.57,4.36.17.04,3.27,1.57,3.59,1.76,3.89,1.76,6.78,2.62,11.01,3.36,3.44.45,7.31.26,10.79.12-2.06,3.31-4.55,6.78-7.36,9.5-.63.61-2.72-2.01-4.55-2.23-2.62-.32-3.6.8-5.93.92-1.71.09-3.89-.64-5.76-.74h-.28c-1.16-1.99-2.6-5.25-3.7-7.4-1.7-3.26-3.49-6.48-5.37-9.64Z"/>
  <path class="cls-6" d="M130.35,211.45l1.37.47c.98,1.09,2.79,3.16,3.97,3.99,7.08,5,16.74,9.25,25.43,9.99,2.19.19,3.9.05,5.94-.44,1.21-.29,4.98-1.67,5.84-1.65-.51,1.01-3.08,5.88-3.66,6.64-3.48.14-7.35.33-10.79-.12-4.23-.74-7.12-1.6-11.01-3.36-.31-.19-3.41-1.72-3.59-1.76-1.9-.4-6.29-4.09-7.57-4.36-1.53-1.69-4.25-6.64-5.86-8.63-.03-.26-.05-.52-.08-.77Z"/>
  <path class="cls-10" d="M273.15,168.77c4.06-1.96,7.22-6.47,11.57-8.3,1.3-.55,1.2-.6,2.47-.13,3.64,2.15,11.95,10.49,12.54,14.77,1.94,4.18,2,6.16,2.87,10.59.27.84.39,1.59.55,2.45-2.07,5.22-8.61,8.32-13.57,10.65l.08-2.98c-.44-3.99-.78-6.13-1.97-9.94-2.85-7.15-5.98-10.39-11.51-15.39-1.06-.5-2.01-1.1-3.02-1.71Z"/>
  <path class="cls-40" d="M273.15,168.77c4.06-1.96,7.22-6.47,11.57-8.3,1.3-.55,1.2-.6,2.47-.13-1.27,1.1-2.93,1.93-3.87,2.97,1.4-.06,2.38.28,3.73.64,1,1.82,1.63,1.82,3.02,3.14,2.82,2.7,4.47,6.87,4.93,10.7-1.53,2.21-4.94,7.08-7.32,8.07-2.85-7.15-5.98-10.39-11.51-15.39-1.06-.5-2.01-1.1-3.02-1.71Z"/>
  <path class="cls-41" d="M273.15,168.77c4.06-1.96,7.22-6.47,11.57-8.3,1.3-.55,1.2-.6,2.47-.13-1.27,1.1-2.93,1.93-3.87,2.97l.26.51c-.56.75-1.73,1.1-2.63,1.37l-.37.53c.1.38.2.77.28,1.16-1.61.99-4.31,1.8-4.76,2.81l.07.8c-1.06-.5-2.01-1.1-3.02-1.71Z"/>
  <path class="cls-31" d="M283.58,163.82c.77-.04,1.27-.16,1.93.21-.27.33-3.77,2.25-4.65,2.84-.08-.39-.18-.77-.28-1.16l.37-.53c.9-.27,2.07-.62,2.63-1.37Z"/>
  <path class="cls-3" d="M302.6,185.7c.27.84.39,1.59.55,2.45-2.07,5.22-8.61,8.32-13.57,10.65l.08-2.98c.89-1.44,2.23-3.94,3.24-5.14l.59.38c1.43.23,4.73-2.96,6.52-4.05.61-.08.75.01,1.34.18.29-.51.52-.81.87-1.28l.11.12.28-.32Z"/>
  <path class="cls-6" d="M299.74,175.11c1.94,4.18,2,6.16,2.87,10.59l-.28.32-.11-.12c-.35.47-.58.76-.87,1.28-.39-1.35-1.67-10.69-1.6-12.06Z"/>
  <path class="cls-6" d="M229.62,177.79c2.46-.46,5.26-1.08,7.73-1.19,6.73,4.81,9.6,10.95,11.8,18.77.64,1.35.97,3.99,1.21,5.53.11,1.21.36,3.19.37,4.34.75,3.22-.37,18.67-2.31,22.02-2.33,4.03-5.61,5.5-9.75,6.77,3.33-11.95,5.67-24.03,1.46-36.32-.69-2-3.93-9.01-3.85-10.67-1.27-2.96-3.01-5.69-5.15-8.1l-1.5-1.14Z"/>
  <path class="cls-17" d="M229.62,177.79c2.46-.46,5.26-1.08,7.73-1.19,6.73,4.81,9.6,10.95,11.8,18.77.64,1.35.97,3.99,1.21,5.53-2.64-.12-6.28-.55-9.01-.75-1.05-3.77-2.61-6.71-3.62-10.08-.35-.96-.97-2.1-1.44-3.03-1.27-2.96-3.01-5.69-5.15-8.1l-1.5-1.14Z"/>
  <path class="cls-30" d="M229.62,177.79c2.46-.46,5.26-1.08,7.73-1.19,6.73,4.81,9.6,10.95,11.8,18.77l-.11.15-.23.02c-1.57-5.39-8.24-13.61-13.74-15.32-1.72-.46-2.49-1.57-3.94-1.3l-1.5-1.14Z"/>
  <path class="cls-33" d="M231.13,178.93c1.45-.27,2.22.84,3.94,1.3l-1.36.38c-.22,1.34,4.42,6.59,4.01,9.45-.35-.96-.97-2.1-1.44-3.03-1.27-2.96-3.01-5.69-5.15-8.1Z"/>
  <path class="cls-25" d="M241.34,200.15c2.73.21,6.38.63,9.01.75.11,1.21.36,3.19.37,4.34.02.46.1,1.87-.1,2.22-1.08,1.9-5.42,2.59-7.69,3.19-.32-4.16-.59-6.47-1.6-10.51Z"/>
  <path class="cls-37" d="M181.41,195.38c2.88,1.93,4.4,3.04,6.56,5.7.15,2.45.61,8.35.03,10.62-.37,4.37-1.22,7.68-2.51,11.81-2.3,7.24-7.42,15.64-12.72,21.04l-1.26,1.27c-2.88,2.72-4.39,3.89-7.67,6.04.63-4.23.45-6.31-.35-10.39l1.23-1.67c1.71-2.56,4.5-5.97,6.37-8.61,6.11-8.62,7.68-15.24,9.49-25.38.48-3.63.82-6.78.84-10.44Z"/>
  <path class="cls-40" d="M164.72,239.81l.58.7c3.45,1.47,4.72,1.58,7.48,4.06l-1.26,1.27c-2.88,2.72-4.39,3.89-7.67,6.04.63-4.23.45-6.31-.35-10.39l1.23-1.67Z"/>
  <path class="cls-17" d="M165.3,240.51c3.45,1.47,4.72,1.58,7.48,4.06l-1.26,1.27c-1.54-.32-3.02-.61-4.54-1.05-.97-1.65-1.45-2.4-1.67-4.28Z"/>
  <path class="cls-17" d="M181.41,195.38c2.88,1.93,4.4,3.04,6.56,5.7.15,2.45.61,8.35.03,10.62-.06-2.23.26-4.35-.11-6.65l-.24-.09c-2.86.74-4.15.92-7.09.86.48-3.63.82-6.78.84-10.44Z"/>
  <path class="cls-32" d="M187.67,204.96l.24.09c.37,2.3.05,4.43.11,6.65-.37,4.37-1.22,7.68-2.51,11.81-.85-1.36,1.63-16,2.17-18.56Z"/>
  <path class="cls-28" d="M62.17,285.12c6.51-7.54,15.11-7.58,23.49-2.92-2.22,2.15-3.17,3.42-5.02,5.95-3.02,4.59-5.73,8.68-6.41,14.42-6.98-1.46-11.83-2.66-18.73-.54-.04-5.07,2.66-13.81,6.68-16.92Z"/>
  <path class="cls-31" d="M62.17,285.12c6.51-7.54,15.11-7.58,23.49-2.92-2.22,2.15-3.17,3.42-5.02,5.95-.06-1.31,2.06-3.62-.34-4.38-4.03-1.27-9.26-1.71-13.46-1.42-.99.07-3.51,2.35-4.66,2.77Z"/>
  <path class="cls-37" d="M111.23,200.7c1.67.24,2.77.36,4.47.12,5.06,4.6,7.95,8.05,11.67,13.8.51.8,2.27,3.29,2.61,4.05,2.49,3.51,15.89,26.21,15.12,28.85-.01.04-.04.07-.07.11-3.12.61-4.22.52-7.77,1.48-2.26-3.16-3.19-5.35-4.98-8.76-2.44-4.58-4.8-9.2-7.1-13.85-4.69-9.34-8.69-16.71-13.94-25.79Z"/>
  <path class="cls-42" d="M145.03,247.62c-.91-.13-2.85-.16-3.93-.25-2.11-1.24-9.55-23.54-11.22-27.1-.28-.6-.11-1.03.1-1.61,2.49,3.51,15.89,26.21,15.12,28.85-.01.04-.04.07-.07.11Z"/>
  <path class="cls-6" d="M55.49,302.04c6.9-2.12,11.75-.92,18.73.54.56,6.76,2.3,13.43,6.46,18.9-1.49.1-2.98.17-4.48.21-4.94.13-12.17-.14-15.93-3.78-3.58-3.48-4.74-11.12-4.79-15.86Z"/>
  <path class="cls-10" d="M47.98,38.41c5.76-.28,16.32,3.51,22.37,5.22-3.84.12-5.97.06-9.71,1.05,2.09,1.27,3.51,2.46,5.28,4.13-6.15-.76-8.71-4.15-9.33,4.59-.27,3.92-.14,6.8,1.03,10.58.86,3.72,2.82,7.81,4.42,11.28l-.36.75-.32.04c-4.29-7.37-10.08-14.11-13.03-22.39-1.18-3.3-3.86-11.37-2.42-14.61.86-.68.91-.5,2.09-.66Z"/>
  <path class="cls-16" d="M130.24,261.03c2.38-2.53,6.62-6.87,9.98-7.77,1.86-.5,6.46-.54,8.22.43.87.48,1.08,2.23,1.26,3.2,1.66,1.67,3.19,3.24,4.59,5.15,3.35,5.17,6.2,8.5,4.84,14.93-.07.34-.15.67-.24,1.01-1.62-1.84-3.29-3.65-4.99-5.41-6.65-6.32-9.23-8.46-18.27-10.58-.78-.04-4.31-.78-5.39-.96Z"/>
  <path class="cls-8" d="M130.24,261.03c2.38-2.53,6.62-6.87,9.98-7.77,1.86-.5,6.46-.54,8.22.43.87.48,1.08,2.23,1.26,3.2-.28.46-.71,1.43-1.21,1.37-5.8-.69-7.78.82-12.86,3.72-.78-.04-4.31-.78-5.39-.96Z"/>
  <path class="cls-21" d="M154.3,262.05c3.35,5.17,6.2,8.5,4.84,14.93-.07.34-.15.67-.24,1.01-1.62-1.84-3.29-3.65-4.99-5.41.17-.4.13-8.76.39-10.52Z"/>
  <path class="cls-10" d="M99.49,178.23c4.94,3.92,8.56,6.98,13.19,11.32,1.86.71,2.79,1.03,4.51,2.07,1.23.87,3.77,2.59,4.54,3.75-.32.99.99,2.4,1.61,3.22,3.31,3.55,6.16,9.03,8.37,13.33l-1.37-.47c-3.24-2.45-5.71-3.71-8.87-6.65-4.19-3.91-7.78-8.36-11.4-12.79-3.96-4.83-8.43-8.18-13.09-12.2.77-.53,1.7-1.08,2.5-1.58Z"/>
  <path class="cls-1" d="M112.68,189.56c1.86.71,2.79,1.03,4.51,2.07,1.23.87,3.77,2.59,4.54,3.75-.32.99.99,2.4,1.61,3.22-.26.01-1.14.08-1.32.02-2.86-1.1-6.33-4.81-7.93-7.31-.36-.29-1.1-1.32-1.42-1.74Z"/>
  <path class="cls-6" d="M112.68,189.56c1.86.71,2.79,1.03,4.51,2.07-.95.34-1.68-.2-3.09-.33-.36-.29-1.1-1.32-1.42-1.74Z"/>
  <path class="cls-10" d="M212.53,18.83c6.47,3.79,4.75,19.26,3.51,25.57-.3,1.55-1.05,3.14-1.23,4.49-.18-.31-.01-3.41,0-3.97.51-7.51-1.88-16.16-8.77-20.08,2.34-2.51,3.87-3.88,6.49-6Z"/>
  <path class="cls-32" d="M155.9,240.94c1.3.19,2.73.28,3.81.94.4.69.28.45.19,1.4-.13.53-.3,1.02-.3,1.55-.41,1.02-.83,1.98-1.61,2.8-.47.61-.98,1.27-1.42,1.9-1.31,3.04-1.56,4.52-2.18,7.77-1.4-1.86-1.35-2.02-2.42-3.91-1.73-1.47-2.88-1.39-2.86-3.83-.26-5.05,1.2-8.43,6.79-8.62Z"/>
  <path class="cls-41" d="M149.12,249.56c-.26-5.05,1.2-8.43,6.79-8.62l-.04,2.31c-3.14.55-5.2,3.7-6.44,6.41l-.31-.1Z"/>
  <path class="cls-40" d="M151.98,253.39c1.59-2.18,2.26-2.45,4.6-3.86-1.31,3.04-1.56,4.52-2.18,7.77-1.4-1.86-1.35-2.02-2.42-3.91Z"/>
  <path class="cls-31" d="M155.9,240.94c1.3.19,2.73.28,3.81.94.4.69.28.45.19,1.4l-4.04-.03.04-2.31Z"/>
  <path class="cls-2" d="M76.75,258.87c1.47,1.76,1.97,3.27,2.92,4.48,1.79,4.18,1.32,8.11-2.69,10.75-2.11-3.37-4.67-7.04-7.31-10.03,3.58-1.64,4.92-1.82,7.09-5.2Z"/>
  <path class="cls-10" d="M180.61,183.91c1.3-.39,2.6-.8,3.89-1.21,2.02,5.3,3.68,12.67,3.47,18.38-2.17-2.67-3.68-3.77-6.56-5.7-.11-3.83-.38-7.66-.8-11.47Z"/>
  <path class="cls-6" d="M107.1,195.13c-2.99-3.48-7.01-8.09-10.88-10.66l.28-.24c4.68.68,16.36,11.02,18.05,15.45.22.21.97.98,1.17,1.13-1.7.24-2.8.12-4.47-.12-1.33-1.9-2.73-3.72-4.14-5.57Z"/>
  <path class="cls-2" d="M107.1,195.13l.58-.16c2.01,1.53,5.41,3.52,6.86,4.72.22.21.97.98,1.17,1.13-1.7.24-2.8.12-4.47-.12-1.33-1.9-2.73-3.72-4.14-5.57Z"/>
  <path class="cls-2" d="M73.62,365.41c.88.06,2.84.16,3.57.5,4.17,1.93,1.77,4.5-1.02,5.53-1.88.68-3.41.86-5.36,1.16.84-2.44,1.77-4.83,2.81-7.19Z"/>
  <path class="cls-10" d="M159.61,244.83c.94,1.45,1.1,3.03.55,4.66-.65,1.96-1.08,8.59-3.76,8.47-1.18-2.58,2.47-6.88,2.11-9.49l-.52-.85c.78-.82,1.2-1.77,1.61-2.8Z"/>
  <path class="cls-10" d="M55.02,258.88c.66.48,1.84,1.3,2.38,1.85l-.08.44.4.07-.06-.22v.25c-1.09-.37-2.23-1.4-3.17-2.14l.54-.25Z"/>
  <path class="cls-27" d="M299.23,49.93c29.22.63,58.44,1.44,87.64,2.45,8.48.31,17.71.41,26.09.89-3.38,38.82-7.09,77.61-11.11,116.36-1.39,13.5-2.47,27.1-3.93,40.55l-49.03-1.94c-6.87-.25-16.39-.92-23.02-.77-3.17-.73-13.16.06-15.86-.68-5.97.01-11.94-.18-17.89-.56-1.24-.12-1.64-.31-2.77-.75.89-.81,1.41-1.3,2.4-1.99,1.09.19,2.19.43,3.29.42,5.21-.04,10.76.39,15.98.73,2.97-.35,8.68.89,11.33.45,2.01-.69,5.69-4.72,7.33-6.08,6.09-5.04,12.15-10.3,16.49-17.02,5.78-8.95,8.23-20.19,6.09-30.69.76-3.29,3.27-5.62,3.22-9.68-.03-2.38-2.33-7.93-4.9-7.69-.05.46.01.23-.32.63-.13-.34-.27-.67-.41-1-1.67-3.85-2.94-5.14-6.76-6.65-1.06-.27-2.13-.53-3.2-.76-1.07,0-1.69.23-2.84.12-.77.55-.54.24-.79,1.25-.21-.37-.55-.81-.8-1.17-.57.59-1.32,1.31-1.83,1.93l-.53.38c-.57-.44-.82-1.62-1.06-2.37-.7-1.04-1.37-1.75-2.21-2.68-.94-.4-1.54-.79-2.4-1.32-3.76-1.06-16.15.72-19.6,2.86-6.72,4.15-11.83,8.73-16.14,15.35-1.15,2.08-2.18,3.91-3.15,6.09-.33-.55-.63-.9-.53-1.57.88-5.89,1.97-11.69,2.65-17.62,2.02-17.16,3.92-34.33,5.7-51.52l1.7-17.72c.25-2.36.42-6.04,1.14-8.2Z"/>
  <path class="cls-41" d="M300.77,52.38c36.58.85,73.16,1.92,109.73,3.2-.24,5.33-1.02,11.43-1.54,16.8l-2.46,26.43c-.55,5.61-1.31,11.47-1.71,17.05,0,0-.25,2.13-.27,2.22-.18,1.17-12.28,1.63-57-.48,3.19-4.39,6.39-8.78,9.58-13.17-1.21,1.15-5.09,4.99-6.28,5.89,1.91-1.82,3.96-3.98,6.02-6.51,1.59-1.96,2.96-3.87,4.13-5.66-2.55,2.19-6.46,5.65-11.08,10.12-5.07,4.9-7.95,8.09-8.91,9.04-4.7,4.63-16.2,7.63-46.81-1.01.82-7.17,1.48-13.11,1.94-17.32,1.16-10.59,2.26-21.11,3.3-31.56.46-4.53,1.22-10.6,1.36-15.04Z"/>
  <path class="cls-18" d="M373.52,86.75c2.56-2.17,5.09-2.88,5.79-2.17.71.71-.03,3.25-2.27,5.82-2.95,1.5-6.44,3.57-10.09,6.4-3.7,2.88-6.6,5.8-8.8,8.32l-1.05-.69c-1.21,1.15-5.09,4.99-6.28,5.89-.58.22-.57.23-1.18.28l-.19-.35c.64-1.59,5.73-5.95,7.44-7.76,1.09-1.01,3.65-3.1,4.09-4.34,1-1.53,10.72-9.93,12.54-11.41Z"/>
  <path class="cls-17" d="M357.1,104.43c.88-1.03,4.34-4.28,5.55-5.41,4.59-4.33,10.68-10.35,15.69-14.06l.24.14-.35.54-2.45,2.85c-5.97,5.47-11.7,11.16-17.63,16.64l-1.05-.69Z"/>
  <path class="cls-41" d="M382.55,77.64c1.11.16,1.49.25,1.98,1.29-.13,1.44-.81,1.9-1.86,2.81-.95.12-.99.04-1.63-.42-.58-1.54.39-2.74,1.51-3.69Z"/>
  <path class="cls-13" d="M372.42,90.85c2.8-2.37,4.35-3.18,5.81-5.22.25-.35.81-1.17,1.08-1.06.33.13.13,1.6-.3,2.76-.41,1.14-1.02,1.95-1.97,3.05-1.29,1.49-2.03,2.13-3.09,3.22-5.16,5.34-7.67,7.64-10.61,10.77-2.96,3.15-5.57,6.26-8.68,9.49l.08.5c-1.48-.11-3.27-.06-4.77-.06l-1.06-.26c1.51-1.53,3.03-3.03,4.58-4.52,1.66-1.6,3.03-2.88,3.88-3.67.42-.39.72-.67.8-.74,4.17-3.84,8.79-9.63,14.28-14.27Z"/>
  <path class="cls-32" d="M360.97,98.16c-.43,1.24-3,3.34-4.09,4.34l-.46-.32,4.54-4.02Z"/>
  <path class="cls-41" d="M355.27,116.8c9.92.11,19.84.34,29.75.68,6.45.23,13.07.62,19.5.61l-5.98,63.75c-.84,8.59-1.54,17.39-2.53,25.95-24.45-.56-49.24-2.08-73.66-2.69,2.01-.69,5.69-4.72,7.33-6.08,6.09-5.04,12.15-10.3,16.49-17.02,5.78-8.95,8.23-20.19,6.09-30.69.76-3.29,3.27-5.62,3.22-9.68-.03-2.38-2.33-7.93-4.9-7.69-.05.46.01.23-.32.63-.13-.34-.27-.67-.41-1-1.67-3.85-2.94-5.14-6.76-6.65,1.67-2.19,6.94-7.65,9.08-10.02,1.03-.01,2.05-.04,3.08-.08Z"/>
  <path class="cls-41" d="M294.27,115.12c9.01.22,18.11.75,27.12,1.04,5.41.17,10.36.73,15.77.23l.68.1-.2.5.12.24c-.94,1.31-6.34,4.83-7.92,6.35-.94-.4-1.54-.79-2.4-1.32-3.76-1.06-16.15.72-19.6,2.86-6.72,4.15-11.83,8.73-16.14,15.35-.2-1.17.56-6.86.72-8.37.59-5.65,1.4-11.31,1.84-16.99Z"/>
  <path class="cls-40" d="M357.1,104.43l1.05.69c-3.15,2.91-6.24,5.89-9.25,8.94l1.06.26-.04.19c-.16.76-.19.88-.51,1.57.46.46.5.34,1.25.52.51.09,1.02.18,1.52.27-2.15,2.37-7.42,7.83-9.08,10.02-1.06-.27-2.13-.53-3.2-.76-1.07,0-1.69.23-2.84.12-.77.55-.54.24-.79,1.25-.21-.37-.55-.82-.8-1.17-.57.59-1.32,1.31-1.83,1.93l-.53.38c-.57-.44-.82-1.62-1.06-2.37-.7-1.04-1.37-1.75-2.21-2.68,1.58-1.52,6.98-5.04,7.92-6.35,1.6-.85,2.21-.84,3.96-.67l.29.13c.33.14.57.23.9.35l-.02.65c2.89-2.34,5.3-4.72,7.92-7.36,1.19-.9,5.07-4.74,6.28-5.89Z"/>
  <path class="cls-31" d="M346.85,116.03c.6-.69,1.37-1.35,2.04-1.97.58.09,1.17.17,1.75.26.82-.02,1.67-.02,2.56,0,.52.01,1.03.03,1.53.06-.85.83-1.7,1.67-2.54,2.5-2.15,2.37-7.42,7.83-9.08,10.02-1.06-.27-2.13-.53-3.2-.76-1.07,0-1.69.23-2.84.12l1.58-1.86c.96-.6,6.88-7.01,8.21-8.37Z"/>
  <path class="cls-33" d="M346.85,116.03c.6-.69,1.37-1.35,2.04-1.97l1.06.26-.04.19c-.16.76-.19.88-.51,1.57.46.46.5.34,1.25.52-1.24.08-2.58-.3-3.81-.58Z"/>
  <path class="cls-41" d="M337.77,117.23c-.44-2.77,1.34-4.87,2.99-4.93,1.13-.04,2.29.88,2.95,2.18-2.27,2.26-4.55,4.55-6.84,6.87-1.62,1.64-3.22,3.28-4.8,4.91-.7-1.04-1.37-1.75-2.21-2.68,1.58-1.52,6.98-5.04,7.92-6.35Z"/>
  <path class="cls-32" d="M341.73,116.56l.29.13c.33.14.57.23.9.35l-.02.65c-2.28,2.15-8.23,7.28-9.55,9.71.02.57-.02.35.29.87l-.53.38c-.57-.44-.82-1.62-1.06-2.37,3.23-3.52,6.36-6.34,9.68-9.71Z"/>
  <path class="cls-21" d="M335.47,126.34c1.08-1.13,1.64-1.88,3.17-1.94l-1.58,1.86c-.77.55-.54.24-.79,1.25-.21-.37-.55-.81-.8-1.17Z"/>
  <path class="cls-37" d="M289.35,205.48c.89-.81,1.41-1.3,2.4-1.99,1.09.19,2.19.43,3.29.42,5.21-.04,10.76.39,15.98.73-1.34.38-14.21-.33-16.77-.3l.29.1c.84.3,2.96,1.79,3.1,1.78,4.07-.12,8.38.29,12.39.34l-.03.22c-5.97.01-11.94-.18-17.89-.56-1.24-.12-1.64-.31-2.77-.75Z"/>
  <path class="cls-27" d="M289.35,205.48c.89-.81,1.41-1.3,2.4-1.99,1.09.19,2.19.43,3.29.42-1.13.74-1.73,1.53-2.9,2.15l-.02.18c-1.24-.12-1.64-.31-2.77-.75Z"/>
  <path class="cls-41" d="M349.48,16.24c2.34-5.08,3.47-9.38,9.25-11.54,5.81-2.16,14.32-.84,16.65,5.71.63,1.79.8,4.2.92,6.09,6.61,1.11,9.01,1.09,15.7,1.24.76.31,1.35.24,2.18.25,2.07,1.36,2.98,1.93,4.48,3.87,2.57,5.18.65,7.37.83,12.12,6.58.06,13.15.18,19.73.37,2.32.05,11.34-.26,12.75,1.14.27,2.36-.54,8.69-.74,11.32-.67,8.89-1.95,17.98-2.56,26.86-.23,5.03-.95,10.99-1.42,16.11l-2.48,26.51-1.04,10.38c-.18,1.67-.67,5.55-.63,7.06-.44.52-.76.85-1.02,1.48-1.27,14.12-2.64,28.22-4.13,42.32l-1.38,14.02c-.22,2.21-.49,5.87-.91,7.94-.04.46-.19,2.77-.28,3.08-.61,7.64-1.44,15.23-2.19,22.86-.11,1.14-.24,2.2-.43,3.33-.99,1.27-1.59,1.91-2.98,2.8-12.65.09-28.61-1.3-41.46-2.03l-61.94-3.33-.1-.19c.44-2.19,13.11-15.27,14.91-18.57,1.67.08,2.99.1,4.67.04,6.62-.15,16.14.53,23.02.77l49.03,1.94c1.46-13.45,2.54-27.05,3.93-40.55,4.03-38.76,7.73-77.54,11.11-116.36-8.38-.48-17.62-.58-26.09-.89-29.21-1-58.42-1.82-87.64-2.45-.72,2.16-.9,5.84-1.14,8.2l-1.7,17.72c-1.78,17.19-3.68,34.36-5.7,51.52-.69,5.94-1.77,11.73-2.65,17.62-.1.67.21,1.02.53,1.57-1.38,3.29-2.21,7.07-3.43,10.45-4.85,1.4-7.99,3.34-12.24,5.97-.42-.7,1.25-14.68,1.43-16.38,1.17-11.8,2.41-23.6,3.72-35.38l5.43-50.77c.88-8.26,1.74-16.6,2.62-24.87.14-1.28.44-2.06,1.33-2.97,2.71-1.29,11.97-.56,15.46-.47l20.81.36c-.03,1.18,0,1.59.15,2.76.13-4.21,1.52-11.3,3.17-15.15,1.73-2.15,4.26-3.22,6.93-3.62,5.92-.73,9.57-.67,15.55-.24Z"/>
  <path class="cls-29" d="M349.48,16.24c2.34-5.08,3.47-9.38,9.25-11.54,5.81-2.16,14.32-.84,16.65,5.71.63,1.79.8,4.2.92,6.09,6.61,1.11,9.01,1.09,15.7,1.24.76.31,1.35.24,2.18.25,2.07,1.36,2.98,1.93,4.48,3.87,2.57,5.18.65,7.37.83,12.12-.07,2.23-.29,4.01-2.04,5.71-.82.8-2.11,1.41-3.25,1.48-3.57.23-7.3.08-10.88,0l-16.99-.45-24.31-.57c-4.12-.11-8.24-.14-12.36-.42-2.95-.2-5.33-1.3-5.84-4.46.13-4.21,1.52-11.3,3.17-15.15,1.73-2.15,4.26-3.22,6.93-3.62,5.92-.73,9.57-.67,15.55-.24Z"/>
  <path class="cls-27" d="M328.57,36.41c-1.12-.48-1.6-1.07-1.59-2.36.02-2.44.6-5.04.95-7.39,1.25-8.44,7.1-7.67,13.78-7.34,1.9.09,4.29-.05,6.26.07,1.25.08,2.4.34,3.68.31.39-.67,1.14-4.43,1.32-5.46,1.22-7.07,8.84-9.58,15.34-6.42,5.2,3.35,2.81,7.64,4.39,11.68l.48.24c4.13.12,8.26.08,12.39.15,3.42.06,7.32-.17,9.95,2.39,2.58,2.76,1.51,6.22,1.21,9.46-.12,1.31-.85,5.38-1.74,5.63-3.4.96-15.45.25-18.28.19l-32.97-.92c-2.49-.08-13.08-.56-15.17-.23Z"/>
  <path class="cls-30" d="M352.65,21.85c2.37-2.82,1.09-4.99,2.17-8.08,1.52-4.4,5.31-6.73,9.94-6.13,1.47.19,2.32.78,3.55.18,5.2,3.35,2.81,7.64,4.39,11.68l.48.24-.56.24c-.28.99.09,1.84.19,2.88-2.21-1.41-16.48-1.01-20.15-1.01Z"/>
  <path class="cls-6" d="M360.88,9.91c.28-.03.55-.05.83-.06,4.93-.24,7.65,5.13,4.38,8.86-.83.95-2.49.71-3.76.72-1.48.1-3.03.11-4.52.14-3.51-4.2-1.46-7.67,3.07-9.66Z"/>
  <path class="cls-17" d="M361.39,12.09c4.56-.34,4.92,3.41,1.06,5.22-1.42.17-2.25.48-3.33-.6-.95-2.07.56-3.64,2.27-4.62Z"/>
  <path class="cls-31" d="M328.57,36.41c-1.12-.48-1.6-1.07-1.59-2.36.02-2.44.6-5.04.95-7.39,1.25-8.44,7.1-7.67,13.78-7.34,1.9.09,4.29-.05,6.26.07,1.25.08,2.4.34,3.68.31.39-.67,1.14-4.43,1.32-5.46,1.22-7.07,8.84-9.58,15.34-6.42-1.23.6-2.08.01-3.55-.18-4.63-.59-8.42,1.73-9.94,6.13-1.07,3.08.2,5.26-2.17,8.08-4.12.13-8.24.15-12.35.06-.9-.01-2.19.05-3.04-.07-8.3-1.27-7.53,8.63-8.69,14.58Z"/>
  <path class="cls-41" d="M373.18,19.74c4.13.12,8.26.08,12.39.15,3.42.06,7.32-.17,9.95,2.39-1.22,1.21-.56-.63-1.66,1.8-.74.09-1.99-.67-2.7-1.06-3.74-.24-13.49-.51-17.05-.02-.3,0-.98-.1-1.31-.14-.1-1.05-.47-1.89-.19-2.88l.56-.24Z"/>
  <path class="cls-30" d="M374.11,23c3.56-.49,13.3-.22,17.05.02-1.68.38-3.84,2.87-5.69,3.24h0s-.14-.15-.14-.15c.58-1.12,1.45-1.84,2.36-2.73-4.81-.35-9.34-.04-13.59-.38Z"/>
  <path class="cls-33" d="M422.09,135.2c1.31-17.23,3.1-34.6,4.47-51.85l.11-.03c.25,4.38-1.1,9.88-.96,14.42.06,1.91-.86,4.21-.43,6.28.4-1.33.56-4.89.7-6.49l1.13-12.53c.3-3.43.47-8.2,1.55-11.33-.23,5.03-.95,10.99-1.42,16.11l-2.48,26.51-1.04,10.38c-.18,1.67-.67,5.55-.63,7.06-.44.52-.76.85-1.02,1.48Z"/>
  <path class="cls-30" d="M415.38,202.56c-1.35-.68-9.83-.57-13.51-2.52l-.06-.32c2.09-.74,10.41,0,13.58-.22l.27-.02c-.04.46-.19,2.77-.28,3.08Z"/>
  <path class="cls-25" d="M392.01,17.74c12.38-.06,24.96.76,37.35.87,1.54.01,8.42.08,9.58.46.94,1.36,4.18,1.03,5.54,5.65.52,5.43-.72,14.4-1.22,20.19l-3.27,37.74-7.53,83.23-4.79,54.54c-.49,5.19-.97,10.56-1.3,15.75-.3,4.69-4.82,8.56-9.31,8.52-50.38-.46-100.88-3.43-151.2-6.02-3.84-.2-7.75.13-10.01-3.64-1.4-1.98-.94-5.57-.9-7.91,3.31-1.49,6.13-2.59,9.25-4.48l1.57-.88c8.35-4.68,16.24-10.13,23.58-16.27,1.13.43,1.53.63,2.77.75,5.96.38,11.92.57,17.89.56,2.69.74,12.68-.05,15.86.68-1.67.05-2.99.03-4.67-.04-1.81,3.29-14.48,16.38-14.91,18.57l.1.19,61.94,3.33c12.84.73,28.8,2.11,41.46,2.03,1.39-.89,1.99-1.53,2.98-2.8.19-1.13.32-2.19.43-3.33.74-7.62,1.58-15.22,2.19-22.86.09-.31.25-2.62.28-3.08.42-2.06.7-5.73.91-7.94l1.38-14.02c1.49-14.09,2.87-28.2,4.13-42.32.26-.64.58-.96,1.02-1.48-.04-1.51.45-5.4.63-7.06l1.04-10.38,2.48-26.51c.47-5.12,1.18-11.08,1.42-16.11.62-8.88,1.89-17.96,2.56-26.86.2-2.63,1.01-8.96.74-11.32-1.41-1.4-10.44-1.1-12.75-1.14-6.58-.18-13.15-.31-19.73-.37-.19-4.75,1.73-6.94-.83-12.12-1.5-1.94-2.41-2.5-4.48-3.87-.82,0-1.42.06-2.18-.25Z"/>
  <path class="cls-45" d="M289.35,205.48c1.13.43,1.53.63,2.77.75,5.96.38,11.92.57,17.89.56,2.69.74,12.68-.05,15.86.68-1.67.05-2.99.03-4.67-.04-1.81,3.29-14.48,16.38-14.91,18.57l.1.19c-4.55-.01-11.07-.57-15.72-.83l-24.63-1.34c-.05-.7-.18-1.56-.27-2.27,8.35-4.68,16.24-10.13,23.58-16.27Z"/>
  <path class="cls-39" d="M422.09,135.2c.26-.64.58-.96,1.02-1.48-3.38,31.56-5.16,63.7-8.69,95.27-.11.96-3.25,4.77-4.03,5.75-5.33.4-12.86-.43-18.42-.74-11.45-.57-22.89-1.23-34.33-1.97-2.04-.13-13.06-1.05-14.15-.89-17.09-1.08-34.18-2.27-51.26-3.57-7.83-.56-18.62-.9-25.98-1.88-.19-.57-.17-1.07-.2-1.67l24.63,1.34c4.64.26,11.16.82,15.72.83l61.94,3.33c12.84.73,28.8,2.11,41.46,2.03,1.39-.89,1.99-1.53,2.98-2.8.19-1.13.32-2.19.43-3.33.74-7.62,1.58-15.22,2.19-22.86.09-.31.25-2.62.28-3.08.42-2.06.7-5.73.91-7.94l1.38-14.02c1.49-14.09,2.87-28.2,4.13-42.32Z"/>
  <path class="cls-42" d="M392.01,17.74c12.38-.06,24.96.76,37.35.87,1.54.01,8.42.08,9.58.46.94,1.36,4.18,1.03,5.54,5.65-.44.95.12-.09-.34.56-.23.32-3.13-1.94-3.76-2.3-1.95-1.13-4.51-.98-6.73-1.02-11.73-.21-23.25-.54-34.99-.1-1.5-1.94-2.41-2.5-4.48-3.87-.82,0-1.42.06-2.18-.25Z"/>
  <path class="cls-6" d="M266.24,225.68c7.37.97,18.15,1.31,25.98,1.88,17.08,1.3,34.16,2.49,51.26,3.57-3.52,1.23-30.51-2.42-35.74-2.05-5.2.37-7.68-2.47-13,1.26,3.45-.11,14.23.84,17.66,1.3-1.45.04-2.97,0-4.42-.11-11.86-.82-23.83-1.08-35.63-2.56-3.28-.41-4.38.07-6.46-2.61l.34-.69Z"/>
  <path class="cls-6" d="M254.95,227.11c3.31-1.49,6.13-2.59,9.25-4.48l.04.61-3.3,1.9c-.52,1.58-2.64,4.37-4.51,4.18-.28-.52-.26-.48-.32-1.08-1.39.56-.49,5.48-.27,6.78-1.4-1.98-.94-5.57-.9-7.91Z"/>
  <path class="cls-2" d="M264.2,222.63l1.57-.88c.09.71.22,1.57.27,2.27.02.6,0,1.1.2,1.67l-.34.69-.13-.77c-1.09-.92-1.37-1-1.53-2.36l-.04-.61Z"/>
  <path class="cls-6" d="M438.93,19.07c15.11,1.46,14.11,9.44,13.11,21.84l-1.45,17.27-4.18,48.53-9.71,109.76c-.68,7.5-1.27,14.98-1.77,22.5-.22,3.24-1.05,5.92-3.6,8.07-4.51,3.81-10.46,2.75-16,2.5l-13.7-.62c-15.9-.6-31.79-1.32-47.68-2.17l-62.42-2.73c-9.41-.44-18.96-.77-28.38-1.44-3.56-.26-6.53-1.48-8.83-4.27-2.94-3.58-1.28-7.21-1.78-10.02.65-.09,1.81-.81,2.41-1.16-.03,2.35-.5,5.94.9,7.91,2.26,3.76,6.17,3.44,10.01,3.64,50.32,2.59,100.82,5.56,151.2,6.02,4.49.04,9.01-3.83,9.31-8.52.33-5.18.81-10.56,1.3-15.75l4.79-54.54,7.53-83.23,3.27-37.74c.5-5.8,1.74-14.77,1.22-20.19-1.36-4.62-4.6-4.28-5.54-5.65Z"/>
  <path class="cls-25" d="M278.2,20.03c2.6-3.22,5.74-3.72,9.71-3.66,15.34.25,30.68.1,46.02.11-2.67.39-5.2,1.46-6.93,3.62-1.65,3.85-3.04,10.95-3.17,15.15-.15-1.16-.18-1.57-.15-2.76l-20.81-.36c-3.48-.09-12.74-.82-15.46.47-.89.91-1.2,1.69-1.33,2.97-.88,8.27-1.74,16.61-2.62,24.87l-5.43,50.77c-1.31,11.79-2.55,23.58-3.72,35.38-.18,1.7-1.85,15.68-1.43,16.38-2.66,1.66-3.84,1.94-5.59,4.67-2.37.82-6.06,1.9-8.19,2.88,3.52-34.71,7.49-69.37,11.9-103.98l3.28-27.38c.58-4.86,1.06-15.66,3.92-19.16Z"/>
  <path class="cls-42" d="M278.2,20.03c2.6-3.22,5.74-3.72,9.71-3.66,15.34.25,30.68.1,46.02.11-2.67.39-5.2,1.46-6.93,3.62-13.44.56-27.33-.52-40.79-.42-4.2.03-5.78,4.32-7.15,7.61-.21-.95-.74-2.93-.39-3.78.92-2.2.39-3.71,2.45-5.06l-.35-.14c-.88.69-1.55,1.24-2.58,1.73Z"/>
  <path class="cls-27" d="M303.2,80.76l-.4.8c-.77,1.54,1.05,2.95,2.36,1.82,6.58-5.74,14.4-9.9,22.82-12.22l-1.69-2.2c-1.71,2.32-3.81,4.32-5.89,6.31-2.23,2.12-4.46,4.24-6.68,6.37-1.42,1.35.66,3.35,2.12,2.12,4.7-3.95,9.61-8,15.71-9.47l-1.85-1.85c-.81,1.98-1.63,3.96-2.44,5.94-.61,1.48,1.51,2.38,2.51,1.46,3.39-3.13,7.38-5.51,11.75-6.98l-1.69-2.2c-1.16,2.47-2.32,4.95-3.47,7.42-.62,1.32.66,2.81,2.05,2.05,1.81-.99,3.61-1.98,5.42-2.96l2.82-1.54c.8-.44,1.64-1.05,2.51-1.34.27-.09.66-.2.68-.09.02.18-.33.77-.36.99-.11.69.05,1.48.57,1.98,1.31,1.28,3.13-.05,4.41-.68l-2.2-1.69c-.48,2.64,1.97,4.44,4.46,3.88,1.21-.27,2.18-1.03,3.28-1.53.14-.06.86-.19.97-.29.28.03.28-.07,0-.3-.19-.44-.29-.37-.31.19-.33.69-.41,1.63-.6,2.38-.32,1.26,1.06,2.35,2.2,1.69,1.33-.76,2.7-1.44,4.14-1.98.48-.18,1.43-.72,1.93-.63.42.08.4.46.44.98.07.89.91,1.81,1.9,1.45,1.06-.39,2.13-.78,3.19-1.17.21-.08.43-.16.64-.23.56-.1.44-.25-.36-.45-.08.08.32.97.35,1.04.89,1.76,2.64,1.53,4.22.98,4.29-1.51,8.76-2.02,13.28-1.55,1.92.2,1.9-2.8,0-3-4.43-.46-8.96-.01-13.2,1.36-.47.15-1.02.28-1.47.51-.16.06-.31.11-.48.14.31.23.39.19.22-.14.03-.62-.73-1.47-1.24-1.74-.85-.44-1.71-.2-2.55.1-1.14.41-2.27.83-3.4,1.25l1.9,1.45c-.18-2.1-1.12-4.26-3.6-3.99s-5.25,1.77-7.42,3.02l2.2,1.69c.52-2.07,1.93-5.43-1.2-6.01-1.21-.23-2.39.2-3.46.74-.54.28-1.05.63-1.61.88-.15.07-1.62.5-1.54.07.24-1.32-.98-2.29-2.2-1.69-.38.18-1,.35-1.31.64-.61.22-.34.61.79,1.17.14-.22.25-.45.34-.69.27-.72.27-1.47-.09-2.18-.86-1.69-2.88-1.99-4.51-1.36-1.88.72-3.65,1.9-5.41,2.87-1.95,1.07-3.9,2.13-5.85,3.2l2.05,2.05c1.16-2.47,2.32-4.95,3.47-7.42.51-1.09-.35-2.66-1.69-2.2-4.87,1.64-9.29,4.26-13.07,7.75l2.51,1.46c.81-1.98,1.63-3.96,2.44-5.94.46-1.12-.85-2.09-1.85-1.85-6.61,1.59-11.94,5.96-17.04,10.25l2.12,2.12c4.46-4.24,9.38-8.3,13.04-13.28.81-1.09-.52-2.53-1.69-2.2-8.92,2.46-17.17,6.91-24.14,12.99l2.36,1.82.4-.8c.86-1.72-1.73-3.24-2.59-1.51h0Z"/>
  <path class="cls-27" d="M303.09,112.15c2.03-4.08,4.81-7.55,8.35-10.44.63-.51.53-1.59,0-2.12-.62-.62-1.49-.51-2.12,0-3.68,3-6.71,6.8-8.82,11.04-.36.72-.19,1.62.54,2.05.66.39,1.69.19,2.05-.54h0Z"/>
  <path class="cls-27" d="M310.29,99.38c-1.44,2.39-2.91,4.88-3.35,7.68-.1.62.02,1.18.54,1.58s1.1.38,1.67.12c2.34-1.1,4.49-2.56,6.41-4.29l-2.51-1.46c-.23,1.18-.39,2.41.23,3.51s1.87,1.69,3.12,1.43c.77-.16,1.29-1.11,1.05-1.85-.26-.81-1.02-1.22-1.85-1.05.22-.02.25-.03.08-.02.21.03.26.04.14,0-.11-.03-.07-.02.11.05-.11-.07-.12-.08-.03,0,.09.08.09.07-.01-.03-.11-.12-.1-.11.02.04l-.06-.09c-.08-.15-.07-.13.02.06-.06-.03-.06-.48-.05-.14,0-.14-.01-.27,0-.41,0-.09.05-.42,0-.15.03-.18.07-.37.1-.55.13-.63-.08-1.37-.69-1.69s-1.3-.23-1.82.23c-.23.21-.47.41-.71.61-.1.09-.21.17-.31.26-.04.03-.47.37-.22.18-.46.35-.93.69-1.42,1.01-1.01.66-2.06,1.25-3.15,1.76l2.2,1.69c.1-.66.26-1.31.47-1.94.1-.3.21-.59.32-.87.07-.16.07-.16,0-.01.04-.08.07-.16.11-.24.06-.14.13-.28.2-.43.57-1.19,1.26-2.33,1.94-3.47.41-.67.17-1.68-.54-2.05s-1.62-.18-2.05.54h0Z"/>
  <path class="cls-27" d="M316.73,105.86l.17,1.45c.06.49.19.87.59,1.18.36.28.86.42,1.31.27,2.6-.9,4.96-2.23,7.1-3.97l-2.51-.66c.02.08.15.58.04.19.03.11.02.25.03.36.02.26.01.52,0,.78,0,.14-.02.28-.04.42.04-.26,0-.08-.02.08-.06.28-.13.54-.22.81-.25.75.29,1.67,1.05,1.85.83.19,1.58-.25,1.85-1.05.45-1.37.49-2.82.21-4.23-.1-.5-.57-.92-1.05-1.05-.56-.15-1.03.04-1.46.39-.12.1-.24.2-.36.29.31-.23-.1.07-.16.11-.25.18-.5.36-.76.53-.48.32-.97.62-1.48.91s-1.02.54-1.55.78c-.14.06-.28.13-.42.19.37-.15-.11.04-.18.07-.29.11-.58.22-.87.32l1.9,1.45-.17-1.45c-.05-.41-.14-.76-.44-1.06-.26-.26-.69-.46-1.06-.44-.74.03-1.6.67-1.5,1.5h0Z"/>
  <path class="cls-27" d="M327.58,108.48c2-.57,3.73-1.88,4.85-3.63.42-.66.16-1.68-.54-2.05-.74-.39-1.6-.17-2.05.54-.11.17-.23.34-.35.5l.23-.3c-.37.47-.79.89-1.26,1.25l.3-.23c-.47.36-.99.66-1.53.9l.36-.15c-.26.11-.53.21-.81.28-.37.1-.7.36-.9.69s-.27.8-.15,1.16c.25.77,1.04,1.28,1.85,1.05h0Z"/>
  <path class="cls-27" d="M331.28,106.28c.54.85,1.48,1.35,2.48,1.34s1.95-.5,2.47-1.36c.2-.33.25-.79.15-1.16-.1-.35-.36-.73-.69-.9-.35-.18-.77-.28-1.16-.15s-.69.35-.9.69c-.02.04-.05.08-.08.11l.23-.3c-.07.08-.14.16-.23.22l.3-.23c-.09.06-.18.12-.28.16l.36-.15c-.13.05-.25.09-.39.11l.4-.05c-.14.02-.29.02-.43,0l.4.05c-.13-.02-.26-.05-.39-.11l.36.15c-.1-.04-.19-.1-.28-.16l.3.23c-.09-.07-.16-.14-.23-.23l.23.3s-.04-.06-.06-.09c-.21-.33-.52-.59-.9-.69s-.84-.05-1.16.15-.6.51-.69.9-.07.81.15,1.16h0Z"/>
  <path class="cls-27" d="M337.47,104.58c.28,1.37,1.51,2.6,2.9,2.83.85.14,1.65.02,2.43-.36.64-.31,1.22-.88,1.55-1.5.37-.69.2-1.66-.54-2.05s-1.66-.2-2.05.54c-.06.11-.12.2-.19.3l.23-.3c-.12.16-.26.29-.42.42l.3-.23c-.16.12-.33.22-.51.3l.36-.15c-.19.07-.37.13-.57.16l.4-.05c-.2.02-.39.02-.59,0l.4.05c-.17-.03-.34-.08-.5-.14l.36.15c-.18-.08-.34-.18-.5-.29l.3.23c-.15-.12-.29-.26-.41-.41l.23.3c-.12-.15-.22-.32-.3-.5l.15.36c-.06-.14-.11-.29-.14-.44-.07-.35-.39-.72-.69-.9-.32-.19-.8-.27-1.16-.15-.82.26-1.21,1.02-1.05,1.85h0Z"/>
  <path class="cls-27" d="M365.99,112.37c3.9-3.12,7.85-6.17,11.84-9.15l-2.2-1.69c-.32,1.4-.64,2.8-.97,4.2-.29,1.25-.92,2.79-.62,4.07s1.51,1.95,2.72,1.85c1.42-.11,2.31-1.17,3-2.31.99-1.66-1.6-3.17-2.59-1.51-.15.25-.29.53-.51.74-.38.37-.09-.04.02.13l-.15-.04c.2.04.32.15.36.34.15.07.04.39.13-.1.08-.44.2-.88.3-1.31.4-1.75.81-3.5,1.21-5.25.26-1.14-1.08-2.53-2.2-1.69-4.2,3.14-8.35,6.35-12.45,9.62-.63.51-.53,1.59,0,2.12.63.63,1.49.51,2.12,0h0Z"/>
  <path class="cls-27" d="M381.64,110.04c2.4-.25,4.8-.6,7.17-1.06.77-.15,1.28-1.12,1.05-1.85-.27-.82-1.02-1.21-1.85-1.05-1.1.21-2.2.4-3.31.57-.28.04-.56.08-.85.12-.33.05.24-.03-.12.02-.13.02-.26.03-.39.05-.57.07-1.13.13-1.7.19-.78.08-1.54.63-1.5,1.5.03.74.66,1.59,1.5,1.5h0Z"/>
  <path class="cls-27" d="M358.49,158.66c1.26-1.33,2.59-2.59,3.99-3.77.33-.28.67-.55,1-.82.1-.08.2-.16.3-.24.05-.04.18-.14.06-.05.18-.14.36-.28.55-.41.75-.56,1.53-1.1,2.31-1.62.65-.43.99-1.35.54-2.05-.42-.65-1.35-1-2.05-.54-3.21,2.12-6.18,4.59-8.82,7.38-.54.57-.61,1.56,0,2.12s1.55.61,2.12,0h0Z"/>
  <path class="cls-27" d="M365.77,149.45c-.44,1.38-.89,2.75-1.33,4.13-.31.98-.53,2.09.18,2.96s1.96.94,2.91.37c.55-.33,1.05-.8,1.56-1.19.3-.23,1.01-.88,1.19-.86l-1.06-.44c-.03-.89-.17-1.05-.42-.46-.14.23-.28.45-.43.68-.28.45-.57.9-.85,1.35-.96,1.52,1.12,2.86,2.36,1.82,1.17-.98,2.26-2.04,3.28-3.18l-1.82.23c.2.12.37.28.5.48.49.7,1.28.93,2.05.54.47-.23.93-.42,1.43-.57.26-.07,1.22-.42,1.47-.26,0,0,.05-.07.07.32.01.34-.06.67-.14,1-.32,1.37,1.47,2.65,2.51,1.46,2.19-2.5,4.47-4.91,6.85-7.23l-2.36-1.82c-1.7,3.4-3.14,6.92-4.29,10.55-.46,1.47,1.47,2.47,2.51,1.46,1.2-1.16,2.45-1.82,4.03-2.29,1.45-.43,2.72-.99,3.58-2.29,1.06-1.62-1.53-3.12-2.59-1.51-.61.93-2.39,1.04-3.35,1.42-1.44.58-2.68,1.47-3.79,2.54l2.51,1.46c1.07-3.38,2.4-6.66,3.98-9.83.74-1.49-1.09-3.05-2.36-1.82-2.38,2.32-4.66,4.73-6.85,7.23l2.51,1.46c.38-1.6.45-3.7-1.15-4.69-1.77-1.09-4.43-.04-6.09.8l2.05.54c-.45-.64-.92-1.12-1.57-1.56-.52-.35-1.4-.23-1.82.23-1.02,1.14-2.11,2.2-3.28,3.18l2.36,1.82c.69-1.09,2.04-2.55,1.9-3.91-.15-1.51-1.71-2.08-2.97-1.5-.6.28-1.11.76-1.63,1.16-.27.21-.55.43-.82.64-.18.15-.37.29-.57.42l1.11.72c.1-.06.31-1,.34-1.09l.4-1.24.8-2.48c.59-1.84-2.3-2.63-2.89-.8h0Z"/>
  <path class="cls-27" d="M390.09,156.94c.37.35.81.61,1.3.75.52.15,1.01.13,1.54.05.13-.02.26-.05.39-.09.23-.08.48-.18.69-.31.44-.27.81-.63,1.07-1.07.2-.33.25-.78.15-1.16-.1-.35-.36-.73-.69-.9-.35-.18-.77-.28-1.16-.15s-.69.35-.9.69c-.03.06-.07.11-.11.16l.23-.3c-.08.1-.17.19-.27.27l.3-.23c-.12.09-.25.16-.38.22l.36-.15c-.16.07-.32.11-.49.13l.4-.05c-.16.02-.32.02-.48,0l.4.05c-.16-.02-.31-.06-.46-.12l.36.15c-.12-.05-.23-.12-.33-.19l.3.23s-.08-.07-.12-.11c-.28-.27-.67-.44-1.06-.44-.37,0-.81.16-1.06.44s-.46.66-.44,1.06.15.78.44,1.06h0Z"/>
  <path class="cls-27" d="M356.72,130.73c-.17,1.85,1.63,3.33,3.41,3.05s2.84-2.06,2.77-3.79c-.05-1.38-1.57-1.88-2.56-1.06-2.07,1.7-3.09,5.31-.28,6.91,1.23.7,2.72.45,3.91-.2,1.37-.74,2.14-2.15,3.43-2.98h-1.51c1.76.89,2.83,2.93,5.12,2.33,1.19-.31,2.17-1.26,3.08-2.04,1.04-.89,2.02-1.85,2.95-2.85,1.35-1.46-.63-3.28-2.12-2.12-2.55,1.99-5.5,7.08-2.71,10.04,1.48,1.57,3.54.96,4.99-.29,1.75-1.5,3.38-2.84,5.48-3.85l-2.05-2.05c-.57,1.24-.14,2.63,1.22,3.1.7.24,1.48.06,2.1-.31.26-.16.5-.39.73-.58.13-.12.26-.24.4-.35-.32-.06-.38-.01-.17.13,1.04.97,2.09,1.59,3.57,1.29s2.68-1.3,3.68-2.34l-2.36-.3c.48.67.96,1.34,1.44,2.01,1.11,1.56,3.72.06,2.59-1.51-.48-.67-.96-1.34-1.44-2.01-.55-.76-1.63-1.05-2.36-.3-.52.53-1.24,1.34-2.02,1.49s-1.1-.65-1.68-1.01c-.62-.39-1.38-.53-2.1-.33-.36.1-.68.3-.98.52-.2.15-.4.31-.58.48-.5.31-.31.52.57.63l-.15,1.16.11-.24c.64-1.38-.66-2.72-2.05-2.05s-2.59,1.41-3.77,2.31c-.38.29-2.53,2.57-2.97,2.4-.67-.26-.07-2.19.06-2.54.5-1.38,1.41-2.47,2.55-3.36l-2.12-2.12c-.69.74-1.39,1.46-2.14,2.14-.55.51-1.63,1.78-2.36,1.91-.98.18-2.09-1.55-3.02-1.96-1.74-.76-3.08,1.39-4.18,2.41-.35.32-1.45,1.24-1.85.53s.65-1.59,1.1-1.97l-2.56-1.06c0,.2-.21,1.04-.18.73.17-1.92-2.83-1.91-3,0h0Z"/>
  <path class="cls-27" d="M392.49,134.15c.56,1.91,2.43,3.33,4.44,3.28.39,0,.78-.16,1.06-.44.26-.26.46-.69.44-1.06s-.14-.79-.44-1.06-.66-.45-1.06-.44c-.16,0-.31,0-.47-.02l.4.05c-.25-.04-.5-.11-.74-.2l.36.15c-.26-.11-.51-.26-.74-.43l.3.23c-.2-.16-.38-.34-.54-.54l.23.3c-.16-.2-.29-.42-.39-.66l.15.36c-.04-.11-.08-.21-.11-.32-.11-.37-.36-.7-.69-.9s-.8-.27-1.16-.15-.71.34-.9.69-.27.76-.15,1.16h0Z"/>
  <path class="cls-27" d="M336.83,198.51c-2.34.19-4.05,1.89-4.19,4.25-.07,1.16,1.32,1.83,2.26,1.3,6.08-3.49,10.95-8.9,13.72-15.35.62-1.46-1.07-3.14-2.36-1.82-2.86,2.94-4.02,6.96-3.3,10.98.16.91,1.45,1.42,2.2.9,2.95-2.05,5.48-4.49,7.66-7.34.95-1.24-.85-2.77-2.05-2.05-2.83,1.68-4.84,4.51-5.36,7.78-.2,1.22.66,2.01,1.85,1.85,1.47-.2,2.6-1.04,3.44-2.23l-2.36.3c2.22,1.82,4.43.26,5.83-1.7l-2.05.54-.07.13c-.07.89,1.03,1.81,1.9,1.45.36-.15.72-.3,1.09-.45l-1.85-1.85-.24,1.33c-.27,1.5,1.33,2.45,2.51,1.46,2.13-1.81,4.26-3.61,6.39-5.42,1.75-1.48,3.59-2.9,3.75-5.37.1-1.57-2.04-1.92-2.8-.76-1.52,2.33-2.91,4.73-4.14,7.22-.63,1.28-1.23,2.58-1.78,3.89-.5,1.18-1.21,2.49-1.41,3.76-.16,1,.18,2.07,1.2,2.46,1.22.46,2.31-.47,3.14-1.26,1.76-1.65,2.96-3.85,3.46-6.2.33-1.56-1.35-2.36-2.51-1.46-1.39,1.07-1.64,3.14-.68,4.57.5.74,1.69,1.08,2.36.3.94-1.09,1.87-2.19,2.81-3.28l-2.12-2.12c-.59.76-1.12,1.62-1.07,2.62.06,1.14.94,2.02,2.09,2.07,1.26.05,2.06-.95,3.06-1.55,1.09-.65,2.29-.98,3.56-1.03l-1.3-.74c.14.3.29.6.43.9.32.67,1.44,1,2.05.54,2.69-2.02,5.35-4.07,8-6.13.37-.29.56-1.02.39-1.46-.43-1.07-1.42-1.81-2.64-1.44-1.32.41-2.03,2.01-2.68,3.1-1.55,2.61-2.8,5.38-3.82,8.24-.55,1.57,1.46,2.29,2.51,1.46,1.63-1.29,2.75-2.94,3.52-4.86.44-1.09-.84-2.13-1.85-1.85-1.71.48-2.11,2.72-.84,3.9,1.65,1.53,3.79-.04,4.32-1.8l-2.51.66c1.94,1.88,4.75,1.87,6.82.24l-1.46.39c.64.18.96.52,1.24,1.1.23.48.79.72,1.3.74l3.99.15c1.93.07,1.93-2.93,0-3l-3.99-.15,1.3.74c-.6-1.23-2.13-2.71-3.63-2.5-.66.09-1.06.66-1.75.75-.65.08-1.23-.13-1.69-.58-.82-.8-2.18-.42-2.51.66-.19.28-.08.43.35.47.7.18.66.55-.15,1.12l-1.85-1.85c-.58,1.43-1.55,2.58-2.75,3.53l2.51,1.46c.6-1.7,1.3-3.37,2.12-4.98.4-.8.83-1.58,1.28-2.35.19-.32.38-.64.58-.96.12-.19.24-.38.36-.57.43-.43.3-.55-.39-.37l-.69-.9.09.22.39-1.46c-2.45,1.91-4.92,3.79-7.4,5.66l2.05.54c-.14-.3-.29-.6-.43-.9-.22-.45-.81-.76-1.3-.74-1.4.06-2.73.34-4.02.9-.61.27-1.17.58-1.71.97-.1.07-.77.46-.77.6l.8.91c.05-.13.11-.25.19-.37,1.16-1.48-.84-3.61-2.12-2.12-.94,1.09-1.87,2.19-2.81,3.28l2.36.3c-.29-.43-.18-.64.21-.94l-2.51-1.46c-.35,1.62-1.03,3.12-2.16,4.34-.13.15-1.11.89-1.1,1.03l1.29.91c.07-.19.14-.39.22-.58.35-.93.72-1.86,1.12-2.77,1.58-3.65,3.49-7.16,5.66-10.49l-2.8-.76c-.06.87-.84,1.5-1.45,2.04-.83.74-1.7,1.44-2.54,2.16-1.75,1.49-3.51,2.98-5.26,4.46l2.51,1.46.24-1.33c.18-.98-.68-2.33-1.85-1.85-.36.15-.72.3-1.09.45l1.9,1.45c.09-1.17-.49-2.07-1.42-2.72-.71-.49-1.61-.08-2.05.54-.1.14-.92,1.26-1.12,1.09-.79-.65-1.76-.54-2.36.3-.4.57-.98.76-1.65.85l1.85,1.85c.41-2.53,1.77-4.67,3.98-5.99l-2.05-2.05c-1.85,2.42-4.09,4.53-6.59,6.26l2.2.9c-.53-2.93.46-5.94,2.53-8.06l-2.36-1.82c-2.57,6.01-6.96,11.01-12.64,14.27l2.26,1.3c.04-.63.54-1.2,1.19-1.25,1.91-.16,1.93-3.16,0-3h0Z"/>
</svg>